<svg xmlns="http://www.w3.org/2000/svg" xmlns:xlink="http://www.w3.org/1999/xlink" viewBox="0 0 900 600"><defs><style>.cls-1{fill:none;}.cls-2{clip-path:url(#clip-path);}.cls-3{fill:#ba88db;}.cls-4{fill:#d5a8ed;}.cls-5{clip-path:url(#clip-path-2);}.cls-6{fill:#f2deff;}.cls-7{fill:#fff;}.cls-8{fill:#5f55a8;}.cls-9{fill:#f1d6ff;}.cls-10{clip-path:url(#clip-path-3);}.cls-11{opacity:0.5;}.cls-12{fill:#006c78;}.cls-13{fill:#fff1ee;}.cls-14{fill:#f3d8be;}</style><clipPath id="clip-path"><rect id="SVGID" class="cls-1" x="-1056.3" y="741.07" width="1051.42" height="613.33" transform="translate(-1061.18 2095.46) rotate(-180)"/></clipPath><clipPath id="clip-path-2"><rect id="SVGID-2" data-name="SVGID" class="cls-1" x="-10" y="-3.47" width="1051.42" height="613.33" transform="translate(1031.42 606.4) rotate(-180)"/></clipPath><clipPath id="clip-path-3"><rect class="cls-1" x="-1126.54" y="-4.05" width="1096.92" height="607.88"/></clipPath></defs><g id="Capa_2" data-name="Capa 2"><g class="cls-2"><path class="cls-3" d="M-295,1043.45c80.88,40.28,181.21,37.69,260.86-5,192.38-103.06,209.47-391,26.66-514.54-95.53-64.54-231-64.68-325.12,2C-397.09,571.61-438.4,647-446.44,725.3c-7.71,75,4.53,162.9,47.18,226C-373,990.15-337,1022.52-295,1043.45Z"/></g><rect class="cls-4" x="-10" y="-3.47" width="1051.42" height="613.33" transform="translate(1031.42 606.4) rotate(-180)"/><g class="cls-5"><path class="cls-3" d="M-257.91,955.34c109.87,54.72,246.16,51.2,354.36-6.76,261.34-140,284.55-531.17,36.21-699C2.9,161.94-181.19,161.74-309,252.27c-87.67,62.11-143.77,164.57-154.71,270.88-10.47,101.85,6.16,221.29,64.1,307C-363.95,882.94-315,926.91-257.91,955.34Z"/><path class="cls-3" d="M751.34,298.92c80.88,40.28,181.21,37.69,260.86-5,192.38-103.06,209.47-391,26.66-514.54-95.53-64.54-231-64.68-325.12,2C649.21-172.92,607.9-97.49,599.86-19.24c-7.71,75,4.53,162.91,47.18,226C673.28,245.62,709.33,278,751.34,298.92Z"/><path class="cls-6" d="M103,539.23a6.18,6.18,0,0,1-.2,1.53L87.09,599.88a20.65,20.65,0,0,1-25.26,14.64L2.71,598.79a5.91,5.91,0,0,1-4.19-7.23l3.19-12c-4-1.72-7.16-5.32-9-10.32a31.45,31.45,0,0,1-.42-18.66c3.4-12.79,13.22-21.49,22.56-20.46l3.18-12A5.91,5.91,0,0,1,25.27,514l14.18,3.78-.52,2c-2,7.7,5.67,16.53,17.23,19.61A27.47,27.47,0,0,0,72.4,539c4.5-1.63,7.5-4.52,8.46-8.14l.52-1.94,17.26,4.59a5.91,5.91,0,0,1,4.39,5.69ZM2.36,593.08a1.89,1.89,0,0,0,1.39,1.81l59.12,15.73a16.6,16.6,0,0,0,20.32-11.78l15.74-59.12a1.86,1.86,0,0,0-.19-1.42,1.83,1.83,0,0,0-1.14-.86l-13.5-3.6c-1.72,4-5.32,7.16-10.32,9a31.53,31.53,0,0,1-18.66.43c-12.79-3.41-21.58-13.17-20.46-22.56l-10.42-2.78A1.88,1.88,0,0,0,22,519.24L17.77,535l-1.95-.52C8.08,532.37-.72,540.1-3.79,551.66a27.43,27.43,0,0,0,.31,16.25c1.63,4.49,4.52,7.49,8.14,8.45l1.94.52L2.43,592.6A1.59,1.59,0,0,0,2.36,593.08Z"/><path class="cls-6" d="M123.85,487.38a5.91,5.91,0,0,1-3.79,5.52l-11.55,4.45c.95,4.26-.1,8.92-3.08,13.33A31.53,31.53,0,0,1,90.58,522c-12.36,4.76-25.18,1.92-29.82-6.25l-11.55,4.45a5.91,5.91,0,0,1-7.63-3.39l-5.27-13.69,1.88-.73c7.48-2.88,10.06-14.31,5.77-25.46a27.46,27.46,0,0,0-9.79-13c-4-2.68-8.07-3.42-11.56-2.07l-1.88.72-6.42-16.67a5.94,5.94,0,0,1,3.39-7.63l57.1-22a20.67,20.67,0,0,1,26.68,11.85l22,57.09A5.84,5.84,0,0,1,123.85,487.38ZM103.43,495l15.18-5.84a1.87,1.87,0,0,0,1.08-2.42l-22-57.09a16.63,16.63,0,0,0-21.47-9.54l-57.1,22a1.86,1.86,0,0,0-1.07,2.42l5,13c4.26-1,8.92.1,13.32,3.08a31.51,31.51,0,0,1,11.3,14.86c4.74,12.36,1.91,25.17-6.25,29.81l3.87,10.07a1.88,1.88,0,0,0,2.42,1.07l15.18-5.84.72,1.88c2.88,7.47,14.3,10.06,25.47,5.76a27.43,27.43,0,0,0,13-9.78c2.68-4,3.43-8.08,2.07-11.56Z"/><path class="cls-6" d="M583.73,580.55,574.81,600l-1.79-.74c-17.79-7.38-31.93-3.78-38.77-1a11.09,11.09,0,0,1-12.4-2.82L481,550.21l3.91-8.5,60.9,1.59A11.11,11.11,0,0,1,556,550.88c2.33,7,8.8,20.09,26,28.8Zm-11,14.21,5.69-12.39c-17.18-9.35-23.81-22.86-26.26-30.22a7.07,7.07,0,0,0-6.5-4.82l-58.24-1.51-1.68,3.66,39.07,43.22a7,7,0,0,0,7.88,1.8C539.9,591.56,554.48,587.8,572.76,594.76Z"/><path class="cls-6" d="M533.19,569.07a10,10,0,1,1-4.91-13.28A10,10,0,0,1,533.19,569.07Zm-14.51-6.68a6,6,0,1,0,7.92-2.93A6,6,0,0,0,518.68,562.39Z"/><rect class="cls-6" x="498.79" y="536.53" width="4.03" height="35.29" transform="translate(-211.9 777.72) rotate(-65.31)"/><path class="cls-6" d="M591.36,584.41l-8.65,18.82A6.29,6.29,0,1,1,571.28,598l8.65-18.81a6.29,6.29,0,1,1,11.43,5.25ZM575,599.66a2.26,2.26,0,1,0,4.1,1.88l8.65-18.81a2.26,2.26,0,1,0-4.1-1.89Z"/><path class="cls-6" d="M517.84,638.84l-1.69,3.67A70.58,70.58,0,0,1,481.55,549l3.66,1.69A66.54,66.54,0,0,0,517.84,638.84Z"/><path class="cls-6" d="M577.85,508.32,576.16,512A66.55,66.55,0,0,0,488,544.61l-3.66-1.68A70.58,70.58,0,0,1,577.85,508.32Z"/><rect class="cls-6" x="427.45" y="544.62" width="114.81" height="4.03" transform="translate(-214.34 758.82) rotate(-65.31)"/><path class="cls-6" d="M517.34,488.81l-4.48,9.74-9.74-4.48,4.48-9.74Zm-6.46,4.39,1.11-2.41-2.41-1.11-1.11,2.41Z"/><path class="cls-6" d="M466.59,599.2l-4.48,9.74-9.74-4.48,4.48-9.74Zm-6.46,4.39,1.11-2.41-2.41-1.11-1.11,2.41Z"/><path class="cls-6" d="M584.92,513.79a5.56,5.56,0,1,1-2.73-7.38A5.58,5.58,0,0,1,584.92,513.79Zm-6.45-3a1.53,1.53,0,1,0,2-.75A1.54,1.54,0,0,0,578.47,510.82Z"/><path class="cls-6" d="M887.36,444.05l28.52,59.2a15.22,15.22,0,0,1-7.09,20.28l-59.21,28.52A15.22,15.22,0,0,1,829.3,545l-28.52-59.2a15.21,15.21,0,0,1,7.1-20.28L867.08,437A15.22,15.22,0,0,1,887.36,444.05Zm-54.42,99.16a11.17,11.17,0,0,0,14.89,5.21L907,519.9A11.16,11.16,0,0,0,912.24,505L883.73,445.8a11.18,11.18,0,0,0-14.9-5.21l-59.2,28.52A11.16,11.16,0,0,0,804.42,484Z"/><path class="cls-6" d="M864.4,442l-17.55,58.5A12.83,12.83,0,0,0,854,515.94l33,14.37-1.61,3.7-33-14.37A16.86,16.86,0,0,1,843,499.35l17.55-58.51Z"/><path class="cls-6" d="M849.93,483.77l-1.46,3.76-10.38-4a16.88,16.88,0,0,1-10.24-19.78l2-8,3.92,1-2,8a12.86,12.86,0,0,0,7.78,15.05Z"/><path class="cls-6" d="M838.31,492.43a10.08,10.08,0,1,1-13.46-4.71A10.08,10.08,0,0,1,838.31,492.43Zm-14.53,7a6,6,0,1,0,2.82-8.08A6.05,6.05,0,0,0,823.78,499.43Z"/><path class="cls-6" d="M109.24,47.86l-1.95-3.52,151.51-84a8.19,8.19,0,0,0-1-6,5.33,5.33,0,0,0-5-2.87L93.27,19,91.7,15.26l160.18-67.7.33,0a9.42,9.42,0,0,1,9.08,4.83c2,3.45,2.34,8.11.7,10.59l-.27.41-.43.24Z"/><path class="cls-6" d="M37.68,36.54C43,27,53.07,23.23,68.44,25L68,29C54.22,27.42,45.7,30.44,41.2,38.51Z"/><path class="cls-6" d="M58.17,89.35v-4c24.1,0,27-24.52,27.28-27.32l4,.36C88.43,69.88,80.65,89.39,58.17,89.35Z"/><path class="cls-6" d="M84.19,57.59A97.52,97.52,0,0,1,66.33,27.71l-.15-.4a3.46,3.46,0,0,1,2-4.42l21.55-8.61a3.5,3.5,0,0,1,4.22,1.36l-1.45,1.48,1.71-1.07C97.28,21,105,33.65,110.11,45.29h0l.23.5A3.47,3.47,0,0,1,109,50.11l0,0L91.23,61A3.47,3.47,0,0,1,87,60.56l-1-1C85.53,59.06,84.9,58.4,84.19,57.59Zm4.92,0Zm-19-31.13A90.92,90.92,0,0,0,88.92,56.76l.57.58L106.7,46.79l-.28.12c-5-11.39-12.6-23.86-15.63-28.71Zm-.5.2h0Zm37.1,20.12a.57.57,0,0,0-.12.64l.42-.33-.22-.34Zm.11,0,.21.34,1.19-.95Zm-14.64-30-1.71,1.07a.73.73,0,0,0,.39.28Z"/><path class="cls-6" d="M26.31,81.79a5.22,5.22,0,0,1-1.19-2.2c-.61-2.35.84-4.66,1.71-6l.19-.31c.32-.51.63-1,.84-1.42a33.6,33.6,0,0,0,2.62-7.57,41.32,41.32,0,0,0,.72-6.47l.05-.74a37.69,37.69,0,0,1,.6-4.32c.2-1.15.41-2.3.51-3.46.36-4,1.06-8.22,3.72-11.44,1.85-2.23,5.1-4,8.2-2.85,3.51,1.27,4.64,5.27,4.54,8.31-.13,4.08-1.72,7.75-3.26,11.29-1.32,3.05-2.56,5.92-2.88,8.93A7.13,7.13,0,0,0,43,67.06a3,3,0,0,0,1.87,1.85c1.26.33,2.87-.53,4.41-1.44l4.37-2.58a9.09,9.09,0,0,1,4.82-1.65,6.56,6.56,0,0,1,6,5.36,9.13,9.13,0,0,1-2,7.22,15.27,15.27,0,0,1-6.77,4.79,20.17,20.17,0,0,1-2,.61,10.29,10.29,0,0,0-2.2.75,13.44,13.44,0,0,0,1.78-.11l.49-.06a10.15,10.15,0,0,1,2.89-.08,4.57,4.57,0,0,1,3.8,3,4.37,4.37,0,0,1-1.27,4.45A7.07,7.07,0,0,1,56,90.81c-4.86,1.2-9.7-.3-13.86-1.79-3.19-1.14-6.35-2.39-9.41-3.71-.32-.15-.69-.29-1.09-.44C29.9,84.2,27.7,83.35,26.31,81.79Zm3.93-6.09c-.41.67-1.39,2.21-1.22,2.89.3,1.06,2.65,2,4.07,2.51.45.18.87.34,1.24.5,3,1.29,6.06,2.51,9.16,3.63C47.1,86.52,51.26,87.82,55,86.9a3.34,3.34,0,0,0,1.44-.65.63.63,0,0,0,.2-.35,2,2,0,0,0-.56-.19,6.84,6.84,0,0,0-1.76.09l-.55.07c-5.38.62-6.75-1.32-6.95-3.05a4,4,0,0,1,1.41-3.43,10,10,0,0,1,4.49-2.07,15.24,15.24,0,0,0,1.63-.48,11.24,11.24,0,0,0,5-3.48,5.22,5.22,0,0,0,1.2-4,2.55,2.55,0,0,0-2.14-2.1,5.92,5.92,0,0,0-2.71,1.09l-4.37,2.58c-1.68,1-4.48,2.65-7.47,1.87a7,7,0,0,1-4.59-4.22,11,11,0,0,1-.62-5.5c.38-3.62,1.81-6.92,3.19-10.11,1.45-3.35,2.82-6.51,2.93-9.82.06-1.77-.49-3.9-1.89-4.39-1.19-.43-2.77.49-3.71,1.63-2,2.37-2.51,5.83-2.81,9.23-.11,1.27-.34,2.54-.56,3.8a32.15,32.15,0,0,0-.54,3.87l-.05.74a45.47,45.47,0,0,1-.81,7.08,37.86,37.86,0,0,1-2.93,8.48,20.82,20.82,0,0,1-1.06,1.81l-1.9-.78Z"/><path class="cls-6" d="M480.59,22.09l-1.52,3.73C463,19.28,456,8.1,449.83-1.76c-5-8-9.24-14.82-17.39-18.11-13.23-5.36-29.63-4.53-42.78,2.16C379.46-12.52,366-1.26,360,22.91c-4.19,16.69,1,36.65,13.12,50.83,9.23,10.78,21.05,16.37,32.42,15.34,12.34-1.13,18.9-5.14,25.85-9.39,8.48-5.18,17.26-10.55,36.54-11l.09,4c-18.19.38-26.5,5.46-34.53,10.37-7,4.29-14.31,8.73-27.59,10C393.2,94.25,380.14,88.15,370,76.36c-13-15.14-18.45-36.5-14-54.43,6.41-25.65,20.81-37.67,31.77-43.24C402-28.52,419.67-29.4,434-23.62c9.35,3.79,14.18,11.53,19.29,19.72C459.36,5.9,465.68,16,480.59,22.09Z"/><path class="cls-6" d="M475.8,39.91l-1,3.92c-4.95-1.25-17.06-4.39-29.34-8.36a13,13,0,0,1-.19,6.52A14.24,14.24,0,0,1,443,46.32c12.86,3.49,25.28,7.87,29,9.21l-1.36,3.8c-3.9-1.41-17.4-6.16-30.86-9.7-7.56,6.12-21.13,8.73-28.13,5.23A7.66,7.66,0,0,1,407.13,47a5,5,0,0,1,2.21-3.74c2.5-1.76,8.27-3.45,29.37,1.93a11,11,0,0,0,2.71-4.38,10.93,10.93,0,0,0-.59-6.86C416.68,25.73,412.24,20.75,411,17.7a5,5,0,0,1,.17-4.28,7.24,7.24,0,0,1,7.14-3.85c8.22.37,20.81,10.88,25.51,21.13C457,35.06,470.5,38.58,475.8,39.91Zm-61.15-24.2a1.41,1.41,0,0,0,.11.48c.61,1.53,4.16,5.65,23.4,12.55-5.2-8-14.64-14.9-20-15.14-2.18-.1-3,.92-3.39,1.7A1,1,0,0,0,414.65,15.71Zm-3.53,32.14a3.62,3.62,0,0,0,2.36,3.4c4.48,2.24,14.25,1.14,21.15-2.93-17.09-4.06-21.75-2.63-23-1.77a1,1,0,0,0-.51.81A3.91,3.91,0,0,0,411.12,47.85Z"/><path class="cls-6" d="M520.9,54.67a10.93,10.93,0,0,1-.54,3.39c-2.55,7.93-11,11.88-13.05,12.73l-.29.3h-3.33l.84-4.16,1,.21c.82-.33,8.82-3.65,11-10.32,1.69-5.25-3.28-9.37-5.49-10.9l-.58-.37,1-1.69-1.95-.4.63-2.61,2.37,1.21s.32.18.83.53C515.29,44,520.9,48.41,520.9,54.67Z"/><rect class="cls-6" x="474.82" y="71" width="4.03" height="8.86" transform="translate(341.51 538.85) rotate(-82.71)"/><rect class="cls-6" x="484.38" y="21.02" width="4.03" height="0.78" transform="translate(313.11 476.4) rotate(-71.67)"/><path class="cls-6" d="M508.65,68.31l-.82,2c-2.68,6.1-5.66,9.45-8.85,10l-.29,0-1.44-.18.5-4,.82.1c1.34-.41,3.47-2.65,5.73-7.9l.59-1.44.56.22h.7v.27Z"/><path class="cls-6" d="M514.48,38.74c0,1.72-.09,3.63-.29,5.72-.25,2.57-.64,5.31-1.18,8.15l.35.69-1.05,1.13L510.89,53l-1.79.8-.31-.61.14-.67c.57-3,1-5.8,1.24-8.44.8-8.4-.34-12-1.14-12.8l-11-3.77,1.3-3.82,11.81,4.13a5.9,5.9,0,0,1,.73.61C513.61,30.17,514.48,33.63,514.48,38.74Z"/><rect class="cls-6" x="487.36" y="72.06" width="4.03" height="9.96" transform="translate(350.82 552.68) rotate(-82.7)"/><rect class="cls-6" x="490.63" y="20.73" width="4.03" height="5.64" transform="translate(310.54 481.9) rotate(-71.07)"/><path class="cls-6" d="M488.61,18.71a4.68,4.68,0,0,1-.16,1.21L474.16,76.3A4.43,4.43,0,0,1,471,79.59a5,5,0,0,1-4.78-1.21A4.41,4.41,0,0,1,465.07,74l14.29-56.38a4.43,4.43,0,0,1,3.13-3.29,5,5,0,0,1,4.79,1.21A4.35,4.35,0,0,1,488.61,18.71ZM468.94,75.22a.33.33,0,0,0,.12.27,1,1,0,0,0,.87.22c.1,0,.23-.07.32-.4l14.3-56.38c.08-.32,0-.42-.09-.49a1,1,0,0,0-.87-.22c-.1,0-.23.07-.32.4L469,75C469,75.09,468.94,75.16,468.94,75.22Z"/><path class="cls-6" d="M492,25a242.76,242.76,0,0,1-5.78,52.63,3.45,3.45,0,0,1-2.33,2.59,3.8,3.8,0,0,1-3.67-.83A3.58,3.58,0,0,1,479.18,76a236.67,236.67,0,0,0,5.56-54.44h0v-.05a3.62,3.62,0,0,1,7.24-.08Q492,23.24,492,25Zm-3.24-3.52Z"/><path class="cls-6" d="M502.44,48.46a154.83,154.83,0,0,1-3.3,31.78,3.45,3.45,0,0,1-4.19,2.7,3.59,3.59,0,0,1-2.87-4.31,146.8,146.8,0,0,0,1.24-53.87h0a3.75,3.75,0,0,1,3.18-4.33,3.3,3.3,0,0,1,3.88,2.78A156.84,156.84,0,0,1,502.44,48.46Z"/><path class="cls-6" d="M513.48,42.22c0,8.58-1.19,17-2.29,24.8a3.28,3.28,0,0,1-2,2.68,3.8,3.8,0,0,1-3.7-.58,3.73,3.73,0,0,1-1.39-3.45c1.76-12.39,3.57-25.19.72-37.59h0a3.64,3.64,0,0,1,1.05-3.47,3.81,3.81,0,0,1,3.65-.87,3.36,3.36,0,0,1,2.31,2.55A70.73,70.73,0,0,1,513.48,42.22Z"/></g><path class="cls-7" d="M865.72,103.88c-2.71-2.27-4.12-3.58-4.12-6.35s1.41-4.09,4.12-6.36c2.89-2.42,6.49-5.44,6.49-11.43s-3.6-9-6.49-11.43C863,66,861.6,64.73,861.6,62s1.41-4.08,4.12-6.35c2.89-2.42,6.49-5.44,6.49-11.43h-6.63c0,2.77-1.41,4.08-4.12,6.35C858.57,53,855,56,855,62s3.6,9,6.49,11.43c2.71,2.27,4.12,3.58,4.12,6.35s-1.41,4.08-4.12,6.35c-2.89,2.42-6.49,5.44-6.49,11.44s3.6,9,6.49,11.43c2.71,2.27,4.12,3.59,4.12,6.35h6.63C872.21,109.32,868.61,106.3,865.72,103.88Z"/><path class="cls-7" d="M847.93,103.88c-2.71-2.27-4.12-3.58-4.12-6.35s1.41-4.09,4.12-6.36c2.89-2.42,6.49-5.44,6.49-11.43s-3.6-9-6.49-11.43c-2.71-2.27-4.12-3.58-4.12-6.35s1.41-4.08,4.12-6.35c2.89-2.42,6.49-5.44,6.49-11.43h-6.63c0,2.77-1.41,4.08-4.12,6.35C840.78,53,837.18,56,837.18,62s3.6,9,6.49,11.43c2.71,2.27,4.12,3.58,4.12,6.35s-1.41,4.08-4.12,6.35c-2.89,2.42-6.49,5.44-6.49,11.44s3.6,9,6.49,11.43c2.71,2.27,4.12,3.59,4.12,6.35h6.63C854.42,109.32,850.82,106.3,847.93,103.88Z"/><path class="cls-8" d="M191.89,488c2.27-2.71,3.58-4.12,6.35-4.12s4.09,1.41,6.36,4.12c2.42,2.89,5.44,6.5,11.43,6.5s9-3.61,11.44-6.5c2.26-2.71,3.57-4.12,6.34-4.12s4.08,1.41,6.35,4.12c2.42,2.89,5.44,6.5,11.43,6.5v-6.64c-2.77,0-4.08-1.41-6.35-4.12-2.42-2.89-5.44-6.49-11.43-6.49s-9,3.6-11.43,6.49c-2.27,2.71-3.58,4.12-6.35,4.12s-4.08-1.41-6.35-4.12c-2.42-2.89-5.44-6.49-11.44-6.49s-9,3.6-11.43,6.49c-2.27,2.71-3.58,4.12-6.35,4.12v6.64C186.45,494.51,189.47,490.9,191.89,488Z"/><path class="cls-8" d="M191.89,470.22c2.27-2.71,3.58-4.12,6.35-4.12s4.09,1.41,6.36,4.12c2.42,2.89,5.44,6.49,11.43,6.49s9-3.6,11.44-6.49c2.26-2.71,3.57-4.12,6.34-4.12s4.08,1.41,6.35,4.12c2.42,2.89,5.44,6.49,11.43,6.49v-6.63c-2.77,0-4.08-1.41-6.35-4.12-2.42-2.89-5.44-6.49-11.43-6.49s-9,3.6-11.43,6.49c-2.27,2.71-3.58,4.12-6.35,4.12s-4.08-1.41-6.35-4.12c-2.42-2.89-5.44-6.49-11.44-6.49s-9,3.6-11.43,6.49c-2.27,2.71-3.58,4.12-6.35,4.12v6.63C186.45,476.71,189.47,473.11,191.89,470.22Z"/><path class="cls-9" d="M758.36,295.76a7.7,7.7,0,0,1-.26,2l-20.64,77.54a27.08,27.08,0,0,1-33.14,19.21l-77.54-20.64a7.72,7.72,0,0,1-5.49-9.47l4.17-15.7c-5.26-2.26-9.39-7-11.78-13.53-2.63-7.23-2.83-15.92-.55-24.48,4.47-16.78,17.35-28.19,29.59-26.83l4.18-15.7a7.75,7.75,0,0,1,9.47-5.49l18.6,4.95-.68,2.56c-2.7,10.11,7.43,21.68,22.6,25.72,7.51,2,15.08,1.86,21.3-.41,5.9-2.15,9.84-5.94,11.1-10.68l.68-2.55,22.64,6a7.77,7.77,0,0,1,5.75,7.47Zm-132,70.63a2.48,2.48,0,0,0,1.82,2.38l77.54,20.63A21.8,21.8,0,0,0,732.35,374L753,296.4a2.38,2.38,0,0,0-.24-1.86,2.48,2.48,0,0,0-1.49-1.14l-17.71-4.71c-2.26,5.27-7,9.4-13.54,11.78-7.23,2.63-15.92,2.83-24.47.56-16.78-4.47-28.31-17.27-26.84-29.6L655,267.79a2.46,2.46,0,0,0-3,1.74l-5.48,20.61-2.56-.67c-10.15-2.71-21.69,7.43-25.73,22.6-2,7.5-1.86,15.07.42,21.3,2.14,5.9,5.93,9.83,10.67,11.1l2.55.68-5.48,20.62A2.25,2.25,0,0,0,626.32,366.39Z"/><path class="cls-9" d="M785.67,227.75a7.76,7.76,0,0,1-5,7.24l-15.15,5.83c1.25,5.59-.13,11.7-4,17.48-4.31,6.38-11.23,11.64-19.48,14.82-16.21,6.23-33,2.51-39.1-8.2l-15.16,5.83a7.75,7.75,0,0,1-10-4.44l-6.91-18,2.47-.95c9.81-3.78,13.19-18.77,7.56-33.4-2.79-7.26-7.36-13.3-12.84-17-5.2-3.51-10.58-4.47-15.16-2.71l-2.47.95L642,173.36a7.8,7.8,0,0,1,4.45-10l74.9-28.81a27.11,27.11,0,0,1,35,15.55L785.15,225A7.51,7.51,0,0,1,785.67,227.75Zm-26.77,10,19.91-7.66a2.44,2.44,0,0,0,1.4-3.17L751.4,152a21.82,21.82,0,0,0-28.16-12.51l-74.89,28.81a2.46,2.46,0,0,0-1.42,3.18l6.59,17.1c5.59-1.26,11.7.13,17.48,4,6.38,4.31,11.64,11.23,14.82,19.48,6.21,16.22,2.5,33-8.2,39.11l5.08,13.21a2.44,2.44,0,0,0,3.16,1.4l19.92-7.66,1,2.47c3.77,9.8,18.75,13.2,33.4,7.56,7.25-2.79,13.29-7.35,17-12.84,3.52-5.2,4.5-10.59,2.72-15.16Z"/><path class="cls-9" d="M334.05,196.54,379,290a24,24,0,0,1-11.19,32l-93.41,45a24,24,0,0,1-32-11.19l-45-93.41a24,24,0,0,1,11.19-32l93.42-45A24,24,0,0,1,334.05,196.54ZM248.18,353a17.63,17.63,0,0,0,23.5,8.22l93.41-45a17.62,17.62,0,0,0,8.22-23.5l-45-93.41a17.62,17.62,0,0,0-23.49-8.22l-93.42,45a17.62,17.62,0,0,0-8.21,23.5Z"/><path class="cls-9" d="M297.83,193.3l-27.7,92.31A20.26,20.26,0,0,0,281.43,310l52.09,22.67L331,338.48,278.89,315.8a26.61,26.61,0,0,1-14.85-32l27.69-92.3Z"/><path class="cls-9" d="M275,259.21l-2.31,5.93-16.38-6.38a26.62,26.62,0,0,1-16.15-31.21l3.15-12.63,6.18,1.54-3.15,12.63a20.27,20.27,0,0,0,12.28,23.74Z"/><path class="cls-9" d="M256.66,272.87a15.9,15.9,0,1,1-21.24-7.43A15.93,15.93,0,0,1,256.66,272.87Zm-22.93,11a9.54,9.54,0,1,0,4.46-12.74A9.55,9.55,0,0,0,233.73,283.91Z"/><g class="cls-10"><g class="cls-11"><path class="cls-12" d="M-115.37,608.35C-97,619.24-85.71,633.58-81.8,651a3.65,3.65,0,0,0,2,2.54,3.65,3.65,0,0,0,1.55.35,3.74,3.74,0,0,0,1.71-.43c15.81-8.25,34.06-8.87,54.24-1.86a7.6,7.6,0,0,0,9.42-4l33.53-72.23a7.64,7.64,0,0,0-4.48-10.47c-14.56-4.86-36-8.3-56,2.55C-44.4,545.13-60.85,531-74,523a7.65,7.65,0,0,0-6.16-.78,7.69,7.69,0,0,0-4.73,4.11l-33.54,72.24A7.64,7.64,0,0,0-115.37,608.35Zm.2-8.3,33.54-72.23a4.13,4.13,0,0,1,2.54-2.21,4,4,0,0,1,3.28.42h0c11.44,7,25.52,18.83,31.18,36.91,1,3.07,2.1,5.75,1.63,8l-.34,3,2.3-2.46c1.93-1.62,4.32-2.19,7.37-3.53,17.7-7.77,35.86-4,48.75.3a4,4,0,0,1,2.44,2.24,4.14,4.14,0,0,1-.05,3.36l-33.54,72.24a4.22,4.22,0,0,1-5.14,2.11,84.35,84.35,0,0,0-27.59-5,62.69,62.69,0,0,0-26.65,5.89l3-12.55-6.65,10.58c-4.89-17-16.34-31-34.4-41.77A4.13,4.13,0,0,1-115.17,600.05Z"/><path class="cls-13" d="M-66.65,499c15.64-6.91,30.25-7.6,43.41-2.06a2.94,2.94,0,0,0,2.6-.15,2.74,2.74,0,0,0,.94-.85,2.79,2.79,0,0,0,.52-1.31c2-14.15,10.06-26.34,24-36.23a6.09,6.09,0,0,0,1.76-8l-31.5-55.45a6.13,6.13,0,0,0-4-3,6.07,6.07,0,0,0-4.87,1c-9.94,7.23-22.15,19.6-24.37,37.69-16.68-7.35-33.55-3.2-44.86,1.63a6.13,6.13,0,0,0-3.37,3.66,6.16,6.16,0,0,0,.48,5l31.5,55.45A6.12,6.12,0,0,0-66.65,499ZM-72,495l-31.5-55.45a3.3,3.3,0,0,1-.25-2.68,3.2,3.2,0,0,1,1.79-1.95h0c9.87-4.22,24.15-7.88,38.57-3.16,2.44.8,4.72,1.3,6,2.64l1.8,1.62-.53-2.64c-.15-2,.58-3.84,1.13-6.45,3.16-15.15,14.06-25.24,22.86-31.65a3.21,3.21,0,0,1,2.6-.54,3.35,3.35,0,0,1,2.17,1.59l31.5,55.46a3.37,3.37,0,0,1-1,4.33A67.52,67.52,0,0,0-13,471.75a50.23,50.23,0,0,0-8.55,20.11l-6.77-7.81,3.8,9.26c-13.35-4.72-27.83-3.78-43.23,3A3.31,3.31,0,0,1-72,495Z"/><path class="cls-13" d="M-87.78,341.63c12.44,6.42,20.38,15.37,23.61,26.61a2.42,2.42,0,0,0,1.43,1.58,2.28,2.28,0,0,0,1,.16,2.32,2.32,0,0,0,1.1-.34c10-6,22-7.11,35.42-3.31a5,5,0,0,0,6-3L0,314.79a5,5,0,0,0-.18-4.1,5,5,0,0,0-3.16-2.58c-9.71-2.62-23.86-4-36.53,3.83-3.88-14.4-15.19-23-24.08-27.75a5,5,0,0,0-4.06-.27A5,5,0,0,0-71,286.79l-19.16,48.55A5,5,0,0,0-87.78,341.63ZM-88,336.2l19.16-48.56a2.72,2.72,0,0,1,1.58-1.54,2.63,2.63,0,0,1,2.16.15h0c7.75,4.12,17.42,11.34,21.82,22.95.74,2,1.59,3.68,1.38,5.15l-.11,2,1.41-1.69c1.2-1.14,2.74-1.6,4.68-2.6,11.29-5.76,23.31-4,31.92-1.68a2.62,2.62,0,0,1,1.67,1.38,2.68,2.68,0,0,1,.1,2.2l-19.16,48.55a2.77,2.77,0,0,1-3.28,1.58,55.2,55.2,0,0,0-18.25-2.2,41,41,0,0,0-17.21,4.88l1.5-8.33-3.95,7.18c-3.84-10.93-11.88-19.68-24.11-26A2.69,2.69,0,0,1-88,336.2Z"/></g><g class="cls-11"><path class="cls-12" d="M-122.3,93.91c18.37,10.89,29.66,25.23,33.57,42.63a3.65,3.65,0,0,0,2,2.54,3.65,3.65,0,0,0,1.55.35,3.74,3.74,0,0,0,1.71-.43c15.81-8.25,34.06-8.87,54.24-1.86a7.6,7.6,0,0,0,9.42-4L13.77,60.89a7.71,7.71,0,0,0,.08-6.26,7.6,7.6,0,0,0-4.57-4.21c-14.55-4.86-36-8.3-56,2.55C-51.33,30.69-67.78,16.54-80.89,8.55A7.65,7.65,0,0,0-87,7.77a7.69,7.69,0,0,0-4.73,4.11l-33.54,72.24A7.64,7.64,0,0,0-122.3,93.91Zm.2-8.3,33.54-72.23A4.13,4.13,0,0,1-86,11.17a4,4,0,0,1,3.28.42h0c11.44,7,25.52,18.83,31.18,36.91,1,3.07,2.1,5.75,1.64,8l-.35,3L-48,57c1.93-1.62,4.32-2.19,7.37-3.53,17.7-7.77,35.86-4,48.75.3A4,4,0,0,1,10.59,56a4.14,4.14,0,0,1-.05,3.36L-23,131.63a4.22,4.22,0,0,1-5.14,2.11,84.3,84.3,0,0,0-27.59-5,62.69,62.69,0,0,0-26.65,5.89l3-12.55L-86,132.67c-4.89-17-16.34-31-34.4-41.77A4.13,4.13,0,0,1-122.1,85.61Z"/></g></g></g><g id="Capa_3" data-name="Capa 3"><path d="M626.76,239.36C630,282.8,623,336.78,600.09,376.9,586.87,400,567.26,419.11,559,444.23a221,221,0,0,0-3.75,122.27,3.43,3.43,0,0,1-1,3.4,6.12,6.12,0,0,0,.44,1.31c.55,1.83-.44,3.92-2.64,5-24.13,10.82-67.87,9.51-94.75,9.68A548.73,548.73,0,0,1,338.65,573.3a3.84,3.84,0,0,1-2.09-1c-1.54-.53-2.75-1.66-2.42-3.49,5.17-35,12.89-74.4,4.4-109.37-5.83-24.33-21.92-46.31-32.61-69.33-23-49.28-34-101.52-37.68-153.85-2.42-36.62-24.24-197,73.49-174.51.11.09.11.18.22.18,1.76-16,12-31,36.13-30.27A3.11,3.11,0,0,1,381,33.45c15.75-1.65,31.51,0,43.19,9.51,8.59-13.6,25.12-21.8,54-18.31,1.43.17,2,1,2,1.91,13.22,1.4,26.1,8.81,30,18.84,10.47-10.46,24.79-16.57,43.3-14.3a2.56,2.56,0,0,1,2.42-.44,33.23,33.23,0,0,1,3.31,1.4c.55.09,1,.17,1.43.26a2.55,2.55,0,0,1,1.76,1.13C625.43,60.66,620.36,154,614,201.25a4.17,4.17,0,0,1-.77,1.66A66.53,66.53,0,0,1,626.76,239.36ZM590.07,373.58c21.7-38.37,31.4-91.74,26.44-134.22-4.3-37-36.36-54.94-73.6-72-26.88-12.29-69.52-34.79-101.47-27.56a175.45,175.45,0,0,1-35.36,8.9c0,.17.11.26,0,.52-4.74,11.34,2.09,21.11-17.3,23-19.72,1.92-42.19-2.71-60.48-7.85-1.21-.35-1.54-1.22-1.21-2a1.89,1.89,0,0,1,2.2-.87,228.25,228.25,0,0,0,45.17,6.54c10.69.35,21.26,2.09,24.9-9.16,1.1-3.14.22-6.19,1.1-9.5l-1.65.26c-22.26,2.44-57.73-4.71-72.28,11.51a3.87,3.87,0,0,0-.33,1.05c-3,10,11.35,23.81,18.07,27.64,10.36,6,18.62,8.46,31.18,10.64C400.79,204.91,426,204,444,187.91c1.87-1.66,5.07.43,3.74,2.27a46.07,46.07,0,0,1-13.11,11.68c.11.18.44.26.55.44,13.56,14.39,33.06,21.54,55.09,20.75,3.86-2.87,7.71-5.75,11.57-8.45,4.63-3.32,11.35,2,6.83,5.4-29.86,22-58.94,44-59.93,78.49-.11,2.45-4.3,2.36-4.63,0-4.63-28.08,15.75-51.1,39.66-70.29-22,.79-44-7.59-56.19-22.41-.11-.09-.11-.26-.22-.35-22.47,9.16-52.77,5.06-76.35-2.88-16.85-5.67-26.55-14-30.3-28.34-1.87-7.24-3.41-15.09,3.64-19.63-17.63-4-30-32.53-32.5-42.73a2,2,0,0,1,.11-1.4c.88-1.48,3.75-2.09,4.85-.26,7.16,10.64,17.52,42.65,38.34,37.42h.22a59.48,59.48,0,0,1,14.32-3.41c9.81-1,19.61-.87,29.42-1-21.49-11.87-29.86-44.66-35.15-61.58a50.47,50.47,0,0,1-2.2-15.87,1.84,1.84,0,0,1-.77.26c-30.19-1.92-48,15.44-57.51,42.47-25.67,72.13,6.72,213.15,16.85,242.37,12.56,36.28,38.45,69.6,47.71,106.4,8.92,35.58,1.65,74.31-3.53,110,32.39,5.49,64.79,9.5,97.95,10,34.48.53,69.63-6.62,103.23-2.52-5.07-.61-4.85-6.37-1.21-8-8.38-35.49-7.17-70.12.33-105.79C552,426.7,572.55,404.63,590.07,373.58Zm15.64-179c2-49.71,6.94-126.46-47.7-157.42C499.29,34,489.15,102.7,495.54,136.8c20.49,6.28,40.21,17,58.17,26,11.46-1.13,12-22,11.79-26.16-.44-6.19-1.43-12.21-.88-18.49A55.92,55.92,0,0,1,575,89.44c2-2.7,7.5-.87,6.39,2.1-5.39,13.78-8.92,26.07-7.93,40.55.55,7.5,1.87,15.18-1.87,22.33A22.14,22.14,0,0,1,558.12,165l4.29,2.09C580.15,175.44,594.81,184.07,605.71,194.54ZM504,52.55c-.11-.17-.33-.26-.33-.43-2.42-6.8-5.18-12.47-12.67-16.83-7.16-4.28-15.64-5.85-24.46-5.24-.11,0-.11-.08-.22-.08-60,7.76-39.55,68.2-30.73,104.21,4-1,7.82-2.26,11.78-3.4a3.73,3.73,0,0,1,4.52,1.66,87.09,87.09,0,0,1,27.76.52c3.31-1.48,5.4-3.83,7.83-6.54C484.08,104.53,488.71,73.31,504,52.55Zm-83-3.66c-.33-.26-.66-.43-1-.7-11.79-12.47-31.95-11.25-49.69-9.59-29.08,8-20.6,37.59-12.56,56.17,6.62,15.17,12.45,40.29,32.84,48.05,2.53-.18,4.95-.26,7.49-.61a243.06,243.06,0,0,0,32.06-6.54C420.18,113.08,410.05,74.27,421.06,48.89Z"/><path class="cls-14" d="M616.51,239.36c5,42.48-4.74,95.85-26.44,134.22C572.55,404.63,552,426.7,544.79,461c-7.5,35.67-8.71,70.3-.33,105.79-3.64,1.66-3.86,7.42,1.21,8-33.6-4.1-68.75,3.05-103.23,2.52-33.16-.52-65.56-4.53-97.95-10,5.18-35.67,12.45-74.4,3.53-110-9.26-36.8-35.15-70.12-47.71-106.4-10.13-29.22-42.52-170.24-16.85-242.37l8.48,1.92a2,2,0,0,0-.11,1.4c2.53,10.2,14.87,38.72,32.5,42.73-7.05,4.54-5.51,12.39-3.64,19.63,3.75,14.3,13.45,22.67,30.3,28.34,23.58,7.94,53.88,12,76.35,2.88.11.09.11.26.22.35,12.23,14.82,34.16,23.2,56.19,22.41-23.91,19.19-44.29,42.21-39.66,70.29.33,2.36,4.52,2.45,4.63,0,1-34.53,30.07-56.51,59.93-78.49,4.52-3.4-2.2-8.72-6.83-5.4-3.86,2.7-7.71,5.58-11.57,8.45-22,.79-41.53-6.36-55.09-20.75-.11-.18-.44-.26-.55-.44a46.07,46.07,0,0,0,13.11-11.68c1.33-1.84-1.87-3.93-3.74-2.27-18,16.13-43.19,17-68.53,12.64-12.56-2.18-20.82-4.62-31.18-10.64-6.72-3.83-21-17.61-18.07-27.64l.89.17c-.33.79,0,1.66,1.21,2,18.29,5.14,40.76,9.77,60.48,7.85,19.39-1.92,12.56-11.69,17.3-23,.11-.26,0-.35,0-.52a175.45,175.45,0,0,0,35.36-8.9c31.95-7.23,74.59,15.27,101.47,27.56C580.15,184.42,612.21,202.38,616.51,239.36Z"/><path class="cls-14" d="M558,37.12c54.64,31,49.69,107.71,47.7,157.42-10.9-10.47-25.56-19.1-43.3-27.48L558.12,165a22.14,22.14,0,0,0,13.44-10.55c3.74-7.15,2.42-14.83,1.87-22.33-1-14.48,2.54-26.77,7.93-40.55,1.11-3-4.4-4.8-6.39-2.1a55.92,55.92,0,0,0-10.35,28.7c-.55,6.28.44,12.3.88,18.49.22,4.18-.33,25-11.79,26.16-18-9-37.68-19.71-58.17-26C489.15,102.7,499.29,34,558,37.12Z"/><path class="cls-14" d="M503.69,52.12c0,.17.22.26.33.43-15.31,20.76-19.94,52-16.52,73.87-2.43,2.71-4.52,5.06-7.83,6.54a87.09,87.09,0,0,0-27.76-.52,3.73,3.73,0,0,0-4.52-1.66c-4,1.14-7.82,2.36-11.78,3.4-8.82-36-29.31-96.45,30.73-104.21.11,0,.11.08.22.08,8.82-.61,17.3,1,24.46,5.24C498.51,39.65,501.27,45.32,503.69,52.12Z"/><path class="cls-14" d="M420.07,48.19c.33.27.66.44,1,.7-11,25.38-.88,64.19,9.15,86.78a243.06,243.06,0,0,1-32.06,6.54c-2.54.35-5,.43-7.49.61-20.39-7.76-26.22-32.88-32.84-48-8-18.58-16.52-48.15,12.56-56.17C388.12,36.94,408.28,35.72,420.07,48.19Z"/><path class="cls-14" d="M398.81,149.71l1.65-.26c-.88,3.31,0,6.36-1.1,9.5-3.64,11.25-14.21,9.51-24.9,9.16a228.25,228.25,0,0,1-45.17-6.54,1.89,1.89,0,0,0-2.2.87l-.89-.17a3.87,3.87,0,0,1,.33-1.05C341.08,145,376.55,152.15,398.81,149.71Z"/><path class="cls-14" d="M343.94,81.68c5.29,16.92,13.66,49.71,35.15,61.58-9.81.08-19.61-.09-29.42,1a59.48,59.48,0,0,0-14.32,3.41h-.22c-20.82,5.23-31.18-26.78-38.34-37.42-1.1-1.83-4-1.22-4.85.26l-8.48-1.92c9.47-27,27.32-44.39,57.51-42.47a1.84,1.84,0,0,0,.77-.26A50.47,50.47,0,0,0,343.94,81.68Z"/></g></svg>