<svg xmlns="http://www.w3.org/2000/svg" xmlns:xlink="http://www.w3.org/1999/xlink" viewBox="0 0 900 600"><defs><style>.cls-1{fill:none;}.cls-2{clip-path:url(#clip-path);}.cls-3{fill:#ba88db;}.cls-4{clip-path:url(#clip-path-2);}.cls-5{clip-path:url(#clip-path-3);}.cls-6{fill:#6fcddd;}.cls-7{opacity:0.5;}.cls-8{fill:#006c78;}.cls-9{fill:#fff1ee;}.cls-10{fill:#f3d8be;}</style><clipPath id="clip-path"><rect id="SVGID" class="cls-1" x="-11.06" y="-751.3" width="1051.42" height="613.33" transform="translate(1029.3 -889.27) rotate(-180)"/></clipPath><clipPath id="clip-path-2"><rect id="SVGID-2" data-name="SVGID" class="cls-1" x="1043.7" y="-8.93" width="1051.42" height="613.33" transform="translate(3138.82 595.46) rotate(-180)"/></clipPath><clipPath id="clip-path-3"><rect class="cls-1" x="-94.96" y="0.7" width="1096.92" height="607.88"/></clipPath></defs><g id="Capa_2" data-name="Capa 2"><g class="cls-2"><path class="cls-3" d="M-259,207.5c109.87,54.72,246.16,51.2,354.36-6.76,261.34-140,284.56-531.17,36.21-699C1.84-585.9-182.25-586.09-310-495.56c-87.67,62.1-143.77,164.57-154.7,270.88-10.48,101.84,6.15,221.29,64.09,307C-365,135.1-316,179.08-259,207.5Z"/></g><g class="cls-4"><path class="cls-3" d="M795.79,949.87c109.87,54.72,246.16,51.2,354.36-6.76,261.34-140,284.56-531.17,36.21-699-129.76-87.68-313.85-87.87-441.64,2.66C657.05,308.91,601,411.38,590,517.68c-10.48,101.85,6.15,221.29,64.09,307C689.75,877.47,738.72,921.45,795.79,949.87Z"/></g><g class="cls-5"><rect class="cls-6" x="-94.96" y="0.7" width="1096.92" height="607.88"/><g class="cls-7"><path class="cls-8" d="M7.68,603.31l-33.54-72.23A7.69,7.69,0,0,0-30.59,527a7.63,7.63,0,0,0-6.17.77c-13.11,8-29.56,22.14-34.18,44.42-20-10.85-41.43-7.41-56-2.55a7.6,7.6,0,0,0-4.57,4.21,7.67,7.67,0,0,0,.09,6.26l33.53,72.23a7.6,7.6,0,0,0,9.42,4c20.18-7,38.43-6.38,54.24,1.86a3.74,3.74,0,0,0,1.71.43,3.65,3.65,0,0,0,1.55-.35,3.63,3.63,0,0,0,2-2.53C-25,638.33-13.72,624,4.65,613.1A7.65,7.65,0,0,0,7.68,603.31Zm-4.93,6.78c-18.06,10.73-29.51,24.78-34.39,41.78l-6.66-10.59,3,12.55a62.84,62.84,0,0,0-26.65-5.89,84.35,84.35,0,0,0-27.59,5,4.22,4.22,0,0,1-5.14-2.11l-33.54-72.23a4.16,4.16,0,0,1-.05-3.37A4,4,0,0,1-125.8,573c12.89-4.3,31.05-8.06,48.75-.3,3,1.34,5.44,1.92,7.37,3.53l2.3,2.46-.34-3c-.46-2.22.68-4.9,1.64-8,5.65-18.08,19.73-29.94,31.17-36.91h0a4,4,0,0,1,3.28-.41,4.09,4.09,0,0,1,2.54,2.2L4.45,604.8A4.13,4.13,0,0,1,2.75,610.09Z"/><path class="cls-8" d="M183.89,677.57,187.12,598a7.64,7.64,0,0,0-8.17-7.94c-15.31,1.1-36.41,6.15-50.71,23.85C115.42,595.1,94.79,588.35,79.62,586a7.65,7.65,0,0,0-8.78,7.26l-3.23,79.57a7.61,7.61,0,0,0,6.54,7.88c21.15,3,37.09,11.9,47.38,26.47a3.53,3.53,0,0,0,1.33,1.16,3.62,3.62,0,0,0,1.53.4,3.66,3.66,0,0,0,3-1.32c11.43-13.68,28-21.27,49.35-22.55A7.65,7.65,0,0,0,183.89,677.57Zm-7.48,3.78c-21,1.27-37.58,8.52-49.7,21.4l-1.08-12.45-3,12.54a62.63,62.63,0,0,0-21-17.43,84.37,84.37,0,0,0-26.82-8.18A4.24,4.24,0,0,1,71.16,673l3.23-79.57a4.1,4.1,0,0,1,1.5-3,4,4,0,0,1,3.19-.88c13.43,2.07,31.3,7,43.49,22,2.1,2.58,4,4.19,4.93,6.51l.93,3.24,1.07-2.83c.61-2.19,2.84-4,5.1-6.34,13.3-13.49,31.25-17.6,44.61-18.56h0a4,4,0,0,1,3.11,1.14,4.1,4.1,0,0,1,1.25,3.12l-3.23,79.57A4.14,4.14,0,0,1,176.41,681.35Z"/><path class="cls-9" d="M38.27,515.13A27.83,27.83,0,0,1,52.4,528.24a.74.74,0,0,0,.45.38.76.76,0,0,0,.51,0,.72.72,0,0,0,.34-1,28.81,28.81,0,0,0-15-13.84.72.72,0,1,0-.48,1.36Z"/><path class="cls-9" d="M36.71,520.83a.73.73,0,0,0-.92.43.72.72,0,0,0,.44.92A27.93,27.93,0,0,1,50.36,535.3a.73.73,0,0,0,1,.33.72.72,0,0,0,.34-1A28.81,28.81,0,0,0,36.71,520.83Z"/><path class="cls-9" d="M34.67,527.88a.75.75,0,0,0-.92.44.72.72,0,0,0,.44.92,27.88,27.88,0,0,1,14.13,13.11.72.72,0,0,0,1,.34.73.73,0,0,0,.34-1A28.86,28.86,0,0,0,34.67,527.88Z"/><path class="cls-9" d="M32.63,534.94a.74.74,0,0,0-.92.44.72.72,0,0,0,.44.92,27.83,27.83,0,0,1,14.13,13.11.74.74,0,0,0,.45.38.76.76,0,0,0,.51,0,.72.72,0,0,0,.34-1A28.81,28.81,0,0,0,32.63,534.94Z"/><path class="cls-9" d="M78.36,527.16a27.92,27.92,0,0,0-19,3,.74.74,0,0,1-.58.06.7.7,0,0,1-.4-.32.72.72,0,0,1,.26-1,28.8,28.8,0,0,1,20.12-3.18.74.74,0,0,1,.52.87A.73.73,0,0,1,78.36,527.16Z"/><path class="cls-9" d="M76.49,532.76a.75.75,0,0,1,.52.88.73.73,0,0,1-.88.52,28,28,0,0,0-19,3,.71.71,0,0,1-1-.25.72.72,0,0,1,.26-1A28.9,28.9,0,0,1,76.49,532.76Z"/><path class="cls-9" d="M74.26,539.76a.76.76,0,0,1,.52.88.73.73,0,0,1-.88.52,28,28,0,0,0-19,3,.71.71,0,0,1-1-.25.72.72,0,0,1,.26-1A28.9,28.9,0,0,1,74.26,539.76Z"/><path class="cls-9" d="M72,546.76a.76.76,0,0,1,.52.88.73.73,0,0,1-.88.52,27.82,27.82,0,0,0-19,3,.7.7,0,0,1-.58.07.72.72,0,0,1-.14-1.31A28.84,28.84,0,0,1,72,546.76Z"/><path class="cls-9" d="M88.2,566.61l15.62-54a5.43,5.43,0,0,0-.62-4.39,5.33,5.33,0,0,0-3.64-2.44c-10.69-1.82-26-1.91-38.81,7.82-5.63-15.06-18.64-23.16-28.65-27.32a5.38,5.38,0,0,0-4.39.12,5.44,5.44,0,0,0-2.86,3.38l-15.62,54a5.37,5.37,0,0,0,3.16,6.5c14,5.62,23.44,14.42,28,26.15a2.61,2.61,0,0,0,.71,1,2.7,2.7,0,0,0,1,.53,2.58,2.58,0,0,0,2.26-.41c10.15-7.46,22.82-9.86,37.66-7.15A5.4,5.4,0,0,0,88.2,566.61ZM82.43,568c-14.6-2.66-27.21-.49-37.7,6.31l1.36-8.73-4.2,8.09a44.3,44.3,0,0,0-11.47-15.49A59.53,59.53,0,0,0,13.4,548a3,3,0,0,1-1.76-3.51l15.63-54a2.89,2.89,0,0,1,1.53-1.82,2.81,2.81,0,0,1,2.34-.06C40,492.25,51.42,498.67,57.25,511c1,2.13,2,3.54,2.29,5.3l.09,2.38,1.21-1.76c.79-1.4,2.64-2.3,4.57-3.49,11.39-7,24.4-6.81,33.72-5.22h0a2.85,2.85,0,0,1,1.94,1.31,2.9,2.9,0,0,1,.33,2.35l-15.62,54A2.93,2.93,0,0,1,82.43,568Z"/><path class="cls-9" d="M76.4,555.27l9.65-33.38a3.88,3.88,0,0,0-.43-3.1,3.83,3.83,0,0,0-2.57-1.72c-13.11-2.24-21.37,2.13-24.57,4.35C57,517.83,52.31,509.73,40,504.63a3.81,3.81,0,0,0-3.1.09,3.86,3.86,0,0,0-2,2.38l-9.64,33.38a3.79,3.79,0,0,0,2.24,4.6C39.77,550,44,558,45.27,561.17a2.06,2.06,0,0,0,1.37,1.24,2.06,2.06,0,0,0,1.81-.33c2.76-2,10.6-6.5,23.6-4.12A3.81,3.81,0,0,0,76.4,555.27Zm-3.9.22c-11.48-2.1-19.29.84-23.39,3.19l.37-7-2.81,6.55a28.82,28.82,0,0,0-7-8.74,39.37,39.37,0,0,0-11.28-6.76,1.29,1.29,0,0,1-.76-1.57l9.65-33.38A1.28,1.28,0,0,1,38,507a1.26,1.26,0,0,1,1,0c12.72,5.28,16.58,13.84,17.46,16.35h0l-2.08,10.88,4.7-10.13c2.08-1.64,9.91-6.83,23.48-4.51a1.28,1.28,0,0,1,.87.58,1.34,1.34,0,0,1,.15,1.07L74,554.57A1.3,1.3,0,0,1,72.5,555.49Z"/><path class="cls-8" d="M12.8,386.6a23,23,0,0,1,13.83,7.9.6.6,0,0,0,.84.09.61.61,0,0,0,.09-.84,23.81,23.81,0,0,0-14.63-8.34.6.6,0,0,0-.13,1.19Z"/><path class="cls-8" d="M12.61,391.47a.6.6,0,0,0-.13,1.19,23,23,0,0,1,13.83,7.9.59.59,0,0,0,.43.22.6.6,0,0,0,.5-1A23.81,23.81,0,0,0,12.61,391.47Z"/><path class="cls-8" d="M12.3,397.54a.61.61,0,0,0-.66.52.59.59,0,0,0,.52.66A23,23,0,0,1,26,406.62a.59.59,0,0,0,.43.22.56.56,0,0,0,.41-.13.59.59,0,0,0,.09-.84A23.84,23.84,0,0,0,12.3,397.54Z"/><path class="cls-8" d="M12,403.6a.62.62,0,0,0-.66.52.6.6,0,0,0,.52.66,23.07,23.07,0,0,1,13.83,7.9.61.61,0,0,0,.44.22.55.55,0,0,0,.4-.13.59.59,0,0,0,.09-.84A23.84,23.84,0,0,0,12,403.6Z"/><path class="cls-8" d="M47.32,388.76a23,23,0,0,0-14.75,6,.61.61,0,0,1-.46.16.66.66,0,0,1-.38-.19.59.59,0,0,1,0-.84,23.88,23.88,0,0,1,15.6-6.34.61.61,0,0,1,.58.61A.59.59,0,0,1,47.32,388.76Z"/><path class="cls-8" d="M46.86,393.62a.62.62,0,0,1,.59.61.59.59,0,0,1-.61.58,23,23,0,0,0-14.75,6,.62.62,0,0,1-.46.16.58.58,0,0,1-.38-.19.59.59,0,0,1,0-.84A23.88,23.88,0,0,1,46.86,393.62Z"/><path class="cls-8" d="M46.38,399.68a.6.6,0,0,1,.58.6.59.59,0,0,1-.6.59,22.94,22.94,0,0,0-14.75,6,.62.62,0,0,1-.46.16.63.63,0,0,1-.39-.19.6.6,0,0,1,0-.84A23.75,23.75,0,0,1,46.38,399.68Z"/><path class="cls-8" d="M45.9,405.73a.6.6,0,0,1,0,1.19,22.94,22.94,0,0,0-14.76,6,.6.6,0,0,1-.45.16.56.56,0,0,1-.39-.19.61.61,0,0,1,0-.84A23.78,23.78,0,0,1,45.9,405.73Z"/><path class="cls-8" d="M62.63,418.67l2.44-46.42a4.45,4.45,0,0,0-4.71-4.69c-8.94.53-21.29,3.34-29.76,13.57C23.25,370.06,11.26,366,2.42,364.51a4.45,4.45,0,0,0-5.17,4.18L-5.19,415.1a4.44,4.44,0,0,0,3.76,4.65C10.89,421.65,20.13,427,26,435.53a2.21,2.21,0,0,0,.77.69,2.07,2.07,0,0,0,.89.24,2.14,2.14,0,0,0,1.75-.75c6.77-7.91,16.51-12.22,29-12.82A4.45,4.45,0,0,0,62.63,418.67Zm-4.39,2.15c-12.25.6-22,4.72-29.15,12.15l-.54-7.28L26.68,433a36.73,36.73,0,0,0-12.13-10.32,49.36,49.36,0,0,0-15.6-5,2.48,2.48,0,0,1-2.07-2.5L-.68,368.8a2.4,2.4,0,0,1,.89-1.75,2.35,2.35,0,0,1,1.87-.49c7.83,1.3,18.22,4.32,25.23,13.17,1.2,1.52,2.28,2.47,2.83,3.83l.52,1.9.64-1.65c.37-1.27,1.69-2.34,3-3.66,7.85-7.78,18.36-10,26.16-10.52h0a2.35,2.35,0,0,1,1.81.68,2.4,2.4,0,0,1,.7,1.83l-2.44,46.42A2.4,2.4,0,0,1,58.24,420.82Z"/><path class="cls-8" d="M51,411.75l1.51-28.67a3.16,3.16,0,0,0-3.32-3.32c-11,.66-16.8,5.72-19,8.11-1.9-2.61-7.16-8.25-18-10.05a3.14,3.14,0,0,0-3.65,2.95L7.09,409.44a3.15,3.15,0,0,0,2.67,3.28c10.79,1.67,15.7,7.28,17.31,9.61a1.69,1.69,0,0,0,.61.55,1.62,1.62,0,0,0,.72.2,1.7,1.7,0,0,0,1.4-.6c1.84-2.16,7.31-7.22,18.22-7.75A3.14,3.14,0,0,0,51,411.75Zm-3.09.91c-9.63.46-15.37,4.29-18.23,6.95l-1-5.68-1,5.79A24.13,24.13,0,0,0,20.41,414a32.31,32.31,0,0,0-10.34-3.32,1.07,1.07,0,0,1-.91-1.12l1.51-28.67a1.06,1.06,0,0,1,.4-.79,1.07,1.07,0,0,1,.84-.23c11.22,1.87,15.93,8,17.11,9.89h0l.37,9.15,1.88-9c1.36-1.72,6.69-7.36,18.05-8a1.1,1.1,0,0,1,.81.31,1.08,1.08,0,0,1,.32.83l-1.51,28.67A1.07,1.07,0,0,1,47.92,412.66Z"/><path class="cls-8" d="M96.2,440.16a15.66,15.66,0,0,1,6.06,9,.41.41,0,0,0,.19.27.48.48,0,0,0,.29,0,.41.41,0,0,0,.31-.48,16.25,16.25,0,0,0-6.41-9.47.42.42,0,0,0-.56.12A.4.4,0,0,0,96.2,440.16Z"/><path class="cls-8" d="M94.63,443.08a.41.41,0,0,0-.56.12.4.4,0,0,0,.12.56,15.62,15.62,0,0,1,6.06,9,.37.37,0,0,0,.19.26.42.42,0,0,0,.29,0,.4.4,0,0,0,.3-.49A16.17,16.17,0,0,0,94.63,443.08Z"/><path class="cls-8" d="M92.61,446.68a.4.4,0,0,0-.55.12.41.41,0,0,0,.12.56,15.63,15.63,0,0,1,6,9,.41.41,0,0,0,.49.3.4.4,0,0,0,.3-.48A16.11,16.11,0,0,0,92.61,446.68Z"/><path class="cls-8" d="M90.6,450.27a.44.44,0,0,0-.56.12.41.41,0,0,0,.13.56,15.67,15.67,0,0,1,6,9,.43.43,0,0,0,.2.27.44.44,0,0,0,.28,0,.41.41,0,0,0,.31-.48A16.16,16.16,0,0,0,90.6,450.27Z"/><path class="cls-8" d="M116.58,451.84a15.59,15.59,0,0,0-10.79-.77.39.39,0,0,1-.32,0,.38.38,0,0,1-.18-.23.4.4,0,0,1,.26-.51,16.17,16.17,0,0,1,11.4.82.41.41,0,0,1,.18.54A.42.42,0,0,1,116.58,451.84Z"/><path class="cls-8" d="M114.84,454.66a.4.4,0,1,1-.37.72,15.59,15.59,0,0,0-10.79-.77.39.39,0,0,1-.32,0,.38.38,0,0,1-.18-.23.41.41,0,0,1,.26-.51A16.16,16.16,0,0,1,114.84,454.66Z"/><path class="cls-8" d="M112.73,458.2a.4.4,0,1,1-.37.72,15.56,15.56,0,0,0-10.79-.76.44.44,0,0,1-.32,0,.42.42,0,0,1-.18-.23.41.41,0,0,1,.27-.51A16.14,16.14,0,0,1,112.73,458.2Z"/><path class="cls-8" d="M110.63,461.74a.43.43,0,0,1,.17.55.41.41,0,0,1-.54.17,15.63,15.63,0,0,0-10.79-.76.46.46,0,0,1-.33,0,.42.42,0,0,1-.18-.23.41.41,0,0,1,.27-.51A16.19,16.19,0,0,1,110.63,461.74Z"/><path class="cls-8" d="M116.94,474.65l15.4-27.55a3,3,0,0,0,.23-2.47,3.06,3.06,0,0,0-1.69-1.8c-5.6-2.35-14-4.35-22.19-.66-1.16-8.94-7.25-15-12.19-18.57a3,3,0,0,0-2.41-.49,3.06,3.06,0,0,0-2,1.48L76.69,452.13a3,3,0,0,0,.9,4c6.94,4.85,11,10.85,12,17.85a1.38,1.38,0,0,0,.26.65,1.44,1.44,0,0,0,.47.41,1.46,1.46,0,0,0,1.29.07c6.49-2.79,13.72-2.49,21.48.88A3,3,0,0,0,116.94,474.65Zm-3.32,0c-7.64-3.31-14.81-3.72-21.4-1.35l1.85-4.59-3.33,3.89a24.81,24.81,0,0,0-4.29-9.93,33.73,33.73,0,0,0-8-7.7,1.68,1.68,0,0,1-.52-2.14l15.41-27.54a1.61,1.61,0,0,1,1.07-.8,1.57,1.57,0,0,1,1.28.26c4.38,3.14,9.8,8.1,11.42,15.59a12,12,0,0,1,.58,3.19l-.26,1.31.89-.81a7.19,7.19,0,0,1,2.94-1.33c7.12-2.38,14.2-.61,19.09,1.44h0a1.59,1.59,0,0,1,.89,1,1.63,1.63,0,0,1-.11,1.33L115.71,474A1.64,1.64,0,0,1,113.62,474.64Z"/><path class="cls-8" d="M111.94,466.94l9.51-17a2.14,2.14,0,0,0,.16-1.75,2.11,2.11,0,0,0-1.19-1.26c-6.87-2.89-11.94-1.56-14-.75-.38-2.16-1.89-7.17-8-11.52a2.1,2.1,0,0,0-1.7-.34,2.14,2.14,0,0,0-1.41,1l-9.52,17a2.15,2.15,0,0,0,.64,2.8c6.08,4.25,7.38,9.15,7.67,11a1.18,1.18,0,0,0,.2.52,1.21,1.21,0,0,0,.38.33,1.14,1.14,0,0,0,1,.05c1.77-.75,6.62-2.2,13.43.75A2.13,2.13,0,0,0,111.94,466.94Zm-2.16-.37c-6-2.61-10.65-2-13.19-1.23l1.09-3.77-2.37,3.22a16.4,16.4,0,0,0-2.68-5.66A22.13,22.13,0,0,0,87.32,454a.74.74,0,0,1-.22-1l9.52-17a.76.76,0,0,1,.48-.36.74.74,0,0,1,.58.11c6.28,4.51,7.29,9.68,7.46,11.16h0l-2.52,5.68,3.85-4.94c1.35-.63,6.28-2.47,13.41.52a.77.77,0,0,1,.4.43.7.7,0,0,1-.06.6l-9.51,17A.73.73,0,0,1,109.78,466.57Z"/><path class="cls-8" d="M159.47,507.79a23.86,23.86,0,0,1,15.9,4.43.58.58,0,0,0,.49.11.63.63,0,0,0,.37-.23.62.62,0,0,0-.12-.87,24.66,24.66,0,0,0-16.81-4.66.62.62,0,0,0,.17,1.22Z"/><path class="cls-8" d="M160.52,512.74a.62.62,0,0,0,.16,1.22,23.88,23.88,0,0,1,15.91,4.43.56.56,0,0,0,.48.11.57.57,0,0,0,.38-.23.61.61,0,0,0-.13-.86A24.6,24.6,0,0,0,160.52,512.74Z"/><path class="cls-8" d="M161.74,518.91a.63.63,0,0,0-.53.69.61.61,0,0,0,.69.53,23.85,23.85,0,0,1,15.9,4.43.59.59,0,0,0,.49.11.55.55,0,0,0,.37-.23.61.61,0,0,0-.12-.86A24.62,24.62,0,0,0,161.74,518.91Z"/><path class="cls-8" d="M163,525.08a.62.62,0,1,0,.17,1.22,23.87,23.87,0,0,1,15.9,4.43.58.58,0,0,0,.49.11.55.55,0,0,0,.37-.23.62.62,0,0,0-.12-.86A24.7,24.7,0,0,0,163,525.08Z"/><path class="cls-8" d="M194.71,501.22a23.76,23.76,0,0,0-13.3,9.77.61.61,0,0,1-.42.28.55.55,0,0,1-.43-.09.61.61,0,0,1-.19-.85A24.69,24.69,0,0,1,194.43,500a.64.64,0,0,1,.74.46A.63.63,0,0,1,194.71,501.22Z"/><path class="cls-8" d="M195.48,506.22a.62.62,0,0,1,.27,1.2,23.8,23.8,0,0,0-13.29,9.78.65.65,0,0,1-.42.27.63.63,0,0,1-.44-.08.64.64,0,0,1-.19-.86A24.69,24.69,0,0,1,195.48,506.22Z"/><path class="cls-8" d="M196.52,512.42a.63.63,0,0,1,.74.46.62.62,0,0,1-.46.74,23.89,23.89,0,0,0-13.3,9.78.57.57,0,0,1-.41.27.61.61,0,0,1-.63-.93A24.67,24.67,0,0,1,196.52,512.42Z"/><path class="cls-8" d="M197.57,518.62a.64.64,0,0,1,.74.46.62.62,0,0,1-.46.74,23.89,23.89,0,0,0-13.3,9.78.62.62,0,0,1-.42.28.67.67,0,0,1-.43-.09.62.62,0,0,1-.19-.85A24.67,24.67,0,0,1,197.57,518.62Z"/><path class="cls-8" d="M217.67,527.38l-9.32-47.25a4.6,4.6,0,0,0-5.92-3.52c-8.85,2.8-20.55,8.75-26.46,21.17-10.19-9.25-23.27-10.31-32.52-9.55a4.63,4.63,0,0,0-4.14,5.51L148.62,541a4.59,4.59,0,0,0,5,3.71c12.85-1.21,23.49,1.78,31.59,8.9a2.18,2.18,0,0,0,.94.49,2.07,2.07,0,0,0,1,0,2.21,2.21,0,0,0,1.56-1.19c4.8-9.66,13.5-16.47,25.85-20.22A4.62,4.62,0,0,0,217.67,527.38Zm-3.87,3.28c-12.15,3.7-20.9,10.31-26.21,19.59l-2.39-7.17,0,7.81a37.85,37.85,0,0,0-14.8-7.3,50.81,50.81,0,0,0-16.92-1,2.57,2.57,0,0,1-2.72-2l-9.31-47.25a2.47,2.47,0,0,1,.45-2,2.42,2.42,0,0,1,1.75-1c8.2-.67,19.41-.27,28.68,6.84,1.6,1.22,2.92,1.9,3.83,3.13l1,1.78.22-1.82c.05-1.37,1.11-2.78,2.11-4.45,5.92-9.8,15.9-14.75,23.62-17.2h0a2.44,2.44,0,0,1,2,.23,2.47,2.47,0,0,1,1.17,1.66l9.32,47.26A2.51,2.51,0,0,1,213.8,530.66Z"/><path class="cls-8" d="M204.24,523.37l-5.75-29.18a3.3,3.3,0,0,0-1.55-2.19,3.24,3.24,0,0,0-2.63-.3c-10.86,3.43-15.43,10-17,12.95-2.57-2.14-9.28-6.48-20.63-5.54a3.26,3.26,0,0,0-2.92,3.89l5.75,29.19a3.27,3.27,0,0,0,3.51,2.62c11.27-1.07,17.62,3.33,19.83,5.27a1.84,1.84,0,0,0,.76.39,1.81,1.81,0,0,0,.77,0,1.78,1.78,0,0,0,1.25-1c1.31-2.63,5.52-9.11,16.34-12.4A3.26,3.26,0,0,0,204.24,523.37Zm-2.88,1.7c-9.56,2.91-14.35,8.21-16.55,11.61l-2.46-5.46.44,6.08a25,25,0,0,0-8.73-3.92,33.66,33.66,0,0,0-11.23-.71,1.12,1.12,0,0,1-1.2-.9l-5.75-29.19a1.12,1.12,0,0,1,.21-.9,1.1,1.1,0,0,1,.78-.43c11.75-1,18,4,19.69,5.59h0l2.68,9.1-.39-9.56c.93-2.07,4.85-9.08,16.1-12.65a1.12,1.12,0,0,1,.89.11,1.14,1.14,0,0,1,.53.75l5.75,29.19A1.11,1.11,0,0,1,201.36,525.07Z"/><path class="cls-9" d="M283.07,594.84a33.91,33.91,0,0,0-13.14,19.39.88.88,0,0,1-1.05.66.89.89,0,0,1-.66-1,35,35,0,0,1,13.91-20.47.89.89,0,0,1,1.21.26A.87.87,0,0,1,283.07,594.84Z"/><path class="cls-9" d="M326.21,618.93l-34.89-58.77a6.6,6.6,0,0,0-4.4-3.1,6.53,6.53,0,0,0-5.2,1.2c-10.5,8-23.33,21.46-25.34,40.88-18-7.53-36-2.74-48,2.67a6.56,6.56,0,0,0-2.92,9.33l34.89,58.78a6.52,6.52,0,0,0,8.39,2.61c16.62-7.73,32.26-8.78,46.48-3.1a3.18,3.18,0,0,0,1.49.21,3.16,3.16,0,0,0,2.82-2.77c1.83-15.2,10.23-28.42,25-39.31A6.57,6.57,0,0,0,326.21,618.93Zm-3.62,6.22c-14.5,10.73-23.06,23.71-25.76,38.65l-6.6-8.46,3.68,10.46a53.71,53.71,0,0,0-23.27-2.73,72.52,72.52,0,0,0-23.12,6.65,3.63,3.63,0,0,1-4.58-1.36l-34.89-58.78a3.54,3.54,0,0,1-.33-2.86,3.43,3.43,0,0,1,1.88-2.13c10.64-4.79,25.82-9.57,41.61-4.47,2.72.88,4.81,1.16,6.6,2.37l2.18,1.9-.56-2.54c-.59-1.86.16-4.24.71-6.94,3.26-15.93,14.26-27.28,23.42-34.22h0a3.41,3.41,0,0,1,2.76-.64,3.52,3.52,0,0,1,2.36,1.66l34.89,58.78A3.54,3.54,0,0,1,322.59,625.15Z"/><path class="cls-9" d="M306.34,620l-21.55-36.31a4.7,4.7,0,0,0-3.1-2.19,4.62,4.62,0,0,0-3.67.85c-12.88,9.75-15.88,20.7-16.57,25.38-4.45-1.63-15.49-4.25-30.22,2.39a4.61,4.61,0,0,0-2.49,2.82,4.66,4.66,0,0,0,.43,3.77L250.72,653a4.62,4.62,0,0,0,5.94,1.83c14.57-6.77,25.15-3.9,29-2.36a2.62,2.62,0,0,0,1.2.17,2.47,2.47,0,0,0,1-.35,2.5,2.5,0,0,0,1.22-1.87c.5-4.14,3.05-14.8,16-24.35A4.62,4.62,0,0,0,306.34,620Zm-3,3.64C291.89,632,288,641.38,286.67,647l-5.87-6.13,3.47,7.93a35.24,35.24,0,0,0-13.53-1.11A47.75,47.75,0,0,0,255.37,652a1.59,1.59,0,0,1-2-.63L231.79,615.1a1.6,1.6,0,0,1-.15-1.3,1.58,1.58,0,0,1,.84-.95c15.26-6.87,26-3.17,29-1.87h0l7.92,10.9-5.07-12.59c.27-3.21,2.19-14.46,15.53-24.56a1.53,1.53,0,0,1,1.24-.28,1.59,1.59,0,0,1,1.07.75l21.55,36.31A1.57,1.57,0,0,1,303.3,623.59Z"/></g><g class="cls-7"><path class="cls-9" d="M744.13,684.89c21.32,1.28,37.92,8.87,49.36,22.55a3.63,3.63,0,0,0,3,1.32,3.66,3.66,0,0,0,1.54-.4,3.57,3.57,0,0,0,1.32-1.16c10.29-14.57,26.23-23.47,47.38-26.47a7.59,7.59,0,0,0,6.54-7.88L850,593.28a7.65,7.65,0,0,0-8.78-7.26c-15.17,2.33-35.79,9.08-48.62,27.88-14.3-17.7-35.4-22.75-50.71-23.85a7.63,7.63,0,0,0-5.84,2.12,7.72,7.72,0,0,0-2.33,5.82L737,677.57A7.65,7.65,0,0,0,744.13,684.89Zm-3.62-7.47-3.22-79.57a4.09,4.09,0,0,1,1.24-3.12,4,4,0,0,1,3.11-1.14h0c13.36,1,31.31,5.07,44.61,18.56,2.26,2.29,4.5,4.15,5.11,6.34l1.06,2.83.93-3.24c1-2.32,2.84-3.93,4.93-6.51,12.19-15,30.06-20,43.49-22a4,4,0,0,1,3.19.88,4.1,4.1,0,0,1,1.5,3L849.69,673a4.24,4.24,0,0,1-3.61,4.24,84.37,84.37,0,0,0-26.82,8.18,62.73,62.73,0,0,0-21,17.43l-3-12.54-1.08,12.45c-12.12-12.88-28.72-20.13-49.7-21.4A4.14,4.14,0,0,1,740.51,677.42Z"/><path class="cls-8" d="M882.59,515.13a27.79,27.79,0,0,0-14.14,13.11.74.74,0,0,1-.45.38.76.76,0,0,1-.51,0,.71.71,0,0,1-.33-1,28.8,28.8,0,0,1,14.94-13.84.74.74,0,0,1,.92.43A.73.73,0,0,1,882.59,515.13Z"/><path class="cls-8" d="M884.14,520.83a.73.73,0,0,1,.92.43.71.71,0,0,1-.43.92,27.89,27.89,0,0,0-14.14,13.12.69.69,0,0,1-.45.37.7.7,0,0,1-.51,0,.71.71,0,0,1-.33-1A28.8,28.8,0,0,1,884.14,520.83Z"/><path class="cls-8" d="M886.18,527.88a.75.75,0,0,1,.92.44.72.72,0,0,1-.43.92,27.85,27.85,0,0,0-14.14,13.11.72.72,0,0,1-1,.34.72.72,0,0,1-.33-1A28.85,28.85,0,0,1,886.18,527.88Z"/><path class="cls-8" d="M888.22,534.94a.74.74,0,0,1,.92.44.72.72,0,0,1-.43.92,27.79,27.79,0,0,0-14.14,13.11.74.74,0,0,1-.45.38.76.76,0,0,1-.51,0,.71.71,0,0,1-.33-1A28.8,28.8,0,0,1,888.22,534.94Z"/><path class="cls-8" d="M842.49,527.16a27.92,27.92,0,0,1,19,3,.74.74,0,0,0,.58.06.7.7,0,0,0,.4-.32.72.72,0,0,0-.26-1,28.78,28.78,0,0,0-20.11-3.18.72.72,0,1,0,.35,1.39Z"/><path class="cls-8" d="M844.37,532.76a.75.75,0,0,0-.53.88.73.73,0,0,0,.88.52,28,28,0,0,1,19,3,.71.71,0,0,0,1-.25.73.73,0,0,0-.25-1A28.9,28.9,0,0,0,844.37,532.76Z"/><path class="cls-8" d="M846.6,539.76a.75.75,0,0,0-.53.88.73.73,0,0,0,.88.52,28,28,0,0,1,19,3,.71.71,0,0,0,1-.25.73.73,0,0,0-.25-1A28.9,28.9,0,0,0,846.6,539.76Z"/><path class="cls-8" d="M848.83,546.76a.74.74,0,0,0-.52.88.71.71,0,0,0,.87.52,27.81,27.81,0,0,1,19,3,.7.7,0,0,0,.58.07A.73.73,0,0,0,869,550,28.84,28.84,0,0,0,848.83,546.76Z"/><path class="cls-8" d="M838.81,570.43c14.83-2.71,27.5-.31,37.65,7.15a2.58,2.58,0,0,0,2.26.41,2.7,2.7,0,0,0,1-.53,2.61,2.61,0,0,0,.71-1c4.61-11.73,14-20.53,28-26.15a5.37,5.37,0,0,0,3.16-6.5l-15.62-54a5.44,5.44,0,0,0-2.86-3.38,5.38,5.38,0,0,0-4.39-.12c-10,4.16-23,12.26-28.65,27.32-12.79-9.73-28.12-9.64-38.81-7.82a5.35,5.35,0,0,0-3.64,2.44,5.47,5.47,0,0,0-.62,4.39l15.62,54A5.41,5.41,0,0,0,838.81,570.43Zm-3.74-4.51-15.62-54a2.9,2.9,0,0,1,.33-2.35,2.83,2.83,0,0,1,1.94-1.31h0c9.32-1.59,22.33-1.79,33.72,5.22,1.94,1.19,3.79,2.09,4.57,3.49l1.21,1.76.09-2.38c.28-1.76,1.28-3.17,2.29-5.3,5.83-12.34,17.25-18.76,26.11-22.44a2.81,2.81,0,0,1,2.34.06,2.91,2.91,0,0,1,1.54,1.82l15.62,54a3,3,0,0,1-1.76,3.51,59.53,59.53,0,0,0-17,10.13A44.15,44.15,0,0,0,879,573.62l-4.21-8.09,1.36,8.73c-10.48-6.8-23.09-9-37.7-6.31A2.91,2.91,0,0,1,835.07,565.92Z"/><path class="cls-8" d="M848.8,558c13-2.38,20.84,2.09,23.6,4.12A2.08,2.08,0,0,0,875,562a2,2,0,0,0,.57-.81c1.26-3.2,5.5-11.16,17.77-16.09a3.81,3.81,0,0,0,2.24-4.6l-9.65-33.38a3.83,3.83,0,0,0-2-2.38,3.78,3.78,0,0,0-3.09-.09c-12.29,5.1-16.93,13.2-18.46,16.79-3.2-2.22-11.46-6.59-24.56-4.35a3.79,3.79,0,0,0-2.57,1.72,3.84,3.84,0,0,0-.44,3.1l9.65,33.38A3.82,3.82,0,0,0,848.8,558Zm-1.94-3.39-9.65-33.38a1.34,1.34,0,0,1,.15-1.07,1.28,1.28,0,0,1,.87-.58c13.58-2.32,21.41,2.87,23.48,4.51l4.7,10.13-2.08-10.88h0c.88-2.51,4.74-11.07,17.46-16.35a1.26,1.26,0,0,1,1,0,1.33,1.33,0,0,1,.7.82l9.65,33.38a1.31,1.31,0,0,1-.77,1.57,39.37,39.37,0,0,0-11.28,6.76,29,29,0,0,0-7,8.74l-2.81-6.55.37,7c-4.1-2.35-11.91-5.29-23.39-3.19A1.3,1.3,0,0,1,846.86,554.57Z"/><path class="cls-8" d="M908.05,386.6a23,23,0,0,0-13.83,7.9.6.6,0,0,1-.84.09.6.6,0,0,1-.08-.84,23.82,23.82,0,0,1,14.62-8.34.6.6,0,0,1,.13,1.19Z"/><path class="cls-8" d="M908.24,391.47a.6.6,0,1,1,.13,1.19,23,23,0,0,0-13.83,7.9.59.59,0,0,1-.43.22.63.63,0,0,1-.41-.13.6.6,0,0,1-.08-.84A23.78,23.78,0,0,1,908.24,391.47Z"/><path class="cls-8" d="M908.56,397.54a.62.62,0,0,1,.66.52.6.6,0,0,1-.53.66,23,23,0,0,0-13.83,7.9.59.59,0,0,1-.43.22.58.58,0,0,1-.41-.13.61.61,0,0,1-.09-.84A23.83,23.83,0,0,1,908.56,397.54Z"/><path class="cls-8" d="M908.88,403.6a.61.61,0,0,1,.65.52.59.59,0,0,1-.52.66,23.07,23.07,0,0,0-13.83,7.9.59.59,0,0,1-.43.22.56.56,0,0,1-.41-.13.61.61,0,0,1-.09-.84A23.83,23.83,0,0,1,908.88,403.6Z"/><path class="cls-8" d="M873.53,388.76a23,23,0,0,1,14.75,6,.62.62,0,0,0,.46.16.63.63,0,0,0,.38-.19.59.59,0,0,0,0-.84,23.88,23.88,0,0,0-15.59-6.34.62.62,0,0,0-.59.61A.59.59,0,0,0,873.53,388.76Z"/><path class="cls-8" d="M874,393.62a.61.61,0,0,0-.58.61.58.58,0,0,0,.6.58,23,23,0,0,1,14.75,6,.62.62,0,0,0,.46.16.63.63,0,0,0,.39-.19.6.6,0,0,0,0-.84A23.86,23.86,0,0,0,874,393.62Z"/><path class="cls-8" d="M874.47,399.68a.6.6,0,0,0,0,1.19,22.94,22.94,0,0,1,14.76,6,.58.58,0,0,0,.45.16.63.63,0,0,0,.39-.19.61.61,0,0,0,0-.84A23.78,23.78,0,0,0,874.47,399.68Z"/><path class="cls-8" d="M875,405.73a.6.6,0,0,0,0,1.19,22.94,22.94,0,0,1,14.75,6,.61.61,0,0,0,.46.16.54.54,0,0,0,.38-.19.59.59,0,0,0,0-.84A23.78,23.78,0,0,0,875,405.73Z"/><path class="cls-8" d="M862.45,422.89c12.45.6,22.2,4.91,29,12.82a2.14,2.14,0,0,0,1.75.75,2.07,2.07,0,0,0,.89-.24,2.13,2.13,0,0,0,.77-.69c5.9-8.57,15.14-13.88,27.46-15.78a4.46,4.46,0,0,0,3.77-4.65l-2.45-46.41a4.45,4.45,0,0,0-5.17-4.18c-8.83,1.47-20.83,5.55-28.18,16.62-8.47-10.23-20.82-13-29.76-13.57a4.45,4.45,0,0,0-4.71,4.69l2.44,46.42A4.45,4.45,0,0,0,862.45,422.89Zm-2.16-4.33-2.44-46.42a2.37,2.37,0,0,1,.71-1.83,2.32,2.32,0,0,1,1.8-.68h0c7.81.47,18.31,2.74,26.17,10.52,1.33,1.32,2.65,2.39,3,3.66l.64,1.65.52-1.9c.55-1.36,1.63-2.31,2.84-3.83,7-8.85,17.4-11.87,25.22-13.17a2.34,2.34,0,0,1,1.87.49,2.4,2.4,0,0,1,.89,1.75L924,415.21a2.47,2.47,0,0,1-2.07,2.5,49.22,49.22,0,0,0-15.59,5A36.67,36.67,0,0,0,894.17,433l-1.86-7.3-.55,7.28c-7.16-7.43-16.9-11.55-29.15-12.15A2.41,2.41,0,0,1,860.29,418.56Z"/><path class="cls-8" d="M872.84,414.73c10.9.53,16.37,5.59,18.22,7.75a1.7,1.7,0,0,0,1.39.6,1.62,1.62,0,0,0,.72-.2,1.69,1.69,0,0,0,.61-.55c1.62-2.33,6.52-7.94,17.32-9.61a3.14,3.14,0,0,0,2.66-3.28l-1.5-28.67a3.17,3.17,0,0,0-1.18-2.3,3.12,3.12,0,0,0-2.47-.65c-10.84,1.8-16.1,7.44-18,10.05-2.16-2.39-8-7.45-19-8.11a3.16,3.16,0,0,0-3.32,3.32l1.51,28.67A3.14,3.14,0,0,0,872.84,414.73Zm-.93-3.09L870.4,383a1.08,1.08,0,0,1,1.13-1.14c11.36.68,16.69,6.32,18.05,8l1.89,9,.36-9.15h0c1.18-1.85,5.89-8,17.12-9.89a1.08,1.08,0,0,1,1.23,1l1.51,28.67a1.07,1.07,0,0,1-.91,1.12A32.4,32.4,0,0,0,900.44,414a24.13,24.13,0,0,0-7.24,5.73l-1-5.79-1,5.68c-2.86-2.66-8.59-6.49-18.23-6.95A1.07,1.07,0,0,1,871.91,411.64Z"/><path class="cls-8" d="M824.65,440.16a15.66,15.66,0,0,0-6.06,9,.41.41,0,0,1-.19.27.48.48,0,0,1-.29,0,.4.4,0,0,1-.3-.48,16.21,16.21,0,0,1,6.4-9.47.42.42,0,0,1,.56.12A.4.4,0,0,1,824.65,440.16Z"/><path class="cls-8" d="M826.23,443.08a.4.4,0,0,1,.43.68,15.63,15.63,0,0,0-6,9,.38.38,0,0,1-.2.26.4.4,0,0,1-.59-.44A16.11,16.11,0,0,1,826.23,443.08Z"/><path class="cls-8" d="M828.24,446.68a.42.42,0,0,1,.56.12.41.41,0,0,1-.13.56,15.68,15.68,0,0,0-6,9,.41.41,0,0,1-.2.26.38.38,0,0,1-.28,0,.4.4,0,0,1-.31-.48A16.11,16.11,0,0,1,828.24,446.68Z"/><path class="cls-8" d="M830.25,450.27a.44.44,0,0,1,.56.12.41.41,0,0,1-.12.56,15.66,15.66,0,0,0-6.06,9,.43.43,0,0,1-.2.27.44.44,0,0,1-.28,0,.41.41,0,0,1-.31-.48A16.2,16.2,0,0,1,830.25,450.27Z"/><path class="cls-8" d="M804.27,451.84a15.59,15.59,0,0,1,10.79-.77.42.42,0,0,0,.33,0,.47.47,0,0,0,.18-.23.42.42,0,0,0-.27-.51,16.19,16.19,0,0,0-11.4.82.4.4,0,0,0,.37.72Z"/><path class="cls-8" d="M806,454.66a.4.4,0,1,0,.37.72,15.59,15.59,0,0,1,10.79-.77.39.39,0,0,0,.32,0,.38.38,0,0,0,.18-.23.41.41,0,0,0-.26-.51A16.17,16.17,0,0,0,806,454.66Z"/><path class="cls-8" d="M808.12,458.2a.4.4,0,1,0,.37.72,15.56,15.56,0,0,1,10.79-.76.44.44,0,0,0,.32,0,.38.38,0,0,0,.18-.23.41.41,0,0,0-.26-.51A16.16,16.16,0,0,0,808.12,458.2Z"/><path class="cls-8" d="M810.23,461.74a.42.42,0,0,0-.18.55.42.42,0,0,0,.55.17,15.62,15.62,0,0,1,10.79-.76.44.44,0,0,0,.32,0,.42.42,0,0,0,.18-.23.41.41,0,0,0-.26-.51A16.16,16.16,0,0,0,810.23,461.74Z"/><path class="cls-8" d="M807.76,476c7.76-3.37,15-3.67,21.48-.88a1.46,1.46,0,0,0,1.29-.07,1.44,1.44,0,0,0,.47-.41,1.38,1.38,0,0,0,.26-.65c1-7,5.07-13,12-17.85a3,3,0,0,0,.9-4l-15.41-27.54a3.06,3.06,0,0,0-2-1.48,3,3,0,0,0-2.41.49c-4.94,3.54-11,9.63-12.18,18.57-8.23-3.69-16.59-1.69-22.2.66a3,3,0,0,0-1.46,4.27l15.4,27.55A3,3,0,0,0,807.76,476Zm-2.62-2-15.4-27.54a1.63,1.63,0,0,1-.12-1.33,1.59,1.59,0,0,1,.89-1h0c4.9-2.05,12-3.82,19.09-1.44a7.12,7.12,0,0,1,2.94,1.33l.89.81-.25-1.31a11.52,11.52,0,0,1,.57-3.19c1.62-7.49,7-12.45,11.42-15.59a1.57,1.57,0,0,1,1.28-.26,1.59,1.59,0,0,1,1.07.8l15.41,27.54a1.67,1.67,0,0,1-.52,2.14,33.73,33.73,0,0,0-8,7.7,24.81,24.81,0,0,0-4.29,9.93l-3.33-3.89,1.86,4.59c-6.6-2.37-13.76-2-21.4,1.35A1.65,1.65,0,0,1,805.14,474Z"/><path class="cls-8" d="M811.64,467.86c6.8-2.95,11.65-1.5,13.42-.75a1.14,1.14,0,0,0,1-.05,1.21,1.21,0,0,0,.38-.33,1.19,1.19,0,0,0,.21-.52c.28-1.9,1.58-6.8,7.66-11a2.14,2.14,0,0,0,.64-2.8l-9.52-17a2.14,2.14,0,0,0-1.4-1,2.11,2.11,0,0,0-1.71.34c-6.06,4.35-7.57,9.36-7.94,11.52-2-.81-7.1-2.14-14,.75a2.11,2.11,0,0,0-1.19,1.26,2.18,2.18,0,0,0,.16,1.75l9.52,17A2.12,2.12,0,0,0,811.64,467.86Zm-1.5-1.6-9.51-17a.7.7,0,0,1,0-.6.75.75,0,0,1,.39-.43c7.13-3,12.07-1.15,13.41-.52l3.86,4.94L815.72,447h0c.16-1.48,1.18-6.65,7.45-11.16a.74.74,0,0,1,1.06.25l9.52,17a.74.74,0,0,1-.22,1,21.88,21.88,0,0,0-5.3,5.12,16.28,16.28,0,0,0-2.69,5.66l-2.37-3.22,1.09,3.77c-2.54-.76-7.18-1.38-13.18,1.23A.74.74,0,0,1,810.14,466.26Z"/><path class="cls-9" d="M761.38,507.79a23.87,23.87,0,0,0-15.9,4.43.58.58,0,0,1-.49.11.67.67,0,0,1-.37-.23.63.63,0,0,1,.12-.87,24.66,24.66,0,0,1,16.81-4.66.62.62,0,1,1-.17,1.22Z"/><path class="cls-9" d="M760.33,512.74a.62.62,0,1,1-.16,1.22,23.85,23.85,0,0,0-15.9,4.43.59.59,0,0,1-.49.11.57.57,0,0,1-.38-.23.62.62,0,0,1,.13-.86A24.62,24.62,0,0,1,760.33,512.74Z"/><path class="cls-9" d="M759.12,518.91a.63.63,0,0,1,.52.69.61.61,0,0,1-.69.53,23.86,23.86,0,0,0-15.9,4.43.58.58,0,0,1-.49.11.55.55,0,0,1-.37-.23.61.61,0,0,1,.12-.86A24.63,24.63,0,0,1,759.12,518.91Z"/><path class="cls-9" d="M757.9,525.08a.63.63,0,0,1,.53.69.62.62,0,0,1-.69.53,23.88,23.88,0,0,0-15.91,4.43.56.56,0,0,1-.48.11.57.57,0,0,1-.38-.23.61.61,0,0,1,.13-.86A24.67,24.67,0,0,1,757.9,525.08Z"/><path class="cls-9" d="M726.15,501.22a23.79,23.79,0,0,1,13.3,9.77.61.61,0,0,0,.85.19.62.62,0,0,0,.19-.85A24.72,24.72,0,0,0,726.43,500a.63.63,0,0,0-.74.46A.61.61,0,0,0,726.15,501.22Z"/><path class="cls-9" d="M725.38,506.22a.62.62,0,1,0-.28,1.2,23.83,23.83,0,0,1,13.3,9.78.61.61,0,0,0,.41.27.63.63,0,0,0,.44-.08.64.64,0,0,0,.19-.86A24.68,24.68,0,0,0,725.38,506.22Z"/><path class="cls-9" d="M724.33,512.42a.64.64,0,0,0-.74.46.62.62,0,0,0,.46.74,23.89,23.89,0,0,1,13.3,9.78.59.59,0,0,0,.42.27.6.6,0,0,0,.43-.08.62.62,0,0,0,.19-.85A24.67,24.67,0,0,0,724.33,512.42Z"/><path class="cls-9" d="M723.28,518.62a.64.64,0,0,0-.74.46.62.62,0,0,0,.46.74,23.89,23.89,0,0,1,13.3,9.78.64.64,0,0,0,.42.28.66.66,0,0,0,.43-.09.62.62,0,0,0,.19-.85A24.67,24.67,0,0,0,723.28,518.62Z"/><path class="cls-9" d="M706.37,532.7c12.36,3.75,21,10.56,25.85,20.22a2.21,2.21,0,0,0,1.56,1.19,2.07,2.07,0,0,0,1,0,2.18,2.18,0,0,0,.94-.49c8.11-7.12,18.74-10.11,31.6-8.9a4.58,4.58,0,0,0,5-3.71l9.32-47.25a4.67,4.67,0,0,0-.85-3.69,4.61,4.61,0,0,0-3.3-1.82c-9.24-.76-22.33.3-32.52,9.55-5.91-12.42-17.61-18.37-26.46-21.17a4.61,4.61,0,0,0-3.73.42,4.65,4.65,0,0,0-2.19,3.1l-9.32,47.25A4.63,4.63,0,0,0,706.37,532.7Zm-1.08-4.9,9.32-47.26a2.47,2.47,0,0,1,1.17-1.66,2.44,2.44,0,0,1,2-.23h0c7.72,2.45,17.7,7.4,23.62,17.2,1,1.67,2.06,3.08,2.11,4.45l.23,1.82,1-1.78c.9-1.23,2.22-1.91,3.82-3.13,9.28-7.11,20.49-7.51,28.68-6.84a2.42,2.42,0,0,1,1.75,1,2.51,2.51,0,0,1,.46,2l-9.32,47.25a2.57,2.57,0,0,1-2.71,2,50.86,50.86,0,0,0-16.93,1,37.85,37.85,0,0,0-14.8,7.3l0-7.81-2.39,7.17c-5.31-9.28-14-15.89-26.21-19.59A2.51,2.51,0,0,1,705.29,527.8Z"/><path class="cls-9" d="M718.87,527.13c10.83,3.29,15,9.77,16.34,12.4a1.8,1.8,0,0,0,1.25,1,1.81,1.81,0,0,0,1.53-.41c2.21-1.94,8.56-6.34,19.83-5.27a3.27,3.27,0,0,0,3.51-2.62L767.08,503a3.26,3.26,0,0,0-2.92-3.89c-11.35-.94-18.06,3.4-20.63,5.54-1.56-2.95-6.13-9.52-17-12.95a3.24,3.24,0,0,0-2.63.3,3.29,3.29,0,0,0-1.54,2.19l-5.76,29.18A3.27,3.27,0,0,0,718.87,527.13Zm-.15-3.34,5.76-29.19a1.12,1.12,0,0,1,1.42-.86c11.24,3.57,15.16,10.58,16.1,12.65l-.4,9.56,2.69-9.1h0c1.65-1.56,7.94-6.56,19.7-5.59a1.1,1.1,0,0,1,1,1.33l-5.75,29.19a1.12,1.12,0,0,1-1.2.9,33.68,33.68,0,0,0-11.23.71,24.93,24.93,0,0,0-8.72,3.92l.43-6.08L736,536.68c-2.19-3.4-7-8.7-16.55-11.61A1.11,1.11,0,0,1,718.72,523.79Z"/><path class="cls-8" d="M637.78,594.84a33.91,33.91,0,0,1,13.14,19.39.88.88,0,1,0,1.71-.39,35,35,0,0,0-13.91-20.47.88.88,0,0,0-1.2.26A.86.86,0,0,0,637.78,594.84Z"/><path class="cls-8" d="M596.38,627.56c14.74,10.89,23.15,24.11,25,39.31a3.15,3.15,0,0,0,1.53,2.34,3,3,0,0,0,1.29.43,3.24,3.24,0,0,0,1.5-.21c14.21-5.68,29.85-4.63,46.47,3.1a6.53,6.53,0,0,0,8.4-2.61l34.89-58.78a6.62,6.62,0,0,0,.61-5.34,6.54,6.54,0,0,0-3.54-4c-12-5.41-30-10.2-48-2.67-2-19.42-14.84-32.93-25.34-40.88a6.55,6.55,0,0,0-9.59,1.9l-34.89,58.77A6.56,6.56,0,0,0,596.38,627.56Zm.89-7.07,34.89-58.78a3.52,3.52,0,0,1,2.36-1.66,3.44,3.44,0,0,1,2.77.64h0c9.16,6.94,20.16,18.29,23.42,34.22.56,2.7,1.3,5.08.71,6.94l-.56,2.54,2.18-1.9c1.79-1.21,3.88-1.49,6.6-2.37,15.79-5.1,31-.32,41.61,4.47a3.43,3.43,0,0,1,1.88,2.13,3.5,3.5,0,0,1-.33,2.86l-34.89,58.78a3.62,3.62,0,0,1-4.57,1.36,72.64,72.64,0,0,0-23.13-6.65,53.71,53.71,0,0,0-23.27,2.73l3.68-10.46L624,663.8c-2.7-14.94-11.26-27.92-25.76-38.65A3.55,3.55,0,0,1,597.27,620.49Z"/><path class="cls-8" d="M615.74,626c12.92,9.55,15.48,20.21,16,24.35a2.56,2.56,0,0,0,2.26,2.22,2.62,2.62,0,0,0,1.2-.17c3.87-1.54,14.46-4.41,29,2.36a4.62,4.62,0,0,0,5.94-1.83l21.55-36.31a4.63,4.63,0,0,0-2.06-6.59c-14.73-6.64-25.77-4-30.22-2.39-.69-4.68-3.68-15.63-16.57-25.38a4.61,4.61,0,0,0-3.66-.85,4.71,4.71,0,0,0-3.11,2.19L614.51,620A4.62,4.62,0,0,0,615.74,626Zm1.39-4.53,21.55-36.31a1.59,1.59,0,0,1,1.07-.75,1.53,1.53,0,0,1,1.24.28c13.35,10.1,15.26,21.35,15.53,24.56l-5.07,12.59,7.92-10.9h0c3-1.3,13.74-5,29,1.87a1.55,1.55,0,0,1,.84.95,1.6,1.6,0,0,1-.15,1.3l-21.55,36.31a1.59,1.59,0,0,1-2,.63,47.75,47.75,0,0,0-15.37-4.38,35.16,35.16,0,0,0-13.52,1.11l3.46-7.93L634.18,647c-1.33-5.59-5.22-15-16.63-23.38A1.58,1.58,0,0,1,617.13,621.51Z"/></g><g class="cls-7"><path class="cls-8" d="M.75,88.87-32.79,16.64a7.69,7.69,0,0,0-4.73-4.11,7.63,7.63,0,0,0-6.17.77c-13.11,8-29.56,22.14-34.18,44.42-20-10.85-41.43-7.41-56-2.55a7.6,7.6,0,0,0-4.57,4.21,7.67,7.67,0,0,0,.09,6.26l33.53,72.23a7.6,7.6,0,0,0,9.42,4c20.18-7,38.43-6.38,54.25,1.86a3.67,3.67,0,0,0,1.71.43,3.64,3.64,0,0,0,1.54-.35,3.67,3.67,0,0,0,2-2.53c3.9-17.41,15.19-31.75,33.56-42.64A7.65,7.65,0,0,0,.75,88.87Zm-4.93,6.78c-18.06,10.73-29.51,24.78-34.39,41.78l-6.66-10.59,3,12.55a62.84,62.84,0,0,0-26.65-5.89,84.35,84.35,0,0,0-27.59,5,4.22,4.22,0,0,1-5.14-2.11l-33.54-72.23a4.12,4.12,0,0,1,0-3.37,4,4,0,0,1,2.43-2.24c12.89-4.3,31-8.06,48.75-.3,3,1.34,5.44,1.92,7.37,3.53l2.3,2.46-.34-3c-.46-2.22.68-4.9,1.64-8,5.65-18.08,19.73-29.94,31.17-36.91h0a4,4,0,0,1,3.28-.41A4.09,4.09,0,0,1-36,18.13L-2.48,90.36A4.13,4.13,0,0,1-4.18,95.65Z"/><path class="cls-8" d="M90.92,109.2c.14,0,14.19,1.58,23.86,13.25a1,1,0,0,0,.75.37,1,1,0,0,0,.69-.23,1,1,0,0,0,.13-1.44,40.78,40.78,0,0,0-25.22-14,1,1,0,0,0-1.12.91A1,1,0,0,0,90.92,109.2Z"/><path class="cls-8" d="M90.71,117.56a1,1,0,0,0-1.12.91,1,1,0,0,0,.91,1.12c.14,0,14.19,1.59,23.86,13.25a1,1,0,0,0,.74.37,1,1,0,0,0,.83-1.67A40.8,40.8,0,0,0,90.71,117.56Z"/><path class="cls-8" d="M90.29,128a1.06,1.06,0,0,0-1.12.91,1,1,0,0,0,.91,1.12c.14,0,14.19,1.59,23.86,13.26a1,1,0,0,0,.74.36,1,1,0,0,0,.69-.23,1,1,0,0,0,.14-1.44A40.8,40.8,0,0,0,90.29,128Z"/><path class="cls-8" d="M89.86,138.34a1.06,1.06,0,0,0-1.11.91,1,1,0,0,0,.91,1.12c.14,0,14.18,1.59,23.86,13.26a1,1,0,0,0,.74.37,1,1,0,0,0,.83-1.67A40.91,40.91,0,0,0,89.86,138.34Z"/><path class="cls-8" d="M150.12,112.2c-.14,0-14.28,0-25.16,10.61a1,1,0,0,1-.77.28,1,1,0,0,1-.67-.31,1,1,0,0,1,0-1.44,40.79,40.79,0,0,1,26.59-11.17,1,1,0,0,1,1,1A1,1,0,0,1,150.12,112.2Z"/><path class="cls-8" d="M149.43,120.54a1,1,0,0,1,1,1,1,1,0,0,1-1,1c-.14,0-14.27,0-25.15,10.6a1,1,0,0,1-.78.29,1,1,0,0,1-.64-1.75A40.83,40.83,0,0,1,149.43,120.54Z"/><path class="cls-8" d="M148.72,130.92a1.06,1.06,0,0,1,1,1,1,1,0,0,1-1,1c-.14,0-14.27,0-25.15,10.6a1,1,0,0,1-1.44,0,1,1,0,0,1,0-1.45A40.76,40.76,0,0,1,148.72,130.92Z"/><path class="cls-8" d="M148,141.29a1.05,1.05,0,0,1,1,1,1,1,0,0,1-1,1c-.14,0-14.28,0-25.15,10.6a1,1,0,0,1-.78.29,1,1,0,0,1-.67-.31,1,1,0,0,1,0-1.44A40.86,40.86,0,0,1,148,141.29Z"/><path class="cls-8" d="M177,163.13l3.23-79.58A7.64,7.64,0,0,0,172,75.61c-15.31,1.1-36.41,6.15-50.71,23.85-12.82-18.8-33.45-25.55-48.62-27.88a7.65,7.65,0,0,0-8.78,7.26l-3.23,79.57a7.61,7.61,0,0,0,6.54,7.88c21.15,3,37.09,11.9,47.38,26.47a3.66,3.66,0,0,0,2.86,1.56,3.65,3.65,0,0,0,3-1.32c11.43-13.68,28-21.27,49.35-22.55A7.65,7.65,0,0,0,177,163.13Zm-7.48,3.78c-21,1.27-37.58,8.52-49.7,21.4l-1.08-12.45-3,12.54a62.76,62.76,0,0,0-21-17.43,84.37,84.37,0,0,0-26.82-8.18,4.23,4.23,0,0,1-3.6-4.24L67.46,79A4.14,4.14,0,0,1,69,76a4,4,0,0,1,3.19-.88c13.43,2.07,31.3,7,43.49,22,2.1,2.58,4,4.19,4.94,6.51l.92,3.24,1.07-2.83c.61-2.19,2.84-4,5.1-6.34,13.3-13.49,31.25-17.6,44.61-18.56h0a4,4,0,0,1,3.11,1.14,4.1,4.1,0,0,1,1.25,3.12L173.41,163A4.14,4.14,0,0,1,169.48,166.91Z"/><path class="cls-8" d="M156.91,151.51l2-49.15a5.38,5.38,0,0,0-1.64-4.11,5.43,5.43,0,0,0-4.12-1.51c-18.77,1.35-28.65,10.15-32.3,14.28-3.31-4.42-12.43-14-31-16.85a5.41,5.41,0,0,0-6.2,5.13l-2,49.15A5.39,5.39,0,0,0,86.24,154c18.53,2.63,27.05,12.15,29.86,16.11a2.86,2.86,0,0,0,1.06.93,3.08,3.08,0,0,0,1.24.32,2.92,2.92,0,0,0,2.38-1.06c3.11-3.73,12.38-12.52,31.06-13.64A5.38,5.38,0,0,0,156.91,151.51Zm-5.28,1.62c-16.5,1-26.25,7.67-31.09,12.29l-1.85-9.72-1.64,10A41.24,41.24,0,0,0,104.53,156a55.43,55.43,0,0,0-17.79-5.48,1.83,1.83,0,0,1-1.58-1.9l2-49.15a1.84,1.84,0,0,1,2.1-1.77c19.27,3,27.46,13.44,29.52,16.59h0l.81,15.67,3-15.52c2.3-3,11.31-12.74,30.76-14.13a1.8,1.8,0,0,1,1.39.51,1.85,1.85,0,0,1,.56,1.41l-2,49.15A1.83,1.83,0,0,1,151.63,153.13Z"/><path class="cls-9" d="M31.34.69A27.83,27.83,0,0,1,45.47,13.8a.74.74,0,0,0,.45.38.76.76,0,0,0,.51,0,.72.72,0,0,0,.34-1,28.81,28.81,0,0,0-15-13.84.74.74,0,0,0-.92.43A.73.73,0,0,0,31.34.69Z"/><path class="cls-9" d="M29.78,6.39a.73.73,0,0,0-.92.43.72.72,0,0,0,.44.92A27.93,27.93,0,0,1,43.43,20.86a.73.73,0,0,0,1,.33.72.72,0,0,0,.34-1A28.81,28.81,0,0,0,29.78,6.39Z"/><path class="cls-9" d="M27.74,13.44a.75.75,0,0,0-.92.44.72.72,0,0,0,.44.92A27.88,27.88,0,0,1,41.39,27.91a.71.71,0,0,0,.45.38.7.7,0,0,0,.51,0,.73.73,0,0,0,.34-1A28.86,28.86,0,0,0,27.74,13.44Z"/><path class="cls-9" d="M25.7,20.5a.74.74,0,0,0-.92.44.72.72,0,0,0,.44.92A27.83,27.83,0,0,1,39.35,35a.74.74,0,0,0,.45.38.76.76,0,0,0,.51-.05.72.72,0,0,0,.34-1A28.81,28.81,0,0,0,25.7,20.5Z"/><path class="cls-9" d="M71.44,12.72a27.92,27.92,0,0,0-19,3,.77.77,0,0,1-.59.06.7.7,0,0,1-.4-.32.73.73,0,0,1,.26-1,28.8,28.8,0,0,1,20.12-3.18.72.72,0,0,1-.35,1.39Z"/><path class="cls-9" d="M69.56,18.32a.74.74,0,0,1,.52.88.73.73,0,0,1-.88.52,28,28,0,0,0-19,3,.71.71,0,0,1-1-.25.72.72,0,0,1,.26-1A28.9,28.9,0,0,1,69.56,18.32Z"/><path class="cls-9" d="M67.33,25.32a.76.76,0,0,1,.52.88.73.73,0,0,1-.88.52,28,28,0,0,0-19,3,.71.71,0,0,1-1-.25.72.72,0,0,1,.26-1A28.9,28.9,0,0,1,67.33,25.32Z"/><path class="cls-9" d="M65.1,32.32a.76.76,0,0,1,.52.88.73.73,0,0,1-.88.52,27.82,27.82,0,0,0-19,3,.7.7,0,0,1-.58.07A.72.72,0,0,1,45,35.51,28.84,28.84,0,0,1,65.1,32.32Z"/><path class="cls-9" d="M81.27,52.17l15.62-54a5.43,5.43,0,0,0-.62-4.39,5.33,5.33,0,0,0-3.64-2.44c-10.69-1.82-26-1.91-38.81,7.82C48.19-15.93,35.18-24,25.17-28.19a5.38,5.38,0,0,0-4.39.12,5.39,5.39,0,0,0-2.85,3.38L2.3,29.35a5.37,5.37,0,0,0,3.16,6.5c14,5.62,23.44,14.42,28,26.15a2.53,2.53,0,0,0,1.7,1.55,2.58,2.58,0,0,0,2.26-.41C47.61,55.68,60.28,53.28,75.12,56A5.4,5.4,0,0,0,81.27,52.17ZM75.5,53.51C60.9,50.85,48.29,53,37.8,59.82l1.36-8.73L35,59.18A44.3,44.3,0,0,0,23.49,43.69a59.61,59.61,0,0,0-17-10.13,3,3,0,0,1-1.76-3.51L20.34-24a2.89,2.89,0,0,1,1.53-1.82,2.81,2.81,0,0,1,2.34-.06c8.86,3.68,20.28,10.1,26.11,22.44,1,2.13,2,3.54,2.29,5.3l.09,2.38,1.21-1.76C54.7,1.09,56.55.19,58.48-1c11.39-7,24.4-6.81,33.73-5.22h0a2.85,2.85,0,0,1,1.94,1.31,2.9,2.9,0,0,1,.33,2.35l-15.62,54A2.93,2.93,0,0,1,75.5,53.51Z"/><path class="cls-9" d="M69.47,40.83,79.12,7.45a3.88,3.88,0,0,0-.43-3.1,3.83,3.83,0,0,0-2.57-1.72C63,.39,54.75,4.76,51.55,7,50,3.39,45.38-4.71,33.1-9.81a3.81,3.81,0,0,0-3.1.09,3.86,3.86,0,0,0-2,2.38L18.34,26a3.79,3.79,0,0,0,2.24,4.6c12.26,4.93,16.5,12.89,17.76,16.09A2.06,2.06,0,0,0,39.71,48a2.06,2.06,0,0,0,1.81-.33c2.76-2,10.6-6.5,23.6-4.12A3.81,3.81,0,0,0,69.47,40.83Zm-3.9.22c-11.48-2.1-19.29.84-23.39,3.19l.37-7-2.8,6.55a29,29,0,0,0-7-8.74,39.37,39.37,0,0,0-11.28-6.76,1.29,1.29,0,0,1-.76-1.57L30.4-6.64a1.28,1.28,0,0,1,.69-.82,1.26,1.26,0,0,1,1,0C44.85-2.21,48.71,6.35,49.59,8.86h0L47.51,19.74l4.7-10.13C54.29,8,62.12,2.78,75.69,5.1a1.24,1.24,0,0,1,.87.58,1.3,1.3,0,0,1,.15,1.07L67.06,40.13A1.3,1.3,0,0,1,65.57,41.05Z"/><path class="cls-8" d="M171.23-5.17a.62.62,0,0,0-.66.53.6.6,0,0,0,.52.66,23,23,0,0,1,13.84,7.9.57.57,0,0,0,.43.22.6.6,0,0,0,.4-.13.59.59,0,0,0,.09-.84A23.88,23.88,0,0,0,171.23-5.17Z"/><path class="cls-8" d="M170.91.9a.62.62,0,0,0-.66.52.6.6,0,0,0,.52.66A23,23,0,0,1,184.61,10a.59.59,0,0,0,.43.22.55.55,0,0,0,.4-.13.59.59,0,0,0,.09-.84A23.84,23.84,0,0,0,170.91.9Z"/><path class="cls-8" d="M170.59,7a.62.62,0,0,0-.66.52.6.6,0,0,0,.53.66A23.09,23.09,0,0,1,184.29,16a.59.59,0,0,0,.43.22.58.58,0,0,0,.41-.13.6.6,0,0,0,.08-.84A23.84,23.84,0,0,0,170.59,7Z"/><path class="cls-8" d="M205.48-3a.61.61,0,0,1,.58.61.59.59,0,0,1-.61.58,23,23,0,0,0-14.75,6,.59.59,0,0,1-.84,0,.59.59,0,0,1,0-.84A23.88,23.88,0,0,1,205.48-3Z"/><path class="cls-8" d="M205,3a.6.6,0,1,1,0,1.19,22.94,22.94,0,0,0-14.75,6,.62.62,0,0,1-.46.16.58.58,0,0,1-.38-.19.59.59,0,0,1,0-.84A23.78,23.78,0,0,1,205,3Z"/><path class="cls-8" d="M204.51,9.09a.6.6,0,0,1,.58.6.59.59,0,0,1-.6.59,22.94,22.94,0,0,0-14.75,6,.62.62,0,0,1-.46.16.58.58,0,0,1-.39-.19.6.6,0,0,1,0-.84A23.76,23.76,0,0,1,204.51,9.09Z"/><path class="cls-8" d="M221.25,22l2.44-46.42a4.52,4.52,0,0,0-1.32-3.41A4.44,4.44,0,0,0,219-29.08c-8.94.53-21.3,3.34-29.77,13.57C181.86-26.58,169.87-30.66,161-32.13a4.47,4.47,0,0,0-3.51.92,4.49,4.49,0,0,0-1.67,3.26l-2.44,46.41a4.44,4.44,0,0,0,3.76,4.65c12.32,1.9,21.56,7.21,27.47,15.78a2.18,2.18,0,0,0,.76.69,2.17,2.17,0,0,0,2.64-.51c6.77-7.91,16.51-12.22,29-12.82A4.45,4.45,0,0,0,221.25,22Zm-4.39,2.15c-12.25.6-22,4.72-29.16,12.15l-.54-7.28-1.87,7.3A36.63,36.63,0,0,0,173.16,26a49.3,49.3,0,0,0-15.59-5,2.48,2.48,0,0,1-2.08-2.5l2.44-46.41a2.41,2.41,0,0,1,.9-1.75,2.33,2.33,0,0,1,1.87-.49c7.82,1.3,18.22,4.32,25.22,13.17,1.21,1.52,2.28,2.47,2.84,3.83l.51,1.9.65-1.65c.37-1.27,1.69-2.34,3-3.66,7.85-7.78,18.36-10,26.16-10.52h0a2.34,2.34,0,0,1,1.81.68,2.41,2.41,0,0,1,.71,1.83l-2.44,46.42A2.42,2.42,0,0,1,216.86,24.18Z"/><path class="cls-8" d="M209.63,15.11l1.5-28.67A3.14,3.14,0,0,0,210.2-16a3.13,3.13,0,0,0-2.39-.91c-11,.66-16.79,5.72-18.95,8.11-1.9-2.61-7.16-8.25-18-10a3.1,3.1,0,0,0-2.47.65,3.17,3.17,0,0,0-1.18,2.3L165.7,12.8a3.15,3.15,0,0,0,2.67,3.28c10.79,1.67,15.7,7.28,17.31,9.61a1.69,1.69,0,0,0,.61.55,1.65,1.65,0,0,0,.72.2,1.7,1.7,0,0,0,1.4-.6c1.84-2.16,7.31-7.22,18.22-7.75A3.15,3.15,0,0,0,209.63,15.11Zm-3.1.91c-9.63.46-15.37,4.29-18.23,7l-1-5.68-1,5.79A23.93,23.93,0,0,0,179,17.35,32.46,32.46,0,0,0,168.68,14a1.08,1.08,0,0,1-.91-1.12l1.51-28.67a1.07,1.07,0,0,1,.41-.79,1,1,0,0,1,.83-.23c11.23,1.87,15.94,8,17.11,9.89h0L188,2.26l1.88-9c1.37-1.72,6.69-7.36,18.06-8a1.08,1.08,0,0,1,.8.31,1,1,0,0,1,.32.83L207.56,15A1.07,1.07,0,0,1,206.53,16Z"/><path class="cls-9" d="M-18.33,198.85a.69.69,0,0,0-.42.84.67.67,0,0,0,.84.43A25.81,25.81,0,0,1-.1,201.73a.71.71,0,0,0,.55,0,.66.66,0,0,0,.35-.33.66.66,0,0,0-.3-.89A26.71,26.71,0,0,0-18.33,198.85Z"/><path class="cls-9" d="M-15.82,205.19a.69.69,0,0,0-.43.84.67.67,0,0,0,.84.43,25.9,25.9,0,0,1,17.82,1.61.64.64,0,0,0,.54,0,.63.63,0,0,0,.35-.33.66.66,0,0,0-.3-.89A26.69,26.69,0,0,0-15.82,205.19Z"/><path class="cls-9" d="M13.36,173.54a25.89,25.89,0,0,0-12.26,13,.66.66,0,0,1-.4.37.59.59,0,0,1-.47,0,.66.66,0,0,1-.37-.87,26.66,26.66,0,0,1,13-13.74.67.67,0,1,1,.53,1.22Z"/><path class="cls-9" d="M15.16,178.72a.68.68,0,0,1,.88.35.68.68,0,0,1-.35.88A25.84,25.84,0,0,0,3.43,193a.68.68,0,0,1-.4.38.69.69,0,0,1-.47,0,.66.66,0,0,1-.37-.87A26.76,26.76,0,0,1,15.16,178.72Z"/><path class="cls-9" d="M17.49,185.13a.69.69,0,0,1,.88.34.67.67,0,0,1-.35.88,25.94,25.94,0,0,0-12.26,13,.66.66,0,0,1-.4.37.64.64,0,0,1-.47,0,.66.66,0,0,1-.37-.87A26.71,26.71,0,0,1,17.49,185.13Z"/><path class="cls-9" d="M19.82,191.53a.7.7,0,0,1,.88.35.68.68,0,0,1-.35.88,25.89,25.89,0,0,0-12.26,13,.65.65,0,0,1-.4.38.64.64,0,0,1-.47,0,.66.66,0,0,1-.37-.87A26.76,26.76,0,0,1,19.82,191.53Z"/><path class="cls-9" d="M43,197,23.79,148.39a5.1,5.1,0,0,0-2.94-2.87,5,5,0,0,0-4.06.28c-8.89,4.72-20.2,13.34-24.07,27.74-12.68-7.87-26.83-6.44-36.54-3.82A5,5,0,0,0-47,172.3a5.05,5.05,0,0,0-.19,4.1L-28,225a5,5,0,0,0,6,3c13.48-3.81,25.39-2.7,35.42,3.31a2.44,2.44,0,0,0,1.11.34,2.26,2.26,0,0,0,1-.17A2.36,2.36,0,0,0,17,229.84c3.23-11.23,11.17-20.18,23.61-26.6A5,5,0,0,0,43,197Zm-3.48,4.25c-12.23,6.32-20.26,15.07-24.11,26L11.41,220l1.5,8.32A41.11,41.11,0,0,0-4.3,223.47a55.16,55.16,0,0,0-18.24,2.21,2.78,2.78,0,0,1-3.29-1.58L-45,175.54a2.68,2.68,0,0,1,.1-2.2A2.6,2.6,0,0,1-43.21,172c8.6-2.32,20.63-4.09,31.91,1.68,1.94,1,3.48,1.46,4.68,2.59l1.42,1.7-.11-2c-.22-1.48.63-3.18,1.37-5.15,4.4-11.62,14.07-18.84,21.82-23h0a2.62,2.62,0,0,1,2.17-.14,2.68,2.68,0,0,1,1.57,1.54L40.79,197.8A2.73,2.73,0,0,1,39.47,201.2Z"/><path class="cls-9" d="M27.85,195.3,16,165.31a3.54,3.54,0,0,0-4.94-1.84C.18,169.26-3.41,177.15-4.5,180.6c-3.16-1.78-11.16-5.09-23.08-1.87a3.51,3.51,0,0,0-2.22,1.82,3.55,3.55,0,0,0-.13,2.89l11.84,30a3.53,3.53,0,0,0,4.25,2.11c11.81-3.33,19.44.11,22.17,1.74a1.93,1.93,0,0,0,.88.28,2,2,0,0,0,.83-.14,1.93,1.93,0,0,0,1.15-1.26c.87-3.06,4.1-10.79,15-16.42A3.51,3.51,0,0,0,27.85,195.3Zm-2.73,2.37c-9.63,5-13.7,11.56-15.38,15.61l-3.68-5.34,1.65,6.4a27.33,27.33,0,0,0-10.07-2.48,36.54,36.54,0,0,0-12.11,1.44,1.2,1.2,0,0,1-1.45-.72l-11.84-30a1.21,1.21,0,0,1,0-1A1.19,1.19,0,0,1-27,181c12.34-3.33,20,.78,22.09,2.12h0l4.65,9.17-2.29-10.1c.59-2.39,3.4-10.64,14.69-16.63a1.17,1.17,0,0,1,1-.06,1.21,1.21,0,0,1,.71.69l11.84,30A1.21,1.21,0,0,1,25.12,197.67Z"/><path class="cls-8" d="M317.69.75a23.9,23.9,0,0,1,15.9,4.44.62.62,0,0,0,.49.11.62.62,0,0,0,.25-1.1,24.68,24.68,0,0,0-16.8-4.67.62.62,0,0,0-.53.69A.61.61,0,0,0,317.69.75Z"/><path class="cls-8" d="M318.74,5.7a.64.64,0,0,0-.53.69.62.62,0,0,0,.7.53,23.91,23.91,0,0,1,15.9,4.44.61.61,0,0,0,.49.11.63.63,0,0,0,.37-.24.62.62,0,0,0-.12-.86A24.7,24.7,0,0,0,318.74,5.7Z"/><path class="cls-8" d="M320,11.87a.64.64,0,0,0-.53.69.61.61,0,0,0,.69.53A23.89,23.89,0,0,1,336,17.53a.62.62,0,0,0,.87-.13.62.62,0,0,0-.13-.86A24.68,24.68,0,0,0,320,11.87Z"/><path class="cls-8" d="M321.17,18a.64.64,0,0,0-.52.7.6.6,0,0,0,.69.52,23.9,23.9,0,0,1,15.9,4.44.61.61,0,0,0,.49.11.63.63,0,0,0,.37-.23.62.62,0,0,0-.12-.87A24.7,24.7,0,0,0,321.17,18Z"/><path class="cls-8" d="M352.93-5.82A23.86,23.86,0,0,0,339.63,4a.64.64,0,0,1-.42.28.66.66,0,0,1-.43-.09.61.61,0,0,1-.19-.85A24.67,24.67,0,0,1,352.65-7a.64.64,0,0,1,.74.46A.62.62,0,0,1,352.93-5.82Z"/><path class="cls-8" d="M353.7-.82a.64.64,0,0,1,.74.46.62.62,0,0,1-.46.74,23.86,23.86,0,0,0-13.3,9.78.66.66,0,0,1-.42.28.6.6,0,0,1-.43-.09.61.61,0,0,1-.19-.85A24.64,24.64,0,0,1,353.7-.82Z"/><path class="cls-8" d="M354.74,5.38a.63.63,0,0,1,.74.46.6.6,0,0,1-.46.74,23.89,23.89,0,0,0-13.3,9.78.59.59,0,0,1-.41.28.63.63,0,0,1-.44-.09.62.62,0,0,1-.19-.85A24.75,24.75,0,0,1,354.74,5.38Z"/><path class="cls-8" d="M355.79,11.58a.64.64,0,0,1,.74.46.61.61,0,0,1-.46.74,23.89,23.89,0,0,0-13.3,9.78.61.61,0,0,1-.85.19.62.62,0,0,1-.19-.85A24.72,24.72,0,0,1,355.79,11.58Z"/><path class="cls-8" d="M375.89,20.35l-9.32-47.26A4.63,4.63,0,0,0,364.39-30a4.63,4.63,0,0,0-3.74-.43c-8.84,2.81-20.55,8.75-26.46,21.18C324-18.51,310.92-19.57,301.67-18.8A4.6,4.6,0,0,0,298.38-17a4.6,4.6,0,0,0-.85,3.69L306.84,34a4.6,4.6,0,0,0,5,3.72c12.85-1.22,23.49,1.77,31.59,8.89a2.26,2.26,0,0,0,.94.5,2.39,2.39,0,0,0,1,0,2.24,2.24,0,0,0,1.57-1.2c4.79-9.66,13.49-16.46,25.84-20.22A4.62,4.62,0,0,0,375.89,20.35ZM372,23.62c-12.15,3.71-20.9,10.31-26.21,19.6L343.42,36l0,7.81a37.94,37.94,0,0,0-14.81-7.29,51.07,51.07,0,0,0-16.92-1,2.55,2.55,0,0,1-2.72-2l-9.31-47.25a2.49,2.49,0,0,1,.45-2,2.42,2.42,0,0,1,1.76-1c8.19-.68,19.4-.27,28.68,6.83,1.59,1.23,2.92,1.91,3.82,3.14l1,1.77.22-1.81c.05-1.38,1.11-2.79,2.11-4.45,5.92-9.81,15.9-14.75,23.62-17.2h0a2.44,2.44,0,0,1,2,.23,2.52,2.52,0,0,1,1.18,1.66l9.31,47.25A2.49,2.49,0,0,1,372,23.62Z"/><path class="cls-8" d="M362.46,16.34l-5.75-29.19A3.32,3.32,0,0,0,355.16-15a3.31,3.31,0,0,0-2.63-.3c-10.86,3.44-15.42,10-17,13-2.57-2.13-9.28-6.48-20.63-5.53a3.24,3.24,0,0,0-2.32,1.28A3.27,3.27,0,0,0,312-4l5.75,29.19a3.26,3.26,0,0,0,3.51,2.62c11.27-1.06,17.62,3.34,19.83,5.27a1.75,1.75,0,0,0,.76.4,1.82,1.82,0,0,0,.77,0,1.75,1.75,0,0,0,1.25-1c1.31-2.63,5.52-9.1,16.34-12.4A3.25,3.25,0,0,0,362.46,16.34ZM359.58,18C350,21,345.23,26.25,343,29.64l-2.46-5.45.44,6.08a25,25,0,0,0-8.72-3.92,33.46,33.46,0,0,0-11.24-.72,1.12,1.12,0,0,1-1.2-.9L314.1-4.45a1.12,1.12,0,0,1,.21-.9,1.07,1.07,0,0,1,.78-.43c11.75-1,18.05,4,19.7,5.59h0l2.68,9.1-.39-9.55c.93-2.07,4.86-9.09,16.1-12.65a1.11,1.11,0,0,1,.89.1,1.16,1.16,0,0,1,.53.76l5.75,29.18A1.12,1.12,0,0,1,359.58,18Z"/><path class="cls-9" d="M232.14,105.92a33.85,33.85,0,0,1,23.37-1.62.85.85,0,0,0,.7-.08.88.88,0,0,0-.18-1.59,35,35,0,0,0-24.69,1.73.9.9,0,0,0-.38,1.18A.88.88,0,0,0,232.14,105.92Z"/><path class="cls-9" d="M235.89,112a.89.89,0,0,0-.38,1.18.88.88,0,0,0,1.18.38A33.8,33.8,0,0,1,260.06,112a.88.88,0,0,0,.71-.09.84.84,0,0,0,.39-.49.87.87,0,0,0-.58-1.09A35,35,0,0,0,235.89,112Z"/><path class="cls-9" d="M240.45,119.72a.9.9,0,0,0-.38,1.17.88.88,0,0,0,1.18.38,33.93,33.93,0,0,1,23.37-1.62.88.88,0,0,0,.71-.08.85.85,0,0,0,.38-.49.88.88,0,0,0-.57-1.1A35,35,0,0,0,240.45,119.72Z"/><path class="cls-9" d="M245,127.39a.9.9,0,0,0-.37,1.18.87.87,0,0,0,1.17.38,33.83,33.83,0,0,1,23.38-1.62.85.85,0,0,0,.7-.08.9.9,0,0,0,.39-.5.86.86,0,0,0-.57-1.09A35,35,0,0,0,245,127.39Z"/><path class="cls-9" d="M276.14,80.4A33.91,33.91,0,0,0,263,99.79a.88.88,0,0,1-1.05.66.89.89,0,0,1-.66-1A35,35,0,0,1,275.2,78.93a.89.89,0,0,1,1.21.26A.87.87,0,0,1,276.14,80.4Z"/><path class="cls-9" d="M279.55,86.72a.89.89,0,0,1,1.2.27.87.87,0,0,1-.26,1.21,33.86,33.86,0,0,0-13.14,19.39.9.9,0,0,1-.43.57.87.87,0,0,1-1.28-1A35.11,35.11,0,0,1,279.55,86.72Z"/><path class="cls-9" d="M283.89,94.52a.91.91,0,0,1,1.21.26.88.88,0,0,1-.26,1.21,33.85,33.85,0,0,0-13.15,19.4.84.84,0,0,1-.42.56.87.87,0,0,1-1.28-1A35,35,0,0,1,283.89,94.52Z"/><path class="cls-9" d="M288.24,102.32a.9.9,0,0,1,1.21.26.87.87,0,0,1-.27,1.21A33.86,33.86,0,0,0,276,123.18a.9.9,0,0,1-.43.57.88.88,0,0,1-.62.09.89.89,0,0,1-.66-1A35,35,0,0,1,288.24,102.32Z"/><path class="cls-9" d="M319.28,104.49,284.39,45.72a6.6,6.6,0,0,0-4.4-3.1,6.53,6.53,0,0,0-5.2,1.2c-10.5,8-23.32,21.46-25.34,40.88-18-7.53-36-2.74-48,2.67a6.56,6.56,0,0,0-2.92,9.33l34.89,58.78a6.52,6.52,0,0,0,8.39,2.61c16.62-7.73,32.26-8.78,46.48-3.1a3.18,3.18,0,0,0,1.49.21,3.16,3.16,0,0,0,2.82-2.77c1.83-15.2,10.23-28.42,25-39.31A6.57,6.57,0,0,0,319.28,104.49Zm-3.62,6.22c-14.5,10.73-23.06,23.71-25.75,38.65l-6.61-8.46L287,151.36a53.71,53.71,0,0,0-23.27-2.73,72.52,72.52,0,0,0-23.12,6.65,3.63,3.63,0,0,1-4.58-1.36L201.12,95.14a3.54,3.54,0,0,1-.33-2.86,3.42,3.42,0,0,1,1.89-2.13c10.63-4.79,25.81-9.57,41.6-4.47,2.72.88,4.81,1.16,6.6,2.37l2.18,1.9-.56-2.54c-.58-1.86.16-4.24.71-6.94,3.26-15.93,14.26-27.28,23.43-34.22h0a3.41,3.41,0,0,1,2.76-.64,3.52,3.52,0,0,1,2.36,1.66l34.89,58.78A3.54,3.54,0,0,1,315.66,110.71Z"/><path class="cls-9" d="M299.41,105.51,277.86,69.2a4.7,4.7,0,0,0-3.1-2.19,4.62,4.62,0,0,0-3.67.85c-12.88,9.75-15.88,20.7-16.57,25.38C250.07,91.61,239,89,224.3,95.63a4.61,4.61,0,0,0-2.49,2.82,4.66,4.66,0,0,0,.43,3.77l21.55,36.31a4.62,4.62,0,0,0,5.94,1.83c14.57-6.77,25.15-3.9,29-2.36a2.62,2.62,0,0,0,1.2.17,2.47,2.47,0,0,0,1-.35,2.5,2.5,0,0,0,1.22-1.87c.5-4.14,3.05-14.8,16-24.35A4.62,4.62,0,0,0,299.41,105.51Zm-3,3.64c-11.41,8.43-15.3,17.79-16.63,23.38l-5.87-6.13,3.47,7.93a35.24,35.24,0,0,0-13.53-1.11,47.75,47.75,0,0,0-15.37,4.38,1.59,1.59,0,0,1-2-.63l-21.55-36.31a1.6,1.6,0,0,1-.15-1.3,1.58,1.58,0,0,1,.84-1c15.26-6.87,26-3.17,29-1.87h0l7.92,10.9L257.4,94.85c.27-3.21,2.19-14.46,15.53-24.56a1.53,1.53,0,0,1,1.24-.28,1.59,1.59,0,0,1,1.07.75l21.55,36.31A1.57,1.57,0,0,1,296.37,109.15Z"/></g><g class="cls-7"><path class="cls-9" d="M820.76,117.58c-.14,0-14.18,1.59-23.86,13.26a1,1,0,0,1-1.43.13,1,1,0,0,1-.14-1.43,40.91,40.91,0,0,1,25.23-14,1.06,1.06,0,0,1,1.12.91A1,1,0,0,1,820.76,117.58Z"/><path class="cls-9" d="M821,126a1,1,0,0,1,1.12.91,1,1,0,0,1-.91,1.11c-.14,0-14.19,1.59-23.86,13.26a1,1,0,0,1-.75.37,1,1,0,0,1-.82-1.67A40.78,40.78,0,0,1,821,126Z"/><path class="cls-9" d="M821.4,136.34a1.06,1.06,0,0,1,1.12.91,1,1,0,0,1-.91,1.12c-.14,0-14.19,1.58-23.86,13.25a1,1,0,0,1-.75.37,1,1,0,0,1-.69-.23,1,1,0,0,1-.13-1.44A40.78,40.78,0,0,1,821.4,136.34Z"/><path class="cls-9" d="M821.82,146.73a1.06,1.06,0,0,1,1.12.91,1,1,0,0,1-.91,1.12c-.14,0-14.19,1.58-23.86,13.25a1,1,0,0,1-.74.37,1.05,1.05,0,0,1-.7-.23,1,1,0,0,1-.13-1.44A40.8,40.8,0,0,1,821.82,146.73Z"/><path class="cls-9" d="M761.57,120.59c.14,0,14.27,0,25.15,10.6a1.06,1.06,0,0,0,.78.29,1,1,0,0,0,.64-1.75,40.8,40.8,0,0,0-26.58-11.18,1,1,0,0,0-1,1A1,1,0,0,0,761.57,120.59Z"/><path class="cls-9" d="M762.26,128.93a1,1,0,0,0,0,2c.14,0,14.28,0,25.15,10.6a1,1,0,0,0,.78.28,1,1,0,0,0,.67-.31,1,1,0,0,0,0-1.44A40.76,40.76,0,0,0,762.26,128.93Z"/><path class="cls-9" d="M763,139.3a1.07,1.07,0,0,0-1,1,1,1,0,0,0,1,1c.15,0,14.28,0,25.16,10.6a1,1,0,0,0,.78.29,1,1,0,0,0,.64-1.75A40.89,40.89,0,0,0,763,139.3Z"/><path class="cls-9" d="M763.66,149.68a1.06,1.06,0,0,0-1,1,1,1,0,0,0,1,1c.14,0,14.27,0,25.15,10.6a1,1,0,0,0,.78.28,1,1,0,0,0,.66-.3,1,1,0,0,0,0-1.44A40.76,40.76,0,0,0,763.66,149.68Z"/><path class="cls-9" d="M741.89,178.84c21.32,1.27,37.93,8.86,49.36,22.55a3.68,3.68,0,0,0,5.84-.24c10.28-14.57,26.23-23.47,47.37-26.48a7.59,7.59,0,0,0,6.54-7.88l-3.23-79.57A7.65,7.65,0,0,0,839,80C823.83,82.3,803.2,89,790.38,107.85,776.08,90.15,755,85.09,739.66,84a7.64,7.64,0,0,0-8.16,8l3.22,79.57A7.66,7.66,0,0,0,741.89,178.84Zm-3.61-7.47-3.23-79.58a4.1,4.1,0,0,1,1.25-3.12,4,4,0,0,1,3.11-1.13h0c13.36,1,31.31,5.07,44.61,18.56,2.25,2.29,4.49,4.14,5.1,6.33l1.07,2.84.92-3.24c1-2.32,2.84-3.93,4.94-6.51,12.18-15,30.05-20,43.48-22a4,4,0,0,1,3.2.89,4.09,4.09,0,0,1,1.49,3l3.23,79.57a4.22,4.22,0,0,1-3.6,4.23A84.3,84.3,0,0,0,817,179.36a62.65,62.65,0,0,0-21,17.43l-3-12.55L791.9,196.7c-12.11-12.88-28.72-20.13-49.69-21.41A4.12,4.12,0,0,1,738.28,171.37Z"/><path class="cls-9" d="M759.85,165.06c18.68,1.13,27.94,9.92,31.06,13.65a2.94,2.94,0,0,0,2.38,1.06,3,3,0,0,0,1.23-.32,2.87,2.87,0,0,0,1.06-.93c2.81-4,11.33-13.48,29.86-16.12a5.38,5.38,0,0,0,4.64-5.56l-2-49.15a5.43,5.43,0,0,0-2-4,5.37,5.37,0,0,0-4.22-1.16c-18.61,2.86-27.74,12.42-31,16.85-3.65-4.14-13.53-12.93-32.31-14.28a5.4,5.4,0,0,0-5.76,5.61l2,49.15A5.37,5.37,0,0,0,759.85,165.06Zm-1.52-5.31-2-49.15a1.86,1.86,0,0,1,.57-1.42,1.83,1.83,0,0,1,1.39-.51c19.45,1.4,28.46,11.17,30.76,14.14l3,15.51.82-15.67h0c2.05-3.14,10.25-13.61,29.52-16.58a1.75,1.75,0,0,1,1.42.4,1.82,1.82,0,0,1,.68,1.36l2,49.15a1.86,1.86,0,0,1-1.59,1.91,55.86,55.86,0,0,0-17.79,5.47A41.21,41.21,0,0,0,794.64,174L793,164.09l-1.84,9.71c-4.85-4.61-14.59-11.29-31.09-12.28A1.84,1.84,0,0,1,758.33,159.75Z"/><path class="cls-9" d="M577.67-1.51a.85.85,0,0,0-.35,1.1.82.82,0,0,0,1.11.34,31.63,31.63,0,0,1,21.79-1.68.84.84,0,0,0,.66-.08.79.79,0,0,0,.36-.47.81.81,0,0,0-.55-1A32.66,32.66,0,0,0,577.67-1.51Z"/><path class="cls-9" d="M572.87,27.23c15.64-6.91,30.25-7.61,43.41-2.06a2.94,2.94,0,0,0,2.6-.15,3.11,3.11,0,0,0,1-.85,3,3,0,0,0,.52-1.31c2-14.15,10-26.34,24-36.23a6.08,6.08,0,0,0,1.76-8l-31.5-55.46a6.15,6.15,0,0,0-4-3,6.07,6.07,0,0,0-4.87,1c-9.94,7.23-22.14,19.6-24.37,37.69-16.67-7.35-33.55-3.2-44.85,1.63a6.11,6.11,0,0,0-3.38,3.66,6.13,6.13,0,0,0,.48,5l31.5,55.46A6.12,6.12,0,0,0,572.87,27.23Zm-5.31-4-31.5-55.45a3.27,3.27,0,0,1-.26-2.68,3.19,3.19,0,0,1,1.8-2h0c9.86-4.22,24.14-7.88,38.56-3.16,2.45.8,4.72,1.3,6,2.64l1.8,1.62-.53-2.64c-.16-2,.58-3.84,1.12-6.45,3.17-15.15,14.07-25.24,22.87-31.65A3.18,3.18,0,0,1,610-77a3.3,3.3,0,0,1,2.17,1.59L643.64-20a3.38,3.38,0,0,1-1,4.33A67.76,67.76,0,0,0,626.54,0,50.07,50.07,0,0,0,618,20.14l-6.78-7.81,3.8,9.26c-13.35-4.72-27.83-3.78-43.23,3A3.29,3.29,0,0,1,567.56,23.24Z"/><path class="cls-9" d="M580.6,10.84c13.71-6.06,23.53-3.2,27.11-1.69A2.34,2.34,0,0,0,609.8,9a2.36,2.36,0,0,0,.76-.68,2.29,2.29,0,0,0,.41-1c.55-3.85,3.12-13.75,15.34-22.43a4.31,4.31,0,0,0,1.26-5.66L608.11-55a4.35,4.35,0,0,0-2.86-2.1,4.27,4.27,0,0,0-3.43.72c-12.2,8.87-15.18,19-15.91,23.39-4.12-1.61-14.38-4.24-28.24,1.69a4.36,4.36,0,0,0-2.38,2.58,4.36,4.36,0,0,0,.34,3.53L575.09,9A4.31,4.31,0,0,0,580.6,10.84Zm-3-3.23L558.11-26.64a1.47,1.47,0,0,1-.12-1.21,1.45,1.45,0,0,1,.8-.88c14.36-6.14,24.36-2.49,27.09-1.23L593.74-20l-5.17-11.45h0c.3-3,2.3-13.46,14.92-22.64a1.45,1.45,0,0,1,1.16-.24,1.47,1.47,0,0,1,1,.72l19.46,34.26a1.46,1.46,0,0,1-.43,1.93A44.66,44.66,0,0,0,614-7a33,33,0,0,0-5.36,11.47L603.83-2l2.25,7.59c-5.14-1.51-14.53-2.68-26.63,2.67A1.48,1.48,0,0,1,577.56,7.61Z"/><path class="cls-8" d="M875.66.69A27.79,27.79,0,0,0,861.52,13.8a.75.75,0,0,1-.44.38.78.78,0,0,1-.52,0,.71.71,0,0,1-.33-1A28.8,28.8,0,0,1,875.17-.67a.74.74,0,0,1,.92.43A.73.73,0,0,1,875.66.69Z"/><path class="cls-8" d="M877.21,6.39a.73.73,0,0,1,.92.43.71.71,0,0,1-.43.92,27.89,27.89,0,0,0-14.14,13.12.7.7,0,0,1-.44.37.72.72,0,0,1-.52,0,.71.71,0,0,1-.33-1A28.8,28.8,0,0,1,877.21,6.39Z"/><path class="cls-8" d="M879.25,13.44a.75.75,0,0,1,.92.44.72.72,0,0,1-.43.92A27.85,27.85,0,0,0,865.6,27.91a.71.71,0,0,1-.44.38.72.72,0,0,1-.85-1A28.85,28.85,0,0,1,879.25,13.44Z"/><path class="cls-8" d="M881.29,20.5a.74.74,0,0,1,.92.44.72.72,0,0,1-.43.92A27.79,27.79,0,0,0,867.64,35a.75.75,0,0,1-.44.38.78.78,0,0,1-.52-.05.71.71,0,0,1-.33-1A28.8,28.8,0,0,1,881.29,20.5Z"/><path class="cls-8" d="M835.56,12.72a27.92,27.92,0,0,1,19,3,.74.74,0,0,0,.58.06.7.7,0,0,0,.4-.32.73.73,0,0,0-.25-1,28.81,28.81,0,0,0-20.12-3.18.72.72,0,1,0,.35,1.39Z"/><path class="cls-8" d="M837.44,18.32a.75.75,0,0,0-.53.88.73.73,0,0,0,.88.52,28,28,0,0,1,19,3,.71.71,0,0,0,1-.25.73.73,0,0,0-.25-1A28.9,28.9,0,0,0,837.44,18.32Z"/><path class="cls-8" d="M839.67,25.32a.75.75,0,0,0-.52.88.71.71,0,0,0,.87.52,28,28,0,0,1,19,3,.71.71,0,0,0,1-.25.73.73,0,0,0-.25-1A28.9,28.9,0,0,0,839.67,25.32Z"/><path class="cls-8" d="M841.9,32.32a.74.74,0,0,0-.52.88.71.71,0,0,0,.87.52,27.81,27.81,0,0,1,19,3,.7.7,0,0,0,.58.07.69.69,0,0,0,.4-.33.71.71,0,0,0-.25-1A28.84,28.84,0,0,0,841.9,32.32Z"/><path class="cls-8" d="M831.88,56c14.83-2.71,27.5-.31,37.65,7.15a2.58,2.58,0,0,0,2.26.41,2.53,2.53,0,0,0,1.7-1.55c4.61-11.73,14-20.53,28-26.15a5.37,5.37,0,0,0,3.16-6.5l-15.62-54a5.44,5.44,0,0,0-2.86-3.38,5.38,5.38,0,0,0-4.39-.12c-10,4.16-23,12.26-28.65,27.32-12.79-9.73-28.12-9.64-38.8-7.82a5.35,5.35,0,0,0-3.65,2.44,5.47,5.47,0,0,0-.62,4.39l15.63,54A5.39,5.39,0,0,0,831.88,56Zm-3.74-4.51-15.62-54a2.9,2.9,0,0,1,.33-2.35,2.83,2.83,0,0,1,1.94-1.31h0C824.11-7.81,837.12-8,848.51-1c1.94,1.19,3.79,2.09,4.57,3.49l1.21,1.76.09-2.38c.28-1.76,1.29-3.17,2.29-5.3,5.83-12.34,17.25-18.76,26.11-22.44a2.81,2.81,0,0,1,2.34.06A2.91,2.91,0,0,1,886.66-24l15.62,54a3,3,0,0,1-1.76,3.51,59.53,59.53,0,0,0-17,10.13A44.15,44.15,0,0,0,872,59.18l-4.21-8.09,1.36,8.73c-10.48-6.8-23.09-9-37.7-6.31A2.91,2.91,0,0,1,828.14,51.48Z"/><path class="cls-8" d="M841.87,43.52c13-2.38,20.84,2.09,23.61,4.12a2.05,2.05,0,0,0,1.81.33,2.1,2.1,0,0,0,.79-.43,2,2,0,0,0,.57-.81c1.26-3.2,5.5-11.16,17.77-16.09a3.81,3.81,0,0,0,2.24-4.6L879-7.34a3.83,3.83,0,0,0-2-2.38,3.78,3.78,0,0,0-3.09-.09C861.61-4.71,857,3.39,855.44,7,852.24,4.76,844,.39,830.88,2.63a3.79,3.79,0,0,0-2.57,1.72,3.84,3.84,0,0,0-.44,3.1l9.65,33.38A3.82,3.82,0,0,0,841.87,43.52Zm-1.94-3.39L830.28,6.75a1.34,1.34,0,0,1,.15-1.07,1.28,1.28,0,0,1,.87-.58C844.88,2.78,852.71,8,854.78,9.61l4.7,10.13L857.4,8.86h0c.88-2.51,4.74-11.07,17.46-16.35a1.26,1.26,0,0,1,1,0,1.3,1.3,0,0,1,.7.82l9.65,33.38a1.31,1.31,0,0,1-.77,1.57,39.37,39.37,0,0,0-11.28,6.76,29.14,29.14,0,0,0-7,8.74l-2.81-6.55.37,7c-4.1-2.35-11.91-5.29-23.39-3.19A1.3,1.3,0,0,1,839.93,40.13Z"/><path class="cls-8" d="M890.32,167.87a15.59,15.59,0,0,1,10.79-.77.36.36,0,0,0,.32,0,.33.33,0,0,0,.18-.22.4.4,0,0,0-.26-.51,16.17,16.17,0,0,0-11.4.82.41.41,0,0,0-.18.54A.42.42,0,0,0,890.32,167.87Z"/><path class="cls-8" d="M892.06,170.69a.41.41,0,0,0-.18.54.42.42,0,0,0,.55.18,15.59,15.59,0,0,1,10.79-.77.39.39,0,0,0,.32,0,.38.38,0,0,0,.18-.23.41.41,0,0,0-.26-.51A16.16,16.16,0,0,0,892.06,170.69Z"/><path class="cls-8" d="M894.17,174.23a.4.4,0,1,0,.37.72,15.59,15.59,0,0,1,10.79-.77.39.39,0,0,0,.32,0,.42.42,0,0,0,.18-.23.41.41,0,0,0-.27-.51A16.14,16.14,0,0,0,894.17,174.23Z"/><path class="cls-8" d="M896.27,177.77a.42.42,0,0,0-.17.54.4.4,0,0,0,.54.18,15.65,15.65,0,0,1,10.79-.76.46.46,0,0,0,.33,0,.42.42,0,0,0,.18-.23.41.41,0,0,0-.27-.51A16.19,16.19,0,0,0,896.27,177.77Z"/><path class="cls-8" d="M893.81,192c7.76-3.37,15-3.67,21.48-.88a1.46,1.46,0,0,0,1.29-.07,1.36,1.36,0,0,0,.47-.42,1.3,1.3,0,0,0,.26-.64c1-7,5.06-13,12-17.85a3,3,0,0,0,.9-4L914.8,140.62a3.06,3.06,0,0,0-2-1.48,3,3,0,0,0-2.41.49c-4.94,3.54-11,9.63-12.18,18.57-8.23-3.69-16.6-1.69-22.2.66a3.06,3.06,0,0,0-1.69,1.8,3,3,0,0,0,.23,2.47L890,190.67A3,3,0,0,0,893.81,192Zm-2.62-2-15.41-27.55a1.63,1.63,0,0,1,.78-2.28h0c4.89-2.06,12-3.82,19.09-1.44a7.19,7.19,0,0,1,2.94,1.33l.89.8-.26-1.31a12,12,0,0,1,.58-3.18c1.62-7.49,7-12.45,11.42-15.59a1.57,1.57,0,0,1,1.28-.26,1.61,1.61,0,0,1,1.07.8L929,168.85a1.68,1.68,0,0,1-.52,2.14,33.73,33.73,0,0,0-8,7.7,24.81,24.81,0,0,0-4.29,9.93l-3.33-3.89,1.85,4.59c-6.59-2.37-13.76-2-21.4,1.35A1.64,1.64,0,0,1,891.19,190Z"/><path class="cls-8" d="M897.69,183.89c6.8-2.95,11.65-1.5,13.42-.75a1.14,1.14,0,0,0,1,0,1.21,1.21,0,0,0,.38-.33,1.19,1.19,0,0,0,.21-.52c.28-1.9,1.58-6.8,7.66-11.05a2.14,2.14,0,0,0,.64-2.8l-9.52-17a2.14,2.14,0,0,0-1.41-1,2.1,2.1,0,0,0-1.7.34c-6.06,4.35-7.57,9.36-7.95,11.52-2-.81-7.09-2.14-14,.75a2.11,2.11,0,0,0-1.19,1.26,2.14,2.14,0,0,0,.16,1.75L895,183A2.14,2.14,0,0,0,897.69,183.89Zm-1.5-1.6-9.51-17a.7.7,0,0,1-.06-.6.74.74,0,0,1,.4-.43c7.13-3,12.06-1.15,13.41-.52l3.86,4.94L901.76,163h0c.17-1.48,1.19-6.65,7.46-11.16a.7.7,0,0,1,.58-.11.71.71,0,0,1,.48.36l9.52,17a.74.74,0,0,1-.22,1,21.88,21.88,0,0,0-5.3,5.12,16.28,16.28,0,0,0-2.69,5.66l-2.37-3.22,1.09,3.77c-2.54-.76-7.18-1.38-13.19,1.23A.73.73,0,0,1,896.19,182.29Z"/><path class="cls-8" d="M909.63,276.76a25.87,25.87,0,0,0-17.82,1.62.68.68,0,0,1-.54,0,.7.7,0,0,1-.36-.32.68.68,0,0,1,.3-.9A26.71,26.71,0,0,1,910,275.49a.69.69,0,0,1,.43.84A.67.67,0,0,1,909.63,276.76Z"/><path class="cls-8" d="M907.54,281.83a.67.67,0,1,1-.42,1.27,25.84,25.84,0,0,0-17.81,1.62.66.66,0,0,1-.55,0,.67.67,0,0,1,0-1.22A26.71,26.71,0,0,1,907.54,281.83Z"/><path class="cls-8" d="M905,288.17a.68.68,0,0,1,.43.84.67.67,0,0,1-.84.43,25.87,25.87,0,0,0-17.82,1.62.64.64,0,0,1-.54,0,.65.65,0,0,1-.35-.32.67.67,0,0,1,.3-.9A26.69,26.69,0,0,1,905,288.17Z"/><path class="cls-8" d="M902.53,294.51a.69.69,0,0,1,.43.84.67.67,0,0,1-.84.43,25.87,25.87,0,0,0-17.82,1.62.64.64,0,0,1-.54,0,.7.7,0,0,1-.36-.32.68.68,0,0,1,.31-.9A26.69,26.69,0,0,1,902.53,294.51Z"/><path class="cls-8" d="M873.35,262.86a25.94,25.94,0,0,1,12.26,13,.66.66,0,0,0,.87.37.67.67,0,0,0,.37-.87,26.71,26.71,0,0,0-13-13.75.68.68,0,0,0-.88.34A.66.66,0,0,0,873.35,262.86Z"/><path class="cls-8" d="M871.55,268a.69.69,0,0,0-.88.35.67.67,0,0,0,.35.88,25.89,25.89,0,0,1,12.26,13,.66.66,0,0,0,.39.38.62.62,0,0,0,.48,0,.67.67,0,0,0,.37-.87A26.76,26.76,0,0,0,871.55,268Z"/><path class="cls-8" d="M869.22,274.45a.7.7,0,0,0-.88.35.67.67,0,0,0,.35.88,25.84,25.84,0,0,1,12.26,13,.66.66,0,0,0,.87.37.67.67,0,0,0,.37-.87A26.76,26.76,0,0,0,869.22,274.45Z"/><path class="cls-8" d="M866.89,280.86a.69.69,0,0,0-.88.34.67.67,0,0,0,.35.88,25.89,25.89,0,0,1,12.26,13,.67.67,0,0,0,.39.37.62.62,0,0,0,.48,0,.66.66,0,0,0,.37-.87A26.71,26.71,0,0,0,866.89,280.86Z"/><path class="cls-8" d="M846.11,292.56c12.44,6.42,20.38,15.37,23.6,26.61a2.41,2.41,0,0,0,2.46,1.74,2.48,2.48,0,0,0,1.11-.34c10-6,21.94-7.12,35.41-3.31a5,5,0,0,0,6-3l19.17-48.55a5,5,0,0,0-3.34-6.68c-9.71-2.62-23.87-4.05-36.54,3.83-3.88-14.41-15.19-23-24.07-27.75a5,5,0,0,0-7,2.6l-19.17,48.55A5,5,0,0,0,846.11,292.56Zm-.19-5.44,19.17-48.55a2.71,2.71,0,0,1,1.57-1.54,2.66,2.66,0,0,1,2.17.15h0c7.75,4.11,17.42,11.34,21.81,22.95.75,2,1.6,3.68,1.38,5.15l-.11,2,1.41-1.69c1.2-1.14,2.75-1.61,4.69-2.6,11.28-5.76,23.31-4,31.91-1.68a2.62,2.62,0,0,1,1.68,1.37,2.74,2.74,0,0,1,.1,2.21l-19.17,48.55a2.76,2.76,0,0,1-3.28,1.58A55.42,55.42,0,0,0,891,312.79a41.12,41.12,0,0,0-17.21,4.89l1.5-8.33-3.95,7.18c-3.85-10.94-11.88-19.68-24.12-26A2.72,2.72,0,0,1,845.92,287.12Z"/><path class="cls-8" d="M860.52,289.07c10.9,5.62,14.12,13.35,15,16.41a1.93,1.93,0,0,0,2,1.4,2,2,0,0,0,.89-.27c2.73-1.64,10.36-5.08,22.16-1.75a3.53,3.53,0,0,0,4.26-2.1l11.84-30a3.58,3.58,0,0,0-.13-2.9,3.5,3.5,0,0,0-2.23-1.82c-11.91-3.22-19.92.09-23.07,1.87-1.09-3.45-4.68-11.34-15.58-17.13a3.54,3.54,0,0,0-4.94,1.84l-11.84,30A3.54,3.54,0,0,0,860.52,289.07Zm.5-3.59,11.84-30a1.2,1.2,0,0,1,.71-.7,1.17,1.17,0,0,1,1,.06c11.29,6,14.1,14.24,14.69,16.63l-2.29,10.11,4.64-9.18h0c2.06-1.34,9.75-5.44,22.09-2.11a1.19,1.19,0,0,1,.74.61,1.21,1.21,0,0,1,.05,1l-11.84,30a1.2,1.2,0,0,1-1.45.72,36.56,36.56,0,0,0-12.12-1.43A26.88,26.88,0,0,0,879,303.67l1.65-6.4L877,302.6c-1.68-4.05-5.76-10.64-15.38-15.6A1.2,1.2,0,0,1,861,285.48Z"/><path class="cls-9" d="M753.4-1.7a.62.62,0,0,1,.53.69.61.61,0,0,1-.69.53A23.85,23.85,0,0,0,737.34,4a.59.59,0,0,1-.49.11.57.57,0,0,1-.38-.23A.62.62,0,0,1,736.6,3,24.62,24.62,0,0,1,753.4-1.7Z"/><path class="cls-9" d="M752.19,4.47a.63.63,0,0,1,.52.69.61.61,0,0,1-.69.53,23.86,23.86,0,0,0-15.9,4.43.58.58,0,0,1-.49.11.55.55,0,0,1-.37-.23.61.61,0,0,1,.12-.86A24.63,24.63,0,0,1,752.19,4.47Z"/><path class="cls-9" d="M751,10.64a.63.63,0,0,1,.53.69.62.62,0,0,1-.69.53,23.88,23.88,0,0,0-15.91,4.43.56.56,0,0,1-.48.11.57.57,0,0,1-.38-.23.61.61,0,0,1,.13-.86A24.67,24.67,0,0,1,751,10.64Z"/><path class="cls-9" d="M718.45-8.22a.62.62,0,0,0-.74.46.62.62,0,0,0,.46.74,23.83,23.83,0,0,1,13.3,9.78.61.61,0,0,0,.41.27.61.61,0,0,0,.63-.94A24.68,24.68,0,0,0,718.45-8.22Z"/><path class="cls-9" d="M717.4-2a.64.64,0,0,0-.74.46.62.62,0,0,0,.46.74A23.89,23.89,0,0,1,730.42,9a.59.59,0,0,0,.42.27.6.6,0,0,0,.43-.08.62.62,0,0,0,.19-.85A24.67,24.67,0,0,0,717.4-2Z"/><path class="cls-9" d="M716.35,4.18a.64.64,0,0,0-.74.46.62.62,0,0,0,.46.74,23.89,23.89,0,0,1,13.3,9.78.64.64,0,0,0,.42.28.66.66,0,0,0,.43-.09.62.62,0,0,0,.19-.85A24.67,24.67,0,0,0,716.35,4.18Z"/><path class="cls-9" d="M699.44,18.26c12.36,3.75,21,10.56,25.85,20.22a2.21,2.21,0,0,0,1.56,1.19,2.07,2.07,0,0,0,1,0,2.13,2.13,0,0,0,.94-.49c8.11-7.12,18.74-10.11,31.6-8.9a4.58,4.58,0,0,0,4.95-3.71l9.32-47.25a4.67,4.67,0,0,0-.85-3.69,4.61,4.61,0,0,0-3.3-1.82c-9.24-.76-22.32.3-32.52,9.55C732-29.08,720.34-35,711.49-37.83a4.61,4.61,0,0,0-3.73.42,4.65,4.65,0,0,0-2.19,3.1l-9.31,47.25A4.62,4.62,0,0,0,699.44,18.26Zm-1.08-4.9,9.32-47.26a2.47,2.47,0,0,1,1.17-1.66,2.44,2.44,0,0,1,2-.23h0c7.72,2.45,17.7,7.4,23.62,17.2,1,1.67,2.06,3.08,2.11,4.45l.23,1.82,1-1.78c.9-1.23,2.22-1.91,3.82-3.13,9.28-7.11,20.49-7.51,28.68-6.84a2.42,2.42,0,0,1,1.75,1,2.51,2.51,0,0,1,.46,2l-9.32,47.25a2.57,2.57,0,0,1-2.71,2,50.86,50.86,0,0,0-16.93,1,37.85,37.85,0,0,0-14.8,7.3l0-7.81-2.39,7.17c-5.31-9.28-14.05-15.89-26.21-19.59A2.51,2.51,0,0,1,698.36,13.36Z"/><path class="cls-9" d="M711.94,12.69c10.83,3.29,15,9.77,16.34,12.4a1.8,1.8,0,0,0,1.25,1,1.81,1.81,0,0,0,1.53-.41c2.21-1.94,8.56-6.34,19.83-5.27a3.26,3.26,0,0,0,3.51-2.62l5.75-29.19a3.28,3.28,0,0,0-.6-2.61,3.25,3.25,0,0,0-2.32-1.28c-11.34-.94-18.06,3.4-20.63,5.54-1.56-3-6.13-9.52-17-12.95a3.24,3.24,0,0,0-2.63.3,3.29,3.29,0,0,0-1.54,2.19L709.68,8.93A3.27,3.27,0,0,0,711.94,12.69Zm-.15-3.34,5.76-29.19a1.11,1.11,0,0,1,.53-.75,1.11,1.11,0,0,1,.89-.11c11.24,3.57,15.16,10.58,16.1,12.65l-.4,9.56,2.69-9.1h0c1.65-1.56,7.94-6.56,19.7-5.59a1.1,1.1,0,0,1,.78.43,1.12,1.12,0,0,1,.2.9l-5.75,29.19a1.12,1.12,0,0,1-1.2.9,33.68,33.68,0,0,0-11.23.71,24.93,24.93,0,0,0-8.72,3.92l.43-6.08-2.45,5.46c-2.2-3.4-7-8.7-16.56-11.61A1.11,1.11,0,0,1,711.79,9.35Z"/><path class="cls-8" d="M674.86,105.92a33.86,33.86,0,0,0-23.37-1.62.88.88,0,0,1-.71-.08.91.91,0,0,1-.39-.49.89.89,0,0,1,.58-1.1,35.06,35.06,0,0,1,24.69,1.73.91.91,0,0,1,.38,1.18A.88.88,0,0,1,674.86,105.92Z"/><path class="cls-8" d="M671.1,112a.89.89,0,0,1,.38,1.18.88.88,0,0,1-1.18.38A33.8,33.8,0,0,0,646.93,112a.88.88,0,0,1-.71-.09.84.84,0,0,1-.39-.49.87.87,0,0,1,.58-1.09A35,35,0,0,1,671.1,112Z"/><path class="cls-8" d="M666.55,119.72a.9.9,0,0,1,.37,1.17.87.87,0,0,1-1.17.38,34,34,0,0,0-23.38-1.62.85.85,0,0,1-.7-.08.91.91,0,0,1-.39-.49.88.88,0,0,1,.57-1.1A35.05,35.05,0,0,1,666.55,119.72Z"/><path class="cls-8" d="M662,127.39a.91.91,0,0,1,.38,1.18.88.88,0,0,1-1.18.38,33.8,33.8,0,0,0-23.37-1.62.88.88,0,0,1-.71-.08.9.9,0,0,1-.39-.5.87.87,0,0,1,.58-1.09A35,35,0,0,1,662,127.39Z"/><path class="cls-8" d="M630.85,80.4A33.91,33.91,0,0,1,644,99.79a.88.88,0,0,0,1.71-.39,35,35,0,0,0-13.91-20.47.88.88,0,0,0-1.2.26A.87.87,0,0,0,630.85,80.4Z"/><path class="cls-8" d="M627.45,86.72a.9.9,0,0,0-1.21.27.88.88,0,0,0,.26,1.21,33.8,33.8,0,0,1,13.15,19.39.88.88,0,0,0,.42.57.91.91,0,0,0,.63.09.87.87,0,0,0,.65-1A35.07,35.07,0,0,0,627.45,86.72Z"/><path class="cls-8" d="M623.1,94.52a.91.91,0,0,0-1.21.26.87.87,0,0,0,.27,1.21,33.91,33.91,0,0,1,13.14,19.4.85.85,0,0,0,.43.56.83.83,0,0,0,.62.09.87.87,0,0,0,.66-1A35,35,0,0,0,623.1,94.52Z"/><path class="cls-8" d="M618.75,102.32a.89.89,0,0,0-1.2.26.87.87,0,0,0,.26,1.21A33.86,33.86,0,0,1,631,123.18a.9.9,0,0,0,.43.57.87.87,0,0,0,1.28-1A35,35,0,0,0,618.75,102.32Z"/><path class="cls-8" d="M589.45,113.12c14.74,10.89,23.15,24.11,25,39.31a3.15,3.15,0,0,0,1.53,2.34,3,3,0,0,0,1.29.43,3.24,3.24,0,0,0,1.5-.21c14.21-5.68,29.85-4.63,46.47,3.1a6.53,6.53,0,0,0,8.4-2.61L708.5,96.7a6.62,6.62,0,0,0,.61-5.34,6.54,6.54,0,0,0-3.54-4c-12-5.41-30-10.2-48-2.67-2-19.42-14.84-32.93-25.34-40.88a6.55,6.55,0,0,0-9.59,1.9l-34.89,58.77A6.56,6.56,0,0,0,589.45,113.12Zm.89-7.07,34.89-58.78a3.52,3.52,0,0,1,2.36-1.66,3.44,3.44,0,0,1,2.77.64h0c9.16,6.94,20.16,18.29,23.42,34.22.56,2.7,1.3,5.08.71,6.94L653.94,90l2.17-1.9c1.79-1.21,3.88-1.49,6.6-2.37,15.79-5.1,31-.32,41.61,4.47a3.43,3.43,0,0,1,1.88,2.13,3.5,3.5,0,0,1-.33,2.86L671,153.92a3.62,3.62,0,0,1-4.57,1.36,72.64,72.64,0,0,0-23.13-6.65A53.65,53.65,0,0,0,620,151.36l3.67-10.46-6.6,8.46c-2.7-14.94-11.26-27.92-25.76-38.65A3.55,3.55,0,0,1,590.34,106.05Z"/><path class="cls-8" d="M608.81,111.6c12.92,9.55,15.48,20.21,16,24.35a2.49,2.49,0,0,0,1.21,1.87,2.52,2.52,0,0,0,1,.35,2.62,2.62,0,0,0,1.2-.17c3.87-1.54,14.46-4.41,29,2.36a4.62,4.62,0,0,0,5.94-1.83l21.55-36.31a4.63,4.63,0,0,0-2.06-6.59c-14.73-6.64-25.77-4-30.22-2.39-.69-4.68-3.68-15.63-16.57-25.38a4.61,4.61,0,0,0-3.66-.85,4.71,4.71,0,0,0-3.11,2.19l-21.55,36.31A4.62,4.62,0,0,0,608.81,111.6Zm1.39-4.53,21.56-36.31a1.55,1.55,0,0,1,1.06-.75,1.53,1.53,0,0,1,1.24.28c13.35,10.1,15.26,21.35,15.53,24.56l-5.07,12.59,7.92-10.9h0c2.95-1.3,13.75-5,29,1.87a1.55,1.55,0,0,1,.84,1,1.6,1.6,0,0,1-.15,1.3L660.58,137a1.59,1.59,0,0,1-2,.63,47.77,47.77,0,0,0-15.36-4.38,35.2,35.2,0,0,0-13.53,1.11l3.46-7.93-5.87,6.13c-1.33-5.59-5.22-15-16.63-23.38A1.59,1.59,0,0,1,610.2,107.07Z"/></g></g></g><g id="Capa_3" data-name="Capa 3"><path d="M328,304.43h-.08c-12,8.49-28.28,3.44-37.71-6.12-14.14-14.23-15.54-35-25.71-51.17-1.33-2.14,2.07-3.83,3.47-1.91,9.51,12.62,16.29,40.92,31.09,52.77-4.38-10.86-6-25.32,4.05-33.88,6.87-6,17.61-6,24,.15a116.2,116.2,0,0,0-4.3-24.63c-5.95-19-27.12-53.69-51.84-45.89-31.42,27.77-18.61,82.61-15,118.4,3.64,36.94,6.7,76.33,19.51,111.67C285,449.9,311.64,464,319.33,488.91c6.86,22.26,0,51.93-3.64,75.18,51.6,11.09,99.89,10.79,151-1.14-4.39-28.76-11.33-64.48,1-92,8.52-19,27.2-29.9,44.48-41.37,41.51-27.46,57.72-57.45,83.93-95.69,20.51-29.83,59.62-43.21,72.77-77.78-11.42-39.85-78.14,7.72-90.71,17.82-15.63,12.54-30.6,25.93-46.39,38.39a2.62,2.62,0,0,1-2.07,3.45c-17.28,3.05-31.33,7.72-45.14,18.12-1.91,1.46-4.47-.84-2.73-2.6a72.46,72.46,0,0,1,28.28-17.59c0-.15-.09-.23-.17-.38-14.8-47-21.58-95.3-29.19-143.72-4.54-29.29-12-146.54-60.19-146.7-20.59,11.63-7,62.34-5.46,78.25,2.48,24.93,5,49.87,5.87,75a1.67,1.67,0,0,1-1.16,1.53c17.78,40.31,49.7,163.76-6.61,160.62-6.53,2-13.48.77-19.52-3-3.88-2.45-8.51-6.81-10.58-11.47-8.68,7.8-23.15,9-34.07,4.51A35.48,35.48,0,0,1,328,304.43Zm294-65.25c21-7,54-6.65,52.92,20.88a2.51,2.51,0,0,1-2.73,2.22c-4.71,16.91-16.12,27.84-31.34,40.23-29.93,24.17-42,48.65-62.67,78.63-14.89,21.42-35.31,37.17-57.06,52.24-29.43,20.35-44.23,25.62-49.69,66.31-2.65,19.89,1.16,42.84,4.13,62.34a4.07,4.07,0,0,1-.82,7.57,288.5,288.5,0,0,1-163.06.23,3.23,3.23,0,0,1-1.57-1,3.74,3.74,0,0,1-2.32-4c5.21-34.57,10.34-64.71-11.82-95-7.28-10-15.21-16.52-21.17-28.07-13.56-26.15-16.87-56.67-21-85.05-5.29-36.79-23.4-103.56-3.47-144.56V212a128.55,128.55,0,0,1,8.43-14.91,1.63,1.63,0,0,1,.5-1.84c.41-.38.91-.61,1.32-1a1.38,1.38,0,0,1,.25-.39,1.82,1.82,0,0,1,1.32-.84c12.82-9.86,25.8-7.11,36.8.61,2.06-13.23,18.93-20.88,32.49-23.17a1.91,1.91,0,0,1,1.49-1.15c10.09-1.45,17.61,1.46,23.32,6.89,8-21,46.55-27.61,59.53-9.11-5.7-36.4-9.18-73.19-12.4-109.83-1.49-17.13-2.9-36,18.52-40.69a2.52,2.52,0,0,1,2.89,1.07c37.3-4.13,45.65,57.44,51.1,81.3,16,70.6,21.09,142.65,41.1,212.56v.15A64.72,64.72,0,0,1,527,310.24a1.64,1.64,0,0,1,.41-.61C554.32,283.77,584.34,251.65,622,239.18ZM414,333.8c15.38-1.76,21.5-16.75,22.66-37.18-7.69-9.86-27.45-10.4-36.46-2.06-10.84,10.1-4.3,25.39.82,36.71A34.11,34.11,0,0,0,414,333.8Zm22.74-44.14c0-38.24-14.8-90.71-21.91-112.74-13.81-21.41-41.59-16.82-55.65,2.38,12.49,15.22,15.05,43.44,18.53,58.58,3.63,16.22,18,55.76,9,76.95A3.26,3.26,0,0,1,388,315.9c1.65,2.52,2,5.43,3.72,7.88a18.15,18.15,0,0,0,3.06,3.51c-6-13.3-9.84-30.21,5.12-39.31C410,281.86,427.07,282.24,436.74,289.66Zm-60.19,31.9c5.62-7,6.53-18.36,5.37-30.67a2,2,0,0,1-2.15-.16c-9.42-7.11-26-13.92-34-.91-6.45,10.48-.75,21.87,2.81,32.12,0,.08-.08.15-.08.23a3.71,3.71,0,0,1,.74.38C358.52,327.14,368.11,325.92,376.55,321.56Zm5-34.11c-2.23-18.21-8.43-37.71-10.83-47.81-3.8-16.21-8.77-62.49-34.56-65.47a2.24,2.24,0,0,1-1.08.77c-13.64,5.12-26.54,8.26-32.16,21.95a88.28,88.28,0,0,1,19.43,24.78c9.75,18.43,10.42,35.72,10.09,56.06-.17,6.73.08,13.16-2.24,18.51,2.32,8.11,6,16.22,12.57,21.95-5.29-11.55-8-26,2.73-35.26C356.45,273.68,371.84,279.72,381.59,287.45Zm-61.68,15.14c6.45-6.19,8-20.19,7.44-34a1.62,1.62,0,0,1-1.9-.38c-7.36-7.88-18.52-3.44-22.82,4.74-4.3,8-1.82,16.83,0,25.16a1.34,1.34,0,0,1-.91,1.69C306.76,303,312.63,304.27,319.91,302.59Z"/><path class="cls-10" d="M578.14,273.91c12.57-10.1,79.29-57.67,90.71-17.82-13.15,34.57-52.26,48-72.77,77.78-26.21,38.24-42.42,68.23-83.93,95.69-17.28,11.47-36,22.41-44.48,41.37-12.32,27.54-5.38,63.26-1,92-51.1,11.93-99.39,12.23-151,1.14,3.64-23.25,10.5-52.92,3.64-75.18-7.69-24.94-34.32-39-43.83-65.09-12.81-35.34-15.87-74.73-19.51-111.67-3.64-35.79-16.45-90.63,15-118.4,24.72-7.8,45.89,26.85,51.84,45.89a116.2,116.2,0,0,1,4.3,24.63c-6.37-6.12-17.11-6.12-24-.15-10.09,8.56-8.43,23-4.05,33.88-14.8-11.85-21.58-40.15-31.09-52.77-1.4-1.92-4.8-.23-3.47,1.91,10.17,16.21,11.57,36.94,25.71,51.17,9.43,9.56,25.72,14.61,37.71,6.12H328a35.48,35.48,0,0,0,21,23.86c10.92,4.44,25.39,3.29,34.07-4.51,2.07,4.66,6.7,9,10.58,11.47,6,3.75,13,5,19.52,3,56.31,3.14,24.39-120.31,6.61-160.62a1.67,1.67,0,0,0,1.16-1.53c-.83-25.08-3.39-50-5.87-75-1.57-15.91-15.13-66.62,5.46-78.25,48.2.16,55.65,117.41,60.19,146.7,7.61,48.42,14.39,96.68,29.19,143.72.08.15.17.23.17.38a72.46,72.46,0,0,0-28.28,17.59c-1.74,1.76.82,4.06,2.73,2.6,13.81-10.4,27.86-15.07,45.14-18.12a2.62,2.62,0,0,0,2.07-3.45C547.54,299.84,562.51,286.45,578.14,273.91Z"/><path class="cls-10" d="M436.66,296.62C435.5,317.05,429.38,332,414,333.8a34.11,34.11,0,0,1-13-2.53c-5.12-11.32-11.66-26.61-.82-36.71C409.21,286.22,429,286.76,436.66,296.62Z"/><path class="cls-10" d="M414.83,176.92c7.11,22,21.91,74.5,21.91,112.74-9.67-7.42-26.7-7.8-36.88-1.68-15,9.1-11.16,26-5.12,39.31a18.15,18.15,0,0,1-3.06-3.51c-1.74-2.45-2.07-5.36-3.72-7.88a3.26,3.26,0,0,0-1.24-1.07c9-21.19-5.38-60.73-9-76.95-3.48-15.14-6-43.36-18.53-58.58C373.24,160.1,401,155.51,414.83,176.92Z"/><path class="cls-10" d="M381.92,290.89c1.16,12.31.25,23.71-5.37,30.67-8.44,4.36-18,5.58-27.29,1a3.71,3.71,0,0,0-.74-.38c0-.08.08-.15.08-.23-3.56-10.25-9.26-21.64-2.81-32.12,7.94-13,24.56-6.2,34,.91A2,2,0,0,0,381.92,290.89Z"/><path class="cls-10" d="M370.76,239.64c2.4,10.1,8.6,29.6,10.83,47.81-9.75-7.73-25.14-13.77-36-4.52-10.75,9.26-8,23.71-2.73,35.26-6.53-5.73-10.25-13.84-12.57-21.95,2.32-5.35,2.07-11.78,2.24-18.51.33-20.34-.34-37.63-10.09-56.06A88.28,88.28,0,0,0,303,196.89c5.62-13.69,18.52-16.83,32.16-21.95a2.24,2.24,0,0,0,1.08-.77C362,177.15,367,223.43,370.76,239.64Z"/><path class="cls-10" d="M327.35,268.63c.58,13.77-1,27.77-7.44,34-7.28,1.68-13.15.38-18.19-2.75a1.34,1.34,0,0,0,.91-1.69c-1.82-8.33-4.3-17.13,0-25.16,4.3-8.18,15.46-12.62,22.82-4.74A1.62,1.62,0,0,0,327.35,268.63Z"/></g></svg>