<svg xmlns="http://www.w3.org/2000/svg" xmlns:xlink="http://www.w3.org/1999/xlink" viewBox="0 0 900 600"><defs><style>.cls-1{fill:none;}.cls-2{fill:#d5a8ed;}.cls-3{clip-path:url(#clip-path);}.cls-4{fill:#ba88db;}.cls-5{fill:#f2deff;}.cls-6{fill:#fff;}.cls-7{fill:#5f55a8;}.cls-8{fill:#f1d6ff;}.cls-9{clip-path:url(#clip-path-2);}.cls-10{clip-path:url(#clip-path-3);}.cls-11{opacity:0.5;}.cls-12{fill:#006c78;}.cls-13{fill:#f3d8be;}</style><clipPath id="clip-path"><rect id="SVGID" class="cls-1" x="-6.3" y="-8.93" width="1051.42" height="613.33" transform="translate(1038.82 595.46) rotate(-180)"/></clipPath><clipPath id="clip-path-2"><rect id="SVGID-2" data-name="SVGID" class="cls-1" x="1040" y="-753.47" width="1051.42" height="613.33" transform="translate(3131.42 -893.6) rotate(-180)"/></clipPath><clipPath id="clip-path-3"><rect class="cls-1" x="-1144.96" y="0.7" width="1096.92" height="607.88"/></clipPath></defs><g id="Capa_2" data-name="Capa 2"><rect class="cls-2" x="-6.3" y="-8.93" width="1051.42" height="613.33" transform="translate(1038.82 595.46) rotate(-180)"/><g class="cls-3"><path class="cls-4" d="M-254.21,949.87c109.87,54.72,246.16,51.2,354.36-6.76,261.34-140,284.56-531.17,36.21-699C6.6,156.47-177.49,156.28-305.28,246.81-392.95,308.91-449,411.38-460,517.68c-10.48,101.85,6.15,221.29,64.09,307C-360.25,877.47-311.28,921.45-254.21,949.87Z"/><path class="cls-4" d="M755,293.45c80.88,40.28,181.21,37.69,260.86-5,192.38-103.06,209.47-391,26.66-514.54-95.53-64.54-231-64.68-325.12,2C652.91-178.39,611.6-103,603.56-24.7c-7.71,75,4.53,162.9,47.18,226C677,240.15,713,272.52,755,293.45Z"/><path class="cls-5" d="M106.73,533.76a6.18,6.18,0,0,1-.2,1.53L90.79,594.41a20.65,20.65,0,0,1-25.26,14.64L6.41,593.32a5.89,5.89,0,0,1-4.18-7.22l3.18-12c-4-1.72-7.16-5.32-9-10.31A31.46,31.46,0,0,1-4,545.16c3.4-12.8,13.22-21.5,22.56-20.46l3.18-12A5.92,5.92,0,0,1,29,508.54l14.18,3.78-.52,1.95c-2.05,7.7,5.67,16.53,17.23,19.61a27.47,27.47,0,0,0,16.24-.32c4.5-1.63,7.5-4.52,8.46-8.13l.52-1.95,17.26,4.59a5.91,5.91,0,0,1,4.39,5.69ZM6.06,587.61a1.88,1.88,0,0,0,1.39,1.81l59.12,15.73a16.58,16.58,0,0,0,20.32-11.78l15.74-59.12A1.86,1.86,0,0,0,101.3,532l-13.5-3.59c-1.72,4-5.32,7.16-10.32,9a31.61,31.61,0,0,1-18.66.42C46,534.37,37.24,524.61,38.36,515.22l-10.42-2.78a1.88,1.88,0,0,0-2.29,1.33l-4.18,15.71L19.52,529C11.78,526.91,3,534.63-.09,546.2a27.4,27.4,0,0,0,.31,16.24c1.64,4.49,4.52,7.49,8.14,8.45l1.94.52L6.13,587.14A1.53,1.53,0,0,0,6.06,587.61Z"/><path class="cls-5" d="M127.55,481.92a5.92,5.92,0,0,1-3.79,5.52l-11.55,4.44c1,4.27-.1,8.92-3.08,13.33A31.53,31.53,0,0,1,94.28,516.5c-12.36,4.76-25.18,1.92-29.82-6.25L52.91,514.7a5.91,5.91,0,0,1-7.63-3.39L40,497.62l1.88-.73c7.48-2.88,10.06-14.3,5.77-25.46a27.51,27.51,0,0,0-9.79-13c-4-2.68-8.07-3.41-11.56-2.07l-1.88.72L18,440.45a5.94,5.94,0,0,1,3.4-7.63l57.09-22a20.67,20.67,0,0,1,26.68,11.85l22,57.1A5.8,5.8,0,0,1,127.55,481.92Zm-20.42,7.59,15.18-5.84a1.87,1.87,0,0,0,1.08-2.41l-22-57.1A16.64,16.64,0,0,0,80,414.62l-57.1,22A1.87,1.87,0,0,0,21.78,439l5,13c4.26-1,8.92.09,13.32,3.08A31.44,31.44,0,0,1,51.42,470c4.74,12.36,1.91,25.17-6.25,29.81L49,509.86a1.88,1.88,0,0,0,2.42,1.07l15.18-5.84.72,1.88c2.88,7.48,14.3,10.06,25.47,5.77a27.51,27.51,0,0,0,13-9.79c2.68-4,3.43-8.07,2.07-11.56Z"/><path class="cls-5" d="M587.43,575.09l-8.92,19.39-1.79-.74c-17.79-7.37-31.93-3.78-38.77-1a11.09,11.09,0,0,1-12.4-2.83l-40.86-45.2,3.91-8.49,60.9,1.58a11.11,11.11,0,0,1,10.22,7.58c2.33,7,8.8,20.09,26,28.8Zm-11,14.2,5.7-12.38c-17.19-9.35-23.82-22.86-26.27-30.23a7,7,0,0,0-6.5-4.81l-58.24-1.52L489.47,544l39.07,43.23a7,7,0,0,0,7.88,1.79C543.6,586.09,558.18,582.33,576.46,589.29Z"/><path class="cls-5" d="M536.89,563.6A10,10,0,1,1,532,550.33,10,10,0,0,1,536.89,563.6Zm-14.51-6.68A6,6,0,1,0,530.3,554,6,6,0,0,0,522.38,556.92Z"/><rect class="cls-5" x="502.49" y="531.06" width="4.03" height="35.29" transform="translate(-204.77 777.9) rotate(-65.31)"/><path class="cls-5" d="M595.06,578.94l-8.65,18.82A6.29,6.29,0,1,1,575,592.51l8.65-18.82a6.29,6.29,0,1,1,11.43,5.25Zm-16.41,15.25a2.26,2.26,0,1,0,4.1,1.89l8.65-18.82a2.26,2.26,0,0,0-4.1-1.89Z"/><path class="cls-5" d="M521.54,633.38,519.85,637a70.58,70.58,0,0,1-34.6-93.51l3.66,1.69A66.55,66.55,0,0,0,521.54,633.38Z"/><path class="cls-5" d="M581.55,502.85l-1.69,3.66a66.55,66.55,0,0,0-88.16,32.63L488,537.46A70.58,70.58,0,0,1,581.55,502.85Z"/><rect class="cls-5" x="431.15" y="539.15" width="114.81" height="4.03" transform="translate(-207.22 759) rotate(-65.31)"/><path class="cls-5" d="M521,483.35l-4.48,9.73-9.74-4.48,4.48-9.73Zm-6.46,4.38,1.11-2.4-2.41-1.11-1.11,2.41Z"/><path class="cls-5" d="M470.29,593.73l-4.48,9.74L456.07,599l4.48-9.74Zm-6.46,4.39,1.11-2.41-2.41-1.11L461.42,597Z"/><path class="cls-5" d="M588.62,508.32a5.56,5.56,0,1,1-2.73-7.38A5.57,5.57,0,0,1,588.62,508.32Zm-6.45-3a1.53,1.53,0,1,0,2-.75A1.53,1.53,0,0,0,582.17,505.36Z"/><path class="cls-5" d="M891.06,438.58l28.52,59.21a15.21,15.21,0,0,1-7.09,20.27l-59.21,28.52A15.2,15.2,0,0,1,833,539.49l-28.52-59.2a15.21,15.21,0,0,1,7.1-20.28l59.2-28.52A15.22,15.22,0,0,1,891.06,438.58Zm-54.42,99.16A11.17,11.17,0,0,0,851.53,543l59.2-28.52a11.16,11.16,0,0,0,5.21-14.89l-28.51-59.21a11.17,11.17,0,0,0-14.9-5.2l-59.2,28.52a11.16,11.16,0,0,0-5.21,14.89Z"/><path class="cls-5" d="M868.1,436.53,850.55,495a12.82,12.82,0,0,0,7.16,15.43l33,14.38-1.62,3.69-33-14.37a16.86,16.86,0,0,1-9.41-20.29l17.55-58.51Z"/><path class="cls-5" d="M853.63,478.3l-1.46,3.76-10.38-4a16.88,16.88,0,0,1-10.24-19.78l2-8,3.92,1-2,8a12.85,12.85,0,0,0,7.78,15.05Z"/><path class="cls-5" d="M842,487a10.08,10.08,0,1,1-13.46-4.71A10.1,10.1,0,0,1,842,487Zm-14.53,7a6,6,0,1,0,2.82-8.07A6.05,6.05,0,0,0,827.48,494Z"/><path class="cls-5" d="M112.94,42.4l-2-3.53,151.51-84a8.17,8.17,0,0,0-1-6,5.29,5.29,0,0,0-5-2.87L97,13.51,95.4,9.79,255.58-57.9l.33,0A9.44,9.44,0,0,1,265-53.1c2,3.46,2.34,8.11.7,10.59l-.27.41-.43.24Z"/><path class="cls-5" d="M41.38,31.07c5.32-9.53,15.39-13.31,30.76-11.56l-.46,4C57.92,22,49.4,25,44.9,33Z"/><path class="cls-5" d="M61.87,83.88v-4c24.1,0,27-24.52,27.28-27.32l4,.36C92.13,64.42,84.35,83.92,61.87,83.88Z"/><path class="cls-5" d="M87.89,52.13A97.74,97.74,0,0,1,70,22.24l-.15-.4a3.47,3.47,0,0,1,2-4.42l21.55-8.6a3.49,3.49,0,0,1,4.22,1.35l-1.45,1.48,1.71-1.07c3.08,4.91,10.8,17.6,15.91,29.24h0l.23.5a3.47,3.47,0,0,1-1.34,4.31l0,0L94.93,55.54a3.44,3.44,0,0,1-4.21-.45l-1-1C89.23,53.6,88.6,52.93,87.89,52.13Zm4.92,0h0ZM73.86,21A90.92,90.92,0,0,0,92.62,51.29l.57.58L110.4,41.32l-.28.12c-5-11.38-12.59-23.86-15.63-28.71Zm-.5.2h0Zm37.1,20.12a.58.58,0,0,0-.12.64l.42-.33-.22-.34Zm.11,0,.21.34,1.19-.95Zm-14.64-30-1.71,1.07a.68.68,0,0,0,.39.28Z"/><path class="cls-5" d="M30,76.32a5.24,5.24,0,0,1-1.19-2.19c-.61-2.36.84-4.67,1.71-6l.19-.31a14.41,14.41,0,0,0,.84-1.41,33.85,33.85,0,0,0,2.62-7.58,42.56,42.56,0,0,0,.73-6.46l0-.75a37.69,37.69,0,0,1,.6-4.32c.2-1.15.41-2.3.51-3.46.36-4,1.06-8.22,3.72-11.44,1.85-2.23,5.1-4,8.2-2.85,3.51,1.27,4.65,5.28,4.54,8.31-.13,4.08-1.72,7.75-3.26,11.3-1.32,3-2.56,5.91-2.88,8.92a7.25,7.25,0,0,0,.34,3.55,3,3,0,0,0,1.87,1.85c1.26.33,2.87-.53,4.41-1.44l4.37-2.57a9.18,9.18,0,0,1,4.82-1.66,6.57,6.57,0,0,1,6,5.36,9.13,9.13,0,0,1-2,7.22,15.27,15.27,0,0,1-6.77,4.79,17.91,17.91,0,0,1-2,.61,10.48,10.48,0,0,0-2.2.75A11.9,11.9,0,0,0,57,76.39l.49-.06a10.15,10.15,0,0,1,2.89-.08,4.57,4.57,0,0,1,3.8,3,4.39,4.39,0,0,1-1.27,4.46,7.14,7.14,0,0,1-3.25,1.63c-4.86,1.2-9.7-.29-13.86-1.78-3.19-1.15-6.35-2.4-9.41-3.72-.32-.14-.69-.29-1.09-.44C33.6,78.73,31.4,77.88,30,76.32Zm3.93-6.08c-.41.66-1.39,2.2-1.22,2.88.3,1.06,2.65,2,4.07,2.52l1.24.49c3,1.29,6.06,2.51,9.16,3.63,3.61,1.29,7.77,2.6,11.53,1.67a3.47,3.47,0,0,0,1.44-.64.68.68,0,0,0,.2-.36,2,2,0,0,0-.56-.19,6.89,6.89,0,0,0-1.76.1l-.55.06c-5.38.62-6.75-1.31-7-3A4,4,0,0,1,52,73.92a10.1,10.1,0,0,1,4.49-2.07,15.24,15.24,0,0,0,1.63-.48,11.24,11.24,0,0,0,5-3.48,5.21,5.21,0,0,0,1.2-4,2.54,2.54,0,0,0-2.14-2.11,5.84,5.84,0,0,0-2.71,1.1l-4.37,2.57c-1.68,1-4.48,2.65-7.47,1.88A7,7,0,0,1,43,63.13a11.07,11.07,0,0,1-.62-5.51c.38-3.62,1.81-6.92,3.19-10.11C47,44.16,48.38,41,48.49,37.69c.06-1.77-.49-3.9-1.88-4.39-1.2-.43-2.78.49-3.72,1.63-2,2.37-2.51,5.84-2.81,9.23-.11,1.27-.34,2.54-.56,3.81A33.8,33.8,0,0,0,39,51.83l0,.74a45.34,45.34,0,0,1-.81,7.08,37.51,37.51,0,0,1-2.93,8.48,19.43,19.43,0,0,1-1.06,1.81l-1.9-.78Z"/><path class="cls-5" d="M484.29,16.62l-1.52,3.73c-16.12-6.54-23.09-17.72-29.24-27.58-5-7.95-9.24-14.82-17.39-18.11-13.23-5.36-29.63-4.53-42.78,2.16C383.16-18,369.73-6.73,363.69,17.44c-4.19,16.69,1,36.65,13.12,50.83,9.24,10.78,21.05,16.37,32.42,15.34,12.34-1.13,18.9-5.14,25.85-9.39,8.48-5.18,17.27-10.54,36.54-10.95l.09,4c-18.19.39-26.5,5.46-34.53,10.37-7,4.3-14.31,8.73-27.59,10-12.68,1.15-25.75-4.95-35.85-16.73-13-15.15-18.45-36.5-14-54.44,6.41-25.64,20.81-37.67,31.77-43.24,14.16-7.2,31.83-8.09,46.12-2.3C447-25.3,451.84-17.56,457-9.36,463.06.43,469.38,10.56,484.29,16.62Z"/><path class="cls-5" d="M479.5,34.44l-1,3.92C473.56,37.11,461.45,34,449.17,30a13,13,0,0,1-.19,6.52,14.12,14.12,0,0,1-2.25,4.33c12.86,3.5,25.28,7.87,29,9.21l-1.36,3.8c-3.9-1.4-17.4-6.16-30.86-9.7-7.56,6.13-21.13,8.73-28.13,5.23a7.66,7.66,0,0,1-4.55-7.86A5,5,0,0,1,413,37.78c2.5-1.76,8.27-3.44,29.37,1.93a11,11,0,0,0,2.71-4.38,10.93,10.93,0,0,0-.59-6.86c-24.15-8.21-28.59-13.19-29.81-16.24A5,5,0,0,1,414.89,8,7.23,7.23,0,0,1,422,4.1c8.22.37,20.81,10.88,25.51,21.13C460.65,29.59,474.2,33.12,479.5,34.44Zm-61.15-24.2a1.46,1.46,0,0,0,.11.49c.61,1.52,4.16,5.64,23.4,12.54-5.2-8-14.63-14.9-20-15.14-2.18-.09-3,.93-3.39,1.7A1,1,0,0,0,418.35,10.24Zm-3.53,32.14a3.62,3.62,0,0,0,2.36,3.4c4.48,2.24,14.25,1.14,21.15-2.92-17.09-4.07-21.74-2.64-23-1.78a1,1,0,0,0-.51.82A3.75,3.75,0,0,0,414.82,42.38Z"/><path class="cls-5" d="M524.61,49.21a10.9,10.9,0,0,1-.55,3.38c-2.55,7.93-11,11.88-13,12.73l-.29.3h-3.33l.84-4.16,1,.21c.82-.32,8.82-3.64,11-10.32,1.69-5.24-3.28-9.37-5.49-10.9l-.58-.37,1-1.68-2-.41.63-2.61,2.37,1.21s.32.19.83.53C519,38.5,524.6,42.94,524.61,49.21Z"/><rect class="cls-5" x="478.52" y="65.53" width="4.03" height="8.86" transform="translate(350.17 537.75) rotate(-82.71)"/><rect class="cls-5" x="488.08" y="15.56" width="4.03" height="0.78" transform="translate(320.84 476.16) rotate(-71.67)"/><path class="cls-5" d="M512.35,62.84l-.82,2c-2.68,6.1-5.66,9.46-8.85,10l-.29,0L501,74.62l.5-4,.82.1c1.34-.4,3.47-2.65,5.73-7.9l.59-1.44.56.22h.7v.27Z"/><path class="cls-5" d="M518.18,33.27c0,1.72-.09,3.63-.29,5.72-.25,2.57-.64,5.31-1.17,8.15l.34.69L516,49l-1.42-1.43-1.79.81-.31-.62.14-.67c.57-3,1-5.8,1.24-8.44.8-8.4-.34-12-1.14-12.8l-11-3.76,1.3-3.82,11.81,4.12a5.9,5.9,0,0,1,.73.61C517.31,24.7,518.18,28.16,518.18,33.27Z"/><rect class="cls-5" x="491.06" y="66.6" width="4.03" height="9.96" transform="translate(359.47 551.57) rotate(-82.7)"/><rect class="cls-5" x="494.33" y="15.26" width="4.03" height="5.64" transform="translate(318.21 481.71) rotate(-71.07)"/><path class="cls-5" d="M492.31,13.24a4.7,4.7,0,0,1-.16,1.22L477.86,70.84a4.47,4.47,0,0,1-3.13,3.29A5,5,0,0,1,470,72.91a4.41,4.41,0,0,1-1.18-4.37l14.29-56.38a4.45,4.45,0,0,1,3.13-3.29A5,5,0,0,1,491,10.08,4.35,4.35,0,0,1,492.31,13.24ZM472.64,69.75a.33.33,0,0,0,.12.27,1,1,0,0,0,.87.22c.1,0,.23-.06.32-.4l14.3-56.38c.08-.32,0-.42-.09-.49a1,1,0,0,0-.87-.22c-.1,0-.23.07-.32.4L472.68,69.53A1.15,1.15,0,0,0,472.64,69.75Z"/><path class="cls-5" d="M495.71,19.57a242.76,242.76,0,0,1-5.78,52.63,3.45,3.45,0,0,1-2.33,2.6,3.83,3.83,0,0,1-3.67-.84,3.58,3.58,0,0,1-1.05-3.41,236.61,236.61,0,0,0,5.56-54.44h0v-.06a3.62,3.62,0,0,1,7.24-.08Q495.71,17.77,495.71,19.57Zm-3.24-3.51Z"/><path class="cls-5" d="M506.14,43a154.75,154.75,0,0,1-3.3,31.78,3.44,3.44,0,0,1-4.19,2.7,3.59,3.59,0,0,1-2.87-4.3A146.86,146.86,0,0,0,497,19.29h0A3.75,3.75,0,0,1,500.2,15a3.31,3.31,0,0,1,3.88,2.79A156.71,156.71,0,0,1,506.14,43Z"/><path class="cls-5" d="M517.18,36.76c0,8.57-1.19,17-2.29,24.8a3.27,3.27,0,0,1-2,2.67,3.8,3.8,0,0,1-3.7-.58,3.71,3.71,0,0,1-1.39-3.44c1.76-12.39,3.57-25.2.72-37.6h0a3.64,3.64,0,0,1,1.05-3.47,3.8,3.8,0,0,1,3.66-.87,3.33,3.33,0,0,1,2.3,2.54A70.82,70.82,0,0,1,517.18,36.76Z"/></g><path class="cls-6" d="M869.42,98.41c-2.71-2.27-4.12-3.58-4.12-6.35s1.41-4.08,4.12-6.35c2.89-2.43,6.49-5.45,6.49-11.44s-3.6-9-6.49-11.43c-2.71-2.27-4.12-3.58-4.12-6.35s1.41-4.08,4.12-6.34c2.89-2.43,6.49-5.44,6.49-11.44h-6.63c0,2.77-1.41,4.08-4.12,6.35-2.89,2.42-6.49,5.44-6.49,11.43s3.6,9,6.49,11.44c2.71,2.26,4.12,3.57,4.12,6.34s-1.41,4.08-4.12,6.35c-2.89,2.43-6.49,5.44-6.49,11.44s3.6,9,6.49,11.43c2.71,2.27,4.12,3.59,4.12,6.36h6.63C875.91,103.85,872.31,100.83,869.42,98.41Z"/><path class="cls-6" d="M851.63,98.41c-2.71-2.27-4.12-3.58-4.12-6.35s1.41-4.08,4.12-6.35c2.89-2.43,6.49-5.45,6.49-11.44s-3.6-9-6.49-11.43c-2.71-2.27-4.12-3.58-4.12-6.35s1.41-4.08,4.12-6.34c2.89-2.43,6.49-5.44,6.49-11.44h-6.63c0,2.77-1.41,4.08-4.12,6.35-2.89,2.42-6.49,5.44-6.49,11.43s3.6,9,6.49,11.44c2.71,2.26,4.12,3.57,4.12,6.34s-1.41,4.08-4.12,6.35c-2.89,2.43-6.49,5.44-6.49,11.44s3.6,9,6.49,11.43c2.71,2.27,4.12,3.59,4.12,6.36h6.63C858.12,103.85,854.52,100.83,851.63,98.41Z"/><path class="cls-7" d="M195.59,482.54c2.27-2.7,3.59-4.12,6.36-4.12s4.08,1.42,6.35,4.12c2.42,2.9,5.44,6.5,11.43,6.5s9-3.6,11.44-6.5c2.26-2.7,3.57-4.12,6.34-4.12s4.08,1.42,6.35,4.12c2.42,2.9,5.44,6.5,11.43,6.5V482.4c-2.77,0-4.08-1.41-6.35-4.12-2.42-2.89-5.44-6.49-11.43-6.49s-9,3.6-11.43,6.49c-2.27,2.71-3.58,4.12-6.35,4.12s-4.08-1.41-6.35-4.12c-2.42-2.89-5.44-6.49-11.43-6.49s-9,3.6-11.44,6.49c-2.27,2.71-3.58,4.12-6.35,4.12V489C190.15,489,193.17,485.44,195.59,482.54Z"/><path class="cls-7" d="M195.59,464.75c2.27-2.7,3.59-4.12,6.36-4.12s4.08,1.42,6.35,4.12c2.42,2.9,5.44,6.5,11.43,6.5s9-3.6,11.44-6.5c2.26-2.7,3.57-4.12,6.34-4.12s4.08,1.42,6.35,4.12c2.42,2.9,5.44,6.5,11.43,6.5v-6.64c-2.77,0-4.08-1.41-6.35-4.12-2.42-2.89-5.44-6.49-11.43-6.49s-9,3.6-11.43,6.49c-2.27,2.71-3.58,4.12-6.35,4.12s-4.08-1.41-6.35-4.12C211,457.6,207.94,454,202,454s-9,3.6-11.44,6.49c-2.27,2.71-3.58,4.12-6.35,4.12v6.64C190.15,471.25,193.17,467.65,195.59,464.75Z"/><path class="cls-8" d="M762.06,290.29a7.7,7.7,0,0,1-.26,2l-20.64,77.55A27.09,27.09,0,0,1,708,389.05l-77.54-20.64a7.72,7.72,0,0,1-5.49-9.47l4.17-15.7c-5.26-2.25-9.39-7-11.78-13.53-2.63-7.23-2.83-15.92-.55-24.47,4.47-16.79,17.35-28.2,29.59-26.84l4.18-15.7a7.75,7.75,0,0,1,9.47-5.49l18.6,5-.68,2.56c-2.7,10.11,7.43,21.69,22.6,25.72,7.51,2,15.08,1.86,21.3-.41,5.9-2.15,9.84-5.93,11.1-10.68l.68-2.55,22.64,6a7.77,7.77,0,0,1,5.75,7.47ZM630,360.93a2.47,2.47,0,0,0,1.82,2.37l77.55,20.64a21.81,21.81,0,0,0,26.66-15.46l20.63-77.55a2.39,2.39,0,0,0-.24-1.86,2.43,2.43,0,0,0-1.49-1.13l-17.71-4.72c-2.26,5.27-7,9.4-13.54,11.78-7.23,2.63-15.92,2.83-24.47.56-16.78-4.47-28.31-17.27-26.84-29.59l-13.68-3.65a2.47,2.47,0,0,0-3,1.74l-5.48,20.62-2.56-.68c-10.15-2.7-21.69,7.43-25.73,22.6-2,7.5-1.86,15.07.42,21.3,2.14,5.9,5.93,9.84,10.67,11.1l2.55.68L630.1,360.3A2.27,2.27,0,0,0,630,360.93Z"/><path class="cls-8" d="M789.37,222.28a7.76,7.76,0,0,1-5,7.24l-15.15,5.83c1.25,5.6-.13,11.7-4,17.49-4.32,6.37-11.24,11.63-19.49,14.81-16.21,6.24-33,2.51-39.1-8.2l-15.16,5.83a7.75,7.75,0,0,1-10-4.44l-6.91-18,2.47-.95c9.81-3.78,13.19-18.77,7.56-33.4-2.79-7.26-7.35-13.3-12.84-17-5.2-3.51-10.58-4.47-15.16-2.71l-2.47.95-8.41-21.87a7.77,7.77,0,0,1,4.44-10L725,129.07a27.12,27.12,0,0,1,35,15.55l28.81,74.89A7.51,7.51,0,0,1,789.37,222.28Zm-26.77,10,19.91-7.67a2.44,2.44,0,0,0,1.41-3.16l-28.82-74.9A21.82,21.82,0,0,0,726.94,134l-74.89,28.82a2.44,2.44,0,0,0-1.41,3.17l6.58,17.1c5.59-1.26,11.7.13,17.48,4,6.38,4.31,11.64,11.24,14.82,19.49,6.21,16.21,2.5,33-8.2,39.1l5.08,13.21a2.44,2.44,0,0,0,3.16,1.4l19.92-7.66.95,2.47c3.77,9.8,18.76,13.2,33.4,7.56,7.25-2.79,13.29-7.35,17-12.84,3.52-5.2,4.5-10.59,2.72-15.15Z"/><path class="cls-8" d="M337.75,191.07l45,93.41a24,24,0,0,1-11.19,32l-93.41,45a24,24,0,0,1-32-11.19l-45-93.41a24,24,0,0,1,11.19-32l93.42-45A24,24,0,0,1,337.75,191.07ZM251.88,347.52a17.63,17.63,0,0,0,23.5,8.22l93.41-45a17.62,17.62,0,0,0,8.22-23.5l-45-93.4a17.6,17.6,0,0,0-23.49-8.22l-93.42,45a17.62,17.62,0,0,0-8.21,23.5Z"/><path class="cls-8" d="M301.53,187.83l-27.7,92.31a20.26,20.26,0,0,0,11.3,24.36l52.09,22.68L334.68,333l-52.09-22.68a26.6,26.6,0,0,1-14.85-32L295.43,186Z"/><path class="cls-8" d="M278.7,253.74l-2.31,5.93L260,253.29a26.62,26.62,0,0,1-16.15-31.21L247,209.45l6.18,1.54L250,223.62a20.29,20.29,0,0,0,12.28,23.75Z"/><path class="cls-8" d="M260.36,267.4A15.9,15.9,0,1,1,239.13,260,15.93,15.93,0,0,1,260.36,267.4Zm-22.93,11a9.54,9.54,0,1,0,4.46-12.73A9.56,9.56,0,0,0,237.43,278.44Z"/><g class="cls-9"><path class="cls-4" d="M792.09,205.34c109.87,54.72,246.16,51.2,354.36-6.76,261.34-140,284.55-531.17,36.21-699C1052.9-588.06,868.81-588.26,741-497.73c-87.67,62.11-143.77,164.57-154.71,270.88-10.47,101.85,6.16,221.29,64.1,307C686.05,132.94,735,176.91,792.09,205.34Z"/></g><g class="cls-10"><g class="cls-11"><path class="cls-12" d="M-133.8,613.1c18.37,10.89,29.66,25.23,33.57,42.64a3.63,3.63,0,0,0,2,2.53,3.65,3.65,0,0,0,1.55.35,3.74,3.74,0,0,0,1.71-.43c15.81-8.24,34.06-8.87,54.24-1.86a7.6,7.6,0,0,0,9.42-4L2.27,580.08a7.71,7.71,0,0,0,.08-6.26,7.6,7.6,0,0,0-4.57-4.21c-14.55-4.86-36-8.3-56,2.55-4.61-22.28-21.07-36.43-34.18-44.42a7.6,7.6,0,0,0-6.16-.77,7.64,7.64,0,0,0-4.73,4.11l-33.54,72.23A7.64,7.64,0,0,0-133.8,613.1Zm.2-8.3,33.54-72.23a4.11,4.11,0,0,1,2.54-2.2,4,4,0,0,1,3.28.41h0c11.44,7,25.52,18.83,31.18,36.91,1,3.07,2.1,5.75,1.64,8l-.35,3,2.3-2.46c1.93-1.61,4.32-2.19,7.37-3.53,17.7-7.76,35.86-4,48.75.3a4,4,0,0,1,2.44,2.24,4.16,4.16,0,0,1,0,3.37L-34.5,650.82a4.22,4.22,0,0,1-5.14,2.11,84.3,84.3,0,0,0-27.59-5,62.84,62.84,0,0,0-26.65,5.89l3-12.55-6.65,10.59c-4.89-17-16.34-31-34.4-41.78A4.13,4.13,0,0,1-133.6,604.8Z"/></g></g></g><g id="Capa_3" data-name="Capa 3"><path d="M547.88,319.69c19.8,28.37,18.55,67,15.56,100a165.66,165.66,0,0,1-10.85,45.74c-13.2,35.06-15.16,62.17-5,99.19a3.41,3.41,0,0,1-3,4.4,2.86,2.86,0,0,1-2.28,2.28,285.77,285.77,0,0,1-80.95,6.44c-13.6-.86-45.19-.55-55.1-11.24a2.17,2.17,0,0,1-.47-1.73,3.79,3.79,0,0,1-2.91-4.48c12.89-62.32-44.24-125.35-63.73-182.8-14.86-43.7-18.55-88.1-4.56-132a2.65,2.65,0,0,1,.16-2c.31-.78.78-1.49,1.18-2.28.07-.15.15-.39.23-.55s.24-.31.32-.47c7.78-12.81,22.08-13.83,35.05-9.19-12.11-25.07,16.66-51.72,40.39-41.66a1.68,1.68,0,0,1,1.1.4c.08.08.08.15.16.15a32.18,32.18,0,0,1,5.11,3.15c-.39-18.08.94-36.31,1.57-54.39a1.78,1.78,0,0,0,.16-.63c-4-5.42-8.1-10.84-12.58-16.11-12.81-15.17-25.07-28.06-23.73-47C382.6,66.62,388,59.7,395.88,57c8.8-3,17.84.4,25.47,5.19a1.47,1.47,0,0,1,1.88.24c1.26,1.17,2.44,2.35,3.7,3.53-2.6-13.36-2.83-28.53,6.6-39.22,6.68-7.7,18.7-10.92,27.19-4.87,30,11.63,17,79.38,18.63,102.25a3,3,0,0,1-.4,1.73c39.46,55.56,65.55,121.5,71,188.62a3,3,0,0,1-3.54,3.3C546.86,318.43,547.41,319,547.88,319.69Zm4.87,124.88c5-18.79,5.42-42.44,4.72-62-1.65-50.46-25.55-76.24-67.51-99-10.06-5.5-21.07-13.12-32.46-20.59a3.14,3.14,0,0,1-4-1.8c-.16-.32-.31-.63-.47-1-1.34-.78-2.67-1.65-4-2.43a1.78,1.78,0,0,1,.55,1.57c-.63,14.22-14.62,20-27.27,17.37-8.88-1.73-28.22-9-34.5-18.86,1.33,12.26,11,26.56,19.41,32.45,14.93,10.61,32.14,17,49.35,22.72.48.15.63.47.87.7a3.17,3.17,0,0,1,3.46,2.91c1.25,13,11.63,21.14,20.27,29.87.4-.24.79-.48,1.26-.71,3.7-1.89,6.52,3.14,3.22,5.5-29.23,20-30.73,52.34-28.45,84.8.16,2.36-3.77,2.91-4.16.55-4.95-30.26-4-69.4,24.2-87.79-11.16-7.46-21.53-18.23-22.39-32.14a143.17,143.17,0,0,1-20.12-4.95c.47,17.13-16.19,24.91-31.2,19.49-21.7-7.94-37.34-35.68-46.92-55a1.62,1.62,0,0,1,2.82-1.58,253.55,253.55,0,0,0,24.13,32.86,103.63,103.63,0,0,0,9.51,9.82,44,44,0,0,0,9.67,6.91,19.68,19.68,0,0,0,9.51,2.68c-7.94-4.25-14.38-10.46-18-19-1.65-4.09-3.54-9.75-.39-13.6A5.33,5.33,0,0,1,398,292.1a45.92,45.92,0,0,1-11.78-15.56c-5.27-11.87-7.39-25-2.05-33.48-14.38-9-33.71-13.6-44.56,3.14-.08.16-.24.24-.31.32-11.63,71.59,2,128.81,35.52,193.73,20.35,39.45,44.8,76.07,35.29,122a3.87,3.87,0,0,1-.47,1.1.67.67,0,0,1-.24,1.1c7-2.2,21.3,3,28.92,4.09a303.21,303.21,0,0,0,32.62,2.83c23.42.62,46.21-2.05,69.16-6.37-6.76-25.07-14.86-58.39-5-83.39C540.57,467.44,548.27,461.23,552.75,444.57ZM474.16,268.13c23.81,13.2,50.53,24.13,68.53,45.11-8.33-96.82-58.79-169.76-117.57-243a2.43,2.43,0,0,1-1.42-.4c-6.05-4.08-12.65-8.49-20.19-8.72A17.1,17.1,0,0,0,390,67.17c-3.07,32.85,30.73,57.61,47.7,83.47,13.44,20.43,24.37,42.43,30.89,66,.47,1.73-2.28,3-3.07,1.26-12-25.78-24.36-49.83-40.08-72.62-.55,17.84-.86,35.84-3.14,53.44a172.79,172.79,0,0,1,36.47,59.73C463.86,261.92,469,265.22,474.16,268.13Zm-1.49-150.82c.15-25.07,8.25-74.66-11.16-90.38a1.54,1.54,0,0,1-1.18-.16c-11.48-5.65-22.79.32-27.12,11.87-3.61,9.75-2,20.51-1.65,30.57a1.73,1.73,0,0,1-.39.87A403.52,403.52,0,0,1,472.67,117.31ZM445.24,259.25a2.25,2.25,0,0,1,3.61-1.65c-17.13-10.45-35.05-19-52.42-17.53A15.09,15.09,0,0,0,388,251c.07.07.07.07.07.15,1,8.26,18,15,24.84,17.92C423.55,273.47,443.82,277.32,445.24,259.25ZM428.5,311.59a3,3,0,0,1,.55-1.89c-9.67-3.53-19.26-8.33-27.12-14.46a1.94,1.94,0,0,1-1.73,1.26c-6.28-.31-.7,11.4,0,12.73a50.58,50.58,0,0,0,4.09,6.45,41.05,41.05,0,0,0,11.87,10.53C421.19,324.56,425.28,319.76,428.5,311.59Zm21-59.26c-9.12-20.35-20.83-38.51-34.81-56-10.61-4.33-22.56-4.64-31.6,3.77-9,8.25-10.06,20.9-6.84,32a1.13,1.13,0,0,1-.07.7,56.92,56.92,0,0,1,10.92,6.76c3.22-2.91,7.78-4.87,14.22-5.26a1.43,1.43,0,0,1,1.58,1C420.17,234.26,434.94,242.74,449.48,252.33Z"/><path class="cls-13" d="M557.47,382.56c.7,19.57.31,43.22-4.72,62-4.48,16.66-12.18,22.87-17.68,37-9.83,25-1.73,58.32,5,83.39-23,4.32-45.74,7-69.16,6.37a303.21,303.21,0,0,1-32.62-2.83c-7.62-1.1-21.93-6.29-28.92-4.09a.67.67,0,0,0,.24-1.1,3.87,3.87,0,0,0,.47-1.1c9.51-45.9-14.94-82.52-35.29-122-33.48-64.92-47.15-122.14-35.52-193.73.07-.08.23-.16.31-.32,10.85-16.74,30.18-12.1,44.56-3.14-5.34,8.49-3.22,21.61,2.05,33.48A45.92,45.92,0,0,0,398,292.1a5.33,5.33,0,0,0-4.16,2.12c-3.15,3.85-1.26,9.51.39,13.6,3.62,8.56,10.06,14.77,18,19a19.68,19.68,0,0,1-9.51-2.68,44,44,0,0,1-9.67-6.91,103.63,103.63,0,0,1-9.51-9.82,253.55,253.55,0,0,1-24.13-32.86,1.62,1.62,0,0,0-2.82,1.58c9.58,19.33,25.22,47.07,46.92,55,15,5.42,31.67-2.36,31.2-19.49a143.17,143.17,0,0,0,20.12,4.95c.86,13.91,11.23,24.68,22.39,32.14C449,367.15,448.07,406.29,453,436.55c.39,2.36,4.32,1.81,4.16-.55-2.28-32.46-.78-64.84,28.45-84.8,3.3-2.36.48-7.39-3.22-5.5-.47.23-.86.47-1.26.71-8.64-8.73-19-16.82-20.27-29.87a3.17,3.17,0,0,0-3.46-2.91c-.24-.23-.39-.55-.87-.7-17.21-5.74-34.42-12.11-49.35-22.72-8.41-5.89-18.08-20.19-19.41-32.45,6.28,9.9,25.62,17.13,34.5,18.86,12.65,2.59,26.64-3.15,27.27-17.37a1.78,1.78,0,0,0-.55-1.57c1.34.78,2.67,1.65,4,2.43.16.4.31.71.47,1a3.14,3.14,0,0,0,4,1.8c11.39,7.47,22.4,15.09,32.46,20.59C531.92,306.32,555.82,332.1,557.47,382.56Z"/><path class="cls-13" d="M542.69,313.24c-18-21-44.72-31.91-68.53-45.11-5.19-2.91-10.3-6.21-15.4-9.67a172.79,172.79,0,0,0-36.47-59.73c2.28-17.6,2.59-35.6,3.14-53.44,15.72,22.79,28.06,46.84,40.08,72.62.79,1.73,3.54.47,3.07-1.26-6.52-23.58-17.45-45.58-30.89-66-17-25.86-50.77-50.62-47.7-83.47a17.1,17.1,0,0,1,13.52-6.05c7.54.23,14.14,4.64,20.19,8.72a2.43,2.43,0,0,0,1.42.4C483.9,143.48,534.36,216.42,542.69,313.24Z"/><path class="cls-13" d="M461.51,26.93c19.41,15.72,11.31,65.31,11.16,90.38a403.52,403.52,0,0,0-41.5-47.23,1.73,1.73,0,0,0,.39-.87c-.39-10.06-2-20.82,1.65-30.57,4.33-11.55,15.64-17.52,27.12-11.87A1.54,1.54,0,0,0,461.51,26.93Z"/><path class="cls-13" d="M448.85,257.6a2.25,2.25,0,0,0-3.61,1.65c-1.42,18.07-21.69,14.22-32.38,9.82C406,266.16,389,259.41,388,251.15c0-.08,0-.08-.07-.15a15.09,15.09,0,0,1,8.48-10.93C413.8,238.58,431.72,247.15,448.85,257.6Z"/><path class="cls-13" d="M429.05,309.7a3,3,0,0,0-.55,1.89c-3.22,8.17-7.31,13-12.34,14.62a41.05,41.05,0,0,1-11.87-10.53,50.58,50.58,0,0,1-4.09-6.45c-.7-1.33-6.28-13,0-12.73a1.94,1.94,0,0,0,1.73-1.26C409.79,301.37,419.38,306.17,429.05,309.7Z"/><path class="cls-13" d="M414.67,196.3c14,17.52,25.69,35.68,34.81,56-14.54-9.59-29.31-18.07-46.6-17.05a1.43,1.43,0,0,0-1.58-1c-6.44.39-11,2.35-14.22,5.26a56.92,56.92,0,0,0-10.92-6.76,1.13,1.13,0,0,0,.07-.7c-3.22-11.09-2.12-23.74,6.84-32C392.11,191.66,404.06,192,414.67,196.3Z"/></g></svg>