<svg xmlns="http://www.w3.org/2000/svg" xmlns:xlink="http://www.w3.org/1999/xlink" viewBox="0 0 900 600"><defs><style>.cls-1{fill:none;}.cls-2{fill:#d5a8ed;}.cls-3{clip-path:url(#clip-path);}.cls-4{fill:#ba88db;}.cls-5{fill:#f2deff;}.cls-6{fill:#fff;}.cls-7{fill:#5f55a8;}.cls-8{fill:#f1d6ff;}.cls-9{fill:#f3d8be;}</style><clipPath id="clip-path"><rect id="SVGID" class="cls-1" x="-11.06" y="-1.3" width="1051.42" height="613.33" transform="translate(1029.3 610.73) rotate(-180)"/></clipPath></defs><g id="Capa_2" data-name="Capa 2"><rect class="cls-2" x="-11.06" y="-1.3" width="1051.42" height="613.33" transform="translate(1029.3 610.73) rotate(-180)"/><g class="cls-3"><path class="cls-4" d="M-259,957.5c109.87,54.72,246.16,51.2,354.36-6.76,261.34-140,284.56-531.17,36.21-699C1.84,164.1-182.25,163.91-310,254.44c-87.67,62.1-143.77,164.57-154.7,270.88-10.48,101.84,6.15,221.29,64.09,307C-365,885.1-316,929.08-259,957.5Z"/><path class="cls-4" d="M750.28,301.08c80.88,40.28,181.21,37.69,260.86-5,192.38-103.06,209.47-391,26.66-514.54-95.53-64.55-231-64.69-325.12,2C648.15-170.76,606.84-95.33,598.8-17.07c-7.71,75,4.53,162.9,47.18,226C672.22,247.79,708.27,280.16,750.28,301.08Z"/><path class="cls-5" d="M102,541.4a6.18,6.18,0,0,1-.2,1.53L86,602.05a20.65,20.65,0,0,1-25.26,14.64L1.65,601a5.89,5.89,0,0,1-4.18-7.22l3.18-12c-4-1.72-7.16-5.32-9-10.32a31.45,31.45,0,0,1-.42-18.66c3.4-12.79,13.22-21.5,22.56-20.46l3.18-12a5.91,5.91,0,0,1,7.22-4.18L38.39,520l-.52,1.95c-2,7.71,5.67,16.54,17.23,19.61a27.39,27.39,0,0,0,16.24-.31c4.5-1.64,7.5-4.52,8.46-8.14l.52-1.95,17.26,4.59a5.93,5.93,0,0,1,4.39,5.7ZM1.3,595.25a1.88,1.88,0,0,0,1.39,1.8l59.12,15.74A16.6,16.6,0,0,0,82.13,601l15.74-59.12a1.86,1.86,0,0,0-.19-1.42,1.88,1.88,0,0,0-1.14-.87L83,536c-1.72,4-5.32,7.16-10.32,9a31.45,31.45,0,0,1-18.66.42C41.27,542,32.49,532.25,33.6,522.85l-10.42-2.77a1.87,1.87,0,0,0-2.29,1.32l-4.18,15.72-2-.52C7,534.54-1.78,542.27-4.85,553.83a27.4,27.4,0,0,0,.31,16.24c1.64,4.5,4.52,7.5,8.14,8.46l1.95.52L1.37,594.77A1.59,1.59,0,0,0,1.3,595.25Z"/><path class="cls-5" d="M122.79,489.55a5.92,5.92,0,0,1-3.79,5.52l-11.55,4.44c1,4.27-.1,8.92-3.08,13.33a31.61,31.61,0,0,1-14.85,11.3c-12.36,4.75-25.17,1.91-29.82-6.25l-11.55,4.44a5.91,5.91,0,0,1-7.63-3.39l-5.27-13.69,1.88-.72c7.48-2.88,10.06-14.31,5.77-25.46a27.49,27.49,0,0,0-9.79-13c-4-2.68-8.07-3.41-11.56-2.07l-1.88.73-6.42-16.67a5.94,5.94,0,0,1,3.4-7.63l57.09-22a20.66,20.66,0,0,1,26.68,11.86l22,57.09A5.8,5.8,0,0,1,122.79,489.55Zm-20.42,7.6,15.19-5.85a1.87,1.87,0,0,0,1.07-2.41l-22-57.09a16.63,16.63,0,0,0-21.47-9.54l-57.09,22A1.87,1.87,0,0,0,17,446.64l5,13c4.26-1,8.92.1,13.32,3.08a31.46,31.46,0,0,1,11.3,14.86c4.74,12.36,1.91,25.17-6.25,29.81l3.87,10.07a1.88,1.88,0,0,0,2.42,1.07l15.18-5.84.72,1.88c2.88,7.47,14.3,10.06,25.47,5.76a27.45,27.45,0,0,0,13-9.79c2.68-4,3.43-8.07,2.07-11.55Z"/><path class="cls-5" d="M582.67,582.72l-8.92,19.4-1.79-.75c-17.79-7.37-31.93-3.77-38.77-1a11.11,11.11,0,0,1-12.4-2.82l-40.86-45.2,3.91-8.5,60.9,1.59A11.1,11.1,0,0,1,555,553.05c2.33,7,8.8,20.08,26,28.79Zm-11,14.21,5.7-12.39c-17.19-9.35-23.82-22.86-26.27-30.23a7.06,7.06,0,0,0-6.49-4.81L486.39,548l-1.68,3.65,39.07,43.23a7.07,7.07,0,0,0,7.88,1.8C538.84,593.73,553.42,590,571.7,596.93Z"/><path class="cls-5" d="M532.13,571.23A10,10,0,1,1,527.22,558,10,10,0,0,1,532.13,571.23Zm-14.51-6.67a6,6,0,1,0,7.92-2.93A6,6,0,0,0,517.62,564.56Z"/><rect class="cls-5" x="497.73" y="538.7" width="4.03" height="35.29" transform="translate(-214.48 778.02) rotate(-65.31)"/><path class="cls-5" d="M590.3,586.58l-8.65,18.81a6.29,6.29,0,1,1-11.43-5.25l8.66-18.82a6.29,6.29,0,1,1,11.42,5.26Zm-16.41,15.25a2.26,2.26,0,1,0,4.1,1.88l8.65-18.82a2.26,2.26,0,0,0-4.1-1.88Z"/><path class="cls-5" d="M516.78,641l-1.69,3.67a70.58,70.58,0,0,1-34.6-93.51l3.66,1.68A66.55,66.55,0,0,0,516.78,641Z"/><path class="cls-5" d="M576.79,510.48l-1.69,3.67a66.56,66.56,0,0,0-88.16,32.63l-3.66-1.69A70.59,70.59,0,0,1,576.79,510.48Z"/><rect class="cls-5" x="426.39" y="546.79" width="114.81" height="4.03" transform="translate(-216.93 759.12) rotate(-65.31)"/><path class="cls-5" d="M516.28,491l-4.48,9.74-9.74-4.48,4.48-9.74Zm-6.46,4.39,1.11-2.41-2.41-1.11-1.11,2.41Z"/><path class="cls-5" d="M465.53,601.37l-4.48,9.74-9.74-4.48,4.48-9.74Zm-6.46,4.39,1.11-2.41-2.41-1.11-1.11,2.41Z"/><path class="cls-5" d="M583.86,516a5.56,5.56,0,1,1-2.73-7.37A5.57,5.57,0,0,1,583.86,516Zm-6.45-3a1.53,1.53,0,1,0,2-.75A1.54,1.54,0,0,0,577.41,513Z"/><path class="cls-5" d="M886.3,446.22l28.52,59.2a15.22,15.22,0,0,1-7.09,20.28l-59.21,28.52a15.21,15.21,0,0,1-20.28-7.1l-28.51-59.2a15.19,15.19,0,0,1,7.09-20.27L866,439.13A15.2,15.2,0,0,1,886.3,446.22Zm-54.42,99.15a11.16,11.16,0,0,0,14.89,5.21L906,522.06a11.16,11.16,0,0,0,5.2-14.89L882.67,448a11.18,11.18,0,0,0-14.9-5.21l-59.2,28.52a11.17,11.17,0,0,0-5.21,14.89Z"/><path class="cls-5" d="M863.34,444.16l-17.55,58.51A12.83,12.83,0,0,0,853,518.11l33,14.37-1.62,3.7-33-14.37a16.87,16.87,0,0,1-9.41-20.3L859.48,443Z"/><path class="cls-5" d="M848.87,485.94l-1.46,3.75-10.38-4a16.87,16.87,0,0,1-10.24-19.78l2-8,3.92,1-2,8a12.86,12.86,0,0,0,7.78,15Z"/><path class="cls-5" d="M837.25,494.59a10.08,10.08,0,1,1-13.46-4.7A10.1,10.1,0,0,1,837.25,494.59Zm-14.53,7a6,6,0,1,0,2.82-8.07A6.06,6.06,0,0,0,822.72,501.59Z"/><path class="cls-5" d="M108.18,50l-2-3.53,151.51-84a8.17,8.17,0,0,0-1-6,5.33,5.33,0,0,0-5-2.87L92.21,21.14l-1.57-3.72L250.82-50.27l.33,0a9.44,9.44,0,0,1,9.08,4.83c2,3.46,2.34,8.11.7,10.59l-.27.42-.43.24Z"/><path class="cls-5" d="M36.62,38.7C41.94,29.17,52,25.39,67.38,27.15l-.46,4c-13.76-1.58-22.28,1.45-26.78,9.51Z"/><path class="cls-5" d="M57.11,91.51v-4c24.1,0,27-24.53,27.28-27.33l4,.37C87.37,72.05,79.6,91.55,57.11,91.51Z"/><path class="cls-5" d="M83.13,59.76A97.74,97.74,0,0,1,65.27,29.87l-.15-.4a3.46,3.46,0,0,1,2-4.41l21.55-8.61a3.49,3.49,0,0,1,4.22,1.36l-1.45,1.47,1.71-1.07c3.08,4.92,10.8,17.6,15.91,29.25h0l.23.51a3.47,3.47,0,0,1-1.34,4.31l0,0L90.17,63.17A3.46,3.46,0,0,1,86,62.73l-1-1C84.47,61.23,83.84,60.56,83.13,59.76Zm4.92,0h0ZM69.1,28.6A90.89,90.89,0,0,0,87.86,58.93l.57.57L105.64,49l-.28.13c-5-11.39-12.59-23.86-15.63-28.71Zm-.5.21h0Zm37.1,20.12a.57.57,0,0,0-.12.64l.42-.34-.22-.34Zm.11,0,.21.33,1.19-.94Zm-14.64-30-1.71,1.06a.64.64,0,0,0,.39.28Z"/><path class="cls-5" d="M25.25,84a5.24,5.24,0,0,1-1.19-2.19c-.61-2.36.84-4.66,1.71-6l.19-.3A14.47,14.47,0,0,0,26.8,74a33.94,33.94,0,0,0,2.62-7.57A42.69,42.69,0,0,0,30.15,60l0-.75a37.69,37.69,0,0,1,.6-4.32c.2-1.15.41-2.3.51-3.45.36-4,1.06-8.23,3.73-11.45,1.84-2.23,5.09-4,8.19-2.85,3.52,1.27,4.65,5.28,4.54,8.32C47.63,49.54,46,53.2,44.5,56.75c-1.32,3-2.56,5.92-2.88,8.93A7.4,7.4,0,0,0,42,69.23a3,3,0,0,0,1.87,1.85c1.26.32,2.87-.53,4.41-1.44l4.37-2.58a9.22,9.22,0,0,1,4.82-1.66,6.57,6.57,0,0,1,6,5.37,9.12,9.12,0,0,1-2,7.21,15.12,15.12,0,0,1-6.77,4.79,17.36,17.36,0,0,1-2.05.62,9.94,9.94,0,0,0-2.2.75A15.44,15.44,0,0,0,52.27,84l.49-.06a9.8,9.8,0,0,1,2.89-.08,4.56,4.56,0,0,1,3.8,3,4.38,4.38,0,0,1-1.27,4.46A7.17,7.17,0,0,1,54.93,93c-4.86,1.19-9.7-.3-13.86-1.79-3.19-1.14-6.35-2.39-9.41-3.72-.32-.14-.69-.28-1.09-.43C28.84,86.36,26.64,85.51,25.25,84Zm3.93-6.08c-.41.66-1.39,2.21-1.22,2.88.3,1.07,2.65,2,4.07,2.52.45.17.87.34,1.24.5,3,1.29,6.06,2.51,9.16,3.62C46,88.68,50.2,90,54,89.06a3.23,3.23,0,0,0,1.44-.64.62.62,0,0,0,.2-.36,2.24,2.24,0,0,0-.56-.18,6.44,6.44,0,0,0-1.76.09l-.55.07c-5.38.62-6.75-1.32-6.95-3.05a4,4,0,0,1,1.41-3.44,10.1,10.1,0,0,1,4.49-2.07A13.23,13.23,0,0,0,53.31,79a11.23,11.23,0,0,0,5-3.47,5.22,5.22,0,0,0,1.2-4,2.53,2.53,0,0,0-2.14-2.1,5.71,5.71,0,0,0-2.71,1.09l-4.37,2.58c-1.68,1-4.48,2.64-7.47,1.87a7,7,0,0,1-4.59-4.22,11.06,11.06,0,0,1-.62-5.51c.38-3.62,1.81-6.92,3.19-10.1,1.45-3.35,2.82-6.51,2.93-9.82.06-1.77-.49-3.91-1.88-4.4-1.2-.43-2.78.5-3.72,1.63-2,2.38-2.51,5.84-2.81,9.23-.11,1.27-.34,2.54-.56,3.81a34.11,34.11,0,0,0-.54,3.86l0,.75a45.21,45.21,0,0,1-.81,7.07,37.51,37.51,0,0,1-2.93,8.48,19.5,19.5,0,0,1-1.06,1.82l-1.89-.78Z"/><path class="cls-5" d="M479.53,24.25,478,28C461.89,21.44,454.92,10.26,448.77.4c-5-7.95-9.24-14.82-17.39-18.11-13.23-5.36-29.63-4.53-42.78,2.16C378.4-10.36,365,.91,358.93,25.07c-4.19,16.7,1,36.66,13.12,50.84,9.24,10.78,21.05,16.37,32.42,15.33,12.34-1.13,18.9-5.14,25.85-9.38,8.48-5.19,17.27-10.55,36.54-11l.09,4c-18.19.39-26.5,5.46-34.53,10.37-7,4.3-14.31,8.74-27.59,10-12.68,1.15-25.75-4.94-35.85-16.73C356,63.39,350.53,42,355,24.09c6.41-25.64,20.81-37.66,31.77-43.24,14.16-7.2,31.83-8.08,46.12-2.3,9.36,3.78,14.18,11.52,19.29,19.72C458.3,8.07,464.62,18.2,479.53,24.25Z"/><path class="cls-5" d="M474.74,42.08l-1,3.91c-4.95-1.24-17.06-4.39-29.34-8.35a13,13,0,0,1-.19,6.52A14.07,14.07,0,0,1,442,48.48c12.86,3.5,25.28,7.88,29,9.22l-1.36,3.79c-3.9-1.4-17.4-6.16-30.86-9.69-7.56,6.12-21.13,8.72-28.13,5.22a7.64,7.64,0,0,1-4.55-7.86,5.05,5.05,0,0,1,2.21-3.75c2.5-1.75,8.27-3.44,29.37,1.93A11.08,11.08,0,0,0,440.37,43a11,11,0,0,0-.6-6.87C415.62,27.9,411.18,22.91,410,19.86a5,5,0,0,1,.17-4.27,7.25,7.25,0,0,1,7.14-3.86c8.22.37,20.81,10.88,25.51,21.13C455.89,37.23,469.44,40.75,474.74,42.08Zm-61.15-24.2a1.47,1.47,0,0,0,.11.48c.62,1.52,4.16,5.65,23.4,12.54-5.2-8-14.63-14.89-20-15.14-2.18-.09-3,.93-3.39,1.71A.89.89,0,0,0,413.59,17.88ZM410.06,50a3.62,3.62,0,0,0,2.36,3.39c4.48,2.24,14.25,1.14,21.15-2.92-17.09-4.07-21.74-2.64-23-1.78a1,1,0,0,0-.51.82A3.79,3.79,0,0,0,410.06,50Z"/><path class="cls-5" d="M519.85,56.84a11,11,0,0,1-.55,3.39c-2.55,7.93-11,11.88-13,12.72l-.3.3-3.33,0,.84-4.16,1,.21c.82-.33,8.82-3.65,11-10.33,1.69-5.24-3.28-9.36-5.49-10.89l-.58-.37,1-1.69-1.95-.41L509,43l2.37,1.21s.32.18.83.52C514.23,46.13,519.84,50.58,519.85,56.84Z"/><rect class="cls-5" x="473.76" y="73.17" width="4.03" height="8.86" transform="translate(338.44 539.69) rotate(-82.71)"/><rect class="cls-5" x="483.32" y="23.19" width="4.03" height="0.78" transform="translate(310.33 476.88) rotate(-71.67)"/><path class="cls-5" d="M507.59,70.47l-.81,2c-2.69,6.11-5.67,9.46-8.86,10l-.29,0-1.44-.18.5-4,.82.11c1.34-.41,3.47-2.66,5.73-7.9l.59-1.44.56.21h.7v.28Z"/><path class="cls-5" d="M513.42,40.91c0,1.72-.09,3.63-.29,5.72-.24,2.57-.64,5.3-1.17,8.15l.34.69-1,1.12-1.42-1.42L508,56l-.31-.61.14-.68c.57-3,1-5.8,1.24-8.43.8-8.41-.34-12-1.14-12.81l-11-3.76,1.3-3.82L510.1,30a6.94,6.94,0,0,1,.73.61C512.55,32.34,513.42,35.79,513.42,40.91Z"/><rect class="cls-5" x="486.3" y="74.23" width="4.03" height="9.96" transform="translate(347.74 553.52) rotate(-82.7)"/><rect class="cls-5" x="489.57" y="22.89" width="4.03" height="5.64" transform="translate(307.78 482.37) rotate(-71.07)"/><path class="cls-5" d="M487.55,20.87a4.7,4.7,0,0,1-.16,1.22L473.1,78.47A4.43,4.43,0,0,1,470,81.76a5,5,0,0,1-4.78-1.21A4.42,4.42,0,0,1,464,76.17L478.3,19.79a4.47,4.47,0,0,1,3.13-3.29,5,5,0,0,1,4.79,1.22A4.35,4.35,0,0,1,487.55,20.87ZM467.88,77.38a.33.33,0,0,0,.12.28,1,1,0,0,0,.87.22c.1,0,.24-.07.32-.4l14.3-56.38c.08-.33,0-.43-.09-.49a1,1,0,0,0-.87-.22c-.09,0-.23.07-.32.4L467.92,77.17A1,1,0,0,0,467.88,77.38Z"/><path class="cls-5" d="M491,27.2a242.85,242.85,0,0,1-5.78,52.64,3.45,3.45,0,0,1-2.33,2.59,3.83,3.83,0,0,1-3.67-.83,3.59,3.59,0,0,1-1.05-3.42,236.61,236.61,0,0,0,5.56-54.44h0v0a3.62,3.62,0,0,1,7.24-.08C490.94,24.8,491,26,491,27.2Zm-3.24-3.51Z"/><path class="cls-5" d="M501.38,50.62a154.92,154.92,0,0,1-3.3,31.79,3.45,3.45,0,0,1-4.19,2.7A3.6,3.6,0,0,1,491,80.8a146.86,146.86,0,0,0,1.24-53.88h0a3.75,3.75,0,0,1,3.18-4.33,3.31,3.31,0,0,1,3.88,2.79A156.71,156.71,0,0,1,501.38,50.62Z"/><path class="cls-5" d="M512.42,44.39c0,8.58-1.19,17-2.29,24.8a3.3,3.3,0,0,1-2,2.68,3.83,3.83,0,0,1-3.7-.59A3.67,3.67,0,0,1,503,67.84c1.75-12.39,3.56-25.19.71-37.6h0a3.64,3.64,0,0,1,1.05-3.47,3.83,3.83,0,0,1,3.66-.87,3.33,3.33,0,0,1,2.3,2.55A70.67,70.67,0,0,1,512.42,44.39Z"/></g><path class="cls-6" d="M864.66,106c-2.71-2.26-4.12-3.58-4.12-6.35s1.41-4.08,4.12-6.35c2.89-2.42,6.49-5.44,6.49-11.44s-3.6-9-6.49-11.43c-2.71-2.26-4.12-3.58-4.12-6.34s1.41-4.08,4.12-6.35c2.89-2.42,6.49-5.44,6.49-11.43h-6.63c0,2.76-1.41,4.08-4.12,6.35-2.89,2.42-6.49,5.43-6.49,11.43s3.6,9,6.49,11.43c2.71,2.27,4.12,3.58,4.12,6.34s-1.41,4.09-4.12,6.36c-2.89,2.42-6.49,5.44-6.49,11.43s3.6,9,6.49,11.44c2.71,2.27,4.12,3.58,4.12,6.35h6.63C871.15,111.49,867.55,108.47,864.66,106Z"/><path class="cls-6" d="M846.87,106c-2.71-2.26-4.12-3.58-4.12-6.35s1.41-4.08,4.12-6.35c2.89-2.42,6.49-5.44,6.49-11.44s-3.6-9-6.49-11.43c-2.71-2.26-4.12-3.58-4.12-6.34s1.41-4.08,4.12-6.35c2.89-2.42,6.49-5.44,6.49-11.43h-6.63c0,2.76-1.41,4.08-4.12,6.35-2.89,2.42-6.49,5.43-6.49,11.43s3.6,9,6.49,11.43c2.71,2.27,4.12,3.58,4.12,6.34s-1.41,4.09-4.12,6.36c-2.89,2.42-6.49,5.44-6.49,11.43s3.6,9,6.49,11.44c2.71,2.27,4.12,3.58,4.12,6.35h6.63C853.36,111.49,849.76,108.47,846.87,106Z"/><path class="cls-7" d="M190.83,490.18c2.27-2.71,3.59-4.12,6.36-4.12s4.08,1.41,6.35,4.12c2.42,2.89,5.44,6.49,11.43,6.49s9-3.6,11.44-6.49c2.26-2.71,3.57-4.12,6.34-4.12s4.08,1.41,6.35,4.12c2.42,2.89,5.44,6.49,11.43,6.49V490c-2.77,0-4.08-1.41-6.35-4.12-2.42-2.9-5.44-6.5-11.43-6.5s-9,3.6-11.43,6.5c-2.27,2.71-3.58,4.12-6.35,4.12s-4.08-1.42-6.35-4.12c-2.42-2.9-5.44-6.5-11.43-6.5s-9,3.6-11.44,6.5c-2.27,2.7-3.58,4.12-6.35,4.12v6.63C185.39,496.67,188.41,493.07,190.83,490.18Z"/><path class="cls-7" d="M190.83,472.39c2.27-2.71,3.59-4.12,6.36-4.12s4.08,1.41,6.35,4.12c2.42,2.89,5.44,6.49,11.43,6.49s9-3.6,11.44-6.49c2.26-2.71,3.57-4.12,6.34-4.12s4.08,1.41,6.35,4.12c2.42,2.89,5.44,6.49,11.43,6.49v-6.63c-2.77,0-4.08-1.42-6.35-4.12-2.42-2.9-5.44-6.5-11.43-6.5s-9,3.6-11.43,6.5c-2.27,2.7-3.58,4.12-6.35,4.12s-4.08-1.42-6.35-4.12c-2.42-2.9-5.44-6.5-11.43-6.5s-9,3.6-11.44,6.5c-2.27,2.7-3.58,4.12-6.35,4.12v6.63C185.39,478.88,188.41,475.28,190.83,472.39Z"/><path class="cls-8" d="M757.3,297.93a7.63,7.63,0,0,1-.26,2L736.4,377.48a27.09,27.09,0,0,1-33.14,19.2l-77.54-20.63a7.73,7.73,0,0,1-5.49-9.48l4.17-15.69c-5.26-2.26-9.39-7-11.78-13.53-2.63-7.24-2.83-15.93-.55-24.48,4.47-16.78,17.35-28.2,29.59-26.84l4.18-15.7a7.76,7.76,0,0,1,9.47-5.49l18.6,5-.68,2.55c-2.7,10.11,7.44,21.69,22.6,25.73,7.51,2,15.08,1.85,21.3-.42,5.9-2.14,9.84-5.93,11.1-10.67l.68-2.55,22.64,6a7.77,7.77,0,0,1,5.75,7.47Zm-132,70.63a2.46,2.46,0,0,0,1.82,2.37l77.55,20.64a21.79,21.79,0,0,0,26.66-15.46l20.63-77.54a2.38,2.38,0,0,0-.24-1.86,2.44,2.44,0,0,0-1.49-1.14l-17.71-4.71c-2.26,5.26-7,9.39-13.54,11.78-7.23,2.63-15.92,2.83-24.47.55-16.78-4.47-28.31-17.27-26.84-29.59L654,270a2.45,2.45,0,0,0-3,1.74l-5.48,20.61-2.56-.68c-10.15-2.7-21.69,7.44-25.73,22.6-2,7.51-1.86,15.08.42,21.31,2.14,5.89,5.93,9.83,10.67,11.09l2.55.68-5.48,20.63A2.15,2.15,0,0,0,625.26,368.56Z"/><path class="cls-8" d="M784.61,229.92a7.76,7.76,0,0,1-5,7.24L764.5,243c1.25,5.6-.13,11.7-4,17.49-4.32,6.38-11.24,11.64-19.49,14.81-16.21,6.24-33,2.52-39.1-8.2l-15.16,5.84a7.76,7.76,0,0,1-10-4.45l-6.91-18,2.47-.95c9.81-3.77,13.19-18.76,7.56-33.4-2.79-7.25-7.35-13.29-12.84-17-5.2-3.52-10.58-4.48-15.16-2.71l-2.47,1-8.41-21.87a7.78,7.78,0,0,1,4.44-10l74.9-28.81a27.1,27.1,0,0,1,35,15.55l28.82,74.89A7.71,7.71,0,0,1,784.61,229.92Zm-26.77,10,19.91-7.66a2.45,2.45,0,0,0,1.41-3.17l-28.82-74.89a21.81,21.81,0,0,0-28.16-12.51l-74.89,28.81a2.45,2.45,0,0,0-1.41,3.17l6.58,17.11c5.59-1.27,11.7.12,17.48,4,6.38,4.31,11.64,11.23,14.82,19.48,6.21,16.22,2.5,33-8.2,39.11l5.08,13.2A2.45,2.45,0,0,0,684.8,268l19.92-7.66.95,2.47c3.77,9.8,18.76,13.19,33.4,7.55,7.25-2.79,13.29-7.35,17-12.84,3.52-5.19,4.5-10.58,2.72-15.15Z"/><path class="cls-8" d="M333,198.71l45,93.41a24,24,0,0,1-11.19,32l-93.41,45a24,24,0,0,1-32-11.2l-45-93.4a24,24,0,0,1,11.19-32l93.42-45A24,24,0,0,1,333,198.71ZM247.12,355.15a17.62,17.62,0,0,0,23.5,8.22l93.41-45a17.61,17.61,0,0,0,8.22-23.49l-45-93.41a17.62,17.62,0,0,0-23.5-8.22l-93.41,45a17.6,17.6,0,0,0-8.22,23.49Z"/><path class="cls-8" d="M296.77,195.47l-27.7,92.3a20.25,20.25,0,0,0,11.3,24.36l52.09,22.68-2.54,5.83L277.83,318A26.61,26.61,0,0,1,263,286l27.69-92.31Z"/><path class="cls-8" d="M273.94,261.38l-2.31,5.92-16.38-6.37a26.62,26.62,0,0,1-16.15-31.21l3.15-12.63,6.18,1.54-3.15,12.62A20.28,20.28,0,0,0,257.56,255Z"/><path class="cls-8" d="M255.6,275a15.91,15.91,0,1,1-21.23-7.42A15.93,15.93,0,0,1,255.6,275Zm-22.93,11.05a9.54,9.54,0,1,0,4.46-12.74A9.56,9.56,0,0,0,232.67,286.08Z"/></g><g id="Capa_3" data-name="Capa 3"><path d="M615.9,185.68c25.14,45.58-30.89,100.19-57.53,132-28.27,33.65-60.2,66.4-85.5,102.36-26,37-23.5,100.79-26.63,145.18a3.47,3.47,0,0,1-2.54,3.14,3.83,3.83,0,0,1-2.46,4.92c-45.73,14.33-97.59,14.55-140.63-8.43a2.54,2.54,0,0,1-.83-3.65,3.08,3.08,0,0,1,.08-3.29c21.93-36.7,27.68-89.45,29.77-131.31,1.86-36.11-9.4-70.28-10-106.09-1-64.91,12.16-135.71,40.06-194.35,13.28-27.9,30.67-53.87,52.68-75.65,6.34-6.34,17.45-20,28.27-17.76,6.87,1.42,11,4.48,13.06,8.51,5.45-8.81,16.19-14.7,26.56-13.58a2.11,2.11,0,0,1,1.79,1.42,13.35,13.35,0,0,1,7.91,3.5,19.4,19.4,0,0,1,20.52-1A12.75,12.75,0,0,1,518,37.81c0-.6.37-1.2,1.12-1.05C530.4,39.45,535,48.92,532,60c-3.28,12.61-14.17,23.05-25,30.29a2.54,2.54,0,0,1,.45,1.79c-2.54,16.26-12.69,37.45-28.43,45.81a2.08,2.08,0,0,1,2.17,2A81.3,81.3,0,0,1,471,183.14a1.89,1.89,0,0,1,1.19,1.57c1.72,22.83-8.13,55.13,12.69,71.69,20.66,16.49,51.25-14,67.74-26.18a2,2,0,0,1,2.61.3c6.57-19.92,33.72-63.2,55.06-50.14a1.76,1.76,0,0,1,2.54.37c.82,1.27,1.56,2.46,2.31,3.73l.45.45A1.23,1.23,0,0,1,615.9,185.68ZM558.15,307.74c26.11-31.12,72.89-78,52.6-122.88-25.52-10.37-43.57,35.29-54.39,51.1a1.26,1.26,0,0,1-2.31-.89c-16.86,14.32-45.59,41.93-68.57,28.72-26.93-15.37-17.9-52.82-17.08-77.89a1.52,1.52,0,0,1-1-2.16,94.54,94.54,0,0,0,9.63-43.8,1.61,1.61,0,0,1,.52-1.19,39.36,39.36,0,0,1-4.1,1.64,1.17,1.17,0,0,1-1.12-1.94c6.64-7.24,14.32-12.38,20-20.81a71.36,71.36,0,0,0,10.15-24.48c-1.94.68-3.43-2.23-1.49-3.5,7.83-5.37,14.92-11.57,20.51-19.33,6.34-8.72,12.54-27.53-2.83-31.7-.08,0-.15-.15-.23-.15,2.69,5.37,2.24,12.68-.07,18.5-4.7,11.94-14.55,21.26-25.74,27.23.07.15.15.15.22.3,4.11,22.68-20.21,45.44-38.34,54.76a1.61,1.61,0,0,1-1.65-2.76c16.64-11.34,36.19-28.72,36.34-50.58-1.05.52-2.17,1-3.21,1.41-1.72.75-2.83-2.08-1.27-3,13.21-7.09,41.56-31,27.16-47a2.13,2.13,0,0,1-1.34-.23c-6.2-3.5-11.94-4-18.21-1.71,4.33,6.49,4.48,16.41,1.64,23.5-3.73,9.33-11,17.16-20,20.89a1.94,1.94,0,0,1,1.19,2.09c-1.71,18-18.28,34.09-34.69,42.82a2.88,2.88,0,0,1,2.83,2.84c1,22.16-4.92,44.24-18.05,62.22a1.91,1.91,0,0,1-3.28-1.94c10.29-19.17,15.74-38.5,15.37-60.28a3.16,3.16,0,0,1,.37-1.49,53.74,53.74,0,0,1-6.42,2.76c-2.46.89-4.1-3-1.79-4.18a85.69,85.69,0,0,0,24.62-18.21c7.16-7.68,10.3-16.78,15.89-25.29a29.4,29.4,0,0,1-12.53.45c-1.87-.37-1.42-3.51.45-3.36,22,1.72,48.64-33.94,22.6-46.48-.15.08-.15.15-.22.15a37.65,37.65,0,0,0-25.14,13.51c1.64,8.43-2.69,19.54-9,29.54-2.31,6.86-7.16,12.53-13.13,16.71a53.44,53.44,0,0,1-7.54,6.49,2.8,2.8,0,0,1,1,2.76c-2.68,16.34-8.13,38.65-23.95,46.26a1,1,0,0,1,.15.52c4.18,17.61,3.88,39.84-14.54,49.17a1.86,1.86,0,0,1-1.87-3.21c15.15-10.3,13.88-28.5,10.89-44.47,0-.07.08-.07,0-.15a28.87,28.87,0,0,1-6.49.9,1.41,1.41,0,0,1-.37-2.76c22.08-6.19,27.23-27.9,30.51-47.82v-.08a1.77,1.77,0,0,1,0-2.68c-1-.82-1.26-2.47.08-3.06,9.92-4.33,16.11-11.42,21.48-20.52a1.79,1.79,0,0,1,1.94-.89,33.22,33.22,0,0,0,5.23-25.74c-.82-4.56-5.9-7.84-10.3-7.84a18.23,18.23,0,0,0-15.22,7.69,9,9,0,0,0-1,1.64l-8.73,8.73a9.71,9.71,0,0,0-2.09,3.06C401.55,67,391.85,84,384.91,94.28a299.67,299.67,0,0,0-30.51,60.81c-18.58,49.61-28.5,106.09-28.35,159.06.07,48.64,13.65,91.84,7.38,141.16C328.88,491,324.48,529.62,306,561.1c44.84,14.48,87.06,19.25,133.17,4.78.08-.08.15,0,.23-.08s-.08-.37-.08-.6c2.54-35.28,4.92-71.32,11.27-106.24,4.77-26.48,15.29-41.1,32.23-61.4C507.87,367.57,533.08,337.65,558.15,307.74Z"/><path class="cls-9" d="M610.75,184.86c20.29,44.91-26.49,91.76-52.6,122.88-25.07,29.91-50.28,59.83-75.35,89.82-16.94,20.3-27.46,34.92-32.23,61.4-6.35,34.92-8.73,71-11.27,106.24,0,.23.08.45.08.6s-.15,0-.23.08C393,580.35,350.82,575.58,306,561.1c18.5-31.48,22.9-70.06,27.45-105.79,6.27-49.32-7.31-92.52-7.38-141.16-.15-53,9.77-109.45,28.35-159.06a299.67,299.67,0,0,1,30.51-60.81C391.85,84,401.55,67,412.14,59.67a9.71,9.71,0,0,1,2.09-3.06L423,47.88a9,9,0,0,1,1-1.64,18.23,18.23,0,0,1,15.22-7.69c4.4,0,9.48,3.28,10.3,7.84a33.22,33.22,0,0,1-5.23,25.74,1.79,1.79,0,0,0-1.94.89c-5.37,9.1-11.56,16.19-21.48,20.52-1.34.59-1.05,2.24-.08,3.06a1.77,1.77,0,0,0,0,2.68v.08c-3.28,19.92-8.43,41.63-30.51,47.82a1.41,1.41,0,0,0,.37,2.76,28.87,28.87,0,0,0,6.49-.9c.08.08,0,.08,0,.15,3,16,4.26,34.17-10.89,44.47a1.86,1.86,0,0,0,1.87,3.21c18.42-9.33,18.72-31.56,14.54-49.17a1,1,0,0,0-.15-.52c15.82-7.61,21.27-29.92,23.95-46.26a2.8,2.8,0,0,0-1-2.76A53.44,53.44,0,0,0,433,91.67c6-4.18,10.82-9.85,13.13-16.71,6.34-10,10.67-21.11,9-29.54a37.65,37.65,0,0,1,25.14-13.51c.07,0,.07-.07.22-.15,26,12.54-.59,48.2-22.6,46.48-1.87-.15-2.32,3-.45,3.36A29.4,29.4,0,0,0,470,81.15c-5.59,8.51-8.73,17.61-15.89,25.29a85.69,85.69,0,0,1-24.62,18.21c-2.31,1.19-.67,5.07,1.79,4.18a53.74,53.74,0,0,0,6.42-2.76,3.16,3.16,0,0,0-.37,1.49c.37,21.78-5.08,41.11-15.37,60.28a1.91,1.91,0,0,0,3.28,1.94c13.13-18,19-40.06,18.05-62.22a2.88,2.88,0,0,0-2.83-2.84c16.41-8.73,33-24.84,34.69-42.82a1.94,1.94,0,0,0-1.19-2.09c8.95-3.73,16.26-11.56,20-20.89,2.84-7.09,2.69-17-1.64-23.5,6.27-2.24,12-1.79,18.21,1.71a2.13,2.13,0,0,0,1.34.23c14.4,16-13.95,39.91-27.16,47-1.56.9-.45,3.73,1.27,3,1-.44,2.16-.89,3.21-1.41-.15,21.86-19.7,39.24-36.34,50.58a1.61,1.61,0,0,0,1.65,2.76c18.13-9.32,42.45-32.08,38.34-54.76-.07-.15-.15-.15-.22-.3,11.19-6,21-15.29,25.74-27.23,2.31-5.82,2.76-13.13.07-18.5.08,0,.15.15.23.15,15.37,4.17,9.17,23,2.83,31.7-5.59,7.76-12.68,14-20.51,19.33-1.94,1.27-.45,4.18,1.49,3.5a71.36,71.36,0,0,1-10.15,24.48c-5.67,8.43-13.35,13.57-20,20.81a1.17,1.17,0,0,0,1.12,1.94,39.36,39.36,0,0,0,4.1-1.64,1.61,1.61,0,0,0-.52,1.19,94.54,94.54,0,0,1-9.63,43.8,1.52,1.52,0,0,0,1,2.16c-.82,25.07-9.85,62.52,17.08,77.89,23,13.21,51.71-14.4,68.57-28.72a1.26,1.26,0,0,0,2.31.89C567.18,220.15,585.23,174.49,610.75,184.86ZM462.21,138.75c0-2.09-3.44-2.76-3.81-.52-2.16,14.84-4.77,28.5-10,42.67-.44,1.42,1.79,2.39,2.47,1C457.58,168.82,462.13,153.6,462.21,138.75Z"/><path d="M458.4,138.23c.37-2.24,3.81-1.57,3.81.52-.08,14.85-4.63,30.07-11.34,43.2-.68,1.34-2.91.37-2.47-1C453.63,166.73,456.24,153.07,458.4,138.23Z"/></g></svg>