<svg xmlns="http://www.w3.org/2000/svg" xmlns:xlink="http://www.w3.org/1999/xlink" viewBox="0 0 900 600"><defs><style>.cls-1{fill:none;}.cls-2{isolation:isolate;}.cls-3{clip-path:url(#clip-path);}.cls-4{fill:#ba88db;}.cls-5{fill:#d5a8ed;}.cls-6{clip-path:url(#clip-path-2);}.cls-7{fill:#f2deff;}.cls-8{fill:#fff;}.cls-9{fill:#5f55a8;}.cls-10{fill:#f1d6ff;}.cls-11{clip-path:url(#clip-path-3);}.cls-12{opacity:0.5;}.cls-13{fill:#006c78;}.cls-14{fill:#fff1ee;}.cls-15{fill:#efc7b0;}.cls-16,.cls-22{fill:#fbd4b8;}.cls-17,.cls-20{fill:#f9b38f;}.cls-17,.cls-18{opacity:0.4;}.cls-17{mix-blend-mode:multiply;}.cls-18,.cls-19,.cls-22{mix-blend-mode:screen;}.cls-18{fill:url(#linear-gradient);}.cls-19{fill:#ea9398;opacity:0.7;}.cls-21{fill:#e37e5a;}.cls-22{opacity:0.8;}.cls-23{fill:#e47f5a;}</style><clipPath id="clip-path"><rect id="SVGID" class="cls-1" x="-1056.3" y="741.07" width="1051.42" height="613.33" transform="translate(-1061.18 2095.46) rotate(-180)"/></clipPath><clipPath id="clip-path-2"><rect id="SVGID-2" data-name="SVGID" class="cls-1" x="-10" y="-3.47" width="1051.42" height="613.33" transform="translate(1031.42 606.4) rotate(-180)"/></clipPath><clipPath id="clip-path-3"><rect class="cls-1" x="-1126.54" y="-4.05" width="1096.92" height="607.88"/></clipPath><linearGradient id="linear-gradient" x1="426.6" y1="549.57" x2="521.13" y2="549.57" gradientUnits="userSpaceOnUse"><stop offset="0" stop-color="#ffc6a5"/><stop offset="1" stop-color="#f9b09b"/></linearGradient></defs><g class="cls-2"><g id="Capa_2" data-name="Capa 2"><g class="cls-3"><path class="cls-4" d="M-295,1043.45c80.88,40.28,181.21,37.69,260.86-5,192.38-103.06,209.47-391,26.66-514.54-95.53-64.54-231-64.68-325.12,2C-397.09,571.61-438.4,647-446.44,725.3c-7.71,75,4.53,162.9,47.18,226C-373,990.15-337,1022.52-295,1043.45Z"/></g><rect class="cls-5" x="-10" y="-3.47" width="1051.42" height="613.33" transform="translate(1031.42 606.4) rotate(-180)"/><g class="cls-6"><path class="cls-4" d="M-257.91,955.34c109.87,54.72,246.16,51.2,354.36-6.76,261.34-140,284.55-531.17,36.21-699C2.9,161.94-181.19,161.74-309,252.27c-87.67,62.11-143.77,164.57-154.71,270.88-10.47,101.85,6.16,221.29,64.1,307C-363.95,882.94-315,926.91-257.91,955.34Z"/><path class="cls-4" d="M751.34,298.92c80.88,40.28,181.21,37.69,260.86-5,192.38-103.06,209.47-391,26.66-514.54-95.53-64.54-231-64.68-325.12,2C649.21-172.92,607.9-97.49,599.86-19.24c-7.71,75,4.53,162.91,47.18,226C673.28,245.62,709.33,278,751.34,298.92Z"/><path class="cls-7" d="M103,539.23a6.18,6.18,0,0,1-.2,1.53L87.09,599.88a20.65,20.65,0,0,1-25.26,14.64L2.71,598.79a5.91,5.91,0,0,1-4.19-7.23l3.19-12c-4-1.72-7.16-5.32-9-10.32a31.45,31.45,0,0,1-.42-18.66c3.4-12.79,13.22-21.49,22.56-20.46l3.18-12A5.91,5.91,0,0,1,25.27,514l14.18,3.78-.52,2c-2,7.7,5.67,16.53,17.23,19.61A27.47,27.47,0,0,0,72.4,539c4.5-1.63,7.5-4.52,8.46-8.14l.52-1.94,17.26,4.59a5.91,5.91,0,0,1,4.39,5.69ZM2.36,593.08a1.89,1.89,0,0,0,1.39,1.81l59.12,15.73a16.6,16.6,0,0,0,20.32-11.78l15.74-59.12a1.86,1.86,0,0,0-.19-1.42,1.83,1.83,0,0,0-1.14-.86l-13.5-3.6c-1.72,4-5.32,7.16-10.32,9a31.53,31.53,0,0,1-18.66.43c-12.79-3.41-21.58-13.17-20.46-22.56l-10.42-2.78A1.88,1.88,0,0,0,22,519.24L17.77,535l-1.95-.52C8.08,532.37-.72,540.1-3.79,551.66a27.43,27.43,0,0,0,.31,16.25c1.63,4.49,4.52,7.49,8.14,8.45l1.94.52L2.43,592.6A1.59,1.59,0,0,0,2.36,593.08Z"/><path class="cls-7" d="M123.85,487.38a5.91,5.91,0,0,1-3.79,5.52l-11.55,4.45c.95,4.26-.1,8.92-3.08,13.33A31.53,31.53,0,0,1,90.58,522c-12.36,4.76-25.18,1.92-29.82-6.25l-11.55,4.45a5.91,5.91,0,0,1-7.63-3.39l-5.27-13.69,1.88-.73c7.48-2.88,10.06-14.31,5.77-25.46a27.46,27.46,0,0,0-9.79-13c-4-2.68-8.07-3.42-11.56-2.07l-1.88.72-6.42-16.67a5.94,5.94,0,0,1,3.39-7.63l57.1-22a20.67,20.67,0,0,1,26.68,11.85l22,57.09A5.84,5.84,0,0,1,123.85,487.38ZM103.43,495l15.18-5.84a1.87,1.87,0,0,0,1.08-2.42l-22-57.09a16.63,16.63,0,0,0-21.47-9.54l-57.1,22a1.86,1.86,0,0,0-1.07,2.42l5,13c4.26-1,8.92.1,13.32,3.08a31.51,31.51,0,0,1,11.3,14.86c4.74,12.36,1.91,25.17-6.25,29.81l3.87,10.07a1.88,1.88,0,0,0,2.42,1.07l15.18-5.84.72,1.88c2.88,7.47,14.3,10.06,25.47,5.76a27.43,27.43,0,0,0,13-9.78c2.68-4,3.43-8.08,2.07-11.56Z"/><path class="cls-7" d="M583.73,580.55,574.81,600l-1.79-.74c-17.79-7.38-31.93-3.78-38.77-1a11.09,11.09,0,0,1-12.4-2.82L481,550.21l3.91-8.5,60.9,1.59A11.11,11.11,0,0,1,556,550.88c2.33,7,8.8,20.09,26,28.8Zm-11,14.21,5.69-12.39c-17.18-9.35-23.81-22.86-26.26-30.22a7.07,7.07,0,0,0-6.5-4.82l-58.24-1.51-1.68,3.66,39.07,43.22a7,7,0,0,0,7.88,1.8C539.9,591.56,554.48,587.8,572.76,594.76Z"/><path class="cls-7" d="M533.19,569.07a10,10,0,1,1-4.91-13.28A10,10,0,0,1,533.19,569.07Zm-14.51-6.68a6,6,0,1,0,7.92-2.93A6,6,0,0,0,518.68,562.39Z"/><rect class="cls-7" x="498.79" y="536.53" width="4.03" height="35.29" transform="translate(-211.9 777.72) rotate(-65.31)"/><path class="cls-7" d="M591.36,584.41l-8.65,18.82A6.29,6.29,0,1,1,571.28,598l8.65-18.81a6.29,6.29,0,1,1,11.43,5.25ZM575,599.66a2.26,2.26,0,1,0,4.1,1.88l8.65-18.81a2.26,2.26,0,1,0-4.1-1.89Z"/><path class="cls-7" d="M517.84,638.84l-1.69,3.67A70.58,70.58,0,0,1,481.55,549l3.66,1.69A66.54,66.54,0,0,0,517.84,638.84Z"/><path class="cls-7" d="M577.85,508.32,576.16,512A66.55,66.55,0,0,0,488,544.61l-3.66-1.68A70.58,70.58,0,0,1,577.85,508.32Z"/><rect class="cls-7" x="427.45" y="544.62" width="114.81" height="4.03" transform="translate(-214.34 758.82) rotate(-65.31)"/><path class="cls-7" d="M517.34,488.81l-4.48,9.74-9.74-4.48,4.48-9.74Zm-6.46,4.39,1.11-2.41-2.41-1.11-1.11,2.41Z"/><path class="cls-7" d="M466.59,599.2l-4.48,9.74-9.74-4.48,4.48-9.74Zm-6.46,4.39,1.11-2.41-2.41-1.11-1.11,2.41Z"/><path class="cls-7" d="M584.92,513.79a5.56,5.56,0,1,1-2.73-7.38A5.58,5.58,0,0,1,584.92,513.79Zm-6.45-3a1.53,1.53,0,1,0,2-.75A1.54,1.54,0,0,0,578.47,510.82Z"/><path class="cls-7" d="M887.36,444.05l28.52,59.2a15.22,15.22,0,0,1-7.09,20.28l-59.21,28.52A15.22,15.22,0,0,1,829.3,545l-28.52-59.2a15.21,15.21,0,0,1,7.1-20.28L867.08,437A15.22,15.22,0,0,1,887.36,444.05Zm-54.42,99.16a11.17,11.17,0,0,0,14.89,5.21L907,519.9A11.16,11.16,0,0,0,912.24,505L883.73,445.8a11.18,11.18,0,0,0-14.9-5.21l-59.2,28.52A11.16,11.16,0,0,0,804.42,484Z"/><path class="cls-7" d="M864.4,442l-17.55,58.5A12.83,12.83,0,0,0,854,515.94l33,14.37-1.61,3.7-33-14.37A16.86,16.86,0,0,1,843,499.35l17.55-58.51Z"/><path class="cls-7" d="M849.93,483.77l-1.46,3.76-10.38-4a16.88,16.88,0,0,1-10.24-19.78l2-8,3.92,1-2,8a12.86,12.86,0,0,0,7.78,15.05Z"/><path class="cls-7" d="M838.31,492.43a10.08,10.08,0,1,1-13.46-4.71A10.08,10.08,0,0,1,838.31,492.43Zm-14.53,7a6,6,0,1,0,2.82-8.08A6.05,6.05,0,0,0,823.78,499.43Z"/><path class="cls-7" d="M109.24,47.86l-1.95-3.52,151.51-84a8.19,8.19,0,0,0-1-6,5.33,5.33,0,0,0-5-2.87L93.27,19,91.7,15.26l160.18-67.7.33,0a9.42,9.42,0,0,1,9.08,4.83c2,3.45,2.34,8.11.7,10.59l-.27.41-.43.24Z"/><path class="cls-7" d="M37.68,36.54C43,27,53.07,23.23,68.44,25L68,29C54.22,27.42,45.7,30.44,41.2,38.51Z"/><path class="cls-7" d="M58.17,89.35v-4c24.1,0,27-24.52,27.28-27.32l4,.36C88.43,69.88,80.65,89.39,58.17,89.35Z"/><path class="cls-7" d="M84.19,57.59A97.52,97.52,0,0,1,66.33,27.71l-.15-.4a3.46,3.46,0,0,1,2-4.42l21.55-8.61a3.5,3.5,0,0,1,4.22,1.36l-1.45,1.48,1.71-1.07C97.28,21,105,33.65,110.11,45.29h0l.23.5A3.47,3.47,0,0,1,109,50.11l0,0L91.23,61A3.47,3.47,0,0,1,87,60.56l-1-1C85.53,59.06,84.9,58.4,84.19,57.59Zm4.92,0Zm-19-31.13A90.92,90.92,0,0,0,88.92,56.76l.57.58L106.7,46.79l-.28.12c-5-11.39-12.6-23.86-15.63-28.71Zm-.5.2h0Zm37.1,20.12a.57.57,0,0,0-.12.64l.42-.33-.22-.34Zm.11,0,.21.34,1.19-.95Zm-14.64-30-1.71,1.07a.73.73,0,0,0,.39.28Z"/><path class="cls-7" d="M26.31,81.79a5.22,5.22,0,0,1-1.19-2.2c-.61-2.35.84-4.66,1.71-6l.19-.31c.32-.51.63-1,.84-1.42a33.6,33.6,0,0,0,2.62-7.57,41.32,41.32,0,0,0,.72-6.47l.05-.74a37.69,37.69,0,0,1,.6-4.32c.2-1.15.41-2.3.51-3.46.36-4,1.06-8.22,3.72-11.44,1.85-2.23,5.1-4,8.2-2.85,3.51,1.27,4.64,5.27,4.54,8.31-.13,4.08-1.72,7.75-3.26,11.29-1.32,3.05-2.56,5.92-2.88,8.93A7.13,7.13,0,0,0,43,67.06a3,3,0,0,0,1.87,1.85c1.26.33,2.87-.53,4.41-1.44l4.37-2.58a9.09,9.09,0,0,1,4.82-1.65,6.56,6.56,0,0,1,6,5.36,9.13,9.13,0,0,1-2,7.22,15.27,15.27,0,0,1-6.77,4.79,20.17,20.17,0,0,1-2,.61,10.29,10.29,0,0,0-2.2.75,13.44,13.44,0,0,0,1.78-.11l.49-.06a10.15,10.15,0,0,1,2.89-.08,4.57,4.57,0,0,1,3.8,3,4.37,4.37,0,0,1-1.27,4.45A7.07,7.07,0,0,1,56,90.81c-4.86,1.2-9.7-.3-13.86-1.79-3.19-1.14-6.35-2.39-9.41-3.71-.32-.15-.69-.29-1.09-.44C29.9,84.2,27.7,83.35,26.31,81.79Zm3.93-6.09c-.41.67-1.39,2.21-1.22,2.89.3,1.06,2.65,2,4.07,2.51.45.18.87.34,1.24.5,3,1.29,6.06,2.51,9.16,3.63C47.1,86.52,51.26,87.82,55,86.9a3.34,3.34,0,0,0,1.44-.65.63.63,0,0,0,.2-.35,2,2,0,0,0-.56-.19,6.84,6.84,0,0,0-1.76.09l-.55.07c-5.38.62-6.75-1.32-6.95-3.05a4,4,0,0,1,1.41-3.43,10,10,0,0,1,4.49-2.07,15.24,15.24,0,0,0,1.63-.48,11.24,11.24,0,0,0,5-3.48,5.22,5.22,0,0,0,1.2-4,2.55,2.55,0,0,0-2.14-2.1,5.92,5.92,0,0,0-2.71,1.09l-4.37,2.58c-1.68,1-4.48,2.65-7.47,1.87a7,7,0,0,1-4.59-4.22,11,11,0,0,1-.62-5.5c.38-3.62,1.81-6.92,3.19-10.11,1.45-3.35,2.82-6.51,2.93-9.82.06-1.77-.49-3.9-1.89-4.39-1.19-.43-2.77.49-3.71,1.63-2,2.37-2.51,5.83-2.81,9.23-.11,1.27-.34,2.54-.56,3.8a32.15,32.15,0,0,0-.54,3.87l-.05.74a45.47,45.47,0,0,1-.81,7.08,37.86,37.86,0,0,1-2.93,8.48,20.82,20.82,0,0,1-1.06,1.81l-1.9-.78Z"/><path class="cls-7" d="M480.59,22.09l-1.52,3.73C463,19.28,456,8.1,449.83-1.76c-5-8-9.24-14.82-17.39-18.11-13.23-5.36-29.63-4.53-42.78,2.16C379.46-12.52,366-1.26,360,22.91c-4.19,16.69,1,36.65,13.12,50.83,9.23,10.78,21.05,16.37,32.42,15.34,12.34-1.13,18.9-5.14,25.85-9.39,8.48-5.18,17.26-10.55,36.54-11l.09,4c-18.19.38-26.5,5.46-34.53,10.37-7,4.29-14.31,8.73-27.59,10C393.2,94.25,380.14,88.15,370,76.36c-13-15.14-18.45-36.5-14-54.43,6.41-25.65,20.81-37.67,31.77-43.24C402-28.52,419.67-29.4,434-23.62c9.35,3.79,14.18,11.53,19.29,19.72C459.36,5.9,465.68,16,480.59,22.09Z"/><path class="cls-7" d="M475.8,39.91l-1,3.92c-4.95-1.25-17.06-4.39-29.34-8.36a13,13,0,0,1-.19,6.52A14.24,14.24,0,0,1,443,46.32c12.86,3.49,25.28,7.87,29,9.21l-1.36,3.8c-3.9-1.41-17.4-6.16-30.86-9.7-7.56,6.12-21.13,8.73-28.13,5.23A7.66,7.66,0,0,1,407.13,47a5,5,0,0,1,2.21-3.74c2.5-1.76,8.27-3.45,29.37,1.93a11,11,0,0,0,2.71-4.38,10.93,10.93,0,0,0-.59-6.86C416.68,25.73,412.24,20.75,411,17.7a5,5,0,0,1,.17-4.28,7.24,7.24,0,0,1,7.14-3.85c8.22.37,20.81,10.88,25.51,21.13C457,35.06,470.5,38.58,475.8,39.91Zm-61.15-24.2a1.41,1.41,0,0,0,.11.48c.61,1.53,4.16,5.65,23.4,12.55-5.2-8-14.64-14.9-20-15.14-2.18-.1-3,.92-3.39,1.7A1,1,0,0,0,414.65,15.71Zm-3.53,32.14a3.62,3.62,0,0,0,2.36,3.4c4.48,2.24,14.25,1.14,21.15-2.93-17.09-4.06-21.75-2.63-23-1.77a1,1,0,0,0-.51.81A3.91,3.91,0,0,0,411.12,47.85Z"/><path class="cls-7" d="M520.9,54.67a10.93,10.93,0,0,1-.54,3.39c-2.55,7.93-11,11.88-13.05,12.73l-.29.3h-3.33l.84-4.16,1,.21c.82-.33,8.82-3.65,11-10.32,1.69-5.25-3.28-9.37-5.49-10.9l-.58-.37,1-1.69-1.95-.4.63-2.61,2.37,1.21s.32.18.83.53C515.29,44,520.9,48.41,520.9,54.67Z"/><rect class="cls-7" x="474.82" y="71" width="4.03" height="8.86" transform="translate(341.51 538.85) rotate(-82.71)"/><rect class="cls-7" x="484.38" y="21.02" width="4.03" height="0.78" transform="translate(313.11 476.4) rotate(-71.67)"/><path class="cls-7" d="M508.65,68.31l-.82,2c-2.68,6.1-5.66,9.45-8.85,10l-.29,0-1.44-.18.5-4,.82.1c1.34-.41,3.47-2.65,5.73-7.9l.59-1.44.56.22h.7v.27Z"/><path class="cls-7" d="M514.48,38.74c0,1.72-.09,3.63-.29,5.72-.25,2.57-.64,5.31-1.18,8.15l.35.69-1.05,1.13L510.89,53l-1.79.8-.31-.61.14-.67c.57-3,1-5.8,1.24-8.44.8-8.4-.34-12-1.14-12.8l-11-3.77,1.3-3.82,11.81,4.13a5.9,5.9,0,0,1,.73.61C513.61,30.17,514.48,33.63,514.48,38.74Z"/><rect class="cls-7" x="487.36" y="72.06" width="4.03" height="9.96" transform="translate(350.82 552.68) rotate(-82.7)"/><rect class="cls-7" x="490.63" y="20.73" width="4.03" height="5.64" transform="translate(310.54 481.9) rotate(-71.07)"/><path class="cls-7" d="M488.61,18.71a4.68,4.68,0,0,1-.16,1.21L474.16,76.3A4.43,4.43,0,0,1,471,79.59a5,5,0,0,1-4.78-1.21A4.41,4.41,0,0,1,465.07,74l14.29-56.38a4.43,4.43,0,0,1,3.13-3.29,5,5,0,0,1,4.79,1.21A4.35,4.35,0,0,1,488.61,18.71ZM468.94,75.22a.33.33,0,0,0,.12.27,1,1,0,0,0,.87.22c.1,0,.23-.07.32-.4l14.3-56.38c.08-.32,0-.42-.09-.49a1,1,0,0,0-.87-.22c-.1,0-.23.07-.32.4L469,75C469,75.09,468.94,75.16,468.94,75.22Z"/><path class="cls-7" d="M492,25a242.76,242.76,0,0,1-5.78,52.63,3.45,3.45,0,0,1-2.33,2.59,3.8,3.8,0,0,1-3.67-.83A3.58,3.58,0,0,1,479.18,76a236.67,236.67,0,0,0,5.56-54.44h0v-.05a3.62,3.62,0,0,1,7.24-.08Q492,23.24,492,25Zm-3.24-3.52Z"/><path class="cls-7" d="M502.44,48.46a154.83,154.83,0,0,1-3.3,31.78,3.45,3.45,0,0,1-4.19,2.7,3.59,3.59,0,0,1-2.87-4.31,146.8,146.8,0,0,0,1.24-53.87h0a3.75,3.75,0,0,1,3.18-4.33,3.3,3.3,0,0,1,3.88,2.78A156.84,156.84,0,0,1,502.44,48.46Z"/><path class="cls-7" d="M513.48,42.22c0,8.58-1.19,17-2.29,24.8a3.28,3.28,0,0,1-2,2.68,3.8,3.8,0,0,1-3.7-.58,3.73,3.73,0,0,1-1.39-3.45c1.76-12.39,3.57-25.19.72-37.59h0a3.64,3.64,0,0,1,1.05-3.47,3.81,3.81,0,0,1,3.65-.87,3.36,3.36,0,0,1,2.31,2.55A70.73,70.73,0,0,1,513.48,42.22Z"/></g><path class="cls-8" d="M865.72,103.88c-2.71-2.27-4.12-3.58-4.12-6.35s1.41-4.09,4.12-6.36c2.89-2.42,6.49-5.44,6.49-11.43s-3.6-9-6.49-11.43C863,66,861.6,64.73,861.6,62s1.41-4.08,4.12-6.35c2.89-2.42,6.49-5.44,6.49-11.43h-6.63c0,2.77-1.41,4.08-4.12,6.35C858.57,53,855,56,855,62s3.6,9,6.49,11.43c2.71,2.27,4.12,3.58,4.12,6.35s-1.41,4.08-4.12,6.35c-2.89,2.42-6.49,5.44-6.49,11.44s3.6,9,6.49,11.43c2.71,2.27,4.12,3.59,4.12,6.35h6.63C872.21,109.32,868.61,106.3,865.72,103.88Z"/><path class="cls-8" d="M847.93,103.88c-2.71-2.27-4.12-3.58-4.12-6.35s1.41-4.09,4.12-6.36c2.89-2.42,6.49-5.44,6.49-11.43s-3.6-9-6.49-11.43c-2.71-2.27-4.12-3.58-4.12-6.35s1.41-4.08,4.12-6.35c2.89-2.42,6.49-5.44,6.49-11.43h-6.63c0,2.77-1.41,4.08-4.12,6.35C840.78,53,837.18,56,837.18,62s3.6,9,6.49,11.43c2.71,2.27,4.12,3.58,4.12,6.35s-1.41,4.08-4.12,6.35c-2.89,2.42-6.49,5.44-6.49,11.44s3.6,9,6.49,11.43c2.71,2.27,4.12,3.59,4.12,6.35h6.63C854.42,109.32,850.82,106.3,847.93,103.88Z"/><path class="cls-9" d="M191.89,488c2.27-2.71,3.58-4.12,6.35-4.12s4.09,1.41,6.36,4.12c2.42,2.89,5.44,6.5,11.43,6.5s9-3.61,11.44-6.5c2.26-2.71,3.57-4.12,6.34-4.12s4.08,1.41,6.35,4.12c2.42,2.89,5.44,6.5,11.43,6.5v-6.64c-2.77,0-4.08-1.41-6.35-4.12-2.42-2.89-5.44-6.49-11.43-6.49s-9,3.6-11.43,6.49c-2.27,2.71-3.58,4.12-6.35,4.12s-4.08-1.41-6.35-4.12c-2.42-2.89-5.44-6.49-11.44-6.49s-9,3.6-11.43,6.49c-2.27,2.71-3.58,4.12-6.35,4.12v6.64C186.45,494.51,189.47,490.9,191.89,488Z"/><path class="cls-9" d="M191.89,470.22c2.27-2.71,3.58-4.12,6.35-4.12s4.09,1.41,6.36,4.12c2.42,2.89,5.44,6.49,11.43,6.49s9-3.6,11.44-6.49c2.26-2.71,3.57-4.12,6.34-4.12s4.08,1.41,6.35,4.12c2.42,2.89,5.44,6.49,11.43,6.49v-6.63c-2.77,0-4.08-1.41-6.35-4.12-2.42-2.89-5.44-6.49-11.43-6.49s-9,3.6-11.43,6.49c-2.27,2.71-3.58,4.12-6.35,4.12s-4.08-1.41-6.35-4.12c-2.42-2.89-5.44-6.49-11.44-6.49s-9,3.6-11.43,6.49c-2.27,2.71-3.58,4.12-6.35,4.12v6.63C186.45,476.71,189.47,473.11,191.89,470.22Z"/><path class="cls-10" d="M758.36,295.76a7.7,7.7,0,0,1-.26,2l-20.64,77.54a27.08,27.08,0,0,1-33.14,19.21l-77.54-20.64a7.72,7.72,0,0,1-5.49-9.47l4.17-15.7c-5.26-2.26-9.39-7-11.78-13.53-2.63-7.23-2.83-15.92-.55-24.48,4.47-16.78,17.35-28.19,29.59-26.83l4.18-15.7a7.75,7.75,0,0,1,9.47-5.49l18.6,4.95-.68,2.56c-2.7,10.11,7.43,21.68,22.6,25.72,7.51,2,15.08,1.86,21.3-.41,5.9-2.15,9.84-5.94,11.1-10.68l.68-2.55,22.64,6a7.77,7.77,0,0,1,5.75,7.47Zm-132,70.63a2.48,2.48,0,0,0,1.82,2.38l77.54,20.63A21.8,21.8,0,0,0,732.35,374L753,296.4a2.38,2.38,0,0,0-.24-1.86,2.48,2.48,0,0,0-1.49-1.14l-17.71-4.71c-2.26,5.27-7,9.4-13.54,11.78-7.23,2.63-15.92,2.83-24.47.56-16.78-4.47-28.31-17.27-26.84-29.6L655,267.79a2.46,2.46,0,0,0-3,1.74l-5.48,20.61-2.56-.67c-10.15-2.71-21.69,7.43-25.73,22.6-2,7.5-1.86,15.07.42,21.3,2.14,5.9,5.93,9.83,10.67,11.1l2.55.68-5.48,20.62A2.25,2.25,0,0,0,626.32,366.39Z"/><path class="cls-10" d="M785.67,227.75a7.76,7.76,0,0,1-5,7.24l-15.15,5.83c1.25,5.59-.13,11.7-4,17.48-4.31,6.38-11.23,11.64-19.48,14.82-16.21,6.23-33,2.51-39.1-8.2l-15.16,5.83a7.75,7.75,0,0,1-10-4.44l-6.91-18,2.47-.95c9.81-3.78,13.19-18.77,7.56-33.4-2.79-7.26-7.36-13.3-12.84-17-5.2-3.51-10.58-4.47-15.16-2.71l-2.47.95L642,173.36a7.8,7.8,0,0,1,4.45-10l74.9-28.81a27.11,27.11,0,0,1,35,15.55L785.15,225A7.51,7.51,0,0,1,785.67,227.75Zm-26.77,10,19.91-7.66a2.44,2.44,0,0,0,1.4-3.17L751.4,152a21.82,21.82,0,0,0-28.16-12.51l-74.89,28.81a2.46,2.46,0,0,0-1.42,3.18l6.59,17.1c5.59-1.26,11.7.13,17.48,4,6.38,4.31,11.64,11.23,14.82,19.48,6.21,16.22,2.5,33-8.2,39.11l5.08,13.21a2.44,2.44,0,0,0,3.16,1.4l19.92-7.66,1,2.47c3.77,9.8,18.75,13.2,33.4,7.56,7.25-2.79,13.29-7.35,17-12.84,3.52-5.2,4.5-10.59,2.72-15.16Z"/><path class="cls-10" d="M334.05,196.54,379,290a24,24,0,0,1-11.19,32l-93.41,45a24,24,0,0,1-32-11.19l-45-93.41a24,24,0,0,1,11.19-32l93.42-45A24,24,0,0,1,334.05,196.54ZM248.18,353a17.63,17.63,0,0,0,23.5,8.22l93.41-45a17.62,17.62,0,0,0,8.22-23.5l-45-93.41a17.62,17.62,0,0,0-23.49-8.22l-93.42,45a17.62,17.62,0,0,0-8.21,23.5Z"/><path class="cls-10" d="M297.83,193.3l-27.7,92.31A20.26,20.26,0,0,0,281.43,310l52.09,22.67L331,338.48,278.89,315.8a26.61,26.61,0,0,1-14.85-32l27.69-92.3Z"/><path class="cls-10" d="M275,259.21l-2.31,5.93-16.38-6.38a26.62,26.62,0,0,1-16.15-31.21l3.15-12.63,6.18,1.54-3.15,12.63a20.27,20.27,0,0,0,12.28,23.74Z"/><path class="cls-10" d="M256.66,272.87a15.9,15.9,0,1,1-21.24-7.43A15.93,15.93,0,0,1,256.66,272.87Zm-22.93,11a9.54,9.54,0,1,0,4.46-12.74A9.55,9.55,0,0,0,233.73,283.91Z"/><g class="cls-11"><g class="cls-12"><path class="cls-13" d="M-115.37,608.35C-97,619.24-85.71,633.58-81.8,651a3.65,3.65,0,0,0,2,2.54,3.65,3.65,0,0,0,1.55.35,3.74,3.74,0,0,0,1.71-.43c15.81-8.25,34.06-8.87,54.24-1.86a7.6,7.6,0,0,0,9.42-4l33.53-72.23a7.64,7.64,0,0,0-4.48-10.47c-14.56-4.86-36-8.3-56,2.55C-44.4,545.13-60.85,531-74,523a7.65,7.65,0,0,0-6.16-.78,7.69,7.69,0,0,0-4.73,4.11l-33.54,72.24A7.64,7.64,0,0,0-115.37,608.35Zm.2-8.3,33.54-72.23a4.13,4.13,0,0,1,2.54-2.21,4,4,0,0,1,3.28.42h0c11.44,7,25.52,18.83,31.18,36.91,1,3.07,2.1,5.75,1.63,8l-.34,3,2.3-2.46c1.93-1.62,4.32-2.19,7.37-3.53,17.7-7.77,35.86-4,48.75.3a4,4,0,0,1,2.44,2.24,4.14,4.14,0,0,1-.05,3.36l-33.54,72.24a4.22,4.22,0,0,1-5.14,2.11,84.35,84.35,0,0,0-27.59-5,62.69,62.69,0,0,0-26.65,5.89l3-12.55-6.65,10.58c-4.89-17-16.34-31-34.4-41.77A4.13,4.13,0,0,1-115.17,600.05Z"/><path class="cls-14" d="M-66.65,499c15.64-6.91,30.25-7.6,43.41-2.06a2.94,2.94,0,0,0,2.6-.15,2.74,2.74,0,0,0,.94-.85,2.79,2.79,0,0,0,.52-1.31c2-14.15,10.06-26.34,24-36.23a6.09,6.09,0,0,0,1.76-8l-31.5-55.45a6.13,6.13,0,0,0-4-3,6.07,6.07,0,0,0-4.87,1c-9.94,7.23-22.15,19.6-24.37,37.69-16.68-7.35-33.55-3.2-44.86,1.63a6.13,6.13,0,0,0-3.37,3.66,6.16,6.16,0,0,0,.48,5l31.5,55.45A6.12,6.12,0,0,0-66.65,499ZM-72,495l-31.5-55.45a3.3,3.3,0,0,1-.25-2.68,3.2,3.2,0,0,1,1.79-1.95h0c9.87-4.22,24.15-7.88,38.57-3.16,2.44.8,4.72,1.3,6,2.64l1.8,1.62-.53-2.64c-.15-2,.58-3.84,1.13-6.45,3.16-15.15,14.06-25.24,22.86-31.65a3.21,3.21,0,0,1,2.6-.54,3.35,3.35,0,0,1,2.17,1.59l31.5,55.46a3.37,3.37,0,0,1-1,4.33A67.52,67.52,0,0,0-13,471.75a50.23,50.23,0,0,0-8.55,20.11l-6.77-7.81,3.8,9.26c-13.35-4.72-27.83-3.78-43.23,3A3.31,3.31,0,0,1-72,495Z"/><path class="cls-14" d="M-87.78,341.63c12.44,6.42,20.38,15.37,23.61,26.61a2.42,2.42,0,0,0,1.43,1.58,2.28,2.28,0,0,0,1,.16,2.32,2.32,0,0,0,1.1-.34c10-6,22-7.11,35.42-3.31a5,5,0,0,0,6-3L0,314.79a5,5,0,0,0-.18-4.1,5,5,0,0,0-3.16-2.58c-9.71-2.62-23.86-4-36.53,3.83-3.88-14.4-15.19-23-24.08-27.75a5,5,0,0,0-4.06-.27A5,5,0,0,0-71,286.79l-19.16,48.55A5,5,0,0,0-87.78,341.63ZM-88,336.2l19.16-48.56a2.72,2.72,0,0,1,1.58-1.54,2.63,2.63,0,0,1,2.16.15h0c7.75,4.12,17.42,11.34,21.82,22.95.74,2,1.59,3.68,1.38,5.15l-.11,2,1.41-1.69c1.2-1.14,2.74-1.6,4.68-2.6,11.29-5.76,23.31-4,31.92-1.68a2.62,2.62,0,0,1,1.67,1.38,2.68,2.68,0,0,1,.1,2.2l-19.16,48.55a2.77,2.77,0,0,1-3.28,1.58,55.2,55.2,0,0,0-18.25-2.2,41,41,0,0,0-17.21,4.88l1.5-8.33-3.95,7.18c-3.84-10.93-11.88-19.68-24.11-26A2.69,2.69,0,0,1-88,336.2Z"/></g><g class="cls-12"><path class="cls-13" d="M-122.3,93.91c18.37,10.89,29.66,25.23,33.57,42.63a3.65,3.65,0,0,0,2,2.54,3.65,3.65,0,0,0,1.55.35,3.74,3.74,0,0,0,1.71-.43c15.81-8.25,34.06-8.87,54.24-1.86a7.6,7.6,0,0,0,9.42-4L13.77,60.89a7.71,7.71,0,0,0,.08-6.26,7.6,7.6,0,0,0-4.57-4.21c-14.55-4.86-36-8.3-56,2.55C-51.33,30.69-67.78,16.54-80.89,8.55A7.65,7.65,0,0,0-87,7.77a7.69,7.69,0,0,0-4.73,4.11l-33.54,72.24A7.64,7.64,0,0,0-122.3,93.91Zm.2-8.3,33.54-72.23A4.13,4.13,0,0,1-86,11.17a4,4,0,0,1,3.28.42h0c11.44,7,25.52,18.83,31.18,36.91,1,3.07,2.1,5.75,1.64,8l-.35,3L-48,57c1.93-1.62,4.32-2.19,7.37-3.53,17.7-7.77,35.86-4,48.75.3A4,4,0,0,1,10.59,56a4.14,4.14,0,0,1-.05,3.36L-23,131.63a4.22,4.22,0,0,1-5.14,2.11,84.3,84.3,0,0,0-27.59-5,62.69,62.69,0,0,0-26.65,5.89l3-12.55L-86,132.67c-4.89-17-16.34-31-34.4-41.77A4.13,4.13,0,0,1-122.1,85.61Z"/></g></g></g><g id="Capa_4" data-name="Capa 4"><path class="cls-15" d="M433.65,475.18,418.8,565.85s-1,18.33,23.75,24.12,84.11,6.75,122.7-5.79c0,0,11.88-6.75,11.88-13.5,0,0-5.94-98.39-8.91-97.43S433.65,475.18,433.65,475.18Z"/><path class="cls-16" d="M433.65,475.18,418.8,565.85s-1,18.33,23.75,24.12,84.11,6.75,122.7-5.79c0,0,11.88-6.75,11.88-13.5,0,0-5.94-98.39-8.91-97.43S433.65,475.18,433.65,475.18Z"/><path class="cls-17" d="M568.22,473.25c-2.08.68-67.42,1.36-106.27,1.7a48.06,48.06,0,0,0,22.53,27.22c14.27,7.65,30.15,8.53,45.74,11.7,27.21,5.52,22.26-72.13,23.44,58.2.06,7.17-4.16,12.68-8.83,17.19a169.73,169.73,0,0,0,20.42-5.08s11.88-6.75,11.88-13.5C577.13,570.68,571.19,472.29,568.22,473.25Z"/><path class="cls-18" d="M497.89,521.8c15.84,0,20.45,16.73,20.45,16.73s5.28-22.51,1.32,17.36-70.59,28.29-70.59,28.29c-24.41-4.5-22.43-25.72-22.43-25.72l9.9-26.37s-.33-19.93,10.23-18.64C456.61,514.64,497.89,521.8,497.89,521.8Z"/><path class="cls-19" d="M441.82,526.63s-10.89,11.25-11.55,35.69C430.27,562.32,445.12,589,441.82,526.63Z"/><path class="cls-16" d="M399.19,97.68c-11.13-55.94-41.25-66.14-56.86-49.61C323.28,68.24,353.42,151,362.27,209.27c8.32,54.74,11.22,101.61,11.22,101.61l69.2-31.19S412.31,163.53,399.19,97.68Z"/><path class="cls-16" d="M513.15,284.34s-3.34-52.66-5.75-107.84,1-152.38-18.44-161.79-40.61,5.52-40.47,53c.18,59.19-.72,197.82-.72,197.82Z"/><path class="cls-16" d="M631.83,318.25a20.51,20.51,0,0,1-15.27-9.42c-1.51-2.55-3-5.12-4.48-7.68a17,17,0,0,1-6.36-4.53,17.68,17.68,0,0,1-11.12-5.9,24.06,24.06,0,0,1-9.11-2.26c-11.5-5.41-22.15-13.09-34.29-17.07-.24-.08-.46-.19-.69-.28a23,23,0,0,1-2.53.14,18.82,18.82,0,0,1-12.56-4.31,21.35,21.35,0,0,1-2.7.18c-12.68,0-19-9.52-19.11-19.1-10.53,2.33-14.74-30-32.11-30.74-11.14-.44-24.14,14.51-33.05,27.06a41.26,41.26,0,0,1-.32,4.72c-1.09,7-3,6.56-6.86,8-5.61,2.13-7.67-4.08-10.89-7a30.5,30.5,0,0,0-15.21-6.76c-14.72-1.83-39.31,11.45-42.51,68.4s9.22,120.5,50.32,166,107.3,30,107.3,30c69.85-11.12,86.65-66,91.57-93.92C625.38,393.76,633.7,349.85,631.83,318.25Z"/><path class="cls-16" d="M440.18,353.92a44.25,44.25,0,0,0-4.66-6.42c-13.82-15.86-36.4-17.28-54.12-27-28-15.3-42-52.9-66.35-72.25-20.33-16.17-82.13-26.54-88.64,9.14-1.13,6.21,7.27,10.14,11.65,12.71,66.51,39.13,97.55,118.32,144.33,175.79,12.48,15.34,47.4,43.72,63.33,40.52,23.8-4.8,2.73-62.36,3.1-79.73S449.43,369.38,440.18,353.92Z"/><path class="cls-20" d="M616.56,308.83c-1.51-2.55-3-5.12-4.48-7.68a17,17,0,0,1-6.36-4.53,17.66,17.66,0,0,1-11.13-5.92,16.61,16.61,0,0,1-1.86-.13c15.19,20.5,12.5,61.29,10.89,72.74l-1.29,9.21c-2.3,50.87-11,106.43-65.19,124.33-27.08,8.95-61.54,9.47-86.42-6.06-16.68-10.41-30.5-25.12-44.61-38.52q-5.88-5.58-11.37-11.47c-31.27-27.31-51.37-64.18-75.77-97.31-16.05-21.79-32.46-44.43-54.91-60.35-2.9-2.06-6.27-4.39-9.53-7a46.4,46.4,0,0,1-10-6.54c-4.65-4.14-11.78-12.63-6.76-18.94,9.9-12.47,38-6.67,50-.92,26.81,12.87,42.88,38.65,60.12,61.26,22.37,29.34,51.14,48.68,82.45,68l5.05,3.12c12.26,6.18,24.57,12.22,36.22,19,15.81,9.22,32.68,20.05,41.7,35.56-2.77-16.37-9.44-31.55-22.6-44.66-18.29-18.21-41.47-29.68-62.6-44.24-15.68-10.82-28.21-23.92-25.45-44,2.36-17.2,17-29.08,33.26-33.78,26.46-7.67,54.52-8.34,81.8-5.09q4,.48,8.09,1c-8.06-2.77-12.12-10.34-12.18-18a4.8,4.8,0,0,1-2.61-.12c-1.11-19.68-2.45-45.25-3.6-71.4C505,121.32,508.38,24.12,489,14.71s-40.61,5.52-40.47,53c.15,47.29-.4,145.23-.62,182.72-1.12,5.52-3,5.33-6.6,6.7a5.06,5.06,0,0,1-4.46-.21c-9.49-37.15-28.09-111.41-37.62-159.21-11.13-55.94-41.25-66.14-56.86-49.61C323.28,68.24,353.42,151,362.27,209.27c6.66,43.81,9.84,82.54,10.85,96.28-.18,2-.34,4.06-.46,6.2-.05.94-.06,1.89-.11,2.84-22.35-17.55-35.89-49.12-57.5-66.31-20.33-16.17-82.13-26.54-88.64,9.14-1.13,6.21,7.27,10.14,11.65,12.71,66.51,39.13,97.55,118.32,144.33,175.79,8.64,10.61,28,27.47,44.41,35.78,41.25,40.55,103.48,26,103.48,26,69.85-11.12,86.65-66,91.57-93.92,3.53-20,11.83-63.93,9.95-95.52C625.61,317.54,619.67,314.09,616.56,308.83ZM454,196c1.52-36.85.69-73.8,1.48-110.66.1-4.93-.31-20.23,1.67-34,.31-12.79,3.48-26.54,15.95-29,13.84-2.71,14.27,23,14.43,30.32.44,19.55.49,39,1.19,58.59,1,29,2.38,58.86-.82,87.76-1.29,11.7-3.14,24.41-8.48,35.06-4.14,8.28-12.79,14.46-20.49,5.47C450.05,229.26,453.47,208.28,454,196ZM370.3,224.9c-1.88-14.55-4.64-29.1-7.06-43.6-3.68-22.11-9.48-43.6-14.1-65.45-3.47-10.64-6-21.46-6.09-32.63-.06-8,.24-22.69,8.44-27.44.22-.14.44-.19.67-.31a1.91,1.91,0,0,1,.93-.42c6-2.51,11.6.61,16,5.29,7.3,7.79,9.61,20.54,11.53,30.47,2.51,12.91,5.69,25.43,9.14,38.12,6.47,23.75,12.73,47.55,18.53,71.46,4,16.32,16.87,62.09-9.43,68-14.9,3.35-22.61-6.3-25.4-19.64C371.79,240.87,371.33,232.89,370.3,224.9Z"/><path class="cls-20" d="M513.6,247.92a4.78,4.78,0,0,1-2.6,0c-1.11-19.68-2.45-45.25-3.6-71.4C505,121.32,508.38,24.12,489,14.71c-8.24-4-16.8-3.54-23.91,1.87,6.25-3,13.62-3.3,19.26,2.07,9.06,8.6,9.8,22.5,10.19,34.11.68,20.79,2,41.58,2.62,62.39.74,24.88,1.66,49.76,2.38,74.63a258.22,258.22,0,0,1-1.08,36.58c-.68,6-2,13.11-7.13,17.26-9,7.39-24.61,10.38-36.11,12a14.14,14.14,0,0,1-8.81-1.25c-1.15,1.58-2.75,1.83-5.1,2.73a5.06,5.06,0,0,1-4.46-.21c-9.49-37.15-28.09-111.41-37.62-159.21-11.13-55.94-41.25-66.14-56.86-49.61a20.75,20.75,0,0,0-4.6,9c3.16-6,7.74-10.6,14.07-11.58,26.56-4.08,31.4,35.79,36.28,52.51C400,138.67,408.41,180,418.7,221.09c2.45,9.79,5.35,19.55,7.26,29.45.78,4,0,9-2.83,12.13A69.52,69.52,0,0,1,410.86,273c3.59-1.43,7.21-2.73,10.7-4.07,20.52-7.84,43.26-11.3,65.28-11.57a279.81,279.81,0,0,1,29.78,1.34A20.7,20.7,0,0,1,513.6,247.92Z"/><path class="cls-20" d="M616.56,308.83c-1.51-2.55-3-5.12-4.48-7.68a16.88,16.88,0,0,1-4.89-3.06c11.46,23.66,10.82,55.83,9.11,80.46-1.91,27.52-4,56-14.68,81.83a77.86,77.86,0,0,1-9.1,16.17C612,455.89,619,430.2,621.85,413.77c3.53-20,11.83-63.93,9.95-95.52C625.61,317.54,619.67,314.09,616.56,308.83Z"/><path class="cls-20" d="M422.34,354.69c-16.79-10.88-31.8-24.93-40-43.21-5.95-13.25-8.86-27.31-12.35-41.24,1.66,16.11,2.66,28.66,3.15,35.31-.18,2-.34,4.06-.46,6.2-.05.94-.06,1.89-.1,2.84-22.36-17.55-35.9-49.12-57.51-66.31-20.22-16.08-81.42-26.4-88.5,8.57a20.6,20.6,0,0,1,3.59-6.61c7.79-9.85,23.31-13.21,35.4-12.88,40.47,1.16,68,40.94,89.78,69.51,15.21,20,30.91,41.41,52.61,55.18,22,14,47.67,21.3,69.28,35.79,10.14,6.8,19.28,14.16,26.81,22.89C488.61,390.09,450.6,373,422.34,354.69Z"/><path class="cls-20" d="M427.55,377.31l2.77,1.72,5.05,3.12c12.26,6.18,24.57,12.22,36.22,19a200.33,200.33,0,0,1,23.32,15.36,139.61,139.61,0,0,0-31.15-22.24C452,388,439.59,383,427.55,377.31Z"/><path class="cls-21" d="M475.06,389c-15.52-9.75-32.51-18-48.95-26.16a117.59,117.59,0,0,1-23.39-15.16c-7.06-5.88-15.52-11.89-19.49-20.26-.05-.12-.41.13-.36.25,4.71,12.3,19,24.19,29.88,31.4,14.21,9.37,30.77,16,45.69,24.32,16,8.89,30.9,17.69,41.94,32.45,10.41,13.9,19.11,32.69,15,50.11-.07.27.49-.09.55-.25C524.82,436.05,498.84,404,475.06,389Z"/><path class="cls-22" d="M456.44,484.22c-45.23-25.62-78.12-67.43-106.23-109.53-7.18-10.75-14-21.66-22-31.89-3.83-4.9-6.68-10.47-10.36-15.49-4.16-5.66-9.3-10.77-13.63-16.34a167.19,167.19,0,0,0-26-26.16c-8.38-6.81-18.06-15.33-28.19-19.45-.14-.06-.51.26-.34.36,10.08,6,19.28,15.79,27.93,23.61a216.47,216.47,0,0,1,25.5,27.22c16.18,20.77,31.14,42,45.77,63.89,27.12,40.63,62.71,81.05,107,104.35C456.11,484.91,456.7,484.37,456.44,484.22Z"/><path class="cls-22" d="M370.58,187.35c-2.3-14.2-5.17-28.31-8.45-42.32-3.14-13.43-5.61-27.07-8.25-40.6S348.28,77.56,349,63.8c0-.15-.41.1-.43.23-3.73,26.41,4.52,53.72,9.9,79.46,2.92,14,6.11,27.87,9.09,41.82,1.44,6.73,3.07,13.43,4.36,20.19,1.11,5.81,1.9,12.15,3.81,17.77.07.21.58-.16.53-.34C373.44,211.37,372.48,199.12,370.58,187.35Z"/><path class="cls-22" d="M467.27,28.37c-7.73,23-8,47-8.29,71.08-.32,27.57,0,55.36,1.77,82.88,0,.28.73-.2.73-.45.08-25.56-.1-51.08.35-76.64.45-25.72.26-51.95,6-77.12C467.89,27.84,467.32,28.21,467.27,28.37Z"/><path class="cls-22" d="M564.1,277c-32-9.84-67.87-9.58-100.89-7.27-.12,0-.44.33-.24.33,35.21-.32,69.79,3.74,104.41,9.62a1.48,1.48,0,0,0,.91-.44C566.9,278.47,565.51,277.72,564.1,277Z"/><path class="cls-21" d="M513.68,249.69c-.68,0-1.36-.08-2-.09-16.7-.24-33.49,1.46-50,3.51-12.57,1.56-24.1,5.1-36.28,7.8-.1,0-.32.29-.12.25,11.82-2.08,23.28-5.22,35.35-6.64,15.28-1.79,30.61-3,46-3.24,2.43-.05,4.88,0,7.35.14C513.8,250.85,513.73,250.27,513.68,249.69Z"/><path class="cls-22" d="M592.93,424.54s-13.2,61.09-71.25,70.74C521.68,495.28,567.2,484.34,592.93,424.54Z"/><path class="cls-21" d="M633.8,318.37a20.77,20.77,0,0,1-4-.45c1.85,29.35-5.26,69.46-9.17,91.4l-.73,4.12c-6.4,36.37-23.94,63.69-50.71,79a1.94,1.94,0,0,0-1,1.77c3,54.38,6.89,75.06,6.93,76.46,0,4.53-7.58,9.9-10.72,11.74-26.18,8.46-58.14,9.72-74.89,9.72-18.3,0-35.69-1.51-46.53-4-22.73-5.32-22.26-21.46-22.23-22.11l14-78.78a1.91,1.91,0,0,0-.7-1.6c-2.24-1.85-4.17-3.57-5.89-5.26a1.9,1.9,0,0,0-.49-.35c-15.86-8-35.08-24.57-43.78-35.26-15.22-18.7-29.07-40.18-42.47-61-28.12-43.61-57.2-88.71-102.39-115.29l-1.54-.88c-4.2-2.37-9.94-5.62-9.18-9.85,3.56-19.5,24.41-22.42,36.52-22.42,17.54,0,38.57,6.21,48.92,14.45s19.26,20.44,27.77,32.16c8.95,12.34,18.21,25.1,29.74,34.16a2,2,0,0,0,2.06.25,1.9,1.9,0,0,0,1.16-1.67l.05-1.23c0-.53,0-1.06.06-1.6.12-2.11.28-4.14.45-6.44-1-14.45-4.23-52.78-10.86-96.42-2.76-18.17-7.62-38.89-12.32-58.92-10.11-43-20.55-87.54-8.12-100.7a19.54,19.54,0,0,1,14.39-6.55c12.95,0,30.95,14.46,39.07,55.23,9.41,47.25,27.62,120.09,37.64,159.3a2,2,0,0,0,1,1.23,7.1,7.1,0,0,0,6.13.32c.48-.19.93-.34,1.35-.48,3.28-1.12,5.35-2.09,6.52-8,.23-39.37.77-136,.62-182.75C450.4,45.52,455.2,28.59,464,20c6.69-6.53,15.38-7.79,24.11-3.57C502.3,23.33,503.46,86.35,504.4,137c.26,14.33.51,27.87,1,39.6,1.2,27.42,2.62,54,3.61,71.42a1.92,1.92,0,0,0,1.33,1.71,6.58,6.58,0,0,0,3.35.22,21.83,21.83,0,0,1,0-4,3.57,3.57,0,0,1-.79.21c-1-17.43-2.35-43.19-3.51-69.77-.51-11.68-.76-25.19-1-39.49C507.1,69,505,20.35,489.85,13c-10.19-4.93-20.86-3.34-28.68,4.3-6.74,6.59-14.75,20.68-14.66,50.39.15,46.75-.39,143.35-.58,182.35-.75,3.67-1.42,3.9-3.91,4.75-.46.16-.95.32-1.47.52a3.36,3.36,0,0,1-2.06.2c-10.05-39.39-28-111.39-37.35-158.19-8.57-43-27.81-58.35-43-58.35a23.46,23.46,0,0,0-17.31,7.8c-13.84,14.65-3.63,58.14,7.18,104.17,4.68,20,9.53,40.6,12.27,58.63,6.61,43.5,9.77,81.72,10.83,95.82-.15,1.69-.29,3.41-.4,5.19-9.75-8.53-18-19.86-25.95-30.85-8.66-11.94-17.62-24.28-28.49-32.93-11.16-8.88-32.79-15.31-51.43-15.31-22.72,0-37.45,9.33-40.41,25.6-1.26,6.88,6.17,11.08,11.08,13.85l1.48.85c44.39,26.11,73.22,70.82,101.09,114.05,13.46,20.86,27.37,42.43,42.72,61.29,8.91,10.94,28.51,27.82,44.78,36.15,1.54,1.51,3.24,3,5.16,4.64l-13.95,77.84c0,.2-.78,20,25.26,26.09,11.12,2.6,28.85,4.16,47.45,4.16,17,0,49.6-1.3,76.34-10a2.06,2.06,0,0,0,.37-.16c1.32-.75,12.86-7.53,12.86-15.22,0-1.44-3.86-20.15-6.87-75.45,27.22-16,45-44,51.57-81.09l.72-4.11C628.44,388.06,635.52,348.13,633.8,318.37Z"/><path class="cls-16" d="M499.16,281.2c-.48,2.55-1,5.12-1.64,7.7l18.34-2s-1.05-15.63-2.41-38.6l-.93.71c-.2.3-.45.58-.67.87-.66,2.47-1.32,5-2.31,7.76-2.29,6.38-5.59,12.34-7.67,18.81A14,14,0,0,1,499.16,281.2Z"/><path class="cls-16" d="M623,290.77c-16.79-21.67-41.83-14.35-41.83-14.35-1.51-10.16-14-29.14-31.44-32.33S521.91,249,521.91,249a9.79,9.79,0,0,1-8.21-.85c-.39.31-.78.6-1.18.9-.2.31-.45.59-.67.88-.66,2.47-1.32,5-2.31,7.76-2.29,6.38-5.59,12.34-7.67,18.81a14,14,0,0,1-2.71,4.72c-5.79,30.65-21.29,62.86-12.3,92.92,3.69,12.31,14,37.94,27.51,42.33,5.44,1.76,12.79,0,18.46.44,7.16.53,13.94,3,21.11,1.72a22.13,22.13,0,0,1,4.11-.36c11.17-7.16,21.42-15.85,35.24-17.62,11.07-1.42,18.24,5.39,20.52,13.54a20.35,20.35,0,0,1,1.88,4.76,18.22,18.22,0,0,1,3.58,7.85A148.64,148.64,0,0,0,625.56,403C630.23,375.92,639.78,312.45,623,290.77Z"/><path class="cls-21" d="M624.53,289.65c-13.53-17.47-32.34-16.89-39.8-15.83-.8.11-1.49.23-2.07.34-2.69-10.49-14.91-28.67-32.58-31.91a44.89,44.89,0,0,0-14.32-.36,34.59,34.59,0,0,0-14.73,5.4,7.68,7.68,0,0,1-5.69-.45c-.94.74-1.88,1.48-2.82,2.2-.08.12-.17.22-.25.34a.8.8,0,0,0,.13.13,11.54,11.54,0,0,0,10.09,1.25,2.1,2.1,0,0,0,.61-.32,30.57,30.57,0,0,1,13.22-4.85,40.82,40.82,0,0,1,13.06.33c16.83,3.09,28.58,22,29.9,30.77a1.87,1.87,0,0,0,.86,1.31,2,2,0,0,0,1.58.21,31.38,31.38,0,0,1,3.56-.7c6.78-1,23.9-1.48,36.19,14.39,7.95,10.26,14.78,37.81,2.2,110.79a147.89,147.89,0,0,1-5.31,20.9,19.73,19.73,0,0,1,1,3.53c.21,1.19.36,2.41.52,3.61a151.06,151.06,0,0,0,7.57-27.42C637.73,343.67,636.74,305.43,624.53,289.65Z"/><path class="cls-17" d="M623,290.77c-16.79-21.67-41.83-14.35-41.83-14.35-1.51-10.16-14-29.14-31.44-32.33S521.91,249,521.91,249a9.75,9.75,0,0,1-8.16-.89l-1.22.94c-.2.3-.45.59-.68.88-.66,2.47-1.32,5-2.31,7.76-2.29,6.38-5.59,12.34-7.67,18.81a14,14,0,0,1-2.71,4.72c-5.79,30.65-21.29,62.86-12.3,92.92,3.69,12.31,14,37.94,27.51,42.33,5.44,1.76,12.79,0,18.46.44,7.16.53,13.94,3,21.11,1.72a22.13,22.13,0,0,1,4.11-.36c11.17-7.16,21.42-15.85,35.24-17.62,11.07-1.42,18.25,5.39,20.52,13.55a20.24,20.24,0,0,1,1.89,4.8,18.07,18.07,0,0,1,3.57,7.8A148.64,148.64,0,0,0,625.56,403C630.23,375.92,639.78,312.45,623,290.77ZM542.28,310.2a19.44,19.44,0,0,1-2,10.22,18.56,18.56,0,0,1-1.08,3.64,20.4,20.4,0,0,1-.39,12.65,20.39,20.39,0,0,1-.34,7.67h0a19.88,19.88,0,0,1,.9,2.7c0,.12.07.24.1.36a20.19,20.19,0,0,1,.48,2.69c0,.14,0,.28,0,.43a19.3,19.3,0,0,1,.08,2.74c0,.11,0,.22,0,.34a19.48,19.48,0,0,1-.34,2.84,18.19,18.19,0,0,1-4.2,11.32c-2.53,3.94-6.78,6.94-12.92,7.81a21.58,21.58,0,0,1-2.72.21,17.13,17.13,0,0,1-11.08,1.94c-6.76-1.11-6.84-6.7-5.55-12.33a20.58,20.58,0,0,1-.65-15.87,19.09,19.09,0,0,1,.83-3.59,20.25,20.25,0,0,1-.24-14.14,19.93,19.93,0,0,1,1.14-10.16,20,20,0,0,1,1.27-14.6,18.19,18.19,0,0,1,1.56-4.74,20.34,20.34,0,0,1,.53-6.42c-2.74-5.36,7.9-33.55,8.91-36.29a1.62,1.62,0,0,1,1.39-1.1c4.56-7.74,12.1-13.4,22.46-9.69a12.45,12.45,0,0,1,7.79,7.21A20.48,20.48,0,0,1,552,277.35a19.09,19.09,0,0,1-2,7.78,18.81,18.81,0,0,1-2.78,9.63,18.53,18.53,0,0,1-3.2,9.93A18.53,18.53,0,0,1,542.28,310.2Zm72.51,13.89a2,2,0,0,1-3.29-.37c-2.55-4.51-3.72-9.51-4.87-14.51-3.79,11.87-11,22.45-17.82,33.08-4.65,7.25-12.91,21.89-23.67,21.17-10.17-.68-16.4-7.28-13.09-17.08a271.32,271.32,0,0,1,14.14-32.83c2.64-6.23,5.24-12.49,8.18-18.59,1.84-3.84,4.2-10.57,7.74-13.31,6.5-5,15.14-2.14,21.77,1.37C616.3,289.58,626,312.67,614.79,324.09Z"/><path class="cls-17" d="M521.91,249a9.75,9.75,0,0,1-8.16-.89l-1.22.93c-.2.31-.45.59-.68.89-.66,2.47-1.32,5-2.31,7.76-1.25,3.48-2.78,6.82-4.27,10.2A70.39,70.39,0,0,1,499.82,282a20.45,20.45,0,0,1,0,13.74,19.51,19.51,0,0,1,2.9,5.44c.77-.43,1.49-.9,2.27-1.31,1.81-11.95,4.23-23.7,8.88-35,2.42-5.87,4.82-11.59,9-16.5C522.22,248.74,521.91,249,521.91,249Z"/><path class="cls-17" d="M629.08,303.8c-.25,12.65-6.37,25.4-17.74,31a2,2,0,0,1-2.66-1.44,38.36,38.36,0,0,1-.88-5.14,48.55,48.55,0,0,1-14.68,20.59,98.47,98.47,0,0,0-18.34,19.29c-4,5.38-8.5,11.95-14.46,15.48-10.73,6.36-18.91-1.21-17-12.67,2-12,6.82-23.35,12.43-34.35,3.14-7.79,6.73-15.45,10.47-23,2.64-6.23,5.24-12.49,8.18-18.59a99.63,99.63,0,0,1,4.63-9.55,66.17,66.17,0,0,1,6.26-9.78,32.52,32.52,0,0,0-4.09.79c-1.38-9.23-11.84-25.69-26.79-31a43.32,43.32,0,0,1,4.9,6.49c5.85,9.35,9.3,20.53,6.58,31.53-1.07,4.37-2.54,7.18-4.57,8.93a17.78,17.78,0,0,1-6.54,14.23,19.08,19.08,0,0,1-3,12.39,18.3,18.3,0,0,1-3.61,9.72c1.24,5.94-.06,12.41-4.29,16.9a16.91,16.91,0,0,1-3.61,5.95c-3.55,10.46-6.35,21.07-10.1,31.5-2.38,6.57-7.17,15.83-16,14.39-7.07-1.15-10.78-6.75-12.31-13.6a28.94,28.94,0,0,1-1.45-7.2,16.55,16.55,0,0,1-2,2.93,1.83,1.83,0,0,1,1,1.26c1.33,8.19,3.4,18,9.3,24.34,9.15,9.88,21.51,5.84,25.61-6.19a2,2,0,0,1,3.53,0c4,10.52,10.52,13.88,17.53,13.05,12.54-3.07,22.73-23.39,29.2-31.91,5.81-7.67,19.69-22.68,25.54-6.25,4.93,13.86,6.45,30.27,6,45.44a18.62,18.62,0,0,1,3.23,7.49A149.11,149.11,0,0,0,625.56,403C629.49,380.18,636.9,331.51,629.08,303.8Z"/><path class="cls-23" d="M504.45,300.13c2.49-16.65,7.63-36.1,17.19-50.47L520,251.17c-4,5.44-6.76,11.5-9.11,17.92-3.42,9.36-8.26,21-8.21,31.2a2.24,2.24,0,0,0-.83,0,20.52,20.52,0,0,1,.45,2.93c1.25-.21,2.51-.38,3.76-.62a19.43,19.43,0,0,1,.79-2.67c-.74.06-1.49.13-2.24.18Z"/><path class="cls-23" d="M616,334.8a38.3,38.3,0,0,1-5.52,2.92c.12-.24-.35-.08-.48.09l-.15.18c-1.44.63-2.91,1.23-4.38,1.86a3.6,3.6,0,0,0-1.29,1.17l-.09.07a31.64,31.64,0,0,0,4.29-16.44c-.19-.95-.43-1.89-.64-2.83a8,8,0,0,0-1.34-1.6c-.43,8-1.46,14.65-5.34,22.29-.38.73-.79,1.43-1.22,2.12-5,5.62-10.35,10.94-15.06,16.82-6.1,7.63-9.86,17.27-14.14,25.92-1,2.07-2.16,4.29-3.41,6.47a15.39,15.39,0,0,1-3.66,5.57c-3.75,4.78-8.66,8.43-15.66,8.38-9.7-.06-10.31-13.39-10.28-19.7,0-2.11.18-4.19.37-6.26,1.28-8.77,3.25-17.3,7.15-25.48,4.64-9.76,9.63-19.34,14.32-29.07,4.32-8.94,8.28-18,12.21-27.15.89-2.05,1.92-4.2,2.95-6.39q1.82-4.65,3.94-9.19a22.71,22.71,0,0,1,2.93-5.82c.41-.76.86-1.5,1.3-2.25a.76.76,0,0,0-.61.06c-2.07.93-3.2,2.79-4.28,4.67a90.89,90.89,0,0,0-5.9,12.06c0,.11,0,.13,0,.18-4.83,9.68-8.77,19.66-13.39,29.46-1.29,2.74-2.49,5.49-3.64,8.26a155.83,155.83,0,0,0-14.51,31.15c0,.05,0,.1,0,.16a.14.14,0,0,0,0,.07,45,45,0,0,0-2.16,7.08,141,141,0,0,0-3.77,17.6c-1.3,8.58-6.17,28.88-20.44,18.57-5-3.64-8.16-9.53-10.56-15-2.79-6.37-2.65-13.86-2.61-20.65,0-1.54.89-9.76,1.12-15.56a20.08,20.08,0,0,1-1.53-3.75c-.43.31-.86.6-1.28.93A18.35,18.35,0,0,1,499,354l0,.21h0a17.65,17.65,0,0,1-.49,2.18c.39-.39.77-.79,1.18-1.15-2.44,13.12-2.22,28.43,2.93,40.19,3.89,8.9,14.42,21,24.55,12.52,4.88-4.09,7.17-9.76,8.52-15.89.3,11.18,6.14,21.5,19.27,16.31,5-2,8.87-6.22,12.09-11.07.92-1.85,1.95-3.64,3-5.39,1.87-3.55,3.48-7.11,5-10.12,3.34-6.72,6.6-13.34,10.9-19.31,2.35-3.42,5.6-6.41,8.5-9.36,1.93-2.33,4.05-4.52,6.17-6.69,1.74-1.79,3.34-3.66,5.62-4.83,3-1.56,6.28-2.57,9.06-4.57a16.15,16.15,0,0,0,2.38-2.19c0-.35.07-.7.1-1.05C617,334.18,616.4,334.54,616,334.8Z"/><path class="cls-22" d="M530.65,250.53c-5,.66-7.52,4.91-10.34,8.62-4.69,6.16-5.65,14.47-6.36,21.82,0,.46.73-.22.79-.42,3.22-10.49,5-23.67,15.78-29.63C530.59,250.88,530.89,250.49,530.65,250.53Z"/><path class="cls-22" d="M591.91,283c-8.47,2.62-12.51,10.39-16.66,17.49-6.4,11-11.15,23.09-15.66,34.88-.17.45.53,0,.62-.19,4.2-8.19,8.55-16.15,12.33-24.54,4.51-10,9.82-21,19.29-27.24C591.93,283.36,592.23,282.93,591.91,283Z"/></g></g></svg>