<svg xmlns="http://www.w3.org/2000/svg" xmlns:xlink="http://www.w3.org/1999/xlink" viewBox="0 0 900 600"><defs><style>.cls-1{fill:none;}.cls-2{isolation:isolate;}.cls-3{clip-path:url(#clip-path);}.cls-4{fill:#ba88db;}.cls-5{clip-path:url(#clip-path-2);}.cls-6{clip-path:url(#clip-path-3);}.cls-7{clip-path:url(#clip-path-4);}.cls-8{fill:#6fcddd;}.cls-9{opacity:0.5;}.cls-10{fill:#006c78;}.cls-11{fill:#fff1ee;}.cls-12{fill:#efc7b0;}.cls-13,.cls-20{fill:#fbd4b8;}.cls-14{fill:#ecae9d;opacity:0.3;}.cls-14,.cls-18{mix-blend-mode:multiply;}.cls-15,.cls-18{opacity:0.4;}.cls-15,.cls-16,.cls-20{mix-blend-mode:screen;}.cls-15{fill:url(#linear-gradient);}.cls-16{fill:#ea9398;opacity:0.7;}.cls-17{fill:#e37e5a;}.cls-18{fill:#f9b38f;}.cls-19{fill:#e47f5a;}.cls-20{opacity:0.8;}</style><clipPath id="clip-path"><rect id="SVGID" class="cls-1" x="-1061.06" y="-1.3" width="1051.42" height="613.33" transform="translate(-1070.7 610.73) rotate(-180)"/></clipPath><clipPath id="clip-path-2"><rect id="SVGID-2" data-name="SVGID" class="cls-1" x="-6.3" y="741.07" width="1051.42" height="613.33" transform="translate(1038.82 2095.46) rotate(-180)"/></clipPath><clipPath id="clip-path-3"><rect id="SVGID-3" data-name="SVGID" class="cls-1" x="1040" y="-3.47" width="1051.42" height="613.33" transform="translate(3131.42 606.4) rotate(-180)"/></clipPath><clipPath id="clip-path-4"><rect class="cls-1" x="-76.54" y="-4.05" width="1096.92" height="607.88"/></clipPath><linearGradient id="linear-gradient" x1="421.8" y1="537.69" x2="525.32" y2="537.69" gradientUnits="userSpaceOnUse"><stop offset="0" stop-color="#ffc6a5"/><stop offset="1" stop-color="#f9b09b"/></linearGradient></defs><g class="cls-2"><g id="Capa_2" data-name="Capa 2"><g class="cls-3"><path class="cls-4" d="M-299.72,301.08c80.88,40.28,181.21,37.69,260.86-5,192.38-103.06,209.47-391,26.66-514.54-95.53-64.55-231-64.69-325.12,2C-401.85-170.76-443.16-95.33-451.2-17.07c-7.71,75,4.53,162.9,47.18,226C-377.78,247.79-341.73,280.16-299.72,301.08Z"/></g><g class="cls-5"><path class="cls-4" d="M755,1043.45c80.88,40.28,181.21,37.69,260.86-5,192.38-103.06,209.47-391,26.66-514.54-95.53-64.54-231-64.68-325.12,2C652.91,571.61,611.6,647,603.56,725.3c-7.71,75,4.53,162.9,47.18,226C677,990.15,713,1022.52,755,1043.45Z"/></g><g class="cls-6"><path class="cls-4" d="M792.09,955.34c109.87,54.72,246.16,51.2,354.36-6.76,261.34-140,284.55-531.17,36.21-699C1052.9,161.94,868.81,161.74,741,252.27c-87.67,62.11-143.77,164.57-154.71,270.88-10.47,101.85,6.16,221.29,64.1,307C686.05,882.94,735,926.91,792.09,955.34Z"/></g><g class="cls-7"><rect class="cls-8" x="-76.54" y="-4.05" width="1096.92" height="607.88"/><g class="cls-9"><path class="cls-10" d="M26.1,598.56-7.44,526.32a7.69,7.69,0,0,0-4.73-4.11,7.65,7.65,0,0,0-6.16.78c-13.11,8-29.56,22.14-34.18,44.42-20-10.85-41.43-7.41-56-2.55a7.6,7.6,0,0,0-4.57,4.21,7.67,7.67,0,0,0,.09,6.26l33.53,72.23a7.6,7.6,0,0,0,9.42,4c20.18-7,38.43-6.39,54.24,1.86a3.74,3.74,0,0,0,1.71.43,3.65,3.65,0,0,0,1.55-.35,3.65,3.65,0,0,0,2-2.54c3.91-17.4,15.2-31.74,33.57-42.63A7.63,7.63,0,0,0,26.1,598.56Zm-4.92,6.78C3.12,616.07-8.33,630.12-13.21,647.11l-6.66-10.58,3,12.55a62.69,62.69,0,0,0-26.65-5.89,84.35,84.35,0,0,0-27.59,5,4.22,4.22,0,0,1-5.14-2.11l-33.54-72.24a4.14,4.14,0,0,1,0-3.36,4,4,0,0,1,2.44-2.24c12.89-4.3,31.05-8.07,48.75-.3,3,1.34,5.44,1.91,7.37,3.53l2.3,2.46-.34-3c-.46-2.22.68-4.9,1.63-8C-42,544.86-27.92,533-16.48,526h0a4,4,0,0,1,3.28-.42,4.13,4.13,0,0,1,2.54,2.21l33.54,72.23A4.13,4.13,0,0,1,21.18,605.34Z"/><path class="cls-10" d="M3,597.4l-20.72-44.62a5.43,5.43,0,0,0-3.34-2.9,5.4,5.4,0,0,0-4.35.55c-16.08,9.79-20.84,22.13-22.19,27.48-5-2.43-17.46-6.76-35.31-.78a5.35,5.35,0,0,0-3.22,3,5.43,5.43,0,0,0,.06,4.43l20.72,44.62A5.38,5.38,0,0,0-58.73,632c17.68-6.13,29.61-1.57,33.92.67a2.9,2.9,0,0,0,1.37.34,2.92,2.92,0,0,0,1.25-.28,2.94,2.94,0,0,0,1.63-2c1.06-4.74,5.28-16.8,21.37-26.34A5.39,5.39,0,0,0,3,597.4Zm-4,3.86c-14.21,8.43-19.82,18.83-22,25.15l-6.08-7.8,3.08,9.6a41.25,41.25,0,0,0-15.55-2.87,55.71,55.71,0,0,0-18.32,3.27,1.85,1.85,0,0,1-2.28-1L-82.89,583a1.87,1.87,0,0,1,0-1.52,1.82,1.82,0,0,1,1.08-1c18.5-6.17,30.58-.61,33.84,1.24h0l7.9,13.56-4.4-15.18c.69-3.69,4.23-16.51,20.89-26.65a1.81,1.81,0,0,1,1.47-.18,1.87,1.87,0,0,1,1.15,1L-.26,598.89A1.84,1.84,0,0,1-1,601.26Z"/><path class="cls-10" d="M202.32,672.82l3.23-79.58a7.7,7.7,0,0,0-2.33-5.82,7.6,7.6,0,0,0-5.84-2.12c-15.31,1.1-36.41,6.15-50.71,23.85-12.83-18.8-33.45-25.55-48.62-27.88a7.6,7.6,0,0,0-6,1.65,7.68,7.68,0,0,0-2.79,5.6L86,668.1A7.6,7.6,0,0,0,92.58,676c21.15,3,37.09,11.9,47.38,26.47a3.66,3.66,0,0,0,1.32,1.16,3.7,3.7,0,0,0,1.54.4,3.66,3.66,0,0,0,3-1.32c11.43-13.68,28-21.27,49.35-22.55A7.65,7.65,0,0,0,202.32,672.82Zm-7.48,3.78c-21,1.27-37.58,8.52-49.7,21.4l-1.08-12.45L141,698.09a62.73,62.73,0,0,0-21-17.43,84.12,84.12,0,0,0-26.82-8.18,4.25,4.25,0,0,1-3.61-4.24l3.23-79.57a4.1,4.1,0,0,1,1.5-3,4,4,0,0,1,3.19-.88c13.43,2.07,31.3,7,43.49,22,2.09,2.58,4,4.19,4.93,6.51l.93,3.24,1.07-2.83c.6-2.19,2.84-4,5.1-6.34,13.3-13.49,31.25-17.6,44.61-18.56h0a4,4,0,0,1,3.11,1.14A4.14,4.14,0,0,1,202,593.1l-3.23,79.57A4.14,4.14,0,0,1,194.84,676.6Z"/><path class="cls-10" d="M-17.85,496.37l31.5-55.45a6.13,6.13,0,0,0-2.89-8.66c-11.31-4.83-28.18-9-44.86-1.63-2.22-18.09-14.43-30.46-24.37-37.69a6.07,6.07,0,0,0-4.87-1,6.13,6.13,0,0,0-4,3l-31.5,55.45a6.09,6.09,0,0,0,1.76,8c14,9.89,22,22.08,24,36.23a2.9,2.9,0,0,0,.52,1.31,2.74,2.74,0,0,0,.94.85,2.94,2.94,0,0,0,2.6.15c13.17-5.54,27.77-4.85,43.41,2.06A6.12,6.12,0,0,0-17.85,496.37Zm-6.71-.05c-15.4-6.79-29.88-7.73-43.23-3l3.8-9.26-6.77,7.81a50.23,50.23,0,0,0-8.55-20.11,67.52,67.52,0,0,0-16.08-15.67,3.37,3.37,0,0,1-1-4.33l31.5-55.46a3.35,3.35,0,0,1,2.17-1.59,3.21,3.21,0,0,1,2.6.54c8.8,6.41,19.7,16.5,22.86,31.65.55,2.61,1.28,4.44,1.13,6.45l-.53,2.64,1.8-1.62c1.23-1.34,3.51-1.84,6-2.64,14.42-4.72,28.71-1.06,38.57,3.16h0a3.2,3.2,0,0,1,1.79,1.95,3.3,3.3,0,0,1-.25,2.68L-20.32,495A3.31,3.31,0,0,1-24.56,496.32Z"/><path class="cls-11" d="M56.69,510.37a27.89,27.89,0,0,1,14.14,13.12.69.69,0,0,0,.45.37.71.71,0,0,0,.84-1A28.8,28.8,0,0,0,57.18,509a.74.74,0,0,0-.92.43A.72.72,0,0,0,56.69,510.37Z"/><path class="cls-11" d="M55.14,516.07a.74.74,0,0,0-.92.44.72.72,0,0,0,.43.92,27.85,27.85,0,0,1,14.14,13.11.68.68,0,0,0,.45.38.7.7,0,0,0,.51,0,.71.71,0,0,0,.33-1A28.9,28.9,0,0,0,55.14,516.07Z"/><path class="cls-11" d="M53.1,523.13a.74.74,0,0,0-.92.44.73.73,0,0,0,.43.92A27.85,27.85,0,0,1,66.75,537.6a.74.74,0,0,0,.45.38.66.66,0,0,0,.51-.05.71.71,0,0,0,.33-1A28.85,28.85,0,0,0,53.1,523.13Z"/><path class="cls-11" d="M51.06,530.19a.75.75,0,0,0-.92.43.72.72,0,0,0,.44.92,27.93,27.93,0,0,1,14.13,13.12.74.74,0,0,0,.45.38.76.76,0,0,0,.51,0,.71.71,0,0,0,.33-1A28.8,28.8,0,0,0,51.06,530.19Z"/><path class="cls-11" d="M96.79,522.41a28,28,0,0,0-19,3,.71.71,0,0,1-1-.25.72.72,0,0,1,.26-1A28.9,28.9,0,0,1,97.15,521a.75.75,0,0,1,.52.88A.73.73,0,0,1,96.79,522.41Z"/><path class="cls-11" d="M94.92,528a.75.75,0,0,1,.52.88.73.73,0,0,1-.88.52,28,28,0,0,0-19,3,.71.71,0,0,1-1-.25.72.72,0,0,1,.26-1A28.9,28.9,0,0,1,94.92,528Z"/><path class="cls-11" d="M92.69,535a.76.76,0,0,1,.52.88.73.73,0,0,1-.88.52,27.82,27.82,0,0,0-19,3,.7.7,0,0,1-.58.07.76.76,0,0,1-.4-.33.71.71,0,0,1,.26-1A28.84,28.84,0,0,1,92.69,535Z"/><path class="cls-11" d="M90.45,542a.75.75,0,0,1,.53.88.73.73,0,0,1-.88.52,27.81,27.81,0,0,0-19,3,.7.7,0,0,1-.58.07.76.76,0,0,1-.4-.33.71.71,0,0,1,.26-1A28.81,28.81,0,0,1,90.45,542Z"/><path class="cls-11" d="M106.63,561.86l15.62-54a5.41,5.41,0,0,0-.62-4.38A5.33,5.33,0,0,0,118,501c-10.69-1.83-26-1.92-38.81,7.82-5.63-15.06-18.64-23.16-28.65-27.32a5.38,5.38,0,0,0-4.39.12A5.44,5.44,0,0,0,43.28,485L27.66,539a5.37,5.37,0,0,0,3.16,6.51c14,5.62,23.44,14.42,28,26.14a2.54,2.54,0,0,0,.71,1,2.59,2.59,0,0,0,3.25.13c10.15-7.46,22.82-9.87,37.65-7.15A5.41,5.41,0,0,0,106.63,561.86Zm-5.77,1.34c-14.6-2.66-27.22-.49-37.7,6.31l1.36-8.73-4.2,8.09a44.3,44.3,0,0,0-11.47-15.49,59.31,59.31,0,0,0-17-10.13,3,3,0,0,1-1.76-3.52l15.63-54a2.87,2.87,0,0,1,1.53-1.81,2.81,2.81,0,0,1,2.34-.06c8.86,3.68,20.28,10.1,26.11,22.44,1,2.13,2,3.54,2.29,5.3l.09,2.38,1.21-1.77c.79-1.4,2.63-2.29,4.57-3.48,11.39-7,24.4-6.81,33.72-5.22h0a2.89,2.89,0,0,1,1.94,1.3,2.93,2.93,0,0,1,.33,2.36l-15.62,54A2.93,2.93,0,0,1,100.86,563.2Z"/><path class="cls-11" d="M94.83,550.51l9.65-33.37a3.88,3.88,0,0,0-.43-3.1,3.83,3.83,0,0,0-2.57-1.72c-13.11-2.24-21.37,2.12-24.57,4.35-1.52-3.59-6.17-11.69-18.46-16.79a3.79,3.79,0,0,0-3.09.09,3.86,3.86,0,0,0-2,2.38l-9.65,33.38a3.81,3.81,0,0,0,2.24,4.6c12.27,4.93,16.51,12.89,17.77,16.09a2.1,2.1,0,0,0,.57.81,2.18,2.18,0,0,0,.79.43,2.08,2.08,0,0,0,1.82-.33c2.76-2,10.6-6.5,23.6-4.12A3.81,3.81,0,0,0,94.83,550.51Zm-3.9.23c-11.48-2.1-19.29.84-23.39,3.19l.37-7L65.1,553.5a29.12,29.12,0,0,0-6.95-8.75A39.6,39.6,0,0,0,46.87,538a1.29,1.29,0,0,1-.76-1.57l9.64-33.38a1.33,1.33,0,0,1,.7-.82,1.26,1.26,0,0,1,1,0C70.21,507.48,74.07,516,75,518.54h0l-2.08,10.88,4.7-10.13c2.08-1.64,9.9-6.83,23.48-4.51a1.28,1.28,0,0,1,.87.58,1.34,1.34,0,0,1,.15,1.07l-9.65,33.38A1.31,1.31,0,0,1,90.93,550.74Z"/><path class="cls-10" d="M31.23,381.84a23,23,0,0,1,13.83,7.91.62.62,0,0,0,.43.22.69.69,0,0,0,.41-.13A.6.6,0,0,0,46,389a23.78,23.78,0,0,0-14.62-8.34.62.62,0,0,0-.66.53A.59.59,0,0,0,31.23,381.84Z"/><path class="cls-10" d="M31,386.72a.6.6,0,0,0-.13,1.19,23,23,0,0,1,13.83,7.9.59.59,0,0,0,.43.22.63.63,0,0,0,.41-.13.61.61,0,0,0,.09-.84A23.81,23.81,0,0,0,31,386.72Z"/><path class="cls-10" d="M30.72,392.79a.59.59,0,0,0-.13,1.18,23,23,0,0,1,13.83,7.9.59.59,0,0,0,.43.22.6.6,0,0,0,.5-1A23.77,23.77,0,0,0,30.72,392.79Z"/><path class="cls-10" d="M30.41,398.85a.6.6,0,0,0-.66.52.59.59,0,0,0,.52.66,23,23,0,0,1,13.83,7.9.59.59,0,0,0,.44.22.55.55,0,0,0,.4-.13.59.59,0,0,0,.09-.84A23.84,23.84,0,0,0,30.41,398.85Z"/><path class="cls-10" d="M65.75,384A23.06,23.06,0,0,0,51,390a.6.6,0,0,1-.84,0,.59.59,0,0,1,0-.84,23.88,23.88,0,0,1,15.6-6.34.61.61,0,0,1,.58.61A.59.59,0,0,1,65.75,384Z"/><path class="cls-10" d="M65.29,388.87a.62.62,0,0,1,.59.61.59.59,0,0,1-.61.58,23.06,23.06,0,0,0-14.75,6,.59.59,0,0,1-.46.17.63.63,0,0,1-.38-.19.59.59,0,0,1,0-.84A23.86,23.86,0,0,1,65.29,388.87Z"/><path class="cls-10" d="M64.81,394.92a.62.62,0,0,1,.58.61.58.58,0,0,1-.6.58,23.08,23.08,0,0,0-14.76,6,.58.58,0,0,1-.45.16.63.63,0,0,1-.39-.19.6.6,0,0,1,0-.84A23.85,23.85,0,0,1,64.81,394.92Z"/><path class="cls-10" d="M64.33,401a.6.6,0,0,1,.58.6.59.59,0,0,1-.6.58,23,23,0,0,0-14.76,6,.59.59,0,0,1-.84,0,.59.59,0,0,1,0-.84A23.78,23.78,0,0,1,64.33,401Z"/><path class="cls-10" d="M81.06,413.92,83.5,367.5a4.45,4.45,0,0,0-4.71-4.69c-8.94.53-21.29,3.34-29.76,13.57-7.35-11.07-19.34-15.15-28.18-16.62a4.45,4.45,0,0,0-5.17,4.18l-2.44,46.41A4.44,4.44,0,0,0,17,415c12.32,1.9,21.56,7.21,27.46,15.78a2.11,2.11,0,0,0,1.66.93,2.17,2.17,0,0,0,1.75-.75c6.77-7.91,16.51-12.22,29-12.82A4.46,4.46,0,0,0,81.06,413.92Zm-4.39,2.15c-12.25.6-22,4.72-29.15,12.15L47,420.94l-1.86,7.3A36.73,36.73,0,0,0,33,417.92a49.36,49.36,0,0,0-15.6-5,2.47,2.47,0,0,1-2.07-2.5l2.44-46.41a2.39,2.39,0,0,1,.89-1.75,2.35,2.35,0,0,1,1.87-.49c7.83,1.3,18.22,4.32,25.23,13.16,1.2,1.53,2.28,2.48,2.83,3.84l.52,1.9.64-1.65c.37-1.27,1.69-2.34,3-3.66,7.86-7.78,18.37-10,26.17-10.52h0a2.35,2.35,0,0,1,1.81.68,2.4,2.4,0,0,1,.7,1.83L79,413.81A2.4,2.4,0,0,1,76.67,416.07Z"/><path class="cls-10" d="M69.44,407,71,378.33A3.16,3.16,0,0,0,67.63,375c-11,.66-16.8,5.72-18.95,8.11-1.9-2.61-7.16-8.25-18-10.05A3.14,3.14,0,0,0,27,376l-1.51,28.67A3.14,3.14,0,0,0,28.18,408c10.8,1.67,15.71,7.28,17.32,9.61a1.69,1.69,0,0,0,.61.55,1.76,1.76,0,0,0,.72.2,1.67,1.67,0,0,0,1.39-.6c1.85-2.16,7.32-7.22,18.23-7.75A3.14,3.14,0,0,0,69.44,407Zm-3.09.91c-9.64.46-15.37,4.29-18.23,6.95l-1-5.68-1,5.79a24.13,24.13,0,0,0-7.24-5.73,32.31,32.31,0,0,0-10.34-3.32,1.08,1.08,0,0,1-.91-1.12l1.51-28.67a1.08,1.08,0,0,1,1.24-1c11.22,1.87,15.93,8,17.11,9.89h0l.37,9.15,1.88-9c1.36-1.72,6.69-7.36,18-8a1,1,0,0,1,.81.31,1.1,1.1,0,0,1,.32.83l-1.51,28.67A1.08,1.08,0,0,1,66.35,407.91Z"/><path class="cls-10" d="M114.63,435.41a15.66,15.66,0,0,1,6.06,9,.41.41,0,0,0,.19.27.48.48,0,0,0,.29,0,.4.4,0,0,0,.3-.49,16.17,16.17,0,0,0-6.4-9.46.42.42,0,0,0-.56.12A.4.4,0,0,0,114.63,435.41Z"/><path class="cls-10" d="M113.06,438.33a.4.4,0,1,0-.44.68,15.58,15.58,0,0,1,6,9,.38.38,0,0,0,.2.26.37.37,0,0,0,.29,0,.39.39,0,0,0,.3-.48A16.17,16.17,0,0,0,113.06,438.33Z"/><path class="cls-10" d="M111,441.92a.42.42,0,0,0-.55.13.39.39,0,0,0,.12.55,15.67,15.67,0,0,1,6,9,.41.41,0,0,0,.2.26.4.4,0,0,0,.29,0,.41.41,0,0,0,.3-.48A16.2,16.2,0,0,0,111,441.92Z"/><path class="cls-10" d="M109,445.52a.42.42,0,0,0-.56.12.41.41,0,0,0,.12.56,15.62,15.62,0,0,1,6.06,9,.43.43,0,0,0,.2.27.44.44,0,0,0,.28,0,.41.41,0,0,0,.31-.49A16.11,16.11,0,0,0,109,445.52Z"/><path class="cls-10" d="M135,447.09a15.59,15.59,0,0,0-10.79-.77.41.41,0,0,1-.5-.26.4.4,0,0,1,.26-.51,16.17,16.17,0,0,1,11.4.82.4.4,0,0,1-.37.72Z"/><path class="cls-10" d="M133.27,449.91a.41.41,0,0,1,.18.54.42.42,0,0,1-.55.18,15.59,15.59,0,0,0-10.79-.77.36.36,0,0,1-.32,0,.33.33,0,0,1-.18-.22.4.4,0,0,1,.26-.51A16.17,16.17,0,0,1,133.27,449.91Z"/><path class="cls-10" d="M131.16,453.45a.4.4,0,1,1-.37.72A15.59,15.59,0,0,0,120,453.4a.39.39,0,0,1-.32,0,.38.38,0,0,1-.18-.23.41.41,0,0,1,.26-.51A16.16,16.16,0,0,1,131.16,453.45Z"/><path class="cls-10" d="M129.05,457a.4.4,0,1,1-.37.72,15.57,15.57,0,0,0-10.78-.77.41.41,0,0,1-.33,0,.42.42,0,0,1-.18-.23.41.41,0,0,1,.27-.51A16.14,16.14,0,0,1,129.05,457Z"/><path class="cls-10" d="M135.37,469.89l15.4-27.54a3,3,0,0,0,.23-2.47,3.06,3.06,0,0,0-1.69-1.8c-5.6-2.35-14-4.35-22.2-.66-1.16-8.95-7.24-15-12.18-18.57a3,3,0,0,0-2.41-.49,3.06,3.06,0,0,0-2,1.48L95.12,447.38a3,3,0,0,0,.9,4c6.94,4.85,11,10.85,12,17.85a1.3,1.3,0,0,0,.26.64,1.36,1.36,0,0,0,.47.42,1.46,1.46,0,0,0,1.29.07c6.49-2.79,13.72-2.49,21.48.88A3,3,0,0,0,135.37,469.89Zm-3.32,0c-7.64-3.31-14.81-3.73-21.4-1.35L112.5,464l-3.33,3.89a24.81,24.81,0,0,0-4.29-9.93,33.54,33.54,0,0,0-8-7.7,1.67,1.67,0,0,1-.52-2.14l15.41-27.54a1.59,1.59,0,0,1,1.07-.8,1.57,1.57,0,0,1,1.28.26c4.38,3.14,9.8,8.1,11.42,15.59a12,12,0,0,1,.58,3.18l-.26,1.31.89-.81a7.12,7.12,0,0,1,2.94-1.32c7.11-2.38,14.19-.62,19.09,1.44h0a1.62,1.62,0,0,1,.77,2.28l-15.4,27.55A1.65,1.65,0,0,1,132.05,469.89Z"/><path class="cls-10" d="M130.37,462.19l9.51-17a2.14,2.14,0,0,0,.16-1.75,2.11,2.11,0,0,0-1.19-1.26c-6.88-2.9-11.94-1.56-14-.75-.38-2.16-1.89-7.17-7.95-11.52a2.14,2.14,0,0,0-1.7-.35,2.19,2.19,0,0,0-1.41,1.05l-9.52,17a2.14,2.14,0,0,0,.64,2.8c6.08,4.25,7.38,9.14,7.66,11a1.19,1.19,0,0,0,.21.52,1.21,1.21,0,0,0,.38.33,1.14,1.14,0,0,0,1,.05c1.77-.76,6.62-2.2,13.42.75A2.14,2.14,0,0,0,130.37,462.19Zm-2.16-.37c-6-2.61-10.65-2-13.19-1.23l1.09-3.77L113.74,460a16.19,16.19,0,0,0-2.69-5.66,21.88,21.88,0,0,0-5.3-5.12.74.74,0,0,1-.22-1l9.52-17a.68.68,0,0,1,.48-.36.7.7,0,0,1,.58.11c6.27,4.51,7.29,9.68,7.46,11.16h0L121,447.88l3.86-4.94c1.35-.63,6.28-2.47,13.41.52a.74.74,0,0,1,.4.43.7.7,0,0,1-.06.6l-9.51,17A.74.74,0,0,1,128.21,461.82Z"/><path class="cls-10" d="M177.9,503a23.79,23.79,0,0,1,15.9,4.43.61.61,0,0,0,.49.11.63.63,0,0,0,.37-.23.62.62,0,0,0-.12-.87,24.7,24.7,0,0,0-16.81-4.67.64.64,0,0,0-.53.7A.63.63,0,0,0,177.9,503Z"/><path class="cls-10" d="M179,508a.64.64,0,0,0-.53.7.63.63,0,0,0,.69.53,23.85,23.85,0,0,1,15.9,4.43.63.63,0,0,0,.49.11.66.66,0,0,0,.38-.23.62.62,0,0,0-.13-.87A24.74,24.74,0,0,0,179,508Z"/><path class="cls-10" d="M180.17,514.16a.62.62,0,0,0-.53.69.61.61,0,0,0,.69.53,23.86,23.86,0,0,1,15.9,4.43.59.59,0,0,0,.49.11.63.63,0,0,0,.37-.23.62.62,0,0,0-.12-.87A24.65,24.65,0,0,0,180.17,514.16Z"/><path class="cls-10" d="M181.38,520.33a.62.62,0,1,0,.17,1.22,23.87,23.87,0,0,1,15.9,4.43.62.62,0,0,0,.86-.12.62.62,0,0,0-.12-.86A24.63,24.63,0,0,0,181.38,520.33Z"/><path class="cls-10" d="M213.14,496.46a23.86,23.86,0,0,0-13.3,9.78.63.63,0,0,1-.42.28.6.6,0,0,1-.43-.09.62.62,0,0,1-.2-.85,24.73,24.73,0,0,1,14.07-10.32.64.64,0,0,1,.74.46A.62.62,0,0,1,213.14,496.46Z"/><path class="cls-10" d="M213.9,501.46a.62.62,0,0,1,.28,1.21,23.79,23.79,0,0,0-13.3,9.77.61.61,0,0,1-.85.19.62.62,0,0,1-.19-.85A24.72,24.72,0,0,1,213.9,501.46Z"/><path class="cls-10" d="M215,507.67a.64.64,0,0,1,.74.46.62.62,0,0,1-.46.74,23.83,23.83,0,0,0-13.3,9.78.61.61,0,0,1-.41.27.63.63,0,0,1-.44-.08.64.64,0,0,1-.19-.86A24.68,24.68,0,0,1,215,507.67Z"/><path class="cls-10" d="M216,513.87a.64.64,0,0,1,.74.46.62.62,0,0,1-.46.74,23.89,23.89,0,0,0-13.3,9.78.59.59,0,0,1-.42.27.6.6,0,0,1-.43-.08.62.62,0,0,1-.19-.85A24.67,24.67,0,0,1,216,513.87Z"/><path class="cls-10" d="M236.1,522.63l-9.32-47.25a4.61,4.61,0,0,0-5.92-3.53c-8.85,2.81-20.55,8.76-26.46,21.18-10.19-9.25-23.28-10.31-32.52-9.55a4.63,4.63,0,0,0-4.14,5.51l9.31,47.25A4.59,4.59,0,0,0,172,540c12.86-1.21,23.49,1.78,31.6,8.9a2.18,2.18,0,0,0,.94.49,2.07,2.07,0,0,0,1,0,2.19,2.19,0,0,0,1.56-1.2c4.8-9.66,13.5-16.46,25.85-20.21A4.62,4.62,0,0,0,236.1,522.63Zm-3.87,3.28c-12.16,3.7-20.9,10.31-26.21,19.59l-2.39-7.17,0,7.8a38,38,0,0,0-14.8-7.29,51.11,51.11,0,0,0-16.93-1,2.55,2.55,0,0,1-2.71-2l-9.31-47.25a2.46,2.46,0,0,1,.45-2,2.42,2.42,0,0,1,1.75-1c8.2-.67,19.4-.27,28.68,6.84,1.6,1.22,2.92,1.9,3.82,3.13l1,1.78.23-1.82c.05-1.37,1.11-2.78,2.11-4.45,5.92-9.8,15.9-14.75,23.62-17.2h0a2.44,2.44,0,0,1,2,.23,2.47,2.47,0,0,1,1.17,1.66L234,523A2.51,2.51,0,0,1,232.23,525.91Z"/><path class="cls-10" d="M222.67,518.62l-5.75-29.19a3.31,3.31,0,0,0-1.55-2.18,3.24,3.24,0,0,0-2.63-.3c-10.86,3.43-15.43,10-17,12.95-2.57-2.14-9.28-6.48-20.63-5.54a3.22,3.22,0,0,0-2.32,1.28,3.28,3.28,0,0,0-.6,2.61L178,527.43a3.25,3.25,0,0,0,3.51,2.62c11.27-1.06,17.62,3.34,19.83,5.28a1.84,1.84,0,0,0,.76.39,1.81,1.81,0,0,0,.77,0,1.78,1.78,0,0,0,1.25-1c1.31-2.63,5.52-9.11,16.34-12.4A3.27,3.27,0,0,0,222.67,518.62Zm-2.88,1.7c-9.56,2.91-14.35,8.21-16.55,11.61l-2.46-5.46.44,6.08a25,25,0,0,0-8.73-3.92,33.68,33.68,0,0,0-11.23-.71,1.12,1.12,0,0,1-1.2-.9l-5.75-29.19a1.12,1.12,0,0,1,.21-.9,1.08,1.08,0,0,1,.78-.43c11.75-1,18,4,19.69,5.59h0l2.69,9.1-.4-9.55c.94-2.07,4.86-9.08,16.11-12.65a1.09,1.09,0,0,1,.88.11,1.13,1.13,0,0,1,.54.75L220.56,519A1.11,1.11,0,0,1,219.79,520.32Z"/><path class="cls-11" d="M301.5,590.09a33.86,33.86,0,0,0-13.14,19.39.9.9,0,0,1-.43.57.87.87,0,0,1-1.28-1,35,35,0,0,1,13.91-20.47.89.89,0,0,1,1.21.26A.87.87,0,0,1,301.5,590.09Z"/><path class="cls-11" d="M304.9,596.41a.9.9,0,0,1,1.21.27.87.87,0,0,1-.26,1.2,34,34,0,0,0-13.15,19.4.85.85,0,0,1-.42.57.87.87,0,0,1-1.28-1A35,35,0,0,1,304.9,596.41Z"/><path class="cls-11" d="M344.64,614.18l-34.9-58.77a6.55,6.55,0,0,0-9.59-1.9c-10.5,8-23.33,21.46-25.34,40.88-18-7.53-36-2.74-48,2.67a6.52,6.52,0,0,0-3.54,4,6.59,6.59,0,0,0,.62,5.34l34.89,58.78a6.52,6.52,0,0,0,8.39,2.61c16.62-7.73,32.26-8.78,46.48-3.1a3.18,3.18,0,0,0,1.49.21,3.12,3.12,0,0,0,1.3-.43,3.16,3.16,0,0,0,1.52-2.34c1.83-15.2,10.23-28.42,25-39.31A6.57,6.57,0,0,0,344.64,614.18ZM341,620.4c-14.5,10.73-23.06,23.71-25.76,38.65l-6.6-8.46,3.68,10.46a53.71,53.71,0,0,0-23.27-2.73A72.52,72.52,0,0,0,266,665a3.63,3.63,0,0,1-4.58-1.36l-34.89-58.78a3.54,3.54,0,0,1-.33-2.86,3.43,3.43,0,0,1,1.88-2.13c10.64-4.79,25.82-9.58,41.61-4.47,2.72.87,4.81,1.16,6.6,2.37l2.18,1.9-.56-2.54c-.59-1.86.16-4.24.71-6.94,3.26-15.93,14.26-27.28,23.42-34.22h0a3.41,3.41,0,0,1,2.76-.64,3.52,3.52,0,0,1,2.36,1.66L342,615.74A3.54,3.54,0,0,1,341,620.4Z"/><path class="cls-11" d="M324.77,615.2l-21.55-36.31a4.71,4.71,0,0,0-3.11-2.19,4.61,4.61,0,0,0-3.66.85c-12.88,9.75-15.88,20.7-16.57,25.38-4.45-1.64-15.49-4.25-30.22,2.39a4.63,4.63,0,0,0-2.06,6.59l21.55,36.3a4.61,4.61,0,0,0,5.94,1.84c14.57-6.77,25.15-3.9,29-2.36a2.62,2.62,0,0,0,1.2.17,2.56,2.56,0,0,0,2.26-2.22c.5-4.14,3.05-14.8,16-24.35A4.62,4.62,0,0,0,324.77,615.2Zm-3,3.64c-11.41,8.43-15.3,17.79-16.63,23.38l-5.87-6.13,3.46,7.93a35.16,35.16,0,0,0-13.52-1.11,47.75,47.75,0,0,0-15.37,4.38,1.59,1.59,0,0,1-2-.63l-21.55-36.31a1.6,1.6,0,0,1-.15-1.3,1.55,1.55,0,0,1,.84-.95c15.26-6.88,26-3.17,29-1.87h0l7.92,10.9-5.07-12.59c.27-3.21,2.19-14.46,15.53-24.56a1.53,1.53,0,0,1,1.24-.28,1.59,1.59,0,0,1,1.07.75l21.55,36.3A1.58,1.58,0,0,1,321.73,618.84Z"/></g><g class="cls-9"><path class="cls-11" d="M762.56,680.14c21.32,1.28,37.92,8.87,49.35,22.55a3.67,3.67,0,0,0,5.84-.24C828,687.88,844,679,865.13,676a7.6,7.6,0,0,0,6.54-7.88l-3.23-79.58a7.68,7.68,0,0,0-2.79-5.6,7.6,7.6,0,0,0-6-1.65c-15.17,2.33-35.79,9.08-48.62,27.88-14.3-17.7-35.4-22.75-50.71-23.85a7.6,7.6,0,0,0-5.84,2.12,7.7,7.7,0,0,0-2.33,5.82l3.23,79.58A7.65,7.65,0,0,0,762.56,680.14Zm-3.62-7.47-3.23-79.57A4.14,4.14,0,0,1,757,590a4,4,0,0,1,3.11-1.14h0c13.36,1,31.31,5.07,44.61,18.56,2.26,2.29,4.5,4.15,5.11,6.34l1.06,2.83.93-3.24c1-2.32,2.84-3.93,4.93-6.51,12.19-15,30.06-20,43.49-22a4,4,0,0,1,3.19.88,4.1,4.1,0,0,1,1.5,3l3.23,79.57a4.25,4.25,0,0,1-3.61,4.24,84.12,84.12,0,0,0-26.82,8.18,62.73,62.73,0,0,0-21,17.43l-3.05-12.54L812.57,698c-12.12-12.88-28.72-20.13-49.7-21.4A4.14,4.14,0,0,1,758.94,672.67Z"/><path class="cls-10" d="M901,510.37a27.89,27.89,0,0,0-14.14,13.12.69.69,0,0,1-.45.37.71.71,0,0,1-.84-1A28.8,28.8,0,0,1,900.53,509a.74.74,0,0,1,.92.43A.72.72,0,0,1,901,510.37Z"/><path class="cls-10" d="M902.57,516.07a.74.74,0,0,1,.92.44.72.72,0,0,1-.43.92,27.85,27.85,0,0,0-14.14,13.11.68.68,0,0,1-.45.38.7.7,0,0,1-.51,0,.71.71,0,0,1-.33-1A28.9,28.9,0,0,1,902.57,516.07Z"/><path class="cls-10" d="M904.61,523.13a.74.74,0,0,1,.92.44.73.73,0,0,1-.43.92A27.85,27.85,0,0,0,891,537.6a.74.74,0,0,1-.45.38.66.66,0,0,1-.51-.05.71.71,0,0,1-.33-1A28.85,28.85,0,0,1,904.61,523.13Z"/><path class="cls-10" d="M906.65,530.19a.75.75,0,0,1,.92.43.72.72,0,0,1-.43.92A27.89,27.89,0,0,0,893,544.66a.74.74,0,0,1-.45.38.76.76,0,0,1-.51,0,.71.71,0,0,1-.33-1A28.8,28.8,0,0,1,906.65,530.19Z"/><path class="cls-10" d="M860.92,522.41a28,28,0,0,1,19,3,.71.71,0,0,0,1-.25.72.72,0,0,0-.26-1A28.9,28.9,0,0,0,860.56,521a.75.75,0,0,0-.52.88A.73.73,0,0,0,860.92,522.41Z"/><path class="cls-10" d="M862.79,528a.75.75,0,0,0-.52.88.73.73,0,0,0,.88.52,28,28,0,0,1,19,3,.71.71,0,0,0,1-.25.72.72,0,0,0-.26-1A28.9,28.9,0,0,0,862.79,528Z"/><path class="cls-10" d="M865,535a.75.75,0,0,0-.53.88.73.73,0,0,0,.88.52,27.82,27.82,0,0,1,19,3,.7.7,0,0,0,.58.07.76.76,0,0,0,.4-.33.71.71,0,0,0-.26-1A28.81,28.81,0,0,0,865,535Z"/><path class="cls-10" d="M867.26,542a.75.75,0,0,0-.53.88.73.73,0,0,0,.88.52,27.81,27.81,0,0,1,19,3,.7.7,0,0,0,.58.07.76.76,0,0,0,.4-.33.72.72,0,0,0-.25-1A28.84,28.84,0,0,0,867.26,542Z"/><path class="cls-10" d="M857.24,565.68c14.83-2.72,27.5-.31,37.65,7.15a2.59,2.59,0,0,0,3.25-.13,2.54,2.54,0,0,0,.71-1c4.6-11.72,14-20.52,28-26.14a5.37,5.37,0,0,0,3.16-6.51l-15.62-54a5.44,5.44,0,0,0-2.86-3.38,5.38,5.38,0,0,0-4.39-.12c-10,4.16-23,12.26-28.65,27.32-12.79-9.74-28.12-9.65-38.81-7.82a5.35,5.35,0,0,0-3.64,2.44,5.45,5.45,0,0,0-.62,4.38l15.62,54A5.41,5.41,0,0,0,857.24,565.68Zm-3.75-4.51-15.62-54a2.93,2.93,0,0,1,.33-2.36,2.89,2.89,0,0,1,1.95-1.3h0c9.32-1.59,22.33-1.8,33.72,5.22,1.94,1.19,3.78,2.08,4.57,3.48l1.21,1.77.09-2.38c.28-1.76,1.28-3.17,2.29-5.3,5.83-12.34,17.25-18.76,26.11-22.44a2.81,2.81,0,0,1,2.34.06,2.87,2.87,0,0,1,1.53,1.81l15.63,54a3,3,0,0,1-1.76,3.52,59.31,59.31,0,0,0-17,10.13,44.15,44.15,0,0,0-11.46,15.49l-4.21-8.09,1.36,8.73c-10.48-6.8-23.1-9-37.7-6.31A2.93,2.93,0,0,1,853.49,561.17Z"/><path class="cls-10" d="M867.23,553.21c13-2.38,20.84,2.09,23.6,4.12a2.08,2.08,0,0,0,1.82.33,2.18,2.18,0,0,0,.79-.43,2.1,2.1,0,0,0,.57-.81c1.26-3.2,5.5-11.16,17.77-16.09a3.81,3.81,0,0,0,2.24-4.6l-9.65-33.38a3.83,3.83,0,0,0-2-2.38,3.78,3.78,0,0,0-3.09-.09c-12.29,5.1-16.94,13.2-18.46,16.79-3.2-2.23-11.46-6.59-24.56-4.35a3.79,3.79,0,0,0-2.57,1.72,3.84,3.84,0,0,0-.44,3.1l9.65,33.37A3.81,3.81,0,0,0,867.23,553.21Zm-1.94-3.39-9.65-33.38a1.34,1.34,0,0,1,.15-1.07,1.28,1.28,0,0,1,.87-.58c13.58-2.32,21.41,2.87,23.48,4.51l4.7,10.13-2.08-10.88h0c.88-2.5,4.74-11.06,17.46-16.34a1.26,1.26,0,0,1,1,0,1.33,1.33,0,0,1,.7.82l9.64,33.38a1.29,1.29,0,0,1-.76,1.57,39.6,39.6,0,0,0-11.28,6.75,29.12,29.12,0,0,0-6.95,8.75L889.8,547l.37,7c-4.1-2.35-11.91-5.29-23.39-3.19A1.31,1.31,0,0,1,865.29,549.82Z"/><path class="cls-10" d="M892,384a23.06,23.06,0,0,1,14.75,6,.6.6,0,0,0,.84,0,.59.59,0,0,0,0-.84,23.88,23.88,0,0,0-15.6-6.34.61.61,0,0,0-.58.61A.59.59,0,0,0,892,384Z"/><path class="cls-10" d="M892.42,388.87a.62.62,0,0,0-.59.61.59.59,0,0,0,.61.58,23.06,23.06,0,0,1,14.75,6,.59.59,0,0,0,.46.17.63.63,0,0,0,.38-.19.59.59,0,0,0,0-.84A23.86,23.86,0,0,0,892.42,388.87Z"/><path class="cls-10" d="M892.9,394.92a.62.62,0,0,0-.58.61.58.58,0,0,0,.6.58,23.06,23.06,0,0,1,14.76,6,.58.58,0,0,0,.45.16.63.63,0,0,0,.39-.19.6.6,0,0,0,0-.84A23.85,23.85,0,0,0,892.9,394.92Z"/><path class="cls-10" d="M893.38,401a.59.59,0,1,0,0,1.18,23,23,0,0,1,14.75,6,.59.59,0,0,0,.84,0,.59.59,0,0,0,0-.84A23.78,23.78,0,0,0,893.38,401Z"/><path class="cls-10" d="M880.88,418.14c12.45.6,22.2,4.91,29,12.82a2.17,2.17,0,0,0,1.75.75,2.11,2.11,0,0,0,1.66-.93c5.9-8.57,15.14-13.88,27.46-15.78a4.44,4.44,0,0,0,3.76-4.65L942,363.94a4.45,4.45,0,0,0-5.17-4.18c-8.84,1.47-20.83,5.55-28.18,16.62-8.47-10.23-20.82-13-29.76-13.57a4.45,4.45,0,0,0-4.71,4.69l2.44,46.42A4.46,4.46,0,0,0,880.88,418.14Zm-2.16-4.33-2.44-46.42a2.37,2.37,0,0,1,.71-1.83,2.32,2.32,0,0,1,1.8-.68h0c7.81.47,18.31,2.74,26.17,10.52,1.33,1.32,2.65,2.39,3,3.66l.64,1.65.52-1.9c.55-1.36,1.63-2.31,2.83-3.84,7-8.84,17.4-11.86,25.23-13.16a2.35,2.35,0,0,1,1.87.49,2.39,2.39,0,0,1,.89,1.75l2.44,46.41a2.47,2.47,0,0,1-2.07,2.5,49.36,49.36,0,0,0-15.6,5,36.73,36.73,0,0,0-12.13,10.32l-1.86-7.3-.55,7.28c-7.16-7.43-16.9-11.55-29.15-12.15A2.41,2.41,0,0,1,878.72,413.81Z"/><path class="cls-10" d="M891.26,410c10.91.53,16.38,5.59,18.23,7.75a1.67,1.67,0,0,0,1.39.6,1.76,1.76,0,0,0,.72-.2,1.69,1.69,0,0,0,.61-.55c1.61-2.33,6.52-7.94,17.32-9.61a3.14,3.14,0,0,0,2.66-3.28L930.69,376a3.17,3.17,0,0,0-1.18-2.3,3.12,3.12,0,0,0-2.47-.65c-10.85,1.8-16.1,7.44-18,10.05-2.16-2.39-8-7.45-19-8.11a3.16,3.16,0,0,0-3.32,3.32L888.27,407A3.14,3.14,0,0,0,891.26,410Zm-.92-3.09-1.51-28.67a1.1,1.1,0,0,1,.32-.83,1,1,0,0,1,.81-.31c11.36.68,16.69,6.32,18,8l1.89,9,.36-9.15h0c1.18-1.85,5.89-8,17.11-9.89a1.08,1.08,0,0,1,1.24,1l1.51,28.67a1.08,1.08,0,0,1-.91,1.12,32.4,32.4,0,0,0-10.34,3.32,24.13,24.13,0,0,0-7.24,5.73l-1-5.79-1,5.68c-2.86-2.66-8.59-6.49-18.23-6.95A1.08,1.08,0,0,1,890.34,406.89Z"/><path class="cls-10" d="M843.08,435.41a15.66,15.66,0,0,0-6.06,9,.41.41,0,0,1-.19.27.48.48,0,0,1-.29,0,.4.4,0,0,1-.3-.49,16.17,16.17,0,0,1,6.4-9.46.42.42,0,0,1,.56.12A.4.4,0,0,1,843.08,435.41Z"/><path class="cls-10" d="M844.65,438.33a.4.4,0,1,1,.44.68,15.58,15.58,0,0,0-6.05,9,.38.38,0,0,1-.2.26.36.36,0,0,1-.29,0,.4.4,0,0,1-.3-.48A16.17,16.17,0,0,1,844.65,438.33Z"/><path class="cls-10" d="M846.67,441.92a.42.42,0,0,1,.55.13.39.39,0,0,1-.12.55,15.67,15.67,0,0,0-6.05,9,.41.41,0,0,1-.2.26.4.4,0,0,1-.29,0,.41.41,0,0,1-.3-.48A16.2,16.2,0,0,1,846.67,441.92Z"/><path class="cls-10" d="M848.68,445.52a.42.42,0,0,1,.56.12.41.41,0,0,1-.12.56,15.62,15.62,0,0,0-6.06,9,.43.43,0,0,1-.2.27.44.44,0,0,1-.28,0,.41.41,0,0,1-.31-.49A16.11,16.11,0,0,1,848.68,445.52Z"/><path class="cls-10" d="M822.7,447.09a15.59,15.59,0,0,1,10.79-.77.39.39,0,0,0,.33,0,.38.38,0,0,0,.17-.22.4.4,0,0,0-.26-.51,16.17,16.17,0,0,0-11.4.82.4.4,0,0,0,.37.72Z"/><path class="cls-10" d="M824.44,449.91a.41.41,0,0,0-.18.54.42.42,0,0,0,.55.18,15.59,15.59,0,0,1,10.79-.77.36.36,0,0,0,.32,0,.33.33,0,0,0,.18-.22.4.4,0,0,0-.26-.51A16.17,16.17,0,0,0,824.44,449.91Z"/><path class="cls-10" d="M826.55,453.45a.4.4,0,1,0,.37.72,15.59,15.59,0,0,1,10.79-.77.39.39,0,0,0,.32,0,.38.38,0,0,0,.18-.23.41.41,0,0,0-.26-.51A16.16,16.16,0,0,0,826.55,453.45Z"/><path class="cls-10" d="M828.66,457a.4.4,0,1,0,.37.72,15.59,15.59,0,0,1,10.79-.77.39.39,0,0,0,.32,0,.42.42,0,0,0,.18-.23.41.41,0,0,0-.27-.51A16.14,16.14,0,0,0,828.66,457Z"/><path class="cls-10" d="M826.19,471.2c7.76-3.37,15-3.67,21.48-.88a1.46,1.46,0,0,0,1.29-.07,1.36,1.36,0,0,0,.47-.42,1.3,1.3,0,0,0,.26-.64c1-7,5.06-13,12-17.85a3,3,0,0,0,.9-4l-15.41-27.54a3.06,3.06,0,0,0-2-1.48,3,3,0,0,0-2.41.49c-4.94,3.54-11,9.62-12.18,18.57-8.23-3.69-16.6-1.69-22.2.66a3,3,0,0,0-1.68,1.8,3,3,0,0,0,.22,2.47l15.4,27.54A3,3,0,0,0,826.19,471.2Zm-2.62-2-15.4-27.55a1.62,1.62,0,0,1,.77-2.28h0c4.9-2.06,12-3.82,19.09-1.44a7.12,7.12,0,0,1,2.94,1.32l.89.81-.26-1.31a12,12,0,0,1,.58-3.18c1.62-7.49,7-12.45,11.42-15.59a1.57,1.57,0,0,1,1.28-.26,1.59,1.59,0,0,1,1.07.8l15.41,27.54a1.67,1.67,0,0,1-.52,2.14,33.54,33.54,0,0,0-8,7.7,24.81,24.81,0,0,0-4.29,9.93L845.21,464l1.85,4.59c-6.59-2.38-13.75-2-21.4,1.35A1.65,1.65,0,0,1,823.57,469.21Z"/><path class="cls-10" d="M830.07,463.11c6.8-2.95,11.65-1.51,13.42-.75a1.14,1.14,0,0,0,1-.05,1.21,1.21,0,0,0,.38-.33,1.19,1.19,0,0,0,.21-.52c.28-1.91,1.58-6.8,7.66-11a2.14,2.14,0,0,0,.64-2.8l-9.52-17a2.19,2.19,0,0,0-1.41-1.05,2.14,2.14,0,0,0-1.7.35c-6.06,4.35-7.57,9.36-7.95,11.52-2-.81-7.09-2.15-14,.75a2.11,2.11,0,0,0-1.19,1.26,2.14,2.14,0,0,0,.16,1.75l9.52,17A2.12,2.12,0,0,0,830.07,463.11Zm-1.5-1.6-9.51-17a.7.7,0,0,1-.06-.6.74.74,0,0,1,.4-.43c7.13-3,12.07-1.15,13.41-.52l3.86,4.94-2.53-5.68h0c.17-1.48,1.19-6.65,7.46-11.16a.71.71,0,0,1,.58-.11.68.68,0,0,1,.48.36l9.52,17a.74.74,0,0,1-.22,1,21.88,21.88,0,0,0-5.3,5.12A16.19,16.19,0,0,0,844,460l-2.37-3.22,1.09,3.77c-2.54-.77-7.18-1.38-13.19,1.23A.74.74,0,0,1,828.57,461.51Z"/><path class="cls-11" d="M779.81,503a23.8,23.8,0,0,0-15.9,4.43.61.61,0,0,1-.49.11.62.62,0,0,1-.25-1.1A24.7,24.7,0,0,1,780,501.81a.64.64,0,0,1,.53.7A.63.63,0,0,1,779.81,503Z"/><path class="cls-11" d="M778.76,508a.64.64,0,0,1,.53.7.63.63,0,0,1-.69.53,23.85,23.85,0,0,0-15.9,4.43.63.63,0,0,1-.49.11.66.66,0,0,1-.38-.23.62.62,0,0,1,.13-.87A24.74,24.74,0,0,1,778.76,508Z"/><path class="cls-11" d="M777.54,514.16a.62.62,0,0,1,.53.69.61.61,0,0,1-.69.53,23.86,23.86,0,0,0-15.9,4.43.59.59,0,0,1-.49.11.63.63,0,0,1-.37-.23.62.62,0,0,1,.12-.87A24.65,24.65,0,0,1,777.54,514.16Z"/><path class="cls-11" d="M776.33,520.33a.62.62,0,1,1-.17,1.22,23.87,23.87,0,0,0-15.9,4.43.62.62,0,0,1-.86-.12.62.62,0,0,1,.12-.86A24.63,24.63,0,0,1,776.33,520.33Z"/><path class="cls-11" d="M744.58,496.46a23.85,23.85,0,0,1,13.29,9.78.63.63,0,0,0,.42.28.63.63,0,0,0,.44-.09.62.62,0,0,0,.19-.85,24.73,24.73,0,0,0-14.07-10.32.64.64,0,0,0-.74.46A.62.62,0,0,0,744.58,496.46Z"/><path class="cls-11" d="M743.81,501.46a.62.62,0,0,0-.28,1.21,23.79,23.79,0,0,1,13.3,9.77.61.61,0,0,0,.85.19.62.62,0,0,0,.19-.85A24.72,24.72,0,0,0,743.81,501.46Z"/><path class="cls-11" d="M742.76,507.67a.64.64,0,0,0-.74.46.62.62,0,0,0,.46.74,23.83,23.83,0,0,1,13.3,9.78.64.64,0,0,0,.85.19.63.63,0,0,0,.19-.86A24.68,24.68,0,0,0,742.76,507.67Z"/><path class="cls-11" d="M741.71,513.87a.64.64,0,0,0-.74.46.62.62,0,0,0,.46.74,23.89,23.89,0,0,1,13.3,9.78.59.59,0,0,0,.42.27.6.6,0,0,0,.43-.08.62.62,0,0,0,.19-.85A24.67,24.67,0,0,0,741.71,513.87Z"/><path class="cls-11" d="M724.8,528c12.35,3.75,21.05,10.55,25.85,20.21a2.19,2.19,0,0,0,1.56,1.2,2.07,2.07,0,0,0,1,0,2.18,2.18,0,0,0,.94-.49c8.11-7.12,18.74-10.11,31.6-8.9a4.59,4.59,0,0,0,4.95-3.71L800,489a4.63,4.63,0,0,0-4.14-5.51c-9.24-.76-22.33.3-32.52,9.55-5.91-12.42-17.61-18.37-26.46-21.18a4.61,4.61,0,0,0-5.92,3.53l-9.32,47.25A4.63,4.63,0,0,0,724.8,528ZM723.72,523,733,475.79a2.47,2.47,0,0,1,1.17-1.66,2.44,2.44,0,0,1,2-.23h0c7.72,2.45,17.7,7.4,23.62,17.2,1,1.67,2.06,3.08,2.11,4.45l.23,1.82,1-1.78c.9-1.23,2.22-1.91,3.82-3.13,9.28-7.11,20.49-7.51,28.68-6.84a2.42,2.42,0,0,1,1.75,1,2.5,2.5,0,0,1,.46,2l-9.32,47.25a2.55,2.55,0,0,1-2.71,2,51.11,51.11,0,0,0-16.93,1,38,38,0,0,0-14.8,7.29l0-7.8-2.39,7.17c-5.31-9.28-14.05-15.89-26.21-19.59A2.51,2.51,0,0,1,723.72,523Z"/><path class="cls-11" d="M737.3,522.38c10.83,3.29,15,9.77,16.34,12.4a1.77,1.77,0,0,0,2,.94,1.84,1.84,0,0,0,.76-.39c2.21-1.94,8.56-6.34,19.83-5.28a3.25,3.25,0,0,0,3.51-2.62l5.75-29.18a3.28,3.28,0,0,0-.6-2.61,3.22,3.22,0,0,0-2.32-1.28c-11.35-.94-18.06,3.4-20.63,5.54-1.56-2.95-6.13-9.52-17-12.95a3.24,3.24,0,0,0-2.63.3,3.31,3.31,0,0,0-1.55,2.18L735,518.62A3.27,3.27,0,0,0,737.3,522.38Zm-.15-3.34,5.75-29.19a1.13,1.13,0,0,1,.54-.75,1.11,1.11,0,0,1,.89-.11c11.24,3.57,15.16,10.58,16.1,12.65l-.4,9.55,2.69-9.1h0c1.65-1.56,7.94-6.56,19.69-5.59a1.08,1.08,0,0,1,.78.43,1.12,1.12,0,0,1,.21.9L777.65,527a1.12,1.12,0,0,1-1.2.9,33.68,33.68,0,0,0-11.23.71,24.84,24.84,0,0,0-8.72,3.92l.43-6.08-2.46,5.46c-2.2-3.4-7-8.7-16.55-11.61A1.11,1.11,0,0,1,737.15,519Z"/><path class="cls-10" d="M656.21,590.09a33.86,33.86,0,0,1,13.14,19.39.9.9,0,0,0,.43.57.87.87,0,0,0,1.28-1,35,35,0,0,0-13.91-20.47.89.89,0,0,0-1.21.26A.87.87,0,0,0,656.21,590.09Z"/><path class="cls-10" d="M652.81,596.41a.9.9,0,0,0-1.21.27.87.87,0,0,0,.26,1.2A34,34,0,0,1,665,617.28a.85.85,0,0,0,.42.57.87.87,0,0,0,1.28-1A35,35,0,0,0,652.81,596.41Z"/><path class="cls-10" d="M614.81,622.81c14.74,10.89,23.14,24.11,25,39.31a3.16,3.16,0,0,0,1.52,2.34,3.12,3.12,0,0,0,1.3.43,3.18,3.18,0,0,0,1.49-.21c14.22-5.68,29.86-4.63,46.48,3.1a6.52,6.52,0,0,0,8.39-2.61l34.89-58.78a6.59,6.59,0,0,0,.62-5.34,6.52,6.52,0,0,0-3.54-4c-12-5.41-30-10.2-48-2.67-2-19.42-14.84-32.93-25.34-40.88a6.55,6.55,0,0,0-9.59,1.9l-34.9,58.77A6.57,6.57,0,0,0,614.81,622.81Zm.89-7.07L650.59,557A3.52,3.52,0,0,1,653,555.3a3.44,3.44,0,0,1,2.77.64h0c9.16,6.94,20.16,18.29,23.42,34.22.55,2.7,1.3,5.08.71,6.94l-.56,2.54,2.18-1.9c1.79-1.21,3.88-1.5,6.6-2.37,15.79-5.11,31-.32,41.61,4.47a3.43,3.43,0,0,1,1.88,2.13,3.54,3.54,0,0,1-.33,2.86l-34.89,58.78a3.63,3.63,0,0,1-4.58,1.36,72.52,72.52,0,0,0-23.12-6.65,53.71,53.71,0,0,0-23.27,2.73l3.68-10.46-6.6,8.46c-2.7-14.94-11.26-27.92-25.76-38.65A3.54,3.54,0,0,1,615.7,615.74Z"/><path class="cls-10" d="M634.17,621.29c12.92,9.55,15.48,20.21,16,24.35a2.56,2.56,0,0,0,2.26,2.22,2.62,2.62,0,0,0,1.2-.17c3.87-1.54,14.46-4.41,29,2.36a4.61,4.61,0,0,0,5.94-1.84l21.55-36.3a4.63,4.63,0,0,0-2.06-6.59c-14.73-6.64-25.77-4-30.22-2.39-.69-4.68-3.69-15.63-16.57-25.38a4.61,4.61,0,0,0-3.66-.85,4.71,4.71,0,0,0-3.11,2.19L632.94,615.2A4.62,4.62,0,0,0,634.17,621.29Zm1.39-4.54,21.55-36.3a1.59,1.59,0,0,1,1.07-.75,1.53,1.53,0,0,1,1.24.28c13.35,10.1,15.26,21.35,15.53,24.56l-5.07,12.59,7.92-10.9h0c3-1.3,13.74-5,29,1.87a1.55,1.55,0,0,1,.84.95,1.6,1.6,0,0,1-.15,1.3l-21.55,36.31a1.59,1.59,0,0,1-2,.63,47.75,47.75,0,0,0-15.37-4.38A35.16,35.16,0,0,0,655,644l3.46-7.93-5.87,6.13c-1.33-5.59-5.22-15-16.63-23.38A1.58,1.58,0,0,1,635.56,616.75Z"/></g><g class="cls-9"><path class="cls-10" d="M19.18,84.12-14.36,11.88A7.74,7.74,0,0,0-19.1,7.77a7.65,7.65,0,0,0-6.16.78c-13.11,8-29.56,22.14-34.18,44.42-20-10.85-41.43-7.41-56-2.55A7.6,7.6,0,0,0-120,54.63a7.67,7.67,0,0,0,.09,6.26l33.53,72.23a7.6,7.6,0,0,0,9.42,4c20.18-7,38.43-6.39,54.24,1.86a3.74,3.74,0,0,0,1.71.43,3.65,3.65,0,0,0,1.55-.35,3.65,3.65,0,0,0,2-2.54c3.91-17.4,15.2-31.74,33.57-42.63A7.65,7.65,0,0,0,19.18,84.12ZM14.25,90.9c-18.06,10.73-29.51,24.78-34.39,41.77l-6.66-10.58,3,12.55a62.69,62.69,0,0,0-26.65-5.89,84.35,84.35,0,0,0-27.59,5,4.22,4.22,0,0,1-5.14-2.11l-33.54-72.24a4.14,4.14,0,0,1,0-3.36,4,4,0,0,1,2.44-2.24c12.89-4.3,31.05-8.07,48.75-.3,3,1.34,5.44,1.91,7.37,3.53l2.3,2.46-.34-3c-.46-2.22.68-4.9,1.64-8,5.65-18.08,19.73-29.94,31.17-36.91h0a4,4,0,0,1,3.28-.42,4.1,4.1,0,0,1,2.54,2.21L16,85.61A4.13,4.13,0,0,1,14.25,90.9Z"/><path class="cls-10" d="M109.35,104.45c.14,0,14.19,1.58,23.86,13.25a1,1,0,0,0,.74.37,1.07,1.07,0,0,0,.7-.23,1,1,0,0,0,.13-1.44,40.8,40.8,0,0,0-25.22-14,1,1,0,0,0-1.12.91A1,1,0,0,0,109.35,104.45Z"/><path class="cls-10" d="M109.14,112.81a1,1,0,0,0-1.12.91,1,1,0,0,0,.91,1.12c.14,0,14.19,1.58,23.86,13.25a1,1,0,0,0,.74.37,1.07,1.07,0,0,0,.7-.23,1,1,0,0,0,.13-1.44A40.8,40.8,0,0,0,109.14,112.81Z"/><path class="cls-10" d="M108.71,123.2a1.05,1.05,0,0,0-1.11.91,1,1,0,0,0,.91,1.12c.14,0,14.19,1.59,23.86,13.25a1,1,0,0,0,.74.37,1,1,0,0,0,.69-.23,1,1,0,0,0,.14-1.44A40.79,40.79,0,0,0,108.71,123.2Z"/><path class="cls-10" d="M108.29,133.59a1,1,0,0,0-1.11.91,1,1,0,0,0,.91,1.12c.14,0,14.18,1.59,23.86,13.26a1,1,0,0,0,1.43.13,1,1,0,0,0,.14-1.43A40.8,40.8,0,0,0,108.29,133.59Z"/><path class="cls-10" d="M168.55,107.45c-.14,0-14.28,0-25.16,10.6a1,1,0,0,1-.77.29A1,1,0,0,1,142,118a1,1,0,0,1,0-1.44,40.89,40.89,0,0,1,26.59-11.18,1.05,1.05,0,0,1,1,1A1,1,0,0,1,168.55,107.45Z"/><path class="cls-10" d="M167.86,115.79a1,1,0,0,1,1,1,1,1,0,0,1-1,1c-.14,0-14.27,0-25.15,10.6a1.06,1.06,0,0,1-.78.29,1,1,0,0,1-.64-1.75A40.82,40.82,0,0,1,167.86,115.79Z"/><path class="cls-10" d="M167.15,126.17a1.06,1.06,0,0,1,1,1,1,1,0,0,1-1,1c-.14,0-14.28,0-25.15,10.6a1,1,0,0,1-.78.28,1,1,0,0,1-.66-.31,1,1,0,0,1,0-1.44A40.76,40.76,0,0,1,167.15,126.17Z"/><path class="cls-10" d="M166.45,136.54a1.05,1.05,0,0,1,1,1,1,1,0,0,1-1,1c-.14,0-14.28,0-25.16,10.6a1,1,0,0,1-.77.29,1,1,0,0,1-.67-.31,1,1,0,0,1,0-1.44A40.89,40.89,0,0,1,166.45,136.54Z"/><path class="cls-10" d="M195.39,158.38l3.23-79.58a7.64,7.64,0,0,0-8.17-7.94C175.14,72,154,77,139.74,94.71c-12.82-18.8-33.45-25.55-48.62-27.88a7.6,7.6,0,0,0-6,1.65,7.68,7.68,0,0,0-2.79,5.6l-3.23,79.58a7.61,7.61,0,0,0,6.54,7.88c21.15,3,37.09,11.9,47.38,26.47a3.66,3.66,0,0,0,1.32,1.16,3.7,3.7,0,0,0,1.54.4,3.66,3.66,0,0,0,3-1.32c11.43-13.68,28-21.27,49.35-22.55A7.65,7.65,0,0,0,195.39,158.38Zm-7.48,3.78c-21,1.27-37.58,8.52-49.7,21.4l-1.08-12.45-3,12.54a62.63,62.63,0,0,0-21-17.43A84.12,84.12,0,0,0,86.27,158a4.25,4.25,0,0,1-3.61-4.24l3.23-79.57a4.1,4.1,0,0,1,1.5-3,4,4,0,0,1,3.19-.88c13.43,2.07,31.3,7,43.49,22,2.1,2.58,4,4.19,4.93,6.51l.93,3.24L141,99.3c.6-2.19,2.84-4,5.1-6.34,13.3-13.49,31.25-17.6,44.61-18.56h0a4,4,0,0,1,3.11,1.14,4.14,4.14,0,0,1,1.25,3.12l-3.23,79.57A4.14,4.14,0,0,1,187.91,162.16Z"/><path class="cls-10" d="M175.34,146.76l2-49.15A5.39,5.39,0,0,0,171.57,92c-18.77,1.35-28.65,10.15-32.3,14.28-3.31-4.42-12.43-14-31.05-16.85A5.38,5.38,0,0,0,104,90.59a5.44,5.44,0,0,0-2,4l-2,49.15a5.39,5.39,0,0,0,4.63,5.57c18.53,2.63,27.05,12.15,29.86,16.11a3,3,0,0,0,1.06.93,3.08,3.08,0,0,0,1.24.32,2.92,2.92,0,0,0,2.38-1.06c3.11-3.73,12.38-12.52,31.06-13.64A5.38,5.38,0,0,0,175.34,146.76Zm-5.29,1.62c-16.49,1-26.24,7.67-31.08,12.28L137.12,151l-1.65,10A41.21,41.21,0,0,0,123,151.22a55.69,55.69,0,0,0-17.79-5.47,1.84,1.84,0,0,1-1.58-1.9l2-49.15a1.9,1.9,0,0,1,.68-1.37,1.81,1.81,0,0,1,1.43-.4c19.27,3,27.46,13.44,29.52,16.58h0l.81,15.67,3-15.52c2.3-3,11.32-12.74,30.77-14.13a1.77,1.77,0,0,1,1.39.51,1.85,1.85,0,0,1,.56,1.41l-2,49.15A1.84,1.84,0,0,1,170.05,148.38Z"/><path class="cls-11" d="M49.77-4.07A27.93,27.93,0,0,1,63.9,9.05a.69.69,0,0,0,.45.37.7.7,0,0,0,.51,0,.72.72,0,0,0,.34-1,28.81,28.81,0,0,0-15-13.84.74.74,0,0,0-.92.43A.72.72,0,0,0,49.77-4.07Z"/><path class="cls-11" d="M48.21,1.63a.74.74,0,0,0-.92.44.72.72,0,0,0,.44.92A27.88,27.88,0,0,1,61.86,16.1a.68.68,0,0,0,.45.38.7.7,0,0,0,.51,0,.73.73,0,0,0,.34-1A28.9,28.9,0,0,0,48.21,1.63Z"/><path class="cls-11" d="M46.17,8.69a.74.74,0,0,0-.92.44.72.72,0,0,0,.44.92A27.88,27.88,0,0,1,59.82,23.16a.74.74,0,0,0,.45.38.66.66,0,0,0,.51-.05.72.72,0,0,0,.34-1A28.86,28.86,0,0,0,46.17,8.69Z"/><path class="cls-11" d="M44.13,15.75a.75.75,0,0,0-.92.43.73.73,0,0,0,.44.93A27.83,27.83,0,0,1,57.78,30.22a.74.74,0,0,0,.45.38.76.76,0,0,0,.51-.05.71.71,0,0,0,.33-1A28.77,28.77,0,0,0,44.13,15.75Z"/><path class="cls-11" d="M89.86,8a28,28,0,0,0-19,3,.71.71,0,0,1-1-.25.72.72,0,0,1,.26-1A28.9,28.9,0,0,1,90.22,6.57a.75.75,0,0,1,.52.88A.73.73,0,0,1,89.86,8Z"/><path class="cls-11" d="M88,13.57a.75.75,0,0,1,.52.88.73.73,0,0,1-.88.52,28,28,0,0,0-19,3,.71.71,0,0,1-1-.25.72.72,0,0,1,.26-1A28.9,28.9,0,0,1,88,13.57Z"/><path class="cls-11" d="M85.76,20.57a.76.76,0,0,1,.52.88.73.73,0,0,1-.88.52,27.82,27.82,0,0,0-19,3,.7.7,0,0,1-.58.07.76.76,0,0,1-.4-.33.71.71,0,0,1,.26-1A28.84,28.84,0,0,1,85.76,20.57Z"/><path class="cls-11" d="M83.53,27.57a.76.76,0,0,1,.52.88.73.73,0,0,1-.88.52,27.82,27.82,0,0,0-19,3,.7.7,0,0,1-.58.07.76.76,0,0,1-.4-.33.71.71,0,0,1,.26-1A28.84,28.84,0,0,1,83.53,27.57Z"/><path class="cls-11" d="M99.7,47.42l15.62-54A5.41,5.41,0,0,0,114.7-11a5.33,5.33,0,0,0-3.64-2.44c-10.69-1.83-26-1.92-38.81,7.82C66.62-20.68,53.61-28.78,43.6-32.94a5.38,5.38,0,0,0-4.39.12,5.44,5.44,0,0,0-2.86,3.38l-15.62,54a5.37,5.37,0,0,0,3.16,6.51c14,5.62,23.44,14.42,28,26.14a2.54,2.54,0,0,0,.71,1,2.59,2.59,0,0,0,3.25.13C66,50.93,78.71,48.52,93.55,51.24A5.4,5.4,0,0,0,99.7,47.42Zm-5.77,1.34c-14.6-2.66-27.22-.49-37.7,6.31l1.36-8.73-4.2,8.09A44.3,44.3,0,0,0,41.92,38.94a59.31,59.31,0,0,0-17-10.13,3,3,0,0,1-1.76-3.52l15.63-54a2.9,2.9,0,0,1,1.53-1.81,2.81,2.81,0,0,1,2.34-.06c8.86,3.68,20.28,10.1,26.11,22.44,1,2.13,2,3.54,2.29,5.3L71.13-.5l1.21-1.77c.79-1.4,2.63-2.29,4.57-3.48,11.39-7,24.4-6.81,33.72-5.22h0a2.87,2.87,0,0,1,1.94,1.3,2.93,2.93,0,0,1,.33,2.36l-15.62,54A2.93,2.93,0,0,1,93.93,48.76Z"/><path class="cls-11" d="M87.9,36.07,97.55,2.7a3.88,3.88,0,0,0-.43-3.1,3.83,3.83,0,0,0-2.57-1.72C81.44-4.36,73.18,0,70,2.23,68.46-1.36,63.81-9.46,51.52-14.56a3.79,3.79,0,0,0-3.09.09,3.86,3.86,0,0,0-2,2.38L36.77,21.29A3.79,3.79,0,0,0,39,25.89C51.27,30.82,55.51,38.78,56.77,42a2.21,2.21,0,0,0,.57.81,2.14,2.14,0,0,0,.8.43A2.06,2.06,0,0,0,60,42.89c2.76-2,10.6-6.5,23.6-4.12A3.8,3.8,0,0,0,87.9,36.07ZM84,36.3c-11.48-2.1-19.29.84-23.39,3.19l.37-7-2.81,6.55a29.12,29.12,0,0,0-7-8.75,39.6,39.6,0,0,0-11.28-6.75A1.29,1.29,0,0,1,39.18,22l9.65-33.38a1.28,1.28,0,0,1,.69-.82,1.26,1.26,0,0,1,1,0C63.28-7,67.14,1.6,68,4.1h0L65.94,15l4.7-10.13C72.72,3.22,80.55-2,94.12.35A1.28,1.28,0,0,1,95,.93,1.34,1.34,0,0,1,95.14,2L85.49,35.38A1.31,1.31,0,0,1,84,36.3Z"/><path class="cls-10" d="M189.34-3.85a.62.62,0,0,0-.66.52.6.6,0,0,0,.52.66A23,23,0,0,1,203,5.23a.57.57,0,0,0,.43.22.6.6,0,0,0,.4-.13.59.59,0,0,0,.09-.84A23.78,23.78,0,0,0,189.34-3.85Z"/><path class="cls-10" d="M189,2.21a.61.61,0,0,0-.66.52.6.6,0,0,0,.52.66,23,23,0,0,1,13.84,7.9.59.59,0,0,0,.43.22.54.54,0,0,0,.4-.13.59.59,0,0,0,.09-.84A23.84,23.84,0,0,0,189,2.21Z"/><path class="cls-10" d="M223.42-1.72a.63.63,0,0,1,.59.61.59.59,0,0,1-.61.58,23,23,0,0,0-14.75,6,.62.62,0,0,1-.46.16.58.58,0,0,1-.38-.19.59.59,0,0,1,0-.84A23.88,23.88,0,0,1,223.42-1.72Z"/><path class="cls-10" d="M222.94,4.34a.6.6,0,0,1,.58.6.58.58,0,0,1-.6.58,23.08,23.08,0,0,0-14.76,6,.58.58,0,0,1-.45.16.63.63,0,0,1-.39-.19.6.6,0,0,1,0-.84A23.75,23.75,0,0,1,222.94,4.34Z"/><path class="cls-10" d="M239.68,17.28l2.44-46.42a4.52,4.52,0,0,0-1.32-3.41,4.44,4.44,0,0,0-3.39-1.28c-8.95.53-21.3,3.34-29.77,13.57-7.35-11.07-19.34-15.15-28.18-16.62A4.42,4.42,0,0,0,176-36a4.49,4.49,0,0,0-1.67,3.26l-2.44,46.41a4.44,4.44,0,0,0,3.76,4.65c12.32,1.9,21.56,7.21,27.47,15.78a2.18,2.18,0,0,0,.76.69,2.27,2.27,0,0,0,.9.24,2.15,2.15,0,0,0,1.74-.75c6.77-7.91,16.51-12.22,29-12.82A4.46,4.46,0,0,0,239.68,17.28Zm-4.39,2.15c-12.25.6-22,4.72-29.16,12.15l-.54-7.28-1.87,7.3a36.63,36.63,0,0,0-12.13-10.32,49.38,49.38,0,0,0-15.59-5,2.48,2.48,0,0,1-2.08-2.5l2.44-46.41a2.4,2.4,0,0,1,.9-1.75,2.32,2.32,0,0,1,1.86-.49c7.83,1.3,18.22,4.32,25.23,13.16,1.21,1.53,2.28,2.48,2.84,3.84l.51,1.9.64-1.65c.38-1.27,1.69-2.34,3-3.66,7.85-7.78,18.36-10,26.16-10.52h0a2.34,2.34,0,0,1,1.81.68,2.45,2.45,0,0,1,.71,1.83l-2.44,46.42A2.42,2.42,0,0,1,235.29,19.43Z"/><path class="cls-10" d="M228.06,10.36l1.5-28.67a3.14,3.14,0,0,0-.93-2.41,3.13,3.13,0,0,0-2.39-.91c-11,.66-16.79,5.72-19,8.11-1.9-2.61-7.16-8.25-18-10a3.1,3.1,0,0,0-2.47.65,3.14,3.14,0,0,0-1.18,2.3L184.13,8.05a3.15,3.15,0,0,0,2.67,3.28c10.79,1.67,15.7,7.28,17.31,9.61a1.69,1.69,0,0,0,.61.55,1.76,1.76,0,0,0,.72.2,1.7,1.7,0,0,0,1.4-.6c1.84-2.16,7.31-7.22,18.22-7.75A3.15,3.15,0,0,0,228.06,10.36Zm-3.1.91c-9.63.46-15.37,4.29-18.23,7l-1-5.68-1,5.79a23.93,23.93,0,0,0-7.23-5.73,32.46,32.46,0,0,0-10.35-3.32,1.09,1.09,0,0,1-.91-1.12l1.51-28.67a1,1,0,0,1,.41-.79,1,1,0,0,1,.83-.23c11.22,1.87,15.93,8,17.11,9.89h0l.37,9.15,1.88-9c1.37-1.72,6.69-7.36,18.05-8a1,1,0,0,1,.81.31,1,1,0,0,1,.32.83L226,10.25A1.08,1.08,0,0,1,225,11.27Z"/><path class="cls-11" d="M-4.49,182.68a25.94,25.94,0,0,1,17.82,1.62.68.68,0,0,0,.54,0,.63.63,0,0,0,.35-.33.66.66,0,0,0-.3-.89,26.78,26.78,0,0,0-18.82-1.7.68.68,0,0,0-.43.84A.65.65,0,0,0-4.49,182.68Z"/><path class="cls-11" d="M-2.4,187.75a.7.7,0,0,0-.43.85A.66.66,0,0,0-2,189a25.94,25.94,0,0,1,17.82,1.62.66.66,0,0,0,.9-.3.66.66,0,0,0-.3-.89A26.81,26.81,0,0,0-2.4,187.75Z"/><path class="cls-11" d="M.1,194.09a.7.7,0,0,0-.43.85.67.67,0,0,0,.85.42A25.9,25.9,0,0,1,18.33,197a.71.71,0,0,0,.55,0,.7.7,0,0,0,.35-.33.66.66,0,0,0-.3-.89A26.81,26.81,0,0,0,.1,194.09Z"/><path class="cls-11" d="M2.61,200.43a.7.7,0,0,0-.43.85.67.67,0,0,0,.84.43,25.83,25.83,0,0,1,17.82,1.61.68.68,0,0,0,.54,0,.63.63,0,0,0,.35-.33.66.66,0,0,0-.3-.89A26.78,26.78,0,0,0,2.61,200.43Z"/><path class="cls-11" d="M31.79,168.79a25.93,25.93,0,0,0-12.27,13,.61.61,0,0,1-.39.38.59.59,0,0,1-.47,0,.66.66,0,0,1-.37-.87,26.76,26.76,0,0,1,13-13.75.69.69,0,0,1,.88.35A.68.68,0,0,1,31.79,168.79Z"/><path class="cls-11" d="M33.59,174a.67.67,0,0,1,.53,1.23,25.88,25.88,0,0,0-12.27,13,.64.64,0,0,1-.39.38.72.72,0,0,1-.48,0,.67.67,0,0,1-.36-.87A26.76,26.76,0,0,1,33.59,174Z"/><path class="cls-11" d="M35.92,180.38a.68.68,0,0,1,.88.34.68.68,0,0,1-.35.88,25.93,25.93,0,0,0-12.27,13,.67.67,0,0,1-.87.36.65.65,0,0,1-.36-.86A26.71,26.71,0,0,1,35.92,180.38Z"/><path class="cls-11" d="M38.25,186.78a.7.7,0,0,1,.88.35.68.68,0,0,1-.35.88,25.89,25.89,0,0,0-12.27,13,.66.66,0,1,1-1.23-.5A26.76,26.76,0,0,1,38.25,186.78Z"/><path class="cls-11" d="M61.38,192.2,42.22,143.64a5.07,5.07,0,0,0-2.94-2.87,5,5,0,0,0-4.06.27c-8.89,4.73-20.2,13.35-24.07,27.75-12.68-7.87-26.83-6.44-36.54-3.82a5,5,0,0,0-3.15,2.58,5,5,0,0,0-.19,4.1L-9.57,220.2a5,5,0,0,0,6,3c13.47-3.81,25.39-2.7,35.42,3.3a2.34,2.34,0,0,0,1.1.35,2.43,2.43,0,0,0,1-.17,2.4,2.4,0,0,0,1.43-1.58c3.23-11.23,11.17-20.18,23.61-26.6A5,5,0,0,0,61.38,192.2Zm-3.48,4.25c-12.23,6.32-20.26,15.07-24.11,26l-3.95-7.18,1.5,8.33a41.11,41.11,0,0,0-17.21-4.88,55.13,55.13,0,0,0-18.24,2.21,2.79,2.79,0,0,1-3.29-1.59l-19.16-48.55a2.68,2.68,0,0,1,.1-2.2,2.6,2.6,0,0,1,1.68-1.37c8.6-2.32,20.63-4.09,31.91,1.68,1.94,1,3.48,1.46,4.68,2.59l1.42,1.7-.12-2c-.21-1.48.64-3.18,1.38-5.15,4.4-11.62,14.07-18.84,21.82-23h0a2.61,2.61,0,0,1,2.17-.14,2.68,2.68,0,0,1,1.57,1.54l19.17,48.55A2.73,2.73,0,0,1,57.9,196.45Z"/><path class="cls-11" d="M46.28,190.55l-11.83-30a3.54,3.54,0,0,0-4.94-1.84C18.61,164.51,15,172.4,13.93,175.85c-3.16-1.78-11.16-5.09-23.08-1.87a3.53,3.53,0,0,0-2.22,1.81,3.58,3.58,0,0,0-.13,2.9l11.84,30a3.53,3.53,0,0,0,4.25,2.11c11.81-3.34,19.44.11,22.17,1.74a1.9,1.9,0,0,0,.88.28,2,2,0,0,0,.83-.14,1.89,1.89,0,0,0,1.14-1.26c.88-3.07,4.11-10.79,15-16.42A3.52,3.52,0,0,0,46.28,190.55Zm-2.73,2.37c-9.63,5-13.7,11.56-15.38,15.61l-3.68-5.34,1.65,6.4a27.13,27.13,0,0,0-10.07-2.48A36.54,36.54,0,0,0,4,208.55a1.21,1.21,0,0,1-1.46-.72l-11.83-30a1.2,1.2,0,0,1,0-1,1.19,1.19,0,0,1,.75-.62c12.34-3.33,20,.78,22.09,2.12h0l4.65,9.17-2.29-10.1c.59-2.39,3.4-10.64,14.69-16.63a1.19,1.19,0,0,1,1.68.63l11.84,30A1.21,1.21,0,0,1,43.55,192.92Z"/><path class="cls-10" d="M336.12-4A23.9,23.9,0,0,1,352,.44a.66.66,0,0,0,.49.11.6.6,0,0,0,.37-.24.61.61,0,0,0-.12-.86A24.7,24.7,0,0,0,336-5.22a.62.62,0,0,0-.52.69A.61.61,0,0,0,336.12-4Z"/><path class="cls-10" d="M337.17,1a.64.64,0,0,0-.53.69.62.62,0,0,0,.69.53,23.92,23.92,0,0,1,15.91,4.44.6.6,0,0,0,.48.11.63.63,0,0,0,.38-.24.61.61,0,0,0-.13-.86A24.67,24.67,0,0,0,337.17,1Z"/><path class="cls-10" d="M338.39,7.12a.64.64,0,0,0-.53.69.61.61,0,0,0,.69.53,23.89,23.89,0,0,1,15.9,4.44.63.63,0,0,0,.49.11.62.62,0,0,0,.25-1.1A24.68,24.68,0,0,0,338.39,7.12Z"/><path class="cls-10" d="M339.6,13.29a.65.65,0,0,0-.53.69.62.62,0,0,0,.7.53A23.91,23.91,0,0,1,355.67,19a.61.61,0,0,0,.49.11.6.6,0,0,0,.37-.24.62.62,0,0,0-.12-.86A24.7,24.7,0,0,0,339.6,13.29Z"/><path class="cls-10" d="M372.12-5.57a.62.62,0,0,1,.74.46.61.61,0,0,1-.46.74,23.85,23.85,0,0,0-13.29,9.78.66.66,0,0,1-.42.28.69.69,0,0,1-.44-.09.62.62,0,0,1-.19-.85A24.7,24.7,0,0,1,372.12-5.57Z"/><path class="cls-10" d="M373.17.63a.63.63,0,0,1,.74.46.62.62,0,0,1-.46.74,23.89,23.89,0,0,0-13.3,9.78.62.62,0,0,1-.41.28.63.63,0,0,1-.44-.09.62.62,0,0,1-.19-.85A24.67,24.67,0,0,1,373.17.63Z"/><path class="cls-10" d="M374.22,6.83a.64.64,0,0,1,.74.46.61.61,0,0,1-.46.74,23.89,23.89,0,0,0-13.3,9.78.61.61,0,0,1-.42.28.62.62,0,0,1-.62-.94A24.72,24.72,0,0,1,374.22,6.83Z"/><path class="cls-10" d="M394.32,15.6,385-31.66a4.63,4.63,0,0,0-2.18-3.09,4.63,4.63,0,0,0-3.74-.43c-8.85,2.81-20.55,8.75-26.46,21.18-10.19-9.26-23.27-10.32-32.52-9.55a4.56,4.56,0,0,0-3.29,1.81A4.6,4.6,0,0,0,316-18l9.31,47.25a4.6,4.6,0,0,0,5,3.72c12.86-1.22,23.5,1.77,31.6,8.89a2.32,2.32,0,0,0,.94.5,2.39,2.39,0,0,0,1,0,2.22,2.22,0,0,0,1.56-1.2c4.8-9.66,13.5-16.46,25.85-20.22A4.62,4.62,0,0,0,394.32,15.6Zm-3.87,3.27c-12.15,3.71-20.9,10.31-26.21,19.59l-2.39-7.17,0,7.81A37.85,37.85,0,0,0,347,31.8a51.08,51.08,0,0,0-16.92-1,2.55,2.55,0,0,1-2.72-2l-9.31-47.25a2.48,2.48,0,0,1,.45-2,2.41,2.41,0,0,1,1.75-1c8.2-.68,19.41-.28,28.68,6.83,1.6,1.23,2.92,1.91,3.83,3.14l1,1.77.22-1.82c.05-1.37,1.11-2.78,2.11-4.44,5.92-9.81,15.9-14.75,23.62-17.2h0a2.44,2.44,0,0,1,2,.23,2.45,2.45,0,0,1,1.17,1.66L392.21,16A2.5,2.5,0,0,1,390.45,18.87Z"/><path class="cls-10" d="M380.89,11.59,375.14-17.6a3.32,3.32,0,0,0-1.55-2.19,3.31,3.31,0,0,0-2.63-.3c-10.86,3.44-15.43,10-17,13-2.57-2.14-9.28-6.48-20.63-5.54A3.29,3.29,0,0,0,331-11.4a3.3,3.3,0,0,0-.6,2.61l5.75,29.19A3.26,3.26,0,0,0,339.68,23C351,22,357.3,26.35,359.51,28.29a1.86,1.86,0,0,0,.76.4,1.82,1.82,0,0,0,.77,0,1.78,1.78,0,0,0,1.25-1c1.31-2.63,5.52-9.1,16.34-12.4A3.25,3.25,0,0,0,380.89,11.59ZM378,13.29c-9.56,2.9-14.35,8.2-16.55,11.6L359,19.44l.44,6.08a25,25,0,0,0-8.73-3.93,33.66,33.66,0,0,0-11.23-.71,1.12,1.12,0,0,1-1.2-.9L332.53-9.2a1.12,1.12,0,0,1,.21-.9,1.11,1.11,0,0,1,.78-.44c11.75-1,18,4,19.69,5.6h0l2.68,9.1-.39-9.55c.93-2.07,4.85-9.09,16.1-12.65a1.11,1.11,0,0,1,.89.1,1.16,1.16,0,0,1,.53.76L378.78,12A1.12,1.12,0,0,1,378,13.29Z"/><path class="cls-11" d="M250.56,101.17a33.9,33.9,0,0,1,23.38-1.62.85.85,0,0,0,.7-.08A.9.9,0,0,0,275,99a.87.87,0,0,0-.57-1.09,35.08,35.08,0,0,0-24.7,1.73.9.9,0,0,0-.37,1.18A.87.87,0,0,0,250.56,101.17Z"/><path class="cls-11" d="M254.32,107.29a.89.89,0,0,0-.38,1.18.87.87,0,0,0,1.18.37,33.89,33.89,0,0,1,23.37-1.61.92.92,0,0,0,.71-.09.84.84,0,0,0,.39-.49.87.87,0,0,0-.58-1.09A35,35,0,0,0,254.32,107.29Z"/><path class="cls-11" d="M258.88,115a.91.91,0,0,0-.38,1.18.88.88,0,0,0,1.18.38,33.93,33.93,0,0,1,23.37-1.62.88.88,0,0,0,.71-.08.89.89,0,0,0,.38-.49.87.87,0,0,0-.57-1.1A35,35,0,0,0,258.88,115Z"/><path class="cls-11" d="M263.43,122.64a.9.9,0,0,0-.37,1.18.87.87,0,0,0,1.17.38,33.81,33.81,0,0,1,23.37-1.62.87.87,0,0,0,.71-.09.84.84,0,0,0,.39-.49.87.87,0,0,0-.57-1.09A35,35,0,0,0,263.43,122.64Z"/><path class="cls-11" d="M294.57,75.65A33.86,33.86,0,0,0,281.43,95a.9.9,0,0,1-.43.57.88.88,0,0,1-.62.09.89.89,0,0,1-.66-1,35,35,0,0,1,13.91-20.47.89.89,0,0,1,1.21.26A.87.87,0,0,1,294.57,75.65Z"/><path class="cls-11" d="M298,82a.89.89,0,0,1,1.2.27.86.86,0,0,1-.26,1.2,34,34,0,0,0-13.15,19.4.85.85,0,0,1-.42.57.87.87,0,0,1-1.28-1A35,35,0,0,1,298,82Z"/><path class="cls-11" d="M302.32,89.77a.91.91,0,0,1,1.21.26.88.88,0,0,1-.26,1.21,33.85,33.85,0,0,0-13.15,19.39.85.85,0,0,1-.43.57.83.83,0,0,1-.62.09.86.86,0,0,1-.65-1A35,35,0,0,1,302.32,89.77Z"/><path class="cls-11" d="M306.67,97.56a.9.9,0,0,1,1.21.27.87.87,0,0,1-.27,1.21,33.86,33.86,0,0,0-13.14,19.39.9.9,0,0,1-.43.57.87.87,0,0,1-1.28-1A35.11,35.11,0,0,1,306.67,97.56Z"/><path class="cls-11" d="M337.71,99.74,302.82,41a6.6,6.6,0,0,0-4.4-3.1,6.53,6.53,0,0,0-5.2,1.2c-10.5,8-23.33,21.46-25.34,40.88-18-7.53-36-2.74-48,2.67a6.52,6.52,0,0,0-3.54,4,6.59,6.59,0,0,0,.62,5.34l34.89,58.78a6.52,6.52,0,0,0,8.39,2.61c16.62-7.73,32.26-8.78,46.48-3.1a3.18,3.18,0,0,0,1.49.21,3.12,3.12,0,0,0,1.3-.43,3.16,3.16,0,0,0,1.52-2.34c1.83-15.2,10.23-28.42,25-39.31A6.57,6.57,0,0,0,337.71,99.74ZM334.09,106c-14.5,10.73-23.06,23.71-25.76,38.65l-6.6-8.46,3.68,10.46a53.71,53.71,0,0,0-23.27-2.73A72.52,72.52,0,0,0,259,150.53a3.63,3.63,0,0,1-4.58-1.36L219.55,90.39a3.54,3.54,0,0,1-.33-2.86,3.43,3.43,0,0,1,1.88-2.13c10.64-4.79,25.82-9.58,41.61-4.47,2.72.87,4.81,1.16,6.6,2.37l2.18,1.9-.56-2.54c-.59-1.86.16-4.24.71-6.94,3.26-15.93,14.26-27.28,23.42-34.22h0a3.41,3.41,0,0,1,2.76-.64,3.52,3.52,0,0,1,2.36,1.66l34.89,58.78A3.54,3.54,0,0,1,334.09,106Z"/><path class="cls-11" d="M317.84,100.76,296.29,64.45a4.7,4.7,0,0,0-3.1-2.19,4.62,4.62,0,0,0-3.67.85c-12.88,9.75-15.88,20.7-16.57,25.38-4.45-1.64-15.49-4.25-30.22,2.39a4.59,4.59,0,0,0-2.49,2.82,4.66,4.66,0,0,0,.43,3.77l21.55,36.3a4.61,4.61,0,0,0,5.94,1.84c14.57-6.77,25.15-3.9,29-2.36a2.62,2.62,0,0,0,1.2.17,2.47,2.47,0,0,0,1-.35,2.5,2.5,0,0,0,1.22-1.87c.5-4.14,3.05-14.8,16-24.35A4.62,4.62,0,0,0,317.84,100.76Zm-3,3.64c-11.41,8.43-15.3,17.79-16.63,23.38l-5.87-6.13,3.46,7.93a35.16,35.16,0,0,0-13.52-1.11,47.75,47.75,0,0,0-15.37,4.38,1.59,1.59,0,0,1-2-.63L243.29,95.91a1.6,1.6,0,0,1-.15-1.3,1.55,1.55,0,0,1,.84-1c15.26-6.88,26-3.17,29-1.87h0l7.92,10.9L275.83,90.1c.27-3.21,2.19-14.46,15.53-24.56a1.53,1.53,0,0,1,1.24-.28,1.59,1.59,0,0,1,1.07.75l21.55,36.3A1.58,1.58,0,0,1,314.8,104.4Z"/></g><g class="cls-9"><path class="cls-11" d="M839.19,112.83c-.14,0-14.18,1.59-23.86,13.26a1,1,0,0,1-.74.37,1.06,1.06,0,0,1-.69-.24,1,1,0,0,1-.14-1.43,40.91,40.91,0,0,1,25.23-14,1,1,0,0,1,1.11.91A1,1,0,0,1,839.19,112.83Z"/><path class="cls-11" d="M839.41,121.19a1.06,1.06,0,0,1,1.12.92,1,1,0,0,1-.91,1.11c-.15,0-14.19,1.59-23.87,13.26a1,1,0,1,1-1.56-1.3A40.88,40.88,0,0,1,839.41,121.19Z"/><path class="cls-11" d="M839.83,131.59a1.06,1.06,0,0,1,1.12.91,1,1,0,0,1-.91,1.11c-.14,0-14.19,1.59-23.86,13.26a1,1,0,0,1-.75.37,1,1,0,0,1-.82-1.67A40.78,40.78,0,0,1,839.83,131.59Z"/><path class="cls-11" d="M840.25,142a1.06,1.06,0,0,1,1.12.91,1,1,0,0,1-.91,1.12c-.14,0-14.19,1.58-23.86,13.25a1,1,0,0,1-.75.37,1,1,0,0,1-.69-.23A1,1,0,0,1,815,156,40.78,40.78,0,0,1,840.25,142Z"/><path class="cls-11" d="M780,115.84c.14,0,14.27,0,25.15,10.6a1.06,1.06,0,0,0,.78.29,1,1,0,0,0,.64-1.75A40.76,40.76,0,0,0,780,113.8a1,1,0,0,0-1,1A1,1,0,0,0,780,115.84Z"/><path class="cls-11" d="M780.69,124.18a1,1,0,0,0-1,1,1,1,0,0,0,1,1c.14,0,14.28.05,25.15,10.61a1,1,0,0,0,.78.28,1.07,1.07,0,0,0,.67-.31,1,1,0,0,0,0-1.44A40.76,40.76,0,0,0,780.69,124.18Z"/><path class="cls-11" d="M781.39,134.55a1.06,1.06,0,0,0-1,1,1,1,0,0,0,1,1c.15,0,14.28,0,25.16,10.6a1,1,0,0,0,.78.29,1,1,0,0,0,.64-1.75A40.83,40.83,0,0,0,781.39,134.55Z"/><path class="cls-11" d="M782.09,144.93a1,1,0,0,0-1,1,1,1,0,0,0,1,1c.14,0,14.27,0,25.15,10.6a1,1,0,0,0,1.44,0,1,1,0,0,0,0-1.44A40.76,40.76,0,0,0,782.09,144.93Z"/><path class="cls-11" d="M760.32,174.09c21.32,1.27,37.93,8.86,49.36,22.55a3.7,3.7,0,0,0,4.51.92,3.76,3.76,0,0,0,1.32-1.16c10.29-14.57,26.24-23.48,47.38-26.48a7.59,7.59,0,0,0,6.54-7.88L866.2,82.47a7.65,7.65,0,0,0-8.78-7.26c-15.16,2.34-35.79,9.08-48.61,27.89-14.3-17.7-35.41-22.76-50.72-23.86a7.64,7.64,0,0,0-8.16,8l3.22,79.57A7.66,7.66,0,0,0,760.32,174.09Zm-3.62-7.47L753.48,87a4.1,4.1,0,0,1,1.25-3.12,4,4,0,0,1,3.1-1.13h0c13.35,1,31.31,5.06,44.6,18.56,2.26,2.28,4.5,4.14,5.11,6.33l1.07,2.83.92-3.23c1-2.32,2.84-3.93,4.94-6.52,12.18-15,30-20,43.48-22a4,4,0,0,1,3.19.88,4.14,4.14,0,0,1,1.5,3l3.23,79.58a4.23,4.23,0,0,1-3.61,4.23,84.57,84.57,0,0,0-26.81,8.18,62.69,62.69,0,0,0-21,17.44l-3.05-12.55L810.33,192c-12.12-12.88-28.72-20.13-49.7-21.41A4.14,4.14,0,0,1,756.7,166.62Z"/><path class="cls-11" d="M778.28,160.31c18.68,1.13,27.94,9.92,31.06,13.65a2.94,2.94,0,0,0,2.38,1.06,2.85,2.85,0,0,0,1.23-.33,2.93,2.93,0,0,0,1.06-.92c2.81-4,11.33-13.48,29.86-16.12a5.36,5.36,0,0,0,4.63-5.56l-2-49.15a5.43,5.43,0,0,0-2-4,5.37,5.37,0,0,0-4.22-1.16c-18.61,2.86-27.74,12.42-31,16.85-3.65-4.14-13.53-12.93-32.31-14.28a5.39,5.39,0,0,0-4.12,1.5,5.45,5.45,0,0,0-1.64,4.11l2,49.15A5.39,5.39,0,0,0,778.28,160.31ZM776.75,155l-2-49.15a1.86,1.86,0,0,1,.57-1.42,1.83,1.83,0,0,1,1.39-.51c19.45,1.4,28.46,11.17,30.76,14.14l3,15.51.82-15.67h0c2-3.14,10.25-13.62,29.52-16.58a1.75,1.75,0,0,1,1.42.4,1.81,1.81,0,0,1,.68,1.36l2,49.15a1.83,1.83,0,0,1-1.58,1.9,55.94,55.94,0,0,0-17.79,5.48,41.21,41.21,0,0,0-12.51,9.67l-1.65-9.95-1.84,9.72c-4.85-4.62-14.6-11.29-31.09-12.28A1.85,1.85,0,0,1,776.75,155Z"/><path class="cls-11" d="M591.3,22.48c15.64-6.91,30.25-7.61,43.41-2.06a2.94,2.94,0,0,0,2.6-.15,3.11,3.11,0,0,0,1-.85,2.88,2.88,0,0,0,.51-1.31c2-14.15,10.06-26.34,24-36.24a6.07,6.07,0,0,0,1.76-8L633-81.59a6.11,6.11,0,0,0-4-3,6.07,6.07,0,0,0-4.87,1c-9.94,7.23-22.14,19.6-24.37,37.69-16.67-7.35-33.55-3.2-44.85,1.63a6.11,6.11,0,0,0-3.38,3.66,6.14,6.14,0,0,0,.48,5l31.5,55.46A6.12,6.12,0,0,0,591.3,22.48Zm-5.32-4L554.49-37a3.27,3.27,0,0,1-.26-2.68,3.19,3.19,0,0,1,1.8-2h0c9.86-4.22,24.14-7.88,38.56-3.16,2.45.8,4.72,1.3,6,2.63l1.8,1.63-.53-2.64c-.16-2,.58-3.84,1.12-6.45C606.11-64.73,617-74.82,625.8-81.23a3.21,3.21,0,0,1,2.6-.54,3.27,3.27,0,0,1,2.17,1.59l31.5,55.45a3.39,3.39,0,0,1-1,4.34A67.38,67.38,0,0,0,645-4.72a50.23,50.23,0,0,0-8.55,20.11l-6.77-7.81,3.8,9.26c-13.35-4.72-27.83-3.79-43.23,3A3.31,3.31,0,0,1,586,18.49Z"/><path class="cls-11" d="M599,6.09C612.74,0,622.56,2.89,626.14,4.4a2.34,2.34,0,0,0,2.09-.12A2.48,2.48,0,0,0,629,3.6a2.41,2.41,0,0,0,.41-1.05c.54-3.85,3.12-13.75,15.34-22.43A4.3,4.3,0,0,0,646-25.54L626.54-59.79a4.32,4.32,0,0,0-2.86-2.1,4.27,4.27,0,0,0-3.43.72c-12.2,8.86-15.18,19-15.91,23.39C600.22-39.39,590-42,576.1-36.09a4.33,4.33,0,0,0-2.38,2.58,4.36,4.36,0,0,0,.34,3.53L593.52,4.27A4.31,4.31,0,0,0,599,6.09Zm-3-3.23L576.54-31.39a1.45,1.45,0,0,1-.12-1.22,1.46,1.46,0,0,1,.8-.87c14.36-6.14,24.36-2.49,27.09-1.23l7.85,9.93L607-36.23h0c.31-3,2.3-13.46,14.93-22.64a1.45,1.45,0,0,1,1.16-.24,1.47,1.47,0,0,1,1,.72l19.46,34.26a1.46,1.46,0,0,1-.43,1.93,44.66,44.66,0,0,0-10.65,10.43A33,33,0,0,0,627.08-.3l-4.82-6.47L624.51.82C619.37-.69,610-1.86,597.88,3.49A1.48,1.48,0,0,1,596,2.86Z"/><path class="cls-10" d="M894.09-4.07A27.89,27.89,0,0,0,880,9.05a.69.69,0,0,1-.45.37.71.71,0,0,1-.84-1A28.8,28.8,0,0,1,893.6-5.42a.74.74,0,0,1,.92.43A.71.71,0,0,1,894.09-4.07Z"/><path class="cls-10" d="M895.64,1.63a.74.74,0,0,1,.92.44.71.71,0,0,1-.43.92A27.85,27.85,0,0,0,882,16.1a.68.68,0,0,1-.45.38.7.7,0,0,1-.51,0,.71.71,0,0,1-.33-1A28.9,28.9,0,0,1,895.64,1.63Z"/><path class="cls-10" d="M897.68,8.69a.74.74,0,0,1,.92.44.72.72,0,0,1-.43.92A27.85,27.85,0,0,0,884,23.16a.74.74,0,0,1-.45.38.66.66,0,0,1-.51-.05.71.71,0,0,1-.33-1A28.85,28.85,0,0,1,897.68,8.69Z"/><path class="cls-10" d="M899.72,15.75a.75.75,0,0,1,.92.43.73.73,0,0,1-.43.93,27.79,27.79,0,0,0-14.14,13.11.74.74,0,0,1-.45.38.76.76,0,0,1-.51-.05.71.71,0,0,1-.33-1A28.8,28.8,0,0,1,899.72,15.75Z"/><path class="cls-10" d="M854,8a28,28,0,0,1,19,3,.71.71,0,0,0,1-.25.72.72,0,0,0-.26-1,28.9,28.9,0,0,0-20.12-3.19.75.75,0,0,0-.52.88A.73.73,0,0,0,854,8Z"/><path class="cls-10" d="M855.87,13.57a.75.75,0,0,0-.53.88.73.73,0,0,0,.88.52,28,28,0,0,1,19,3,.71.71,0,0,0,1-.25.72.72,0,0,0-.26-1A28.88,28.88,0,0,0,855.87,13.57Z"/><path class="cls-10" d="M858.1,20.57a.75.75,0,0,0-.53.88.73.73,0,0,0,.88.52,27.81,27.81,0,0,1,19,3,.7.7,0,0,0,.58.07.76.76,0,0,0,.4-.33.72.72,0,0,0-.25-1A28.84,28.84,0,0,0,858.1,20.57Z"/><path class="cls-10" d="M860.33,27.57a.75.75,0,0,0-.53.88.73.73,0,0,0,.88.52,27.81,27.81,0,0,1,19,3,.7.7,0,0,0,.58.07.76.76,0,0,0,.4-.33.72.72,0,0,0-.25-1A28.84,28.84,0,0,0,860.33,27.57Z"/><path class="cls-10" d="M850.31,51.24c14.83-2.72,27.5-.31,37.65,7.15a2.59,2.59,0,0,0,3.25-.13,2.54,2.54,0,0,0,.71-1c4.61-11.72,14-20.52,28-26.14a5.37,5.37,0,0,0,3.16-6.51l-15.62-54a5.44,5.44,0,0,0-2.86-3.38,5.38,5.38,0,0,0-4.39-.12c-10,4.16-23,12.26-28.65,27.32-12.79-9.74-28.12-9.65-38.81-7.82A5.35,5.35,0,0,0,829.15-11a5.45,5.45,0,0,0-.62,4.38l15.62,54A5.41,5.41,0,0,0,850.31,51.24Zm-3.74-4.51-15.63-54a2.93,2.93,0,0,1,.33-2.36,2.89,2.89,0,0,1,2-1.3h0c9.32-1.59,22.33-1.8,33.72,5.22,1.94,1.19,3.78,2.08,4.57,3.48L872.72-.5l.09-2.38c.28-1.76,1.28-3.17,2.29-5.3,5.83-12.34,17.25-18.76,26.11-22.44a2.81,2.81,0,0,1,2.34.06,2.87,2.87,0,0,1,1.53,1.81l15.63,54A3,3,0,0,1,919,28.81a59.31,59.31,0,0,0-17,10.13,44.15,44.15,0,0,0-11.46,15.49l-4.21-8.09,1.36,8.73c-10.48-6.8-23.1-9-37.7-6.31A2.91,2.91,0,0,1,846.57,46.73Z"/><path class="cls-10" d="M860.3,38.77c13-2.38,20.84,2.09,23.6,4.12a2.08,2.08,0,0,0,3.18-.91c1.26-3.2,5.5-11.16,17.77-16.09a3.81,3.81,0,0,0,2.24-4.6l-9.65-33.38a3.83,3.83,0,0,0-2-2.38,3.78,3.78,0,0,0-3.09-.09C880-9.46,875.39-1.36,873.87,2.23c-3.2-2.23-11.46-6.59-24.56-4.35A3.79,3.79,0,0,0,846.74-.4a3.84,3.84,0,0,0-.44,3.1L856,36.07A3.81,3.81,0,0,0,860.3,38.77Zm-1.94-3.39L848.71,2a1.34,1.34,0,0,1,.15-1.07,1.28,1.28,0,0,1,.87-.58C863.31-2,871.14,3.22,873.21,4.86L877.91,15,875.83,4.11h0c.88-2.5,4.74-11.06,17.46-16.34a1.26,1.26,0,0,1,1,0,1.33,1.33,0,0,1,.7.82L904.68,22a1.31,1.31,0,0,1-.77,1.57,39.6,39.6,0,0,0-11.28,6.75,29.12,29.12,0,0,0-7,8.75l-2.81-6.55.37,7c-4.1-2.35-11.91-5.29-23.39-3.19A1.31,1.31,0,0,1,858.36,35.38Z"/><path class="cls-10" d="M912.24,187.23c7.76-3.37,15-3.67,21.48-.88a1.46,1.46,0,0,0,1.29-.07,1.36,1.36,0,0,0,.47-.42,1.34,1.34,0,0,0,.26-.64c1-7,5.06-13,12-17.85a3,3,0,0,0,.9-4l-15.41-27.54a3.06,3.06,0,0,0-2-1.48,3,3,0,0,0-2.41.49c-5,3.54-11,9.62-12.19,18.57-8.22-3.69-16.59-1.7-22.19.66a3.06,3.06,0,0,0-1.69,1.8,3,3,0,0,0,.23,2.47l15.4,27.54A3,3,0,0,0,912.24,187.23Zm-2.62-2-15.41-27.55a1.63,1.63,0,0,1,.78-2.28h0c4.89-2.06,12-3.82,19.09-1.44a7.19,7.19,0,0,1,2.94,1.32l.89.81-.26-1.31a12,12,0,0,1,.58-3.18c1.62-7.49,7-12.45,11.42-15.59a1.57,1.57,0,0,1,1.28-.26,1.64,1.64,0,0,1,1.07.8l15.41,27.54a1.68,1.68,0,0,1-.52,2.14,33.54,33.54,0,0,0-8,7.7,24.81,24.81,0,0,0-4.29,9.93L931.26,180l1.85,4.59c-6.59-2.38-13.76-2-21.4,1.35A1.65,1.65,0,0,1,909.62,185.24Z"/><path class="cls-10" d="M891.78,258.11a25.94,25.94,0,0,1,12.26,13,.65.65,0,0,0,.39.37.66.66,0,0,0,.48,0,.67.67,0,0,0,.37-.87,26.75,26.75,0,0,0-13-13.75.68.68,0,0,0-.88.34A.66.66,0,0,0,891.78,258.11Z"/><path class="cls-10" d="M890,263.29a.69.69,0,0,0-.88.35.67.67,0,0,0,.35.88,25.89,25.89,0,0,1,12.26,13,.64.64,0,0,0,.39.38.66.66,0,0,0,.48,0A.67.67,0,0,0,903,277,26.8,26.8,0,0,0,890,263.29Z"/><path class="cls-10" d="M887.65,269.7a.7.7,0,0,0-.88.35.66.66,0,0,0,.35.87,25.94,25.94,0,0,1,12.26,13,.66.66,0,0,0,.87.37.67.67,0,0,0,.37-.87A26.71,26.71,0,0,0,887.65,269.7Z"/><path class="cls-10" d="M885.32,276.11a.68.68,0,0,0-.88.34.67.67,0,0,0,.35.88,25.89,25.89,0,0,1,12.26,13,.66.66,0,0,0,.39.38.62.62,0,0,0,.48,0,.66.66,0,0,0,.37-.87A26.66,26.66,0,0,0,885.32,276.11Z"/><path class="cls-10" d="M864.54,287.81c12.44,6.42,20.38,15.37,23.6,26.6a2.38,2.38,0,0,0,1.43,1.58,2.33,2.33,0,0,0,1,.17,2.44,2.44,0,0,0,1.1-.34c10-6,21.95-7.12,35.42-3.31a5,5,0,0,0,6-3L952.29,261a5,5,0,0,0-3.33-6.68c-9.71-2.62-23.87-4-36.54,3.82-3.88-14.4-15.19-23-24.07-27.74a5,5,0,0,0-4.07-.27,5,5,0,0,0-2.93,2.87l-19.17,48.55A5,5,0,0,0,864.54,287.81Zm-.19-5.44,19.16-48.55a2.72,2.72,0,0,1,1.58-1.54,2.63,2.63,0,0,1,2.16.14h0c7.75,4.12,17.42,11.35,21.81,23,.75,2,1.6,3.67,1.38,5.15l-.11,2,1.41-1.7c1.2-1.13,2.75-1.6,4.69-2.59,11.28-5.76,23.31-4,31.91-1.68a2.65,2.65,0,0,1,1.68,1.37,2.72,2.72,0,0,1,.1,2.2L931,308.67a2.76,2.76,0,0,1-3.28,1.58A55.42,55.42,0,0,0,909.44,308a41.12,41.12,0,0,0-17.21,4.89l1.5-8.33-4,7.18c-3.85-10.94-11.88-19.68-24.12-26A2.72,2.72,0,0,1,864.35,282.37Z"/><path class="cls-10" d="M879,284.32c10.9,5.62,14.12,13.35,15,16.41a1.93,1.93,0,0,0,2.85,1.13c2.74-1.64,10.37-5.08,22.17-1.75a3.53,3.53,0,0,0,4.26-2.1l11.84-30a3.54,3.54,0,0,0-.14-2.9,3.49,3.49,0,0,0-2.22-1.82c-11.91-3.22-19.92.09-23.07,1.87-1.09-3.45-4.68-11.34-15.58-17.13a3.53,3.53,0,0,0-4.94,1.84l-11.84,30A3.54,3.54,0,0,0,879,284.32Zm.5-3.6,11.84-30a1.2,1.2,0,0,1,.71-.7,1.17,1.17,0,0,1,1,.06c11.29,6,14.1,14.24,14.69,16.63l-2.29,10.11,4.64-9.18h0c2.07-1.34,9.76-5.44,22.1-2.11a1.16,1.16,0,0,1,.74.61,1.21,1.21,0,0,1,0,1l-11.84,30a1.2,1.2,0,0,1-1.45.72,36.56,36.56,0,0,0-12.12-1.43,26.88,26.88,0,0,0-10.06,2.48l1.65-6.4-3.68,5.33c-1.68-4.05-5.76-10.64-15.38-15.6A1.21,1.21,0,0,1,879.45,280.72Z"/><path class="cls-11" d="M770.62-.28a.63.63,0,0,1,.52.69.61.61,0,0,1-.69.53,23.86,23.86,0,0,0-15.9,4.43.59.59,0,0,1-.49.11.63.63,0,0,1-.37-.23.62.62,0,0,1,.12-.87A24.66,24.66,0,0,1,770.62-.28Z"/><path class="cls-11" d="M769.4,5.89a.62.62,0,1,1-.17,1.22,23.87,23.87,0,0,0-15.9,4.43.56.56,0,0,1-.48.11.57.57,0,0,1-.38-.23.62.62,0,0,1,.12-.86A24.63,24.63,0,0,1,769.4,5.89Z"/><path class="cls-11" d="M735.83-6.77a.64.64,0,0,0-.74.46.62.62,0,0,0,.46.74,23.89,23.89,0,0,1,13.3,9.78.62.62,0,0,0,.42.27.61.61,0,0,0,.43-.08.63.63,0,0,0,.19-.86A24.68,24.68,0,0,0,735.83-6.77Z"/><path class="cls-11" d="M734.78-.57a.64.64,0,0,0-.74.46.62.62,0,0,0,.46.74,23.89,23.89,0,0,1,13.3,9.78.59.59,0,0,0,.42.27.6.6,0,0,0,.43-.08.62.62,0,0,0,.19-.85A24.67,24.67,0,0,0,734.78-.57Z"/><path class="cls-11" d="M717.87,13.51c12.35,3.75,21,10.55,25.85,20.21a2.19,2.19,0,0,0,1.56,1.2,2.07,2.07,0,0,0,1,0,2.18,2.18,0,0,0,.94-.49c8.11-7.12,18.74-10.11,31.6-8.9a4.58,4.58,0,0,0,5-3.71l9.32-47.25a4.67,4.67,0,0,0-.85-3.69A4.63,4.63,0,0,0,788.9-31c-9.24-.76-22.33.3-32.52,9.55-5.91-12.42-17.61-18.37-26.46-21.18a4.65,4.65,0,0,0-3.73.43,4.63,4.63,0,0,0-2.19,3.1L714.68,8.19A4.63,4.63,0,0,0,717.87,13.51ZM716.79,8.6l9.32-47.25a2.47,2.47,0,0,1,1.17-1.66,2.44,2.44,0,0,1,2-.23h0c7.72,2.45,17.7,7.4,23.62,17.2,1,1.67,2.06,3.08,2.11,4.45l.23,1.82,1-1.78c.9-1.23,2.22-1.91,3.82-3.13,9.28-7.11,20.49-7.51,28.68-6.84a2.42,2.42,0,0,1,1.75,1,2.5,2.5,0,0,1,.46,2l-9.32,47.25a2.57,2.57,0,0,1-2.71,2,50.86,50.86,0,0,0-16.93,1,38,38,0,0,0-14.8,7.29l0-7.8-2.39,7.17c-5.31-9.28-14-15.89-26.21-19.59A2.51,2.51,0,0,1,716.79,8.6Z"/><path class="cls-11" d="M730.37,7.94c10.83,3.29,15,9.77,16.34,12.4a1.77,1.77,0,0,0,2,.94,1.84,1.84,0,0,0,.76-.39c2.21-1.94,8.56-6.34,19.83-5.28A3.25,3.25,0,0,0,772.83,13l5.75-29.18a3.28,3.28,0,0,0-.6-2.61,3.22,3.22,0,0,0-2.32-1.28C764.31-21,757.6-16.68,755-14.54c-1.56-2.95-6.13-9.52-17-12.95a3.24,3.24,0,0,0-2.63.3A3.27,3.27,0,0,0,733.87-25L728.11,4.18A3.27,3.27,0,0,0,730.37,7.94Zm-.15-3.34L736-24.59a1.08,1.08,0,0,1,.53-.75,1.11,1.11,0,0,1,.89-.11c11.24,3.57,15.16,10.58,16.1,12.65l-.4,9.55,2.69-9.1h0c1.65-1.56,7.94-6.56,19.69-5.59a1.08,1.08,0,0,1,.78.43,1.08,1.08,0,0,1,.21.9l-5.75,29.19a1.12,1.12,0,0,1-1.2.9,33.68,33.68,0,0,0-11.23.71,24.93,24.93,0,0,0-8.72,3.92L750,12l-2.46,5.46c-2.19-3.4-7-8.7-16.55-11.61A1.11,1.11,0,0,1,730.22,4.6Z"/><path class="cls-10" d="M693.29,101.17a33.88,33.88,0,0,0-23.37-1.62.87.87,0,0,1-.71-.08.9.9,0,0,1-.39-.5.87.87,0,0,1,.58-1.09,35.06,35.06,0,0,1,24.69,1.73.92.92,0,0,1,.38,1.18A.88.88,0,0,1,693.29,101.17Z"/><path class="cls-10" d="M689.53,107.29a.89.89,0,0,1,.38,1.18.87.87,0,0,1-1.18.37,33.89,33.89,0,0,0-23.37-1.61.92.92,0,0,1-.71-.09.84.84,0,0,1-.39-.49.87.87,0,0,1,.58-1.09A35,35,0,0,1,689.53,107.29Z"/><path class="cls-10" d="M685,115a.91.91,0,0,1,.38,1.18.88.88,0,0,1-1.18.38,33.92,33.92,0,0,0-23.37-1.62.85.85,0,0,1-.7-.08.88.88,0,0,1,.18-1.59A35,35,0,0,1,685,115Z"/><path class="cls-10" d="M680.42,122.64a.91.91,0,0,1,.38,1.18.88.88,0,0,1-1.18.38,33.8,33.8,0,0,0-23.37-1.62.88.88,0,0,1-.71-.09.84.84,0,0,1-.39-.49.87.87,0,0,1,.58-1.09A35,35,0,0,1,680.42,122.64Z"/><path class="cls-10" d="M649.28,75.65A33.86,33.86,0,0,1,662.42,95a.9.9,0,0,0,.43.57.87.87,0,0,0,1.28-1,35,35,0,0,0-13.91-20.47.89.89,0,0,0-1.21.26A.87.87,0,0,0,649.28,75.65Z"/><path class="cls-10" d="M645.88,82a.9.9,0,0,0-1.21.27.87.87,0,0,0,.26,1.2,33.9,33.9,0,0,1,13.15,19.4.85.85,0,0,0,.42.57.87.87,0,0,0,1.28-1A35,35,0,0,0,645.88,82Z"/><path class="cls-10" d="M641.53,89.77a.91.91,0,0,0-1.21.26.87.87,0,0,0,.27,1.21,33.91,33.91,0,0,1,13.14,19.39.85.85,0,0,0,.43.57.83.83,0,0,0,.62.09.87.87,0,0,0,.66-1A35,35,0,0,0,641.53,89.77Z"/><path class="cls-10" d="M637.18,97.56a.91.91,0,0,0-1.21.27.87.87,0,0,0,.27,1.21,33.86,33.86,0,0,1,13.14,19.39.9.9,0,0,0,.43.57.87.87,0,0,0,1.28-1A35.11,35.11,0,0,0,637.18,97.56Z"/><path class="cls-10" d="M607.88,108.37c14.74,10.89,23.14,24.11,25,39.31a3.15,3.15,0,0,0,1.53,2.34,3,3,0,0,0,1.29.43,3.24,3.24,0,0,0,1.5-.21c14.21-5.68,29.85-4.63,46.47,3.1a6.52,6.52,0,0,0,8.39-2.61L726.92,92a6.59,6.59,0,0,0,.62-5.34,6.52,6.52,0,0,0-3.54-4c-12-5.41-30-10.2-48-2.67C674,60.53,661.13,47,650.63,39.07A6.55,6.55,0,0,0,641,41l-34.9,58.77A6.57,6.57,0,0,0,607.88,108.37Zm.89-7.07,34.89-58.78A3.52,3.52,0,0,1,646,40.86a3.44,3.44,0,0,1,2.77.64h0C658,48.44,669,59.79,672.21,75.72c.56,2.7,1.3,5.08.71,6.94l-.56,2.54,2.18-1.9c1.79-1.21,3.88-1.5,6.6-2.37,15.79-5.11,31-.32,41.61,4.47a3.43,3.43,0,0,1,1.88,2.13,3.54,3.54,0,0,1-.33,2.86l-34.89,58.78a3.62,3.62,0,0,1-4.57,1.36,72.64,72.64,0,0,0-23.13-6.65,53.71,53.71,0,0,0-23.27,2.73l3.68-10.46-6.6,8.46c-2.7-14.94-11.26-27.92-25.76-38.65A3.54,3.54,0,0,1,608.77,101.3Z"/><path class="cls-10" d="M627.24,106.85c12.92,9.55,15.48,20.21,16,24.35a2.56,2.56,0,0,0,2.26,2.22,2.62,2.62,0,0,0,1.2-.17c3.87-1.54,14.46-4.41,29,2.36a4.61,4.61,0,0,0,5.94-1.84l21.55-36.3a4.63,4.63,0,0,0-2.06-6.59c-14.73-6.64-25.77-4-30.22-2.39-.69-4.68-3.68-15.63-16.57-25.38a4.61,4.61,0,0,0-3.66-.85,4.71,4.71,0,0,0-3.11,2.19L626,100.76A4.62,4.62,0,0,0,627.24,106.85Zm1.39-4.54L650.18,66a1.59,1.59,0,0,1,1.07-.75,1.53,1.53,0,0,1,1.24.28C665.84,75.64,667.75,86.89,668,90.1L663,102.69l7.92-10.9h0c3-1.3,13.74-5,29,1.87a1.55,1.55,0,0,1,.84,1,1.6,1.6,0,0,1-.15,1.3L679,132.22a1.59,1.59,0,0,1-2,.63,47.75,47.75,0,0,0-15.37-4.38,35.16,35.16,0,0,0-13.52,1.11l3.46-7.93-5.87,6.13c-1.33-5.59-5.22-15-16.63-23.38A1.59,1.59,0,0,1,628.63,102.31Z"/></g></g></g><g id="Capa_4" data-name="Capa 4"><path class="cls-12" d="M429.52,465,413.26,553.6s-1.08,17.9,26,23.56,92.11,6.59,134.38-5.66c0,0,13-6.59,13-13.19,0,0-6.5-96.12-9.75-95.18S429.52,465,429.52,465Z"/><path class="cls-13" d="M429.52,465,413.26,553.6s-1.08,17.9,26,23.56,92.11,6.59,134.38-5.66c0,0,13-6.59,13-13.19,0,0-6.5-96.12-9.75-95.18S429.52,465,429.52,465Z"/><path class="cls-14" d="M576.9,463.13c-2.28.66-73.85,1.32-116.39,1.66a48.6,48.6,0,0,0,24.68,26.59c15.63,7.48,33,8.34,50.09,11.43,29.79,5.4,24.38-70.46,25.67,56.86.07,7-4.56,12.4-9.67,16.8a203.54,203.54,0,0,0,22.37-5s13-6.59,13-13.19C586.65,558.31,580.15,462.19,576.9,463.13Z"/><path class="cls-15" d="M499.88,510.57c17.33,0,22.39,16.33,22.39,16.33s5.78-22,1.44,17-77.3,27.64-77.3,27.64c-26.73-4.4-24.56-25.13-24.56-25.13l10.83-25.76s-.36-19.48,11.2-18.22C454.66,503.57,499.88,510.57,499.88,510.57Z"/><path class="cls-16" d="M438.47,515.28s-11.93,11-12.65,34.87C425.82,550.15,442.08,576.22,438.47,515.28Z"/><path class="cls-13" d="M546.48,17.05C526.91,5.36,496.73,18,489.4,63.88c-9.15,57.28-36.85,214.86-36.85,214.86l77.59,2.34s4.69-51.37,10.79-105.07S566.05,28.74,546.48,17.05Z"/><path class="cls-13" d="M649.46,300.1c-15.17-24-44.43-20.26-44.43-20.26,0-10.36-10.84-31.1-29.81-36.75s-32,.94-32,.94c-18.79,2.67-16.26-28.74-36.85-32-12.91-2.07-29.94,14.71-40.86,27.51-.17,2.19-.36,4.39-.67,6.57-.63,4.32-3.26,8.8-8.67,9-3.38.16-5.53-2.23-6.9-5.69C445.09,214.2,436,135.22,433.09,85.56c-3.26-55.6-34.3-69.5-53.83-55.6-23.84,17-5,103.09-1.44,157.06a542.15,542.15,0,0,1-2,92.59c-.83,2.91-1.63,6-2.37,9.19-12.46,54.65-9,117.79,28.36,167.27s111.62,43.35,111.62,43.35C590.94,498,623.81,439,633.57,412.56S664.63,324.13,649.46,300.1Z"/><path class="cls-17" d="M490.73,583.05h0c-20.36,0-39.79-1.52-52-4.06-28.51-6-27.67-25.3-27.67-25.49l15-72.7A97.8,97.8,0,0,1,400,457.1c-44.86-59.37-37.22-131.16-28.66-168.67.74-3.26,1.54-6.33,2.39-9.28a543.19,543.19,0,0,0,1.91-92c-.89-13.39-2.7-28.54-4.61-44.6-5.89-49.48-12-100.64,6.84-114a28.59,28.59,0,0,1,16.61-5.43c17.11,0,38.06,16.34,40.75,62.4,2.81,48.1,11.34,123,16.19,163.55.92,2.24,2.07,3.61,3.42,4.06,7.65-43.74,25.42-145.82,32.39-189.45,6.2-38.79,27.79-52.55,44.4-52.55a31.34,31.34,0,0,1,16.06,4.43c15.32,9.15,9.87,56.48.5,122.33-2,13.88-3.83,27-5.13,38.37-2.22,19.51-4.53,41.29-6.88,64.73a9.48,9.48,0,0,0,6.36,1.29,43.52,43.52,0,0,1,17.4-3.3,55.82,55.82,0,0,1,16,2.39c19.24,5.73,29.88,25.62,31.14,36.49.67,0,1.47-.06,2.37-.06,8.53,0,29.69,2.1,41.92,21.46,11,17.49,5.75,55.82-15.73,113.94-5,13.45-20.19,46.88-54.51,68.67,3.32,51.95,7.66,75,7.7,76.45,0,7.51-12.64,14.14-14.08,14.87a1.84,1.84,0,0,1-.41.16C545.05,581.78,509.38,583.05,490.73,583.05ZM394.5,26.83a23.83,23.83,0,0,0-13.87,4.59c-17,12.09-10.77,64.49-5.27,110.73,1.92,16.09,3.72,31.29,4.62,44.76a544.17,544.17,0,0,1-2,92.88c-.88,3.16-1.67,6.19-2.4,9.37-8.42,36.95-16,107.62,28,165.87a94,94,0,0,0,26,23.31,1.78,1.78,0,0,1,.91,1.67l-15.09,73.72c0,.63-.56,16.4,24.35,21.59,11.86,2.48,30.91,4,51,4,18.34,0,53.34-1.24,82-9.5,3.45-1.79,11.74-7,11.74-11.47,0-1.42-4.42-26.32-7.76-77.31a1.82,1.82,0,0,1,.91-1.65c33.94-21.11,49-54.15,53.87-67.37,26.28-71.1,23.24-99.59,16.06-111-11.11-17.6-30.36-19.5-38.12-19.5a36.55,36.55,0,0,0-4.1.2,2.46,2.46,0,0,1-1.73-.44,1.79,1.79,0,0,1-.75-1.43c0-9-10-29.5-28.34-35A51.06,51.06,0,0,0,560,242.69c-9.55,0-15.56,2.94-15.62,3a2.08,2.08,0,0,1-.73.23,14.12,14.12,0,0,1-11.08-2.67,1.75,1.75,0,0,1-.75-1.6c2.39-23.85,4.74-46,7-65.8,1.3-11.41,3.17-24.54,5.14-38.45,7-49.1,15.67-110.2,1.34-118.76a26.47,26.47,0,0,0-13.6-3.77c-14.87,0-34.29,12.91-40.11,49.3-7.06,44.22-25.21,148.43-32.69,191.18a2.09,2.09,0,0,1-1.94,1.6,4.38,4.38,0,0,1-.6.08h0c-3.08,0-6.73-1.22-9-7a1.63,1.63,0,0,1-.11-.42c-4.85-40.52-13.41-115.69-16.23-164C428.54,45,410.92,26.83,394.5,26.83Z"/><path class="cls-18" d="M649.46,300.1c-15.17-24-44.43-20.26-44.43-20.26,0-10.36-10.84-31.1-29.81-36.75s-32,.94-32,.94a12,12,0,0,1-9.32-2.24c1.86-18.63,4.28-42,7-65.78,6.09-53.7,25.12-147.27,5.55-159S496.73,18,489.4,63.88c-7,43.53-24.61,145-32.69,191.16-.18,0-.33.07-.5.07-3.38.16-5.53-2.23-6.9-5.69C445.09,214.2,436,135.22,433.09,85.56c-3.26-55.6-34.3-69.5-53.83-55.6-23.84,17-5,103.09-1.44,157.06a542.15,542.15,0,0,1-2,92.59c-.83,2.91-1.63,6-2.37,9.19-12.46,54.65-9,117.79,28.36,167.27s111.62,43.35,111.62,43.35C590.94,498,623.81,439,633.57,412.56S664.63,324.13,649.46,300.1ZM535.57,253.92a1.89,1.89,0,0,1,1.74-.91c6.4-7.09,15.79-11.67,26.77-6.5,13.28,6.26,7.63,20.91,0,29.33-10.55,11.6-26.72,14.07-42.88,14.21C513,290.12,533.78,256.82,535.57,253.92ZM473,228c.16-3.25.46-6.4.67-9.09a1.67,1.67,0,0,1,.58-1.14c1.41-9.46,3.53-18.82,5.39-28.25,2.2-11.11,3.12-22.15,4.17-33.37,2.77-29.47,5.81-59.25,13-88.21,1.6-6.45,4.84-23.2,12-33.66a37.09,37.09,0,0,1,4.38-5.74c9.8-10.23,26-7,27.76,7,3.47,27.2-2.43,56.25-6.66,83.18-3.63,23.14-6.92,46.56-13.08,69.35-1.82,14.68-5.67,29.13-10.29,43.32-2.95,9.1-6.06,18.55-18.26,20.7-8.34,1.48-13.23-.64-16.09-4.54a6,6,0,0,1-.6-.43C471.44,243.05,472.4,233.67,473,228Zm-94.94,84.93c2.43-11.34,7.09-22.5,8.26-34,.46-4.59.71-9.19,1-13.79a15.8,15.8,0,0,1-.18-3.13c.11-2.31.26-4.61.41-6.92-.41-9.91,0-20-.28-29.87-1.07-32.47-4.24-64.59-7.14-97-1.54-17.17-2.77-34.35-4.16-51.53-.73-9-1.86-18.16.27-27.12C378.49,40.14,390,24.5,402,35.85c10.2,9.56,11.89,25.19,13.39,37.55,2.29,18.95,4.61,37.83,7.15,56.77,3.95,29.43,4.78,59.13,9.21,88.47,1.85,10.38,3.51,20.76,3,31-.36,7.68-3.71,14.45-8.14,20.81,15.74-6.81,33.25-10.11,50.66-12.08,9.72-1.11,21.2-3.36,30.65-.14,7.92,2.69,4.39,11-.33,14.83-11.57,9.43-27.3,7.2-41.52,10.61a136.53,136.53,0,0,0-27.35,9.84c-11.7,7.25-23.12,14.81-34.06,22.9-6.35,6.14-12.63,15.38-21.49,18C373,337.5,377.48,315.7,378.08,312.92Zm92.6,103.49c4.23,12.22,11.73,34,3.85,46.31-13.16,20.47-43.16,8.15-54.85-1.79-18.39-15.63-38-46.74-40.82-69.33-2.71-21.5,10-41.93,26.46-57.2a169.91,169.91,0,0,1,15.75-12.86,134.69,134.69,0,0,1,25.65-15.06c24.1-10.26,55.65-7,82-6.69,6.73.08,21.5-1.23,24.93,5.34s-2.27,10.21-8.67,15.09c-18.51,14.07-45.24,12.41-65.55,23.4C447,361.21,462,391.23,470.68,416.41Zm32.79-59.93a14.58,14.58,0,0,1,2.71-5.2c.52-1,1-1.88,1.36-2.67a2.47,2.47,0,0,1,3-1.14c3.66-2.29,8.39-3.86,14-5.05,4.13-.87,12.81-3.85,16.92-1.54,5.42,3,2.93,7.2.23,11.29-6.38,9.63-19.71,22.81-34.57,18.64C499.15,368.59,500.7,362.3,503.47,356.48Zm74.81,111a107,107,0,0,1-22.17,14.42c-6.7,3.22-16.67,7.24-24.46,7.48-16.6.52-23.77-10.07-21-23.62,3.28-16.08,16-21.2,32.9-24.87,12.36-2.68,25.05-6.6,34.83-14,5.23-4,17.75-23.42,23.43-11.39C610.34,433.63,592.15,455.86,578.28,467.51ZM634.7,332.22a2.36,2.36,0,0,1-3.63-.83c-2.1-4.88-2.57-10-3-15.19-6.23,11.32-16.08,20.86-25.49,30.51-6.41,6.58-18.1,20-30,17.8-11.27-2.13-17.14-9.6-11.79-18.92,6.13-10.67,13.59-20.82,21.31-30.79,4-5.85,8-11.73,12.27-17.41,2.7-3.57,6.47-10,10.89-12.2,8.12-4.1,17.31,0,24.15,4.46C642.16,298,649.19,322.4,634.7,332.22Z"/><path class="cls-18" d="M440.45,309.45c2.07-1.06,4.16-2.07,6.27-3,9.06-3.85,19.16-5.8,29.65-6.71-10.26.59-20.66,1.72-29.7,6.27Q443.48,307.65,440.45,309.45Z"/><path class="cls-18" d="M402.33,27.14c11.39,7.93,16.3,19.48,19.1,31.63,3.13,13.62,5.39,27.36,7.27,41.16,4.71,34.51,6.82,69.27,11.78,103.75,2.81,19.5,9.06,42.16-.58,60.75a73.65,73.65,0,0,1,30.1-8.77,33,33,0,0,1-10.62-15.92L456.71,255c-.18,0-.33.07-.5.07-3.38.16-5.53-2.23-6.9-5.69C445.09,214.2,436,135.22,433.09,85.56c-2.25-38.41-17.75-56.9-33.57-60.1A25.39,25.39,0,0,1,402.33,27.14Z"/><path class="cls-18" d="M531.61,258.74c3.68-5.52,7.33-10.88,12.79-15.2-.75.29-1.14.49-1.14.49a12,12,0,0,1-9.32-2.24c1.86-18.63,4.28-42,7-65.78,6.09-53.7,25.12-147.27,5.55-159a28.64,28.64,0,0,0-11.22-3.83c10.56,4.3,13.94,13.43,14.14,23.18.34,16-3.27,32-4.49,47.93-3.07,40-10.64,79.48-15.76,119.26-1.18,9.2-2.46,18.33-2.44,27.59,0,3.65.83,10.08-1.85,13.33-3.34,4.07-8.65,6.73-14.37,8.64q5.61.34,11.27,1.16a1.87,1.87,0,0,1,1.52,2.32c-3,7.1-8.27,16.17-14.4,21.64-6.42,5.73-14.93,6.28-23.63,7.51-25.3,3.6-48.56,15.33-69.33,27.9-10.13,6.13-20,12.8-27.81,21.15-2.66,2.84-7.8,9-13.09,7.8a11.89,11.89,0,0,1-7.82-6,216.09,216.09,0,0,0,3.13,46c7.07-23.81,27.83-45.53,47.1-61.38,15-12.31,30.23-22.72,51.34-24.63,13-1.19,26.07-1.27,39.16-1.36,2.55-1,5.2-2,7.89-2.82C519.83,280.75,524.52,269.36,531.61,258.74Z"/><path class="cls-18" d="M654.09,314c-2.39,12.61-11.38,24.47-25.05,28.47a2.15,2.15,0,0,1-2.74-1.81,35.64,35.64,0,0,1-.12-5.26,52.65,52.65,0,0,1-19.88,18.49,111.4,111.4,0,0,0-23.76,16.66c-5.38,4.81-11.51,10.74-18.78,13.42-13.08,4.83-21-3.89-16.94-15.07,4.19-11.68,11.53-22.36,19.65-32.54,4.82-7.34,10.12-14.49,15.57-21.53,4-5.85,8-11.73,12.27-17.41,1.82-2.4,4.13-6.05,6.78-8.88a70.49,70.49,0,0,1,8.65-8.88,38.8,38.8,0,0,0-4.71.21c0-9.41-9-27.34-24.81-34.8a43,43,0,0,1,4.4,7.19c5,10.16,7,21.82,2.1,32.42-4.8,10.43-10.47,11.26-22.18,8.36-13.78-3.42-30.25-2-44.63,2.09,4.61-.07,9.22-.18,13.82-.38,10.54-.48,30.82-1.71,30.62,11.63-.19,11.95-18,21.79-28.76,25.64-21.51,7.7-47.15,10.06-59.1,29.86a61.57,61.57,0,0,0-6.9,16.63,20.42,20.42,0,0,0,0,2.71c.8,8.76,5.68,14.16,11.15,21A82.12,82.12,0,0,1,496.22,434c.38,1.59.66,3.2,1,4.79a171.54,171.54,0,0,0-2.36-19.64c-2.77-16-10.75-31.82-3-47.6.9-1.81,4-.77,4,1,.13,8.36.81,18.42,6.35,25.62,8.59,11.17,23.1,8.88,29.71-2.54.82-1.43,3.58-1.12,4,.45,2.68,11.07,9.46,15.35,17.44,15.52,14.56-1.29,29.37-20.14,38-27.74C599.18,377,617.23,364,621,381.2c3.85,17.46,1.63,37.92-2.84,55.12-.92,3.54-2,7.08-3.21,10.61a145.4,145.4,0,0,0,18.59-34.37C641.79,390.32,658.21,342.76,654.09,314ZM530,379.09c-3.76,6.23-10.67,14.79-20.31,12.1-7.72-2.15-10.94-8.27-11.51-15.33a28.27,28.27,0,0,1,0-11c.92-4.94,1.57-12.5,5.62-16.45,4.73-4.61,13.45-5,19.83-6.94,9.15-2.74,18.15-5.56,27.86-6.23a1.91,1.91,0,0,1,1.87,2.84C544.36,351.37,538.18,365.53,530,379.09Z"/><path class="cls-19" d="M634.28,343.09a47,47,0,0,1-6.67,2.13c.16-.22-.39-.13-.56,0l-.19.15c-1.73.43-3.47.82-5.21,1.24a4.11,4.11,0,0,0-1.65,1l-.12.05a30.38,30.38,0,0,0,7.56-15.81c-.05-1-.16-1.95-.25-2.92a8,8,0,0,0-1.23-1.79c-1.82,7.92-4.08,14.43-9.71,21.51-.54.68-1.12,1.32-1.71,1.95-6.54,4.9-13.43,9.46-19.67,14.66-8.11,6.76-13.93,15.85-20.17,23.89-1.49,1.92-3.13,4-4.9,6a16.56,16.56,0,0,1-5,5c-5,4.24-11.11,7.2-18.94,6.16-10.85-1.44-9.3-14.84-8.21-21.14.36-2.11.9-4.16,1.45-6.2,2.9-8.57,6.54-16.82,12.27-24.44,6.83-9.09,14-17.95,20.9-27,6.32-8.31,12.28-16.84,18.21-25.38,1.33-1.93,2.85-3.92,4.37-6,1.88-2.93,3.85-5.81,5.94-8.63a24.18,24.18,0,0,1,4.25-5.4c.59-.69,1.23-1.37,1.84-2.06a1,1,0,0,0-.69,0c-2.48.64-4,2.34-5.58,4.06A94,94,0,0,0,592,295.38c-.06.09,0,.12,0,.17-7,9-13.12,18.4-19.93,27.53-1.89,2.55-3.7,5.14-5.45,7.74a158,158,0,0,0-21.45,29.05L545,360l0,.06a42.89,42.89,0,0,0-3.6,6.77,133.45,133.45,0,0,0-7.17,17c-2.89,8.39-11.73,28-26,15.65-5-4.35-7.54-10.67-9.31-16.48-2.06-6.76-.65-14.22.53-21,.29-1.65,3-11,4.14-16.72a44.48,44.48,0,0,1,10.8-3.76c6.44-1.3,12.85-2.71,19.17-4.42,8.73-2.38,18.9-5.32,24.75-11.84,6.93-7.73,18.09-19.95,7.62-29.32-5.31-4.74-15.56-3.26-22.31-2.87a219.55,219.55,0,0,1-28.33-.49h-.14c5.57-16.28,14.58-35,27.69-48L540.71,246a70.78,70.78,0,0,0-13.19,16.6c-5.4,8.87-12.77,19.83-14.42,30,.08-.49-28,0-30.66.19-12,.82-24,2.46-35.05,6.76-15.43,6-27.78,17.25-39.85,27.22-7.2,5.94-13.13,12.78-18.89,19.79-5,6.11-9.65,13.83-15.64,19.2-.2.17,0,.23.18.11,3.1-2.35,5.42-6.05,8-8.85,5.44-6,10.8-12,16.24-18,12.83-14.07,30.67-29.08,49.34-36.94,18-7.57,37.53-7.14,57-6.55,4.37.13,8.74,0,13.11-.16,2.61.12,5.21.24,7.82.33,4,.15,8,.15,11.92.16a.45.45,0,0,0,.2,0c4,0,7.91,0,11.87.13,10,.32,16.85.07,18.07,10.48.72,6.21-4,12.76-9.84,17.69a85.71,85.71,0,0,1-21.4,10.11c-3.28.81-6.62,1.46-10,2.06-2.12.68-4.3,1.25-6.46,1.73-3.9.88-7.95,1.5-11.75,2.65a47.68,47.68,0,0,0-21.09,13.64c-5.43,5.87-11,12.7-11.78,20.43a31.79,31.79,0,0,0,1.78,14.12c2.29,5.61,6.14,10.41,8.95,15.77a35.59,35.59,0,0,1,1.67,4c10.06,21,10.72,43.82,8,66,.64-1.13,1.25-2.28,1.84-3.42,3.84-18.12,4.42-36.11-1.81-54.14a108.4,108.4,0,0,0-9.43-20.76c-2.75-4.57-6.66-9-8-14.08-1.52-5.76,1.1-11.21,4.05-16.27,1.32-2.28,3.13-5.15,5.27-8.13A61.57,61.57,0,0,1,500.54,347c-4.92,12.76-7.23,28.08-3.44,40.56,2.87,9.44,12.64,23,25.4,16,6.14-3.4,9.66-8.74,12.2-14.67-1.54,11.21,3.27,22.34,18.84,19,6-1.27,11-5,15.39-9.35,1.34-1.71,2.79-3.35,4.31-5,2.7-3.28,5.09-6.6,7.27-9.39,4.86-6.25,9.62-12.4,15.42-17.75,3.21-3.09,7.34-5.61,11.09-8.15,2.55-2.05,5.29-3.94,8-5.81,2.26-1.54,4.35-3.18,7.1-4,3.64-1.13,7.47-1.68,10.91-3.29a17.35,17.35,0,0,0,3-1.85c.11-.34.19-.68.3-1C635.53,342.61,634.76,342.89,634.28,343.09Z"/><path class="cls-20" d="M388.79,142.71c-1.28-18.59-.94-37.22-3.11-55.76C383.82,71.12,378,52.54,387.3,37.9c.2-.34-.46-.06-.57.07-8.94,11.74-9,24-7.55,37.9,2.13,20.45,4.12,40.82,5.68,61.31,2.94,38.67,7.22,77,8.3,115.83,0,.22.66-.15.67-.37C394.28,216,391.29,179.22,388.79,142.71Z"/><path class="cls-20" d="M523.43,26.55C500,44,500.91,78.5,496.63,102.73c-5.9,33.37-11.13,66.79-14.78,100.35-.05.48,1-.1,1-.4,4.68-29.16,8.3-58.54,14.27-87.56,3.05-14.86,5.6-29.69,8.13-44.61,2.48-14.63,5.87-33,18.45-43.8C524,26.46,523.67,26.37,523.43,26.55Z"/><path class="cls-20" d="M456.55,306.94c-24.09,8.15-43.64,22.91-57.16,42.24-7.62,10.92-13,22.81-15.15,35.46C382,397.8,389,410,395.16,421.59c.09.18.75-.23.67-.43-10.27-23.08-9.32-44.25,3.48-66.59,12.43-21.71,33-36.59,57.21-47.48C456.59,307.05,456.72,306.88,456.55,306.94Z"/><path class="cls-20" d="M552.79,246.82c-5.72,0-9.25,3.84-13,7.14-6.28,5.49-8.75,13.65-10.77,20.89-.12.46.85-.11,1-.3,5.36-10,9.57-22.93,22.61-27.36C552.66,247.16,553.06,246.82,552.79,246.82Z"/><path class="cls-20" d="M615.94,288c-9.91,1.42-15.74,8.61-21.57,15.11-9,10-16.35,21.48-23.37,32.62-.27.43.6.07.73-.1,6.07-7.59,12.27-14.92,17.91-22.77,6.71-9.33,14.5-19.6,26.14-24.47C615.91,288.29,616.32,287.9,615.94,288Z"/><path class="cls-20" d="M591.47,446.8c-15.61,17.49-36.68,31.61-61.29,37.75-.34.08-1.65,1.22-.82,1.17,23.95-1.53,51.35-21.22,62.46-39C592,446.54,591.53,446.73,591.47,446.8Z"/></g></g></svg>