<svg xmlns="http://www.w3.org/2000/svg" xmlns:xlink="http://www.w3.org/1999/xlink" viewBox="0 0 900 600"><defs><style>.cls-1{fill:none;}.cls-2{isolation:isolate;}.cls-3{fill:#d5a8ed;}.cls-4{clip-path:url(#clip-path);}.cls-5{fill:#ba88db;}.cls-6{fill:#f2deff;}.cls-7{fill:#fff;}.cls-8{fill:#5f55a8;}.cls-9{fill:#f1d6ff;}.cls-10{clip-path:url(#clip-path-2);}.cls-11{clip-path:url(#clip-path-3);}.cls-12{opacity:0.5;}.cls-13{fill:#006c78;}.cls-14{fill:#efc7b0;}.cls-15,.cls-22{fill:#fbd4b8;}.cls-16,.cls-20{fill:#f9b38f;}.cls-16,.cls-17,.cls-19{opacity:0.4;}.cls-16,.cls-19{mix-blend-mode:multiply;}.cls-17,.cls-18,.cls-22{mix-blend-mode:screen;}.cls-17{fill:url(#linear-gradient);}.cls-18{fill:#ea9398;opacity:0.7;}.cls-21{fill:#e37e5a;}.cls-22{opacity:0.8;}.cls-23{fill:#e47f5a;}</style><clipPath id="clip-path"><rect id="SVGID" class="cls-1" x="-6.3" y="-8.93" width="1051.42" height="613.33" transform="translate(1038.82 595.46) rotate(-180)"/></clipPath><clipPath id="clip-path-2"><rect id="SVGID-2" data-name="SVGID" class="cls-1" x="1040" y="-753.47" width="1051.42" height="613.33" transform="translate(3131.42 -893.6) rotate(-180)"/></clipPath><clipPath id="clip-path-3"><rect class="cls-1" x="-1144.96" y="0.7" width="1096.92" height="607.88"/></clipPath><linearGradient id="linear-gradient" x1="385.01" y1="540.62" x2="490.36" y2="540.62" gradientUnits="userSpaceOnUse"><stop offset="0" stop-color="#ffc6a5"/><stop offset="1" stop-color="#f9b09b"/></linearGradient></defs><g class="cls-2"><g id="Capa_2" data-name="Capa 2"><rect class="cls-3" x="-6.3" y="-8.93" width="1051.42" height="613.33" transform="translate(1038.82 595.46) rotate(-180)"/><g class="cls-4"><path class="cls-5" d="M-254.21,949.87c109.87,54.72,246.16,51.2,354.36-6.76,261.34-140,284.56-531.17,36.21-699C6.6,156.47-177.49,156.28-305.28,246.81-392.95,308.91-449,411.38-460,517.68c-10.48,101.85,6.15,221.29,64.09,307C-360.25,877.47-311.28,921.45-254.21,949.87Z"/><path class="cls-5" d="M755,293.45c80.88,40.28,181.21,37.69,260.86-5,192.38-103.06,209.47-391,26.66-514.54-95.53-64.54-231-64.68-325.12,2C652.91-178.39,611.6-103,603.56-24.7c-7.71,75,4.53,162.9,47.18,226C677,240.15,713,272.52,755,293.45Z"/><path class="cls-6" d="M106.73,533.76a6.18,6.18,0,0,1-.2,1.53L90.79,594.41a20.65,20.65,0,0,1-25.26,14.64L6.41,593.32a5.89,5.89,0,0,1-4.18-7.22l3.18-12c-4-1.72-7.16-5.32-9-10.31A31.46,31.46,0,0,1-4,545.16c3.4-12.8,13.22-21.5,22.56-20.46l3.18-12A5.92,5.92,0,0,1,29,508.54l14.18,3.78-.52,1.95c-2.05,7.7,5.67,16.53,17.23,19.61a27.47,27.47,0,0,0,16.24-.32c4.5-1.63,7.5-4.52,8.46-8.13l.52-1.95,17.26,4.59a5.91,5.91,0,0,1,4.39,5.69ZM6.06,587.61a1.88,1.88,0,0,0,1.39,1.81l59.12,15.73a16.58,16.58,0,0,0,20.32-11.78l15.74-59.12A1.86,1.86,0,0,0,101.3,532l-13.5-3.59c-1.72,4-5.32,7.16-10.32,9a31.61,31.61,0,0,1-18.66.42C46,534.37,37.24,524.61,38.36,515.22l-10.42-2.78a1.88,1.88,0,0,0-2.29,1.33l-4.18,15.71L19.52,529C11.78,526.91,3,534.63-.09,546.2a27.4,27.4,0,0,0,.31,16.24c1.64,4.49,4.52,7.49,8.14,8.45l1.94.52L6.13,587.14A1.53,1.53,0,0,0,6.06,587.61Z"/><path class="cls-6" d="M127.55,481.92a5.92,5.92,0,0,1-3.79,5.52l-11.55,4.44c1,4.27-.1,8.92-3.08,13.33A31.53,31.53,0,0,1,94.28,516.5c-12.36,4.76-25.18,1.92-29.82-6.25L52.91,514.7a5.91,5.91,0,0,1-7.63-3.39L40,497.62l1.88-.73c7.48-2.88,10.06-14.3,5.77-25.46a27.51,27.51,0,0,0-9.79-13c-4-2.68-8.07-3.41-11.56-2.07l-1.88.72L18,440.45a5.94,5.94,0,0,1,3.4-7.63l57.09-22a20.67,20.67,0,0,1,26.68,11.85l22,57.1A5.8,5.8,0,0,1,127.55,481.92Zm-20.42,7.59,15.18-5.84a1.87,1.87,0,0,0,1.08-2.41l-22-57.1A16.64,16.64,0,0,0,80,414.62l-57.1,22A1.87,1.87,0,0,0,21.78,439l5,13c4.26-1,8.92.09,13.32,3.08A31.44,31.44,0,0,1,51.42,470c4.74,12.36,1.91,25.17-6.25,29.81L49,509.86a1.88,1.88,0,0,0,2.42,1.07l15.18-5.84.72,1.88c2.88,7.48,14.3,10.06,25.47,5.77a27.51,27.51,0,0,0,13-9.79c2.68-4,3.43-8.07,2.07-11.56Z"/><path class="cls-6" d="M587.43,575.09l-8.92,19.39-1.79-.74c-17.79-7.37-31.93-3.78-38.77-1a11.09,11.09,0,0,1-12.4-2.83l-40.86-45.2,3.91-8.49,60.9,1.58a11.11,11.11,0,0,1,10.22,7.58c2.33,7,8.8,20.09,26,28.8Zm-11,14.2,5.7-12.38c-17.19-9.35-23.82-22.86-26.27-30.23a7,7,0,0,0-6.5-4.81l-58.24-1.52L489.47,544l39.07,43.23a7,7,0,0,0,7.88,1.79C543.6,586.09,558.18,582.33,576.46,589.29Z"/><path class="cls-6" d="M536.89,563.6A10,10,0,1,1,532,550.33,10,10,0,0,1,536.89,563.6Zm-14.51-6.68A6,6,0,1,0,530.3,554,6,6,0,0,0,522.38,556.92Z"/><rect class="cls-6" x="502.49" y="531.06" width="4.03" height="35.29" transform="translate(-204.77 777.9) rotate(-65.31)"/><path class="cls-6" d="M595.06,578.94l-8.65,18.82A6.29,6.29,0,1,1,575,592.51l8.65-18.82a6.29,6.29,0,1,1,11.43,5.25Zm-16.41,15.25a2.26,2.26,0,1,0,4.1,1.89l8.65-18.82a2.26,2.26,0,0,0-4.1-1.89Z"/><path class="cls-6" d="M521.54,633.38,519.85,637a70.58,70.58,0,0,1-34.6-93.51l3.66,1.69A66.55,66.55,0,0,0,521.54,633.38Z"/><path class="cls-6" d="M581.55,502.85l-1.69,3.66a66.55,66.55,0,0,0-88.16,32.63L488,537.46A70.58,70.58,0,0,1,581.55,502.85Z"/><rect class="cls-6" x="431.15" y="539.15" width="114.81" height="4.03" transform="translate(-207.22 759) rotate(-65.31)"/><path class="cls-6" d="M521,483.35l-4.48,9.73-9.74-4.48,4.48-9.73Zm-6.46,4.38,1.11-2.4-2.41-1.11-1.11,2.41Z"/><path class="cls-6" d="M470.29,593.73l-4.48,9.74L456.07,599l4.48-9.74Zm-6.46,4.39,1.11-2.41-2.41-1.11L461.42,597Z"/><path class="cls-6" d="M588.62,508.32a5.56,5.56,0,1,1-2.73-7.38A5.57,5.57,0,0,1,588.62,508.32Zm-6.45-3a1.53,1.53,0,1,0,2-.75A1.53,1.53,0,0,0,582.17,505.36Z"/><path class="cls-6" d="M891.06,438.58l28.52,59.21a15.21,15.21,0,0,1-7.09,20.27l-59.21,28.52A15.2,15.2,0,0,1,833,539.49l-28.52-59.2a15.21,15.21,0,0,1,7.1-20.28l59.2-28.52A15.22,15.22,0,0,1,891.06,438.58Zm-54.42,99.16A11.17,11.17,0,0,0,851.53,543l59.2-28.52a11.16,11.16,0,0,0,5.21-14.89l-28.51-59.21a11.17,11.17,0,0,0-14.9-5.2l-59.2,28.52a11.16,11.16,0,0,0-5.21,14.89Z"/><path class="cls-6" d="M868.1,436.53,850.55,495a12.82,12.82,0,0,0,7.16,15.43l33,14.38-1.62,3.69-33-14.37a16.86,16.86,0,0,1-9.41-20.29l17.55-58.51Z"/><path class="cls-6" d="M853.63,478.3l-1.46,3.76-10.38-4a16.88,16.88,0,0,1-10.24-19.78l2-8,3.92,1-2,8a12.85,12.85,0,0,0,7.78,15.05Z"/><path class="cls-6" d="M842,487a10.08,10.08,0,1,1-13.46-4.71A10.1,10.1,0,0,1,842,487Zm-14.53,7a6,6,0,1,0,2.82-8.07A6.05,6.05,0,0,0,827.48,494Z"/><path class="cls-6" d="M112.94,42.4l-2-3.53,151.51-84a8.17,8.17,0,0,0-1-6,5.29,5.29,0,0,0-5-2.87L97,13.51,95.4,9.79,255.58-57.9l.33,0A9.44,9.44,0,0,1,265-53.1c2,3.46,2.34,8.11.7,10.59l-.27.41-.43.24Z"/><path class="cls-6" d="M41.38,31.07c5.32-9.53,15.39-13.31,30.76-11.56l-.46,4C57.92,22,49.4,25,44.9,33Z"/><path class="cls-6" d="M61.87,83.88v-4c24.1,0,27-24.52,27.28-27.32l4,.36C92.13,64.42,84.35,83.92,61.87,83.88Z"/><path class="cls-6" d="M87.89,52.13A97.74,97.74,0,0,1,70,22.24l-.15-.4a3.47,3.47,0,0,1,2-4.42l21.55-8.6a3.49,3.49,0,0,1,4.22,1.35l-1.45,1.48,1.71-1.07c3.08,4.91,10.8,17.6,15.91,29.24h0l.23.5a3.47,3.47,0,0,1-1.34,4.31l0,0L94.93,55.54a3.44,3.44,0,0,1-4.21-.45l-1-1C89.23,53.6,88.6,52.93,87.89,52.13Zm4.92,0h0ZM73.86,21A90.92,90.92,0,0,0,92.62,51.29l.57.58L110.4,41.32l-.28.12c-5-11.38-12.59-23.86-15.63-28.71Zm-.5.2h0Zm37.1,20.12a.58.58,0,0,0-.12.64l.42-.33-.22-.34Zm.11,0,.21.34,1.19-.95Zm-14.64-30-1.71,1.07a.68.68,0,0,0,.39.28Z"/><path class="cls-6" d="M30,76.32a5.24,5.24,0,0,1-1.19-2.19c-.61-2.36.84-4.67,1.71-6l.19-.31a14.41,14.41,0,0,0,.84-1.41,33.85,33.85,0,0,0,2.62-7.58,42.56,42.56,0,0,0,.73-6.46l0-.75a37.69,37.69,0,0,1,.6-4.32c.2-1.15.41-2.3.51-3.46.36-4,1.06-8.22,3.72-11.44,1.85-2.23,5.1-4,8.2-2.85,3.51,1.27,4.65,5.28,4.54,8.31-.13,4.08-1.72,7.75-3.26,11.3-1.32,3-2.56,5.91-2.88,8.92a7.25,7.25,0,0,0,.34,3.55,3,3,0,0,0,1.87,1.85c1.26.33,2.87-.53,4.41-1.44l4.37-2.57a9.18,9.18,0,0,1,4.82-1.66,6.57,6.57,0,0,1,6,5.36,9.13,9.13,0,0,1-2,7.22,15.27,15.27,0,0,1-6.77,4.79,17.91,17.91,0,0,1-2,.61,10.48,10.48,0,0,0-2.2.75A11.9,11.9,0,0,0,57,76.39l.49-.06a10.15,10.15,0,0,1,2.89-.08,4.57,4.57,0,0,1,3.8,3,4.39,4.39,0,0,1-1.27,4.46,7.14,7.14,0,0,1-3.25,1.63c-4.86,1.2-9.7-.29-13.86-1.78-3.19-1.15-6.35-2.4-9.41-3.72-.32-.14-.69-.29-1.09-.44C33.6,78.73,31.4,77.88,30,76.32Zm3.93-6.08c-.41.66-1.39,2.2-1.22,2.88.3,1.06,2.65,2,4.07,2.52l1.24.49c3,1.29,6.06,2.51,9.16,3.63,3.61,1.29,7.77,2.6,11.53,1.67a3.47,3.47,0,0,0,1.44-.64.68.68,0,0,0,.2-.36,2,2,0,0,0-.56-.19,6.89,6.89,0,0,0-1.76.1l-.55.06c-5.38.62-6.75-1.31-7-3A4,4,0,0,1,52,73.92a10.1,10.1,0,0,1,4.49-2.07,15.24,15.24,0,0,0,1.63-.48,11.24,11.24,0,0,0,5-3.48,5.21,5.21,0,0,0,1.2-4,2.54,2.54,0,0,0-2.14-2.11,5.84,5.84,0,0,0-2.71,1.1l-4.37,2.57c-1.68,1-4.48,2.65-7.47,1.88A7,7,0,0,1,43,63.13a11.07,11.07,0,0,1-.62-5.51c.38-3.62,1.81-6.92,3.19-10.11C47,44.16,48.38,41,48.49,37.69c.06-1.77-.49-3.9-1.88-4.39-1.2-.43-2.78.49-3.72,1.63-2,2.37-2.51,5.84-2.81,9.23-.11,1.27-.34,2.54-.56,3.81A33.8,33.8,0,0,0,39,51.83l0,.74a45.34,45.34,0,0,1-.81,7.08,37.51,37.51,0,0,1-2.93,8.48,19.43,19.43,0,0,1-1.06,1.81l-1.9-.78Z"/><path class="cls-6" d="M484.29,16.62l-1.52,3.73c-16.12-6.54-23.09-17.72-29.24-27.58-5-7.95-9.24-14.82-17.39-18.11-13.23-5.36-29.63-4.53-42.78,2.16C383.16-18,369.73-6.73,363.69,17.44c-4.19,16.69,1,36.65,13.12,50.83,9.24,10.78,21.05,16.37,32.42,15.34,12.34-1.13,18.9-5.14,25.85-9.39,8.48-5.18,17.27-10.54,36.54-10.95l.09,4c-18.19.39-26.5,5.46-34.53,10.37-7,4.3-14.31,8.73-27.59,10-12.68,1.15-25.75-4.95-35.85-16.73-13-15.15-18.45-36.5-14-54.44,6.41-25.64,20.81-37.67,31.77-43.24,14.16-7.2,31.83-8.09,46.12-2.3C447-25.3,451.84-17.56,457-9.36,463.06.43,469.38,10.56,484.29,16.62Z"/><path class="cls-6" d="M479.5,34.44l-1,3.92C473.56,37.11,461.45,34,449.17,30a13,13,0,0,1-.19,6.52,14.12,14.12,0,0,1-2.25,4.33c12.86,3.5,25.28,7.87,29,9.21l-1.36,3.8c-3.9-1.4-17.4-6.16-30.86-9.7-7.56,6.13-21.13,8.73-28.13,5.23a7.66,7.66,0,0,1-4.55-7.86A5,5,0,0,1,413,37.78c2.5-1.76,8.27-3.44,29.37,1.93a11,11,0,0,0,2.71-4.38,10.93,10.93,0,0,0-.59-6.86c-24.15-8.21-28.59-13.19-29.81-16.24A5,5,0,0,1,414.89,8,7.23,7.23,0,0,1,422,4.1c8.22.37,20.81,10.88,25.51,21.13C460.65,29.59,474.2,33.12,479.5,34.44Zm-61.15-24.2a1.46,1.46,0,0,0,.11.49c.61,1.52,4.16,5.64,23.4,12.54-5.2-8-14.63-14.9-20-15.14-2.18-.09-3,.93-3.39,1.7A1,1,0,0,0,418.35,10.24Zm-3.53,32.14a3.62,3.62,0,0,0,2.36,3.4c4.48,2.24,14.25,1.14,21.15-2.92-17.09-4.07-21.74-2.64-23-1.78a1,1,0,0,0-.51.82A3.75,3.75,0,0,0,414.82,42.38Z"/><path class="cls-6" d="M524.61,49.21a10.9,10.9,0,0,1-.55,3.38c-2.55,7.93-11,11.88-13,12.73l-.29.3h-3.33l.84-4.16,1,.21c.82-.32,8.82-3.64,11-10.32,1.69-5.24-3.28-9.37-5.49-10.9l-.58-.37,1-1.68-2-.41.63-2.61,2.37,1.21s.32.19.83.53C519,38.5,524.6,42.94,524.61,49.21Z"/><rect class="cls-6" x="478.52" y="65.53" width="4.03" height="8.86" transform="translate(350.17 537.75) rotate(-82.71)"/><rect class="cls-6" x="488.08" y="15.56" width="4.03" height="0.78" transform="translate(320.84 476.16) rotate(-71.67)"/><path class="cls-6" d="M512.35,62.84l-.82,2c-2.68,6.1-5.66,9.46-8.85,10l-.29,0L501,74.62l.5-4,.82.1c1.34-.4,3.47-2.65,5.73-7.9l.59-1.44.56.22h.7v.27Z"/><path class="cls-6" d="M518.18,33.27c0,1.72-.09,3.63-.29,5.72-.25,2.57-.64,5.31-1.17,8.15l.34.69L516,49l-1.42-1.43-1.79.81-.31-.62.14-.67c.57-3,1-5.8,1.24-8.44.8-8.4-.34-12-1.14-12.8l-11-3.76,1.3-3.82,11.81,4.12a5.9,5.9,0,0,1,.73.61C517.31,24.7,518.18,28.16,518.18,33.27Z"/><rect class="cls-6" x="491.06" y="66.6" width="4.03" height="9.96" transform="translate(359.47 551.57) rotate(-82.7)"/><rect class="cls-6" x="494.33" y="15.26" width="4.03" height="5.64" transform="translate(318.21 481.71) rotate(-71.07)"/><path class="cls-6" d="M492.31,13.24a4.7,4.7,0,0,1-.16,1.22L477.86,70.84a4.47,4.47,0,0,1-3.13,3.29A5,5,0,0,1,470,72.91a4.41,4.41,0,0,1-1.18-4.37l14.29-56.38a4.45,4.45,0,0,1,3.13-3.29A5,5,0,0,1,491,10.08,4.35,4.35,0,0,1,492.31,13.24ZM472.64,69.75a.33.33,0,0,0,.12.27,1,1,0,0,0,.87.22c.1,0,.23-.06.32-.4l14.3-56.38c.08-.32,0-.42-.09-.49a1,1,0,0,0-.87-.22c-.1,0-.23.07-.32.4L472.68,69.53A1.15,1.15,0,0,0,472.64,69.75Z"/><path class="cls-6" d="M495.71,19.57a242.76,242.76,0,0,1-5.78,52.63,3.45,3.45,0,0,1-2.33,2.6,3.83,3.83,0,0,1-3.67-.84,3.58,3.58,0,0,1-1.05-3.41,236.61,236.61,0,0,0,5.56-54.44h0v-.06a3.62,3.62,0,0,1,7.24-.08Q495.71,17.77,495.71,19.57Zm-3.24-3.51Z"/><path class="cls-6" d="M506.14,43a154.75,154.75,0,0,1-3.3,31.78,3.44,3.44,0,0,1-4.19,2.7,3.59,3.59,0,0,1-2.87-4.3A146.86,146.86,0,0,0,497,19.29h0A3.75,3.75,0,0,1,500.2,15a3.31,3.31,0,0,1,3.88,2.79A156.71,156.71,0,0,1,506.14,43Z"/><path class="cls-6" d="M517.18,36.76c0,8.57-1.19,17-2.29,24.8a3.27,3.27,0,0,1-2,2.67,3.8,3.8,0,0,1-3.7-.58,3.71,3.71,0,0,1-1.39-3.44c1.76-12.39,3.57-25.2.72-37.6h0a3.64,3.64,0,0,1,1.05-3.47,3.8,3.8,0,0,1,3.66-.87,3.33,3.33,0,0,1,2.3,2.54A70.82,70.82,0,0,1,517.18,36.76Z"/></g><path class="cls-7" d="M869.42,98.41c-2.71-2.27-4.12-3.58-4.12-6.35s1.41-4.08,4.12-6.35c2.89-2.43,6.49-5.45,6.49-11.44s-3.6-9-6.49-11.43c-2.71-2.27-4.12-3.58-4.12-6.35s1.41-4.08,4.12-6.34c2.89-2.43,6.49-5.44,6.49-11.44h-6.63c0,2.77-1.41,4.08-4.12,6.35-2.89,2.42-6.49,5.44-6.49,11.43s3.6,9,6.49,11.44c2.71,2.26,4.12,3.57,4.12,6.34s-1.41,4.08-4.12,6.35c-2.89,2.43-6.49,5.44-6.49,11.44s3.6,9,6.49,11.43c2.71,2.27,4.12,3.59,4.12,6.36h6.63C875.91,103.85,872.31,100.83,869.42,98.41Z"/><path class="cls-7" d="M851.63,98.41c-2.71-2.27-4.12-3.58-4.12-6.35s1.41-4.08,4.12-6.35c2.89-2.43,6.49-5.45,6.49-11.44s-3.6-9-6.49-11.43c-2.71-2.27-4.12-3.58-4.12-6.35s1.41-4.08,4.12-6.34c2.89-2.43,6.49-5.44,6.49-11.44h-6.63c0,2.77-1.41,4.08-4.12,6.35-2.89,2.42-6.49,5.44-6.49,11.43s3.6,9,6.49,11.44c2.71,2.26,4.12,3.57,4.12,6.34s-1.41,4.08-4.12,6.35c-2.89,2.43-6.49,5.44-6.49,11.44s3.6,9,6.49,11.43c2.71,2.27,4.12,3.59,4.12,6.36h6.63C858.12,103.85,854.52,100.83,851.63,98.41Z"/><path class="cls-8" d="M195.59,482.54c2.27-2.7,3.59-4.12,6.36-4.12s4.08,1.42,6.35,4.12c2.42,2.9,5.44,6.5,11.43,6.5s9-3.6,11.44-6.5c2.26-2.7,3.57-4.12,6.34-4.12s4.08,1.42,6.35,4.12c2.42,2.9,5.44,6.5,11.43,6.5V482.4c-2.77,0-4.08-1.41-6.35-4.12-2.42-2.89-5.44-6.49-11.43-6.49s-9,3.6-11.43,6.49c-2.27,2.71-3.58,4.12-6.35,4.12s-4.08-1.41-6.35-4.12c-2.42-2.89-5.44-6.49-11.43-6.49s-9,3.6-11.44,6.49c-2.27,2.71-3.58,4.12-6.35,4.12V489C190.15,489,193.17,485.44,195.59,482.54Z"/><path class="cls-8" d="M195.59,464.75c2.27-2.7,3.59-4.12,6.36-4.12s4.08,1.42,6.35,4.12c2.42,2.9,5.44,6.5,11.43,6.5s9-3.6,11.44-6.5c2.26-2.7,3.57-4.12,6.34-4.12s4.08,1.42,6.35,4.12c2.42,2.9,5.44,6.5,11.43,6.5v-6.64c-2.77,0-4.08-1.41-6.35-4.12-2.42-2.89-5.44-6.49-11.43-6.49s-9,3.6-11.43,6.49c-2.27,2.71-3.58,4.12-6.35,4.12s-4.08-1.41-6.35-4.12C211,457.6,207.94,454,202,454s-9,3.6-11.44,6.49c-2.27,2.71-3.58,4.12-6.35,4.12v6.64C190.15,471.25,193.17,467.65,195.59,464.75Z"/><path class="cls-9" d="M762.06,290.29a7.7,7.7,0,0,1-.26,2l-20.64,77.55A27.09,27.09,0,0,1,708,389.05l-77.54-20.64a7.72,7.72,0,0,1-5.49-9.47l4.17-15.7c-5.26-2.25-9.39-7-11.78-13.53-2.63-7.23-2.83-15.92-.55-24.47,4.47-16.79,17.35-28.2,29.59-26.84l4.18-15.7a7.75,7.75,0,0,1,9.47-5.49l18.6,5-.68,2.56c-2.7,10.11,7.43,21.69,22.6,25.72,7.51,2,15.08,1.86,21.3-.41,5.9-2.15,9.84-5.93,11.1-10.68l.68-2.55,22.64,6a7.77,7.77,0,0,1,5.75,7.47ZM630,360.93a2.47,2.47,0,0,0,1.82,2.37l77.55,20.64a21.81,21.81,0,0,0,26.66-15.46l20.63-77.55a2.39,2.39,0,0,0-.24-1.86,2.43,2.43,0,0,0-1.49-1.13l-17.71-4.72c-2.26,5.27-7,9.4-13.54,11.78-7.23,2.63-15.92,2.83-24.47.56-16.78-4.47-28.31-17.27-26.84-29.59l-13.68-3.65a2.47,2.47,0,0,0-3,1.74l-5.48,20.62-2.56-.68c-10.15-2.7-21.69,7.43-25.73,22.6-2,7.5-1.86,15.07.42,21.3,2.14,5.9,5.93,9.84,10.67,11.1l2.55.68L630.1,360.3A2.27,2.27,0,0,0,630,360.93Z"/><path class="cls-9" d="M789.37,222.28a7.76,7.76,0,0,1-5,7.24l-15.15,5.83c1.25,5.6-.13,11.7-4,17.49-4.32,6.37-11.24,11.63-19.49,14.81-16.21,6.24-33,2.51-39.1-8.2l-15.16,5.83a7.75,7.75,0,0,1-10-4.44l-6.91-18,2.47-.95c9.81-3.78,13.19-18.77,7.56-33.4-2.79-7.26-7.35-13.3-12.84-17-5.2-3.51-10.58-4.47-15.16-2.71l-2.47.95-8.41-21.87a7.77,7.77,0,0,1,4.44-10L725,129.07a27.12,27.12,0,0,1,35,15.55l28.81,74.89A7.51,7.51,0,0,1,789.37,222.28Zm-26.77,10,19.91-7.67a2.44,2.44,0,0,0,1.41-3.16l-28.82-74.9A21.82,21.82,0,0,0,726.94,134l-74.89,28.82a2.44,2.44,0,0,0-1.41,3.17l6.58,17.1c5.59-1.26,11.7.13,17.48,4,6.38,4.31,11.64,11.24,14.82,19.49,6.21,16.21,2.5,33-8.2,39.1l5.08,13.21a2.44,2.44,0,0,0,3.16,1.4l19.92-7.66.95,2.47c3.77,9.8,18.76,13.2,33.4,7.56,7.25-2.79,13.29-7.35,17-12.84,3.52-5.2,4.5-10.59,2.72-15.15Z"/><path class="cls-9" d="M337.75,191.07l45,93.41a24,24,0,0,1-11.19,32l-93.41,45a24,24,0,0,1-32-11.19l-45-93.41a24,24,0,0,1,11.19-32l93.42-45A24,24,0,0,1,337.75,191.07ZM251.88,347.52a17.63,17.63,0,0,0,23.5,8.22l93.41-45a17.62,17.62,0,0,0,8.22-23.5l-45-93.4a17.6,17.6,0,0,0-23.49-8.22l-93.42,45a17.62,17.62,0,0,0-8.21,23.5Z"/><path class="cls-9" d="M301.53,187.83l-27.7,92.31a20.26,20.26,0,0,0,11.3,24.36l52.09,22.68L334.68,333l-52.09-22.68a26.6,26.6,0,0,1-14.85-32L295.43,186Z"/><path class="cls-9" d="M278.7,253.74l-2.31,5.93L260,253.29a26.62,26.62,0,0,1-16.15-31.21L247,209.45l6.18,1.54L250,223.62a20.29,20.29,0,0,0,12.28,23.75Z"/><path class="cls-9" d="M260.36,267.4A15.9,15.9,0,1,1,239.13,260,15.93,15.93,0,0,1,260.36,267.4Zm-22.93,11a9.54,9.54,0,1,0,4.46-12.73A9.56,9.56,0,0,0,237.43,278.44Z"/><g class="cls-10"><path class="cls-5" d="M792.09,205.34c109.87,54.72,246.16,51.2,354.36-6.76,261.34-140,284.55-531.17,36.21-699C1052.9-588.06,868.81-588.26,741-497.73c-87.67,62.11-143.77,164.57-154.71,270.88-10.47,101.85,6.16,221.29,64.1,307C686.05,132.94,735,176.91,792.09,205.34Z"/></g><g class="cls-11"><g class="cls-12"><path class="cls-13" d="M-133.8,613.1c18.37,10.89,29.66,25.23,33.57,42.64a3.63,3.63,0,0,0,2,2.53,3.65,3.65,0,0,0,1.55.35,3.74,3.74,0,0,0,1.71-.43c15.81-8.24,34.06-8.87,54.24-1.86a7.6,7.6,0,0,0,9.42-4L2.27,580.08a7.71,7.71,0,0,0,.08-6.26,7.6,7.6,0,0,0-4.57-4.21c-14.55-4.86-36-8.3-56,2.55-4.61-22.28-21.07-36.43-34.18-44.42a7.6,7.6,0,0,0-6.16-.77,7.64,7.64,0,0,0-4.73,4.11l-33.54,72.23A7.64,7.64,0,0,0-133.8,613.1Zm.2-8.3,33.54-72.23a4.11,4.11,0,0,1,2.54-2.2,4,4,0,0,1,3.28.41h0c11.44,7,25.52,18.83,31.18,36.91,1,3.07,2.1,5.75,1.64,8l-.35,3,2.3-2.46c1.93-1.61,4.32-2.19,7.37-3.53,17.7-7.76,35.86-4,48.75.3a4,4,0,0,1,2.44,2.24,4.16,4.16,0,0,1,0,3.37L-34.5,650.82a4.22,4.22,0,0,1-5.14,2.11,84.3,84.3,0,0,0-27.59-5,62.84,62.84,0,0,0-26.65,5.89l3-12.55-6.65,10.59c-4.89-17-16.34-31-34.4-41.78A4.13,4.13,0,0,1-133.6,604.8Z"/></g></g></g><g id="Capa_4" data-name="Capa 4"><path class="cls-14" d="M392.86,464.86l-16.54,92.35s-1.1,18.67,26.47,24.56,93.74,6.88,136.75-5.89c0,0,13.23-6.88,13.23-13.76,0,0-6.61-100.21-9.92-99.23S392.86,464.86,392.86,464.86Z"/><path class="cls-15" d="M392.86,464.86l-16.54,92.35s-1.1,18.67,26.47,24.56,93.74,6.88,136.75-5.89c0,0,13.23-6.88,13.23-13.76,0,0-6.61-100.21-9.92-99.23S392.86,464.86,392.86,464.86Z"/><path class="cls-16" d="M542.85,462.89c-2.32.69-75.15,1.38-118.45,1.73a50.24,50.24,0,0,0,25.12,27.72c15.9,7.8,33.6,8.7,51,11.92,30.32,5.63,24.8-73.46,26.12,59.28.07,7.3-4.64,12.92-9.84,17.51a206.85,206.85,0,0,0,22.76-5.17s13.23-6.88,13.23-13.76C552.77,562.12,546.16,461.91,542.85,462.89Z"/><path class="cls-17" d="M464.46,512.35c17.65,0,22.79,17,22.79,17s5.88-22.93,1.47,17.68-78.67,28.82-78.67,28.82c-27.2-4.59-25-26.2-25-26.2l11-26.86s-.36-20.3,11.4-19C418.45,505.05,464.46,512.35,464.46,512.35Z"/><path class="cls-18" d="M402,517.26s-12.14,11.46-12.87,36.35C389.1,553.61,405.65,580.79,402,517.26Z"/><path class="cls-15" d="M354.46,80.35c-12.41-57-46-67.36-63.37-50.52C269.86,50.37,303.45,134.67,313.31,194c9.28,55.75,12.51,103.49,12.51,103.49l77.12-31.76S369.09,147.43,354.46,80.35Z"/><path class="cls-15" d="M463.89,226.83a28.08,28.08,0,0,1-4-.3,51.31,51.31,0,0,1-8.63,1.42,19.13,19.13,0,0,1-10.36-2.17c-3.48,4.58-9.26,7.79-17.36,7.79-6.37,0-11.29-2-14.8-5-.09,14-.15,22.75-.15,22.75l72.86,19.18s-1.39-20-3.08-48.42C474.9,225,470.07,226.83,463.89,226.83Z"/><path class="cls-15" d="M570.56,17.26c-19.64-12.54-45.69-.91-54.22,46.81-10.64,59.55-37,198.78-37,198.78l71.09,29.09s3.35-53.23,10.8-109.09S590.21,29.8,570.56,17.26Z"/><path class="cls-15" d="M650.54,85.71c-16.83-12.87-41.71-4.11-53.82,38.91-15.11,53.68-51.83,179.11-51.83,179.11l62.38,31.69s7.88-48.42,19.74-99S667.35,98.59,650.54,85.71Z"/><path class="cls-15" d="M604.83,274.9C585.59,252,554.1,247.07,554.1,247.07c-1.7-10.7-13.41-18.14-33.45-21.56a53,53,0,0,0-34.93,6.17c-6,4.58-10.2.53-14.48-5.86a25.76,25.76,0,0,1-7.35,1,28.08,28.08,0,0,1-4-.3,51.31,51.31,0,0,1-8.63,1.42,19.13,19.13,0,0,1-10.36-2.17c-3.48,4.58-9.26,7.79-17.36,7.79a22.36,22.36,0,0,1-13.84-4.27c-.11.14-.25.29-.35.43a40.83,40.83,0,0,1-.37,4.82c-1.21,7.12-3.3,6.67-7.65,8.19-6.24,2.16-8.54-4.16-12.13-7.13-4.13-3.42-11.15-6.22-17-6.88-16.41-1.87-43.81,11.66-47.38,69.66S335.16,421.13,381,467.44,500.57,498,500.57,498c77.84-11.33,96.56-67.19,102.05-95.66S624.06,297.78,604.83,274.9Z"/><path class="cls-15" d="M409.77,395.12c.41-17.64.68-38-9.63-53.77a45.55,45.55,0,0,0-5.19-6.54c-15.4-16.15-40.57-17.6-60.32-27.48a73.47,73.47,0,0,1-12.55-8.1A18.81,18.81,0,0,1,309.83,313c-.19.13-.35.28-.55.42-8.71,6-14.2,33.76-13.65,42,1.18,17.86,10.56,35.75,17.86,52.3,2.37,3.13,4.8,6.17,7.21,9.24a18.56,18.56,0,0,1,6.66,8.23c2.76,3.34,5.52,6.68,8.37,9.89,13.92,15.62,52.84,44.52,70.59,41.26C432.84,471.44,409.36,412.81,409.77,395.12Z"/><g class="cls-19"><path class="cls-20" d="M650.54,85.71c-16.83-12.87-41.71-4.11-53.82,38.91-8.53,30.3-23.94,83.47-35.75,124-4.2-1.14-6.87-1.58-6.87-1.58s0-.1-.05-.14c1.74-18.57,4.11-41.1,7.17-64.08,7.45-55.87,29-153,9.34-165.59s-45.69-.91-54.22,46.81c-7.5,42-22.81,123.52-31.2,168-2.25,1.52-4.23,1.85-6.07,1.29-.22-3.57-.45-7.38-.68-11.31-3.49,2.92-8.32,4.78-14.5,4.78a28.08,28.08,0,0,1-4-.3,51.31,51.31,0,0,1-8.63,1.42,19,19,0,0,1-10.33-2.2c-3.48,4.59-9.27,7.82-17.39,7.82-6.37,0-11.29-2-14.8-5,0,2.64,0,5.14-.05,7.37-1.25,5.62-3.32,5.43-7.36,6.83a6.1,6.1,0,0,1-5-.22C385.81,204.68,365.08,129,354.46,80.35c-12.41-57-46-67.36-63.37-50.52C269.86,50.37,303.45,134.67,313.31,194c7.42,44.62,11,84.06,12.09,98.06-.2,2.05-.37,4.14-.51,6.31-.06,1-.07,1.94-.12,2.9-.92-.66-1.79-1.41-2.67-2.13a18.79,18.79,0,0,1-11,13.35c22.5,21.93,49.32,38.18,78.07,54.42l5.64,3.17c13.65,6.29,27.37,12.45,40.36,19.37,17.62,9.4,36.42,20.43,46.47,36.22a78.77,78.77,0,0,0-25.18-45.48c-20.38-18.55-46.22-30.23-69.77-45.07-17.48-11-31.44-24.36-28.37-44.79,2.63-17.52,19-29.62,37.07-34.41,29.49-7.81,60.76-8.49,91.16-5.18,24.46,2.67,50.66,6.49,72.68,17.2,29,14.1,25.2,69.23,23.09,83-.49,3.12-1,6.24-1.44,9.38-2.56,51.81-12.28,108.39-72.66,126.63-30.18,9.11-68.58,9.64-96.31-6.17-18.58-10.61-34-25.59-49.72-39.24q-6.54-5.68-12.67-11.68c-19-15.2-34.37-33.31-48.8-52.11,3.64,10.27,8.54,20.34,12.79,30,2.37,3.13,4.8,6.17,7.21,9.24a18.56,18.56,0,0,1,6.66,8.23c2.76,3.34,5.52,6.68,8.37,9.89,9.63,10.81,31.23,28,49.51,36.43C431.21,512.8,500.57,498,500.57,498c77.84-11.33,96.56-67.19,102.05-95.66,4.09-21.24,14-68.91,10.8-101.27,3.4-18,8.07-41,13.59-64.59C638.88,185.91,667.35,98.59,650.54,85.71ZM354.08,254.25c-16.61,3.41-25.2-6.41-28.31-20-1.85-8.05-2.36-16.18-3.51-24.31-2.1-14.83-5.18-29.65-7.86-44.41-4.11-22.52-10.57-44.41-15.72-66.67C294.81,88,292,77,291.89,65.63c-.06-8.1.26-23.12,9.41-27.95.25-.14.49-.19.74-.32a2.43,2.43,0,0,1,1-.43c6.73-2.55,12.93.63,17.82,5.4,8.13,7.93,10.71,20.92,12.86,31,2.79,13.15,6.33,25.9,10.18,38.83,7.21,24.18,14.19,48.43,20.65,72.79C369,201.59,383.39,248.22,354.08,254.25Zm174.84-53.51c-2,4.67-13.7,31.65-24.12,23-9-7.52-3.13-27.29-1.66-36.59,4.12-26.1,10.92-51.73,15.68-77.74,2-10.88,3.51-22.23,5.53-33.48,1.22-15.9,3.36-32.8,13.85-44.85C549.75,17.79,564.73,25,562.5,41,558.74,67.93,552,94.43,546.11,121,540.39,147.12,539.67,175.82,528.92,200.74Zm83.37-3.55a205.43,205.43,0,0,1-15,37.24c-2.28,4.31-6.93,13.23-13.27,14-19.71,2.49-7.21-25-5.22-31.85,7.52-25.93,15.35-51.79,22.9-77.7.51-1.76,1-3.6,1.54-5.49A216,216,0,0,1,611.13,105c2.44-6.7,5.74-12.91,13.76-15.1,4-1.08,9.84-.16,12.3,3.1,7.44,9.81-1.22,26.48-5.14,36.13C623.08,151.26,619.14,174.57,612.29,197.19Z"/></g><g class="cls-19"><path class="cls-20" d="M650.54,85.71a25.17,25.17,0,0,0-14.63-5.39c15.4,4,13,25,9.8,35.47-8.43,27.31-17.12,54.61-25,82.05-4.09,14.3-8,28.67-11.58,43.09-2.32,9.47-2.45,20.54-7.66,29.18a2.39,2.39,0,0,1-3.46.4c-11.72-8.79-22.28-18.1-36.85-22.64-.07.25-.15.52-.22.78-4.2-1.14-6.87-1.58-6.87-1.58s0-.1-.05-.14c1.74-18.57,4.11-41.1,7.17-64.08,7.45-55.87,29-153,9.34-165.59-10-6.41-21.73-6.46-31.92,1.34,7.14-3.33,15.36-4.06,22.9.16,16.65,9.32,9.94,36.31,7,49.9-5.59,25.49-9.61,51.41-12.83,77.21-2.1,16.88-2.77,33.88-4.91,50.73-1.4,11-3,24.17-11.15,33.1-11.18,12.33-29.24,5.67-44.6,6.38-5.94.28-9.81-.71-12.22-2.86a5.93,5.93,0,0,1-3.71.14c-.22-3.57-.45-7.38-.68-11.31-3.49,2.92-8.32,4.78-14.5,4.78a27.26,27.26,0,0,1-4-.31l-.24.07a15.05,15.05,0,0,1-2.5,2.41c-10.06,7.53-27.44,10.57-40.25,12.22A17,17,0,0,1,407,240c-1.28,1.6-3.06,1.86-5.69,2.78a6.1,6.1,0,0,1-5-.22C385.81,204.68,365.08,129,354.46,80.35c-12.41-57-46-67.36-63.37-50.52A20.51,20.51,0,0,0,286,39c3.52-6.12,8.63-10.8,15.68-11.79,29.61-4.16,35,36.45,40.44,53.49,13.23,41.45,22.65,83.59,34.12,125.41,2.74,10,6,19.9,8.1,30,.86,4,0,9.14-3.16,12.36a76.13,76.13,0,0,1-13.67,10.51c4-1.45,8-2.78,11.92-4.13,22.88-8,48.22-11.52,72.76-11.79,26-.29,52.09,2.88,77.57,7.18a124.49,124.49,0,0,1,17.77,4.11c52.48,12.9,52,72.36,48.94,112.15-2.13,28-4.51,57-16.36,83.34a77.08,77.08,0,0,1-10.15,16.47c21.67-21,29.48-47.21,32.7-63.94,4.09-21.24,14-68.91,10.8-101.27,3.4-18,8.07-41,13.59-64.59C638.88,185.91,667.35,98.59,650.54,85.71Z"/><path class="cls-20" d="M380.26,342.14c-18.71-11.09-35.45-25.4-44.6-44-6.64-13.5-9.87-27.81-13.76-42,1.84,16.41,3,29.19,3.5,36-.2,2.05-.37,4.14-.51,6.31-.06,1-.07,1.94-.12,2.9-.92-.66-1.79-1.41-2.67-2.13a19.13,19.13,0,0,1-4.43,8.66c13.43,15.72,28,31.07,46.53,41.81,24.51,14.21,53.13,21.7,77.21,36.45,11.31,6.93,21.49,14.43,29.88,23.32C454.12,378.19,411.76,360.79,380.26,342.14Z"/><path class="cls-20" d="M386.07,365.17l3.08,1.76,5.64,3.17c13.65,6.29,27.37,12.45,40.36,19.37a225.17,225.17,0,0,1,26,15.65c-10.14-9-22.17-16.49-34.71-22.65C413.35,376.06,399.49,371,386.07,365.17Z"/></g><path class="cls-21" d="M439,377.12c-17.29-9.93-36.23-18.31-54.54-26.65A133.3,133.3,0,0,1,358.39,335c-7.86-6-17.29-12.12-21.72-20.64-.05-.12-.45.13-.4.26,5.24,12.52,21.13,24.64,33.3,32,15.83,9.54,34.29,16.35,50.93,24.77,17.87,9.06,34.43,18,46.74,33.05,11.6,14.17,21.3,33.3,16.71,51-.07.28.56-.08.62-.25C494.47,425,465.52,392.35,439,377.12Z"/><path class="cls-22" d="M418.27,474.07c-50.41-26.1-87.07-68.69-118.4-111.56q-2-2.81-4.06-5.62a72.09,72.09,0,0,0,1.77,10.39l.81,1.08c30.23,41.38,69.89,82.56,119.26,106.29C417.9,474.76,418.56,474.21,418.27,474.07Z"/><path class="cls-22" d="M322.57,171.69c-2.56-14.46-5.76-28.84-9.41-43.11-3.5-13.68-6.26-27.57-9.2-41.35s-6.24-27.37-5.42-41.38c0-.15-.45.1-.48.23-4.15,26.9,5,54.72,11,80.94,3.25,14.21,6.81,28.39,10.13,42.59,1.6,6.86,3.42,13.68,4.86,20.56,1.24,5.93,2.12,12.38,4.24,18.1.08.22.65-.15.6-.34C325.76,196.16,324.69,183.68,322.57,171.69Z"/><path class="cls-22" d="M539,38.19c-7.44,15.7-9.29,32.16-12.51,48.8-3.66,18.9-6.26,37.92-9.17,56.94-.06.4.82-.1.87-.36,3.48-18.1,7.49-36.1,11-54.18,3.34-17.08,4.13-34.86,10.33-51.37C539.64,37.78,539.08,38.06,539,38.19Z"/><path class="cls-22" d="M625.13,93.1c-15.94,16.55-20.76,41.73-25.66,62.62-.1.43.84-.11.92-.37,3.35-10.71,7.13-20.93,11.42-31.36s6.39-21.55,13.7-30.85C625.75,92.84,625.27,93,625.13,93.1Z"/><path class="cls-22" d="M543.26,264.44c-37-11.52-78.92-11.31-117.45-8.86-.13,0-.49.34-.26.34,39.23-.32,77.78,3.82,116.36,9.8C542.45,265.81,544,264.66,543.26,264.44Z"/><path class="cls-21" d="M566.28,249.75c-27.69-8.44-57.3-14.27-86.5-14.65-18.61-.25-37.32,1.48-55.76,3.57-14,1.59-26.85,5.19-40.42,8-.12,0-.37.29-.14.25,13.17-2.12,25.94-5.32,39.4-6.76,17-1.83,34.11-3,51.25-3.31,33.32-.53,70.74,9.56,102.38,18.48C573.18,253.32,569.75,251.51,566.28,249.75Z"/><path class="cls-22" d="M570.38,413.27s-14.7,62.23-79.4,72.06C491,485.33,541.71,474.19,570.38,413.27Z"/><path class="cls-21" d="M406.6,226.31c0,3.34,0,6.43-.05,9.22-.83,3.74-1.58,4-4.36,4.84l-1.64.53a4,4,0,0,1-2.29.2C387.05,201,367,127.65,356.63,80c-9.55-43.82-31-59.43-47.87-59.43a27.31,27.31,0,0,0-19.3,7.94c-15.42,14.93-4,59.22,8,106.1,5.22,20.33,10.62,41.36,13.67,59.72,7.37,44.31,10.9,83.23,12.08,97.6q-.25,2.58-.45,5.28l-.29-.25a19.6,19.6,0,0,1-1,4.4c.63.5,1.26,1,1.91,1.48a2.42,2.42,0,0,0,2.29.27,2,2,0,0,0,1.3-1.71l0-1.25c0-.54,0-1.09.07-1.63.13-2.15.31-4.22.5-6.56-1.18-14.72-4.71-53.76-12.11-98.21-3.07-18.51-8.49-39.61-13.73-60-11.26-43.84-22.9-89.16-9.05-102.57a22.78,22.78,0,0,1,16.05-6.67c14.43,0,34.49,14.73,43.54,56.25,10.49,48.13,30.78,122.32,41.94,162.26a2.07,2.07,0,0,0,1.08,1.25,8.55,8.55,0,0,0,6.83.32l1.5-.48c3.66-1.15,6-2.14,7.27-8.15,0-1.79,0-3.74,0-5.76A18.19,18.19,0,0,1,406.6,226.31Z"/><path class="cls-21" d="M652,84.22a27.49,27.49,0,0,0-16.73-5.92c-17.38,0-32.57,17.13-40.66,45.84-8.41,29.88-23.65,82.45-35.18,122.05-1.2-.29-2.21-.52-3-.68,2.09-22.23,4.45-43.22,7-62.43,1.58-11.84,3.78-25.5,6.12-40,11.05-68.45,17.69-117.66,2.32-127.47a30.79,30.79,0,0,0-16.51-5.05c-19.83,0-35.23,19.86-41.18,53.15-7.48,41.9-22.59,122.36-31,167.17a5.55,5.55,0,0,1-1.94.69c-.22-3.55-.46-7.46-.7-11.64a18.34,18.34,0,0,1-4.21,3.58c.21,3.54.42,6.89.6,9.91a2,2,0,0,0,1.49,1.75,9.27,9.27,0,0,0,8.12-1.6,1.94,1.94,0,0,0,.84-1.23c8.42-44.65,23.67-125.85,31.2-168,6.57-36.74,23.33-49.83,36.82-49.83a25.67,25.67,0,0,1,13.94,4.32c14.38,9.18,4.12,72.69-4.12,123.71-2.34,14.48-4.55,28.15-6.13,40-2.63,19.72-5,41.3-7.17,64.15a2.53,2.53,0,0,0,.06.61A2.08,2.08,0,0,0,553.7,249s2.62.44,6.63,1.53a2.49,2.49,0,0,0,1.72-.17,2,2,0,0,0,1.05-1.22c11.59-39.82,27.21-93.66,35.76-124,7.56-26.85,21.16-42.87,36.38-42.87a22.86,22.86,0,0,1,13.86,5c12.23,9.37-3.52,69.11-15,112.73-3.44,13-6.69,25.37-9.21,36.12-4.67,19.88-9.25,41.63-13.62,64.66a1.67,1.67,0,0,0,0,.5c3,30.13-5.44,73.35-10,96.57l-.81,4.19c-7.14,37-26.68,64.88-56.52,80.48a1.93,1.93,0,0,0-1.09,1.8c3.36,55.39,7.69,76.45,7.73,77.87,0,4.62-8.44,10.1-12,12-29.18,8.62-64.8,9.91-83.46,9.91-20.4,0-39.78-1.55-51.86-4.13C378,574.45,378.49,558,378.52,557.34l15.63-80.24a1.9,1.9,0,0,0-.78-1.63c-2.5-1.88-4.65-3.64-6.57-5.36a2.09,2.09,0,0,0-.55-.36c-17.67-8.19-39.09-25-48.79-35.91s-19-22.9-28-35.08c1.68,3.7,3.35,7.35,4.9,10.93a18.92,18.92,0,0,1,1.34,4.42c.14.18.29.35.42.53a18.85,18.85,0,0,1,12.56,15.42c1.77,2.08,3.51,4.2,5.32,6.22,9.93,11.14,31.77,28.33,49.9,36.82,1.73,1.53,3.62,3.08,5.76,4.72l-15.55,79.29c0,.2-.87,20.37,28.15,26.57,12.39,2.65,32.16,4.24,52.89,4.24,19,0,55.28-1.33,85.08-10.18a2.9,2.9,0,0,0,.41-.16c1.47-.77,14.33-7.67,14.33-15.51,0-1.46-4.3-20.52-7.66-76.85,30.34-16.31,50.2-44.84,57.48-82.58l.81-4.19c4.54-23.33,13-66.71,10-97.33,4.34-22.88,8.9-44.51,13.53-64.26,2.51-10.7,5.76-23,9.2-36C654.69,138.94,665.22,94.36,652,84.22Z"/><path class="cls-15" d="M391.26,239.09c-.19.54-.38,1.08-.62,1.64a185.2,185.2,0,0,0-12,37.68l20.55-8.5s-2.38-13.73-5.7-34.22A30.37,30.37,0,0,1,391.26,239.09Z"/><path class="cls-15" d="M487.27,229.9c-2.81-9.3-21.24-22.28-45.17-17.51s-37.5,17.45-37.5,17.45a20.7,20.7,0,0,1-7.8,2.71,34.4,34.4,0,0,1-2.9,2.25,31.54,31.54,0,0,1-2.64,4.29c-.19.54-.38,1.08-.62,1.64-10.85,24.4-14.7,48.08-16.72,71.23a131.69,131.69,0,0,1-.1,19.75,136.21,136.21,0,0,1,2.5,15.1c1.36,14.57-1.28,31.51,8.86,42.23a12.84,12.84,0,0,1,2.35,3.44,33.42,33.42,0,0,0,13,5.26,36,36,0,0,1,6.61-1.11c1.29-.36,2.55-.66,3.75-.88,1.25-.65,2.55-1.27,3.92-1.85a42.12,42.12,0,0,1,6.89-4.29,37.7,37.7,0,0,1,4-3c.66-.8,1.37-1.61,2.19-2.43a90.52,90.52,0,0,0,15.42-20.51,184.47,184.47,0,0,1,6.52-19.46,15.14,15.14,0,0,1,.79-4,432.3,432.3,0,0,1,19.65-46.92c.52-1.87,1-3.71,1.56-5.58a57.54,57.54,0,0,1,4-13.69,142.92,142.92,0,0,1,7.39-20.06,21.56,21.56,0,0,1,1-3.06,61.6,61.6,0,0,1,3.28-16.32,25.44,25.44,0,0,1,0-4.7Z"/><path class="cls-21" d="M488.14,225.28c-5.7-8.84-22.91-19.4-45.69-14.85a94.43,94.43,0,0,0-19.52,6.14,79.58,79.58,0,0,0-19.65,12,19.93,19.93,0,0,1-2.94,1.3,23.11,23.11,0,0,1-1.62,4.27,27.43,27.43,0,0,0,6.8-2.81,4.31,4.31,0,0,0,.81-.59c.06-.06,6.35-5.82,17.63-10.78a85.79,85.79,0,0,1,17.79-5.6c23.14-4.62,40.52,8.59,43,16.67a1.38,1.38,0,0,0,1.27.89c.14,0,.29,0,.44,0a20.21,20.21,0,0,1,1.66-6.34A2.61,2.61,0,0,0,488.14,225.28Z"/><path class="cls-16" d="M487.27,229.9c-2.81-9.3-21.24-22.28-45.17-17.51s-37.5,17.45-37.5,17.45a20.36,20.36,0,0,1-7.75,2.67,32.16,32.16,0,0,1-3,2.29,31.54,31.54,0,0,1-2.64,4.29c-.19.54-.38,1.08-.62,1.64-10.85,24.4-14.7,48.08-16.72,71.23a131.69,131.69,0,0,1-.1,19.75,136.21,136.21,0,0,1,2.5,15.1c1.36,14.57-1.28,31.51,8.86,42.23a12.84,12.84,0,0,1,2.35,3.44,33.42,33.42,0,0,0,13,5.26,36,36,0,0,1,6.61-1.11c1.29-.36,2.55-.66,3.75-.88,1.25-.65,2.55-1.27,3.92-1.85a42.12,42.12,0,0,1,6.89-4.29,37.7,37.7,0,0,1,4-3c.66-.8,1.37-1.61,2.19-2.43a90.52,90.52,0,0,0,15.42-20.51,184.47,184.47,0,0,1,6.52-19.46,15.14,15.14,0,0,1,.79-4c1.89-5.55,4-11.17,6.26-16.81-4.26-1.6-6.09-5.37-4-11.45,4.35-12.76,10.41-25.75,16.83-38.71,3.13-7.33,6.21-14.66,9.75-22,1.78-3.68,3.89-9.3,7-13.62.28-1,.67-2,1-2.93a25.75,25.75,0,0,1,0-4.81Zm-39.66,14.18a18.43,18.43,0,0,1-2.21,8.57,18.87,18.87,0,0,1-3.06,10.73,19.5,19.5,0,0,1-3.62,11.23,19.35,19.35,0,0,1-1.88,6.18,17.37,17.37,0,0,1-1.94,10.94,19.11,19.11,0,0,1-1.2,4.07c1.94,3.53,2.12,8,.4,12.62a15.15,15.15,0,0,1,.1,7.7h0a12.06,12.06,0,0,1,1.43,2.25c.05.1.11.19.16.3a11.86,11.86,0,0,1,.85,2.43c0,.13.07.26.1.4a15.36,15.36,0,0,1,.32,2.66c0,.11,0,.22,0,.34a16.71,16.71,0,0,1-.25,2.95c.13,4.11-1.44,8.7-4.89,13-3.15,5-8.71,9.9-17,13.55-1.27.56-2.49,1-3.69,1.44a38.54,38.54,0,0,1-14.94,6.94c-9.28,2-9.8-3.47-8.46-9.6-3.48-3.82-4.34-9.48-2.05-15.32a18.39,18.39,0,0,1,.86-3.9c-2.64-3.69-3.34-8.61-1.36-13.8a16.09,16.09,0,0,1,.8-10.51c-2.23-4.13-2.15-9.54.65-14.93a19.65,19.65,0,0,1,1.77-5.37,15.72,15.72,0,0,1,.26-6.55c-4.13-4,8.28-36.59,9.45-39.73A3.13,3.13,0,0,1,400,241c5.63-9.68,15.48-18.68,29.85-19.73,5.68-.42,9.18,1,11.14,3.55C448.46,227.94,451.11,235.9,447.61,244.08Z"/><path class="cls-16" d="M396.85,232.51a32.16,32.16,0,0,1-3,2.29,31.54,31.54,0,0,1-2.64,4.29c-.19.54-.38,1.08-.62,1.64a184.23,184.23,0,0,0-11.78,36.61,16.74,16.74,0,0,1-.87,8.48,12.77,12.77,0,0,1,4.34,4c1-.77,2-1.57,3-2.32,1.58-12.57,4-25.22,9.51-38.44,2.86-6.86,5.71-13.57,11-20.29-.8.66-1.21,1-1.21,1A20.36,20.36,0,0,1,396.85,232.51Z"/><path class="cls-16" d="M487.36,229.86l-.09,0c-2.55-8.45-18-19.89-38.74-18.35a34.11,34.11,0,0,1,7.14,4.16c8.65,6.54,14.17,16,11.28,28-1.14,4.79-2.93,8.22-5.57,10.86.42,5.31-2.05,11.5-7.85,17,.84,4.11-.15,8.91-3.23,13.57a20.24,20.24,0,0,1-4.19,11.19c2.13,5.28.83,12.24-4.6,18.57a24.24,24.24,0,0,1-4.46,7.5C433,334.27,430,346,425.61,357.94c-2.74,7.55-8.58,18.82-20.69,21.41-9.71,2.08-15.17-1.74-17.76-7.78a17.69,17.69,0,0,1-2.5-6.42,26,26,0,0,1-2.52,3.8c.67.05,1.23.3,1.39.81,2.42,7.44,6,16.12,14.45,19.7,13.19,5.56,29.7-4,34.4-17.72.59-1.71,3.93-2.85,4.8-1.65.39.53.79,1,1.19,1.48,1.8-2.61,3.39-5.28,4.9-8,1.21-4.33,2.54-8.66,4.06-13-3.52-1.52-5.41-5.19-4.65-10.55,1.79-12.65,7.55-26.05,14.38-39.41,3.7-9.09,8-18.26,12.56-27.41,3.13-7.33,6.21-14.66,9.75-22,1.5-3.09,3.24-7.58,5.6-11.49.48-.9,1-1.76,1.56-2.65.24-.8.57-1.61.84-2.42A25.64,25.64,0,0,1,487.36,229.86Z"/><path class="cls-23" d="M384.6,288.07c2.17-17.5,7.74-39,19.69-57.44l-2.18,2.25A90.11,90.11,0,0,0,391,254.63c-4,10.77-9.7,24.44-8.89,34.43a4.4,4.4,0,0,0-1.12.38,13.16,13.16,0,0,1,.83,2.67c1.69-.77,3.39-1.51,5.07-2.31a19.3,19.3,0,0,1,.88-3l-3,1.18Z"/><path class="cls-23" d="M487.31,230.65a20.42,20.42,0,0,0-4.12,5.44,117.41,117.41,0,0,0-7.13,14.54c-.05.12,0,.13,0,.17-5.86,11.71-10.49,23.33-16.05,35.06q-2.32,4.9-4.34,9.77c-7.13,12-13.48,25.07-17.46,37.22a1.21,1.21,0,0,0-.05.18l0,.08a45.37,45.37,0,0,0-2.41,7.95,128.7,128.7,0,0,0-3.84,19c-1.14,9-6.27,31.2-26.45,27.54-7.12-1.29-11.81-5.66-15.47-9.95-4.27-5-4.64-12.44-5.07-19.13-.11-1.52.48-10,.38-15.81a12.35,12.35,0,0,1-2.37-3c-.56.5-1.13,1-1.67,1.49a16.18,16.18,0,0,1-.14,2.29l0,.22h0a17.34,17.34,0,0,1-.51,2.37c.5-.56,1-1.13,1.52-1.67-2.36,14-.93,29,6.94,38.2,6,7,21.18,14.11,34.34,1.15a36.41,36.41,0,0,0,10.42-19.5,20.85,20.85,0,0,0,.39,2.17c.18-.56.49-1.09.71-1.64a28.81,28.81,0,0,1,1.3-8.08c0-1.19,0-2.38.1-3.57a87.35,87.35,0,0,1,7.86-28.31c5.6-11.7,11.68-23.39,17.35-35.09,5.21-10.76,9.93-21.5,14.61-32.24,1.06-2.43,2.3-5,3.55-7.63,1.42-3.6,3-7.21,4.68-10.82a33.68,33.68,0,0,1,2.94-6C487.25,232.27,487.26,231.47,487.31,230.65Z"/><path class="cls-22" d="M416.61,227.39c-6.76,2.92-9.87,8.25-13.44,13.17-5.93,8.19-6.62,16.8-7,24.35,0,.47,1-.54,1-.77,3.61-11.78,5.08-25.55,19.29-36.3C416.56,227.76,416.94,227.25,416.61,227.39Z"/><path class="cls-15" d="M485.8,300.92c-1.45,3.82-2.3,6-2.3,6l28.3,16.92C511.21,314.48,498.19,305.82,485.8,300.92Z"/><path class="cls-15" d="M471,296.87a390.29,390.29,0,0,0-87.61,4.56c-26.48,4.53-57.69,12.05-73,33.44-2,6.41-6,12.31-9.23,18.36,2.69,26.14,10.72,52,26,74.74a19.09,19.09,0,0,1,9.05,6.23l20.68,1.35a5.37,5.37,0,0,1,.7.11,17.81,17.81,0,0,1,6.28-1.68c16.07-6.23,25.07-16.07,34.82-31,11.78-18.09,23.28-33.64,44.49-43.9,18.74-9.07,45.08-10.51,61.55-22.91C528.13,318.45,488.26,298.78,471,296.87Z"/><path class="cls-16" d="M471,296.87a390.29,390.29,0,0,0-87.61,4.56,241.39,241.39,0,0,0-33,7.67c-13.94,6.42-25.3,15-37.23,25a1.88,1.88,0,0,1-2.23,0l-.54.74c-2,6.41-6,12.31-9.23,18.36,2.69,26.14,10.72,52,26,74.74a19.09,19.09,0,0,1,9.05,6.23l20.68,1.35a5.37,5.37,0,0,1,.7.11,17.81,17.81,0,0,1,6.28-1.68c16.07-6.23,25.07-16.07,34.82-31,11.78-18.09,23.28-33.64,44.49-43.9,18.74-9.07,45.08-10.51,61.55-22.91C528.13,318.45,488.26,298.78,471,296.87Zm-3.11,28.62c-17.31,11.08-40,11.71-59.86,16.55-25.82,6.29-31.49,28.17-40.72,47.77-5.33,11.3-12.34,27.7-29.25,25.31-16.53-2.33-25.69-22.06-30.53-34.15-3-7.4-5.62-15.11-2.36-22.75a18.28,18.28,0,0,1,5.36-6.65c4.4-5.25,10.4-9.32,16.37-13.08,19-12,37.87-23.65,61-28.08,22.46-4.3,48.59-7.64,71.61-5.24,4.69.49,16.95,1.08,18.12,6.88C478.8,318,472.73,322.36,467.84,325.49Z"/><path class="cls-16" d="M359.18,420.36a182.14,182.14,0,0,0,13-13.38c7.48-8.31,14.17-17.19,22.87-24.56a2,2,0,0,1,2.8.51,49.9,49.9,0,0,1,5.63,12.69q1.42-2.07,2.87-4.09c-.05-1.26-.1-2.52-.21-3.79-.7-8.35,1.05-16.44,7.51-22.8,12.75-12.54,32.87-15.53,50.15-20.42,10.35-2.93,25.23-7.41,31.08-16.17,6.3-9.41,2.08-19.69-9.9-22.16a60.24,60.24,0,0,0-7.08-1c4.12,1.52,7.26,4,8.61,7.72,8.27,23.06-41.12,26.36-55.58,29.45-10.5,2.24-21.58,5.28-29.67,12-7.89,6.56-13.81,14.83-19.15,23.12-8,12.41-14.48,25.51-22.4,37.9a47,47,0,0,1-7.2,8.89A19.63,19.63,0,0,0,359.18,420.36Z"/><path class="cls-16" d="M338.69,323.08c-6.9,3.54-18.68,12.68-28.43,11.87-2,6.36-5.95,12.22-9.18,18.24.2,1.91.4,3.82.66,5.72a86.79,86.79,0,0,1,11-9.68,78.47,78.47,0,0,1,14.12-10.74c19-12,37.87-23.65,61-28.08,16.15-3.09,34.17-5.62,51.59-5.93C405.67,296.25,368.11,308,338.69,323.08Z"/><path class="cls-21" d="M425.68,304.85c13.31.3,26.68.33,40,1.25,8.43.59,28.51,2.08,23.67,14.36-4.68,11.88-22.34,18.51-34.93,21-13.1,2.59-27,1.86-39.07,7.76-12.87,6.29-21.3,17.6-27.93,28.91-7.49,12.76-14.34,25.65-22.57,38.06,2.83-1.2,5.05-5.13,6.74-7.39,2.24-3,4.3-6.13,6.24-9.3,3.9-6.4,7.27-13.06,10.5-19.74a41.22,41.22,0,0,1,6.93-10.6c5.34,4.69,7.53,12.33,8.78,18.69a47.78,47.78,0,0,1,.73,6c.46-.65.91-1.29,1.37-1.92-.81-8.67-3.46-17.06-9.58-24.17,5.29-5.63,10.61-11.78,17.67-15.75,5.87-3.31,12.73-4.67,19.45-5.84,17.26-3,34.41-4.58,48.86-14.39,3.67-2.49,7.68-5.57,9.11-9.63a12,12,0,0,0-4.47-13.85c-2.75-2-6.69-2.62-9.95-3.51-10.86-3-22.56-1.4-33.72-1.66-17.86-.43-35.62-1.51-52.94,3.39-29.84,6.67-56.12,27.38-80.74,42.24-.14.09-.35.44,0,.3,12.93-5.78,24.73-14.34,36.94-21.24a267.16,267.16,0,0,1,31.81-15.73A138.44,138.44,0,0,1,425.68,304.85Z"/><path class="cls-22" d="M456.91,308.38c-24.19-.24-49.66-1.74-72.82,5.44-10.93,3.38-21.18,9.11-31,14.44A294.57,294.57,0,0,0,322.42,347c-.23.16-.11.33.14.17C340.18,335.43,360,324.44,380.32,317c12.4-4.54,25.25-5.55,38.51-5.89,12.48-.32,25-1.36,37.5-2.06C456.59,309,457.34,308.39,456.91,308.38Z"/><path class="cls-21" d="M329.77,429.08c-17.76-25.44-25-53.55-27.22-78.56-1.07,1.89-2.1,3.8-3,5.73,2.66,22.87,9.76,47.87,24.94,71A22.2,22.2,0,0,1,329.77,429.08Z"/></g></g></svg>