<svg xmlns="http://www.w3.org/2000/svg" xmlns:xlink="http://www.w3.org/1999/xlink" viewBox="0 0 900 600"><defs><style>.cls-1{fill:none;}.cls-2{isolation:isolate;}.cls-3{fill:#d5a8ed;}.cls-4{clip-path:url(#clip-path);}.cls-5{fill:#ba88db;}.cls-6{fill:#f2deff;}.cls-7{fill:#fff;}.cls-8{fill:#5f55a8;}.cls-9{fill:#f1d6ff;}.cls-10{opacity:0.5;}.cls-11{fill:#e37e5a;}.cls-12{fill:url(#linear-gradient);}.cls-13{fill:#f9b38f;opacity:0.4;mix-blend-mode:multiply;}.cls-14{fill:#e5724e;}.cls-15{fill:url(#linear-gradient-2);}.cls-16{fill:#d12d7b;}.cls-17{fill:#79bab5;}</style><clipPath id="clip-path"><rect id="SVGID" class="cls-1" x="-11.06" y="-1.3" width="1051.42" height="613.33" transform="translate(1029.3 610.73) rotate(-180)"/></clipPath><linearGradient id="linear-gradient" x1="24.56" y1="1416.72" x2="24.56" y2="904.9" gradientTransform="matrix(0.7, 0.71, -0.71, 0.7, 1277.52, -512.66)" gradientUnits="userSpaceOnUse"><stop offset="0" stop-color="#f8c7b1"/><stop offset="1" stop-color="#fbd8bb"/></linearGradient><linearGradient id="linear-gradient-2" x1="118.55" y1="969.42" x2="118.55" y2="457.6" gradientTransform="translate(600.63 -378.55) rotate(23.44)" xlink:href="#linear-gradient"/></defs><g class="cls-2"><g id="Capa_2" data-name="Capa 2"><rect class="cls-3" x="-11.06" y="-1.3" width="1051.42" height="613.33" transform="translate(1029.3 610.73) rotate(-180)"/><g class="cls-4"><path class="cls-5" d="M-259,957.5c109.87,54.72,246.16,51.2,354.36-6.76,261.34-140,284.56-531.17,36.21-699C1.84,164.1-182.25,163.91-310,254.44c-87.67,62.1-143.77,164.57-154.7,270.88-10.48,101.84,6.15,221.29,64.09,307C-365,885.1-316,929.08-259,957.5Z"/><path class="cls-5" d="M750.28,301.08c80.88,40.28,181.21,37.69,260.86-5,192.38-103.06,209.47-391,26.66-514.54-95.53-64.55-231-64.69-325.12,2C648.15-170.76,606.84-95.33,598.8-17.07c-7.71,75,4.53,162.9,47.18,226C672.22,247.79,708.27,280.16,750.28,301.08Z"/><path class="cls-6" d="M102,541.4a6.18,6.18,0,0,1-.2,1.53L86,602.05a20.65,20.65,0,0,1-25.26,14.64L1.65,601a5.89,5.89,0,0,1-4.18-7.22l3.18-12c-4-1.72-7.16-5.32-9-10.32a31.45,31.45,0,0,1-.42-18.66c3.4-12.79,13.22-21.5,22.56-20.46l3.18-12a5.91,5.91,0,0,1,7.22-4.18L38.39,520l-.52,1.95c-2,7.71,5.67,16.54,17.23,19.61a27.39,27.39,0,0,0,16.24-.31c4.5-1.64,7.5-4.52,8.46-8.14l.52-1.95,17.26,4.59a5.93,5.93,0,0,1,4.39,5.7ZM1.3,595.25a1.88,1.88,0,0,0,1.39,1.8l59.12,15.74A16.6,16.6,0,0,0,82.13,601l15.74-59.12a1.86,1.86,0,0,0-.19-1.42,1.88,1.88,0,0,0-1.14-.87L83,536c-1.72,4-5.32,7.16-10.32,9a31.45,31.45,0,0,1-18.66.42C41.27,542,32.49,532.25,33.6,522.85l-10.42-2.77a1.87,1.87,0,0,0-2.29,1.32l-4.18,15.72-2-.52C7,534.54-1.78,542.27-4.85,553.83a27.4,27.4,0,0,0,.31,16.24c1.64,4.5,4.52,7.5,8.14,8.46l1.95.52L1.37,594.77A1.59,1.59,0,0,0,1.3,595.25Z"/><path class="cls-6" d="M122.79,489.55a5.92,5.92,0,0,1-3.79,5.52l-11.55,4.44c1,4.27-.1,8.92-3.08,13.33a31.61,31.61,0,0,1-14.85,11.3c-12.36,4.75-25.17,1.91-29.82-6.25l-11.55,4.44a5.91,5.91,0,0,1-7.63-3.39l-5.27-13.69,1.88-.72c7.48-2.88,10.06-14.31,5.77-25.46a27.49,27.49,0,0,0-9.79-13c-4-2.68-8.07-3.41-11.56-2.07l-1.88.73-6.42-16.67a5.94,5.94,0,0,1,3.4-7.63l57.09-22a20.66,20.66,0,0,1,26.68,11.86l22,57.09A5.8,5.8,0,0,1,122.79,489.55Zm-20.42,7.6,15.19-5.85a1.87,1.87,0,0,0,1.07-2.41l-22-57.09a16.63,16.63,0,0,0-21.47-9.54l-57.09,22A1.87,1.87,0,0,0,17,446.64l5,13c4.26-1,8.92.1,13.32,3.08a31.46,31.46,0,0,1,11.3,14.86c4.74,12.36,1.91,25.17-6.25,29.81l3.87,10.07a1.88,1.88,0,0,0,2.42,1.07l15.18-5.84.72,1.88c2.88,7.47,14.3,10.06,25.47,5.76a27.45,27.45,0,0,0,13-9.79c2.68-4,3.43-8.07,2.07-11.55Z"/><path class="cls-6" d="M582.67,582.72l-8.92,19.4-1.79-.75c-17.79-7.37-31.93-3.77-38.77-1a11.11,11.11,0,0,1-12.4-2.82l-40.86-45.2,3.91-8.5,60.9,1.59A11.1,11.1,0,0,1,555,553.05c2.33,7,8.8,20.08,26,28.79Zm-11,14.21,5.7-12.39c-17.19-9.35-23.82-22.86-26.27-30.23a7.06,7.06,0,0,0-6.49-4.81L486.39,548l-1.68,3.65,39.07,43.23a7.07,7.07,0,0,0,7.88,1.8C538.84,593.73,553.42,590,571.7,596.93Z"/><path class="cls-6" d="M532.13,571.23A10,10,0,1,1,527.22,558,10,10,0,0,1,532.13,571.23Zm-14.51-6.67a6,6,0,1,0,7.92-2.93A6,6,0,0,0,517.62,564.56Z"/><rect class="cls-6" x="497.73" y="538.7" width="4.03" height="35.29" transform="translate(-214.48 778.02) rotate(-65.31)"/><path class="cls-6" d="M590.3,586.58l-8.65,18.81a6.29,6.29,0,1,1-11.43-5.25l8.66-18.82a6.29,6.29,0,1,1,11.42,5.26Zm-16.41,15.25a2.26,2.26,0,1,0,4.1,1.88l8.65-18.82a2.26,2.26,0,0,0-4.1-1.88Z"/><path class="cls-6" d="M516.78,641l-1.69,3.67a70.58,70.58,0,0,1-34.6-93.51l3.66,1.68A66.55,66.55,0,0,0,516.78,641Z"/><path class="cls-6" d="M576.79,510.48l-1.69,3.67a66.56,66.56,0,0,0-88.16,32.63l-3.66-1.69A70.59,70.59,0,0,1,576.79,510.48Z"/><rect class="cls-6" x="426.39" y="546.79" width="114.81" height="4.03" transform="translate(-216.93 759.12) rotate(-65.31)"/><path class="cls-6" d="M516.28,491l-4.48,9.74-9.74-4.48,4.48-9.74Zm-6.46,4.39,1.11-2.41-2.41-1.11-1.11,2.41Z"/><path class="cls-6" d="M465.53,601.37l-4.48,9.74-9.74-4.48,4.48-9.74Zm-6.46,4.39,1.11-2.41-2.41-1.11-1.11,2.41Z"/><path class="cls-6" d="M583.86,516a5.56,5.56,0,1,1-2.73-7.37A5.57,5.57,0,0,1,583.86,516Zm-6.45-3a1.53,1.53,0,1,0,2-.75A1.54,1.54,0,0,0,577.41,513Z"/><path class="cls-6" d="M886.3,446.22l28.52,59.2a15.22,15.22,0,0,1-7.09,20.28l-59.21,28.52a15.21,15.21,0,0,1-20.28-7.1l-28.51-59.2a15.19,15.19,0,0,1,7.09-20.27L866,439.13A15.2,15.2,0,0,1,886.3,446.22Zm-54.42,99.15a11.16,11.16,0,0,0,14.89,5.21L906,522.06a11.16,11.16,0,0,0,5.2-14.89L882.67,448a11.18,11.18,0,0,0-14.9-5.21l-59.2,28.52a11.17,11.17,0,0,0-5.21,14.89Z"/><path class="cls-6" d="M863.34,444.16l-17.55,58.51A12.83,12.83,0,0,0,853,518.11l33,14.37-1.62,3.7-33-14.37a16.87,16.87,0,0,1-9.41-20.3L859.48,443Z"/><path class="cls-6" d="M848.87,485.94l-1.46,3.75-10.38-4a16.87,16.87,0,0,1-10.24-19.78l2-8,3.92,1-2,8a12.86,12.86,0,0,0,7.78,15Z"/><path class="cls-6" d="M837.25,494.59a10.08,10.08,0,1,1-13.46-4.7A10.1,10.1,0,0,1,837.25,494.59Zm-14.53,7a6,6,0,1,0,2.82-8.07A6.06,6.06,0,0,0,822.72,501.59Z"/><path class="cls-6" d="M108.18,50l-2-3.53,151.51-84a8.17,8.17,0,0,0-1-6,5.33,5.33,0,0,0-5-2.87L92.21,21.14l-1.57-3.72L250.82-50.27l.33,0a9.44,9.44,0,0,1,9.08,4.83c2,3.46,2.34,8.11.7,10.59l-.27.42-.43.24Z"/><path class="cls-6" d="M36.62,38.7C41.94,29.17,52,25.39,67.38,27.15l-.46,4c-13.76-1.58-22.28,1.45-26.78,9.51Z"/><path class="cls-6" d="M57.11,91.51v-4c24.1,0,27-24.53,27.28-27.33l4,.37C87.37,72.05,79.6,91.55,57.11,91.51Z"/><path class="cls-6" d="M83.13,59.76A97.74,97.74,0,0,1,65.27,29.87l-.15-.4a3.46,3.46,0,0,1,2-4.41l21.55-8.61a3.49,3.49,0,0,1,4.22,1.36l-1.45,1.47,1.71-1.07c3.08,4.92,10.8,17.6,15.91,29.25h0l.23.51a3.47,3.47,0,0,1-1.34,4.31l0,0L90.17,63.17A3.46,3.46,0,0,1,86,62.73l-1-1C84.47,61.23,83.84,60.56,83.13,59.76Zm4.92,0h0ZM69.1,28.6A90.89,90.89,0,0,0,87.86,58.93l.57.57L105.64,49l-.28.13c-5-11.39-12.59-23.86-15.63-28.71Zm-.5.21h0Zm37.1,20.12a.57.57,0,0,0-.12.64l.42-.34-.22-.34Zm.11,0,.21.33,1.19-.94Zm-14.64-30-1.71,1.06a.64.64,0,0,0,.39.28Z"/><path class="cls-6" d="M25.25,84a5.24,5.24,0,0,1-1.19-2.19c-.61-2.36.84-4.66,1.71-6l.19-.3A14.47,14.47,0,0,0,26.8,74a33.94,33.94,0,0,0,2.62-7.57A42.69,42.69,0,0,0,30.15,60l0-.75a37.69,37.69,0,0,1,.6-4.32c.2-1.15.41-2.3.51-3.45.36-4,1.06-8.23,3.73-11.45,1.84-2.23,5.09-4,8.19-2.85,3.52,1.27,4.65,5.28,4.54,8.32C47.63,49.54,46,53.2,44.5,56.75c-1.32,3-2.56,5.92-2.88,8.93A7.4,7.4,0,0,0,42,69.23a3,3,0,0,0,1.87,1.85c1.26.32,2.87-.53,4.41-1.44l4.37-2.58a9.22,9.22,0,0,1,4.82-1.66,6.57,6.57,0,0,1,6,5.37,9.12,9.12,0,0,1-2,7.21,15.12,15.12,0,0,1-6.77,4.79,17.36,17.36,0,0,1-2.05.62,9.94,9.94,0,0,0-2.2.75A15.44,15.44,0,0,0,52.27,84l.49-.06a9.8,9.8,0,0,1,2.89-.08,4.56,4.56,0,0,1,3.8,3,4.38,4.38,0,0,1-1.27,4.46A7.17,7.17,0,0,1,54.93,93c-4.86,1.19-9.7-.3-13.86-1.79-3.19-1.14-6.35-2.39-9.41-3.72-.32-.14-.69-.28-1.09-.43C28.84,86.36,26.64,85.51,25.25,84Zm3.93-6.08c-.41.66-1.39,2.21-1.22,2.88.3,1.07,2.65,2,4.07,2.52.45.17.87.34,1.24.5,3,1.29,6.06,2.51,9.16,3.62C46,88.68,50.2,90,54,89.06a3.23,3.23,0,0,0,1.44-.64.62.62,0,0,0,.2-.36,2.24,2.24,0,0,0-.56-.18,6.44,6.44,0,0,0-1.76.09l-.55.07c-5.38.62-6.75-1.32-6.95-3.05a4,4,0,0,1,1.41-3.44,10.1,10.1,0,0,1,4.49-2.07A13.23,13.23,0,0,0,53.31,79a11.23,11.23,0,0,0,5-3.47,5.22,5.22,0,0,0,1.2-4,2.53,2.53,0,0,0-2.14-2.1,5.71,5.71,0,0,0-2.71,1.09l-4.37,2.58c-1.68,1-4.48,2.64-7.47,1.87a7,7,0,0,1-4.59-4.22,11.06,11.06,0,0,1-.62-5.51c.38-3.62,1.81-6.92,3.19-10.1,1.45-3.35,2.82-6.51,2.93-9.82.06-1.77-.49-3.91-1.88-4.4-1.2-.43-2.78.5-3.72,1.63-2,2.38-2.51,5.84-2.81,9.23-.11,1.27-.34,2.54-.56,3.81a34.11,34.11,0,0,0-.54,3.86l0,.75a45.21,45.21,0,0,1-.81,7.07,37.51,37.51,0,0,1-2.93,8.48,19.5,19.5,0,0,1-1.06,1.82l-1.89-.78Z"/><path class="cls-6" d="M479.53,24.25,478,28C461.89,21.44,454.92,10.26,448.77.4c-5-7.95-9.24-14.82-17.39-18.11-13.23-5.36-29.63-4.53-42.78,2.16C378.4-10.36,365,.91,358.93,25.07c-4.19,16.7,1,36.66,13.12,50.84,9.24,10.78,21.05,16.37,32.42,15.33,12.34-1.13,18.9-5.14,25.85-9.38,8.48-5.19,17.27-10.55,36.54-11l.09,4c-18.19.39-26.5,5.46-34.53,10.37-7,4.3-14.31,8.74-27.59,10-12.68,1.15-25.75-4.94-35.85-16.73C356,63.39,350.53,42,355,24.09c6.41-25.64,20.81-37.66,31.77-43.24,14.16-7.2,31.83-8.08,46.12-2.3,9.36,3.78,14.18,11.52,19.29,19.72C458.3,8.07,464.62,18.2,479.53,24.25Z"/><path class="cls-6" d="M474.74,42.08l-1,3.91c-4.95-1.24-17.06-4.39-29.34-8.35a13,13,0,0,1-.19,6.52A14.07,14.07,0,0,1,442,48.48c12.86,3.5,25.28,7.88,29,9.22l-1.36,3.79c-3.9-1.4-17.4-6.16-30.86-9.69-7.56,6.12-21.13,8.72-28.13,5.22a7.64,7.64,0,0,1-4.55-7.86,5.05,5.05,0,0,1,2.21-3.75c2.5-1.75,8.27-3.44,29.37,1.93A11.08,11.08,0,0,0,440.37,43a11,11,0,0,0-.6-6.87C415.62,27.9,411.18,22.91,410,19.86a5,5,0,0,1,.17-4.27,7.25,7.25,0,0,1,7.14-3.86c8.22.37,20.81,10.88,25.51,21.13C455.89,37.23,469.44,40.75,474.74,42.08Zm-61.15-24.2a1.47,1.47,0,0,0,.11.48c.62,1.52,4.16,5.65,23.4,12.54-5.2-8-14.63-14.89-20-15.14-2.18-.09-3,.93-3.39,1.71A.89.89,0,0,0,413.59,17.88ZM410.06,50a3.62,3.62,0,0,0,2.36,3.39c4.48,2.24,14.25,1.14,21.15-2.92-17.09-4.07-21.74-2.64-23-1.78a1,1,0,0,0-.51.82A3.79,3.79,0,0,0,410.06,50Z"/><path class="cls-6" d="M519.85,56.84a11,11,0,0,1-.55,3.39c-2.55,7.93-11,11.88-13,12.72l-.3.3-3.33,0,.84-4.16,1,.21c.82-.33,8.82-3.65,11-10.33,1.69-5.24-3.28-9.36-5.49-10.89l-.58-.37,1-1.69-1.95-.41L509,43l2.37,1.21s.32.18.83.52C514.23,46.13,519.84,50.58,519.85,56.84Z"/><rect class="cls-6" x="473.76" y="73.17" width="4.03" height="8.86" transform="translate(338.44 539.69) rotate(-82.71)"/><rect class="cls-6" x="483.32" y="23.19" width="4.03" height="0.78" transform="translate(310.33 476.88) rotate(-71.67)"/><path class="cls-6" d="M507.59,70.47l-.81,2c-2.69,6.11-5.67,9.46-8.86,10l-.29,0-1.44-.18.5-4,.82.11c1.34-.41,3.47-2.66,5.73-7.9l.59-1.44.56.21h.7v.28Z"/><path class="cls-6" d="M513.42,40.91c0,1.72-.09,3.63-.29,5.72-.24,2.57-.64,5.3-1.17,8.15l.34.69-1,1.12-1.42-1.42L508,56l-.31-.61.14-.68c.57-3,1-5.8,1.24-8.43.8-8.41-.34-12-1.14-12.81l-11-3.76,1.3-3.82L510.1,30a6.94,6.94,0,0,1,.73.61C512.55,32.34,513.42,35.79,513.42,40.91Z"/><rect class="cls-6" x="486.3" y="74.23" width="4.03" height="9.96" transform="translate(347.74 553.52) rotate(-82.7)"/><rect class="cls-6" x="489.57" y="22.89" width="4.03" height="5.64" transform="translate(307.78 482.37) rotate(-71.07)"/><path class="cls-6" d="M487.55,20.87a4.7,4.7,0,0,1-.16,1.22L473.1,78.47A4.43,4.43,0,0,1,470,81.76a5,5,0,0,1-4.78-1.21A4.42,4.42,0,0,1,464,76.17L478.3,19.79a4.47,4.47,0,0,1,3.13-3.29,5,5,0,0,1,4.79,1.22A4.35,4.35,0,0,1,487.55,20.87ZM467.88,77.38a.33.33,0,0,0,.12.28,1,1,0,0,0,.87.22c.1,0,.24-.07.32-.4l14.3-56.38c.08-.33,0-.43-.09-.49a1,1,0,0,0-.87-.22c-.09,0-.23.07-.32.4L467.92,77.17A1,1,0,0,0,467.88,77.38Z"/><path class="cls-6" d="M491,27.2a242.85,242.85,0,0,1-5.78,52.64,3.45,3.45,0,0,1-2.33,2.59,3.83,3.83,0,0,1-3.67-.83,3.59,3.59,0,0,1-1.05-3.42,236.61,236.61,0,0,0,5.56-54.44h0v0a3.62,3.62,0,0,1,7.24-.08C490.94,24.8,491,26,491,27.2Zm-3.24-3.51Z"/><path class="cls-6" d="M501.38,50.62a154.92,154.92,0,0,1-3.3,31.79,3.45,3.45,0,0,1-4.19,2.7A3.6,3.6,0,0,1,491,80.8a146.86,146.86,0,0,0,1.24-53.88h0a3.75,3.75,0,0,1,3.18-4.33,3.31,3.31,0,0,1,3.88,2.79A156.71,156.71,0,0,1,501.38,50.62Z"/><path class="cls-6" d="M512.42,44.39c0,8.58-1.19,17-2.29,24.8a3.3,3.3,0,0,1-2,2.68,3.83,3.83,0,0,1-3.7-.59A3.67,3.67,0,0,1,503,67.84c1.75-12.39,3.56-25.19.71-37.6h0a3.64,3.64,0,0,1,1.05-3.47,3.83,3.83,0,0,1,3.66-.87,3.33,3.33,0,0,1,2.3,2.55A70.67,70.67,0,0,1,512.42,44.39Z"/></g><path class="cls-7" d="M864.66,106c-2.71-2.26-4.12-3.58-4.12-6.35s1.41-4.08,4.12-6.35c2.89-2.42,6.49-5.44,6.49-11.44s-3.6-9-6.49-11.43c-2.71-2.26-4.12-3.58-4.12-6.34s1.41-4.08,4.12-6.35c2.89-2.42,6.49-5.44,6.49-11.43h-6.63c0,2.76-1.41,4.08-4.12,6.35-2.89,2.42-6.49,5.43-6.49,11.43s3.6,9,6.49,11.43c2.71,2.27,4.12,3.58,4.12,6.34s-1.41,4.09-4.12,6.36c-2.89,2.42-6.49,5.44-6.49,11.43s3.6,9,6.49,11.44c2.71,2.27,4.12,3.58,4.12,6.35h6.63C871.15,111.49,867.55,108.47,864.66,106Z"/><path class="cls-7" d="M846.87,106c-2.71-2.26-4.12-3.58-4.12-6.35s1.41-4.08,4.12-6.35c2.89-2.42,6.49-5.44,6.49-11.44s-3.6-9-6.49-11.43c-2.71-2.26-4.12-3.58-4.12-6.34s1.41-4.08,4.12-6.35c2.89-2.42,6.49-5.44,6.49-11.43h-6.63c0,2.76-1.41,4.08-4.12,6.35-2.89,2.42-6.49,5.43-6.49,11.43s3.6,9,6.49,11.43c2.71,2.27,4.12,3.58,4.12,6.34s-1.41,4.09-4.12,6.36c-2.89,2.42-6.49,5.44-6.49,11.43s3.6,9,6.49,11.44c2.71,2.27,4.12,3.58,4.12,6.35h6.63C853.36,111.49,849.76,108.47,846.87,106Z"/><path class="cls-8" d="M190.83,490.18c2.27-2.71,3.59-4.12,6.36-4.12s4.08,1.41,6.35,4.12c2.42,2.89,5.44,6.49,11.43,6.49s9-3.6,11.44-6.49c2.26-2.71,3.57-4.12,6.34-4.12s4.08,1.41,6.35,4.12c2.42,2.89,5.44,6.49,11.43,6.49V490c-2.77,0-4.08-1.41-6.35-4.12-2.42-2.9-5.44-6.5-11.43-6.5s-9,3.6-11.43,6.5c-2.27,2.71-3.58,4.12-6.35,4.12s-4.08-1.42-6.35-4.12c-2.42-2.9-5.44-6.5-11.43-6.5s-9,3.6-11.44,6.5c-2.27,2.7-3.58,4.12-6.35,4.12v6.63C185.39,496.67,188.41,493.07,190.83,490.18Z"/><path class="cls-8" d="M190.83,472.39c2.27-2.71,3.59-4.12,6.36-4.12s4.08,1.41,6.35,4.12c2.42,2.89,5.44,6.49,11.43,6.49s9-3.6,11.44-6.49c2.26-2.71,3.57-4.12,6.34-4.12s4.08,1.41,6.35,4.12c2.42,2.89,5.44,6.49,11.43,6.49v-6.63c-2.77,0-4.08-1.42-6.35-4.12-2.42-2.9-5.44-6.5-11.43-6.5s-9,3.6-11.43,6.5c-2.27,2.7-3.58,4.12-6.35,4.12s-4.08-1.42-6.35-4.12c-2.42-2.9-5.44-6.5-11.43-6.5s-9,3.6-11.44,6.5c-2.27,2.7-3.58,4.12-6.35,4.12v6.63C185.39,478.88,188.41,475.28,190.83,472.39Z"/><path class="cls-9" d="M757.3,297.93a7.63,7.63,0,0,1-.26,2L736.4,377.48a27.09,27.09,0,0,1-33.14,19.2l-77.54-20.63a7.73,7.73,0,0,1-5.49-9.48l4.17-15.69c-5.26-2.26-9.39-7-11.78-13.53-2.63-7.24-2.83-15.93-.55-24.48,4.47-16.78,17.35-28.2,29.59-26.84l4.18-15.7a7.76,7.76,0,0,1,9.47-5.49l18.6,5-.68,2.55c-2.7,10.11,7.44,21.69,22.6,25.73,7.51,2,15.08,1.85,21.3-.42,5.9-2.14,9.84-5.93,11.1-10.67l.68-2.55,22.64,6a7.77,7.77,0,0,1,5.75,7.47Zm-132,70.63a2.46,2.46,0,0,0,1.82,2.37l77.55,20.64a21.79,21.79,0,0,0,26.66-15.46l20.63-77.54a2.38,2.38,0,0,0-.24-1.86,2.44,2.44,0,0,0-1.49-1.14l-17.71-4.71c-2.26,5.26-7,9.39-13.54,11.78-7.23,2.63-15.92,2.83-24.47.55-16.78-4.47-28.31-17.27-26.84-29.59L654,270a2.45,2.45,0,0,0-3,1.74l-5.48,20.61-2.56-.68c-10.15-2.7-21.69,7.44-25.73,22.6-2,7.51-1.86,15.08.42,21.31,2.14,5.89,5.93,9.83,10.67,11.09l2.55.68-5.48,20.63A2.15,2.15,0,0,0,625.26,368.56Z"/><path class="cls-9" d="M784.61,229.92a7.76,7.76,0,0,1-5,7.24L764.5,243c1.25,5.6-.13,11.7-4,17.49-4.32,6.38-11.24,11.64-19.49,14.81-16.21,6.24-33,2.52-39.1-8.2l-15.16,5.84a7.76,7.76,0,0,1-10-4.45l-6.91-18,2.47-.95c9.81-3.77,13.19-18.76,7.56-33.4-2.79-7.25-7.35-13.29-12.84-17-5.2-3.52-10.58-4.48-15.16-2.71l-2.47,1-8.41-21.87a7.78,7.78,0,0,1,4.44-10l74.9-28.81a27.1,27.1,0,0,1,35,15.55l28.82,74.89A7.71,7.71,0,0,1,784.61,229.92Zm-26.77,10,19.91-7.66a2.45,2.45,0,0,0,1.41-3.17l-28.82-74.89a21.81,21.81,0,0,0-28.16-12.51l-74.89,28.81a2.45,2.45,0,0,0-1.41,3.17l6.58,17.11c5.59-1.27,11.7.12,17.48,4,6.38,4.31,11.64,11.23,14.82,19.48,6.21,16.22,2.5,33-8.2,39.11l5.08,13.2A2.45,2.45,0,0,0,684.8,268l19.92-7.66.95,2.47c3.77,9.8,18.76,13.19,33.4,7.55,7.25-2.79,13.29-7.35,17-12.84,3.52-5.19,4.5-10.58,2.72-15.15Z"/><path class="cls-9" d="M333,198.71l45,93.41a24,24,0,0,1-11.19,32l-93.41,45a24,24,0,0,1-32-11.2l-45-93.4a24,24,0,0,1,11.19-32l93.42-45A24,24,0,0,1,333,198.71ZM247.12,355.15a17.62,17.62,0,0,0,23.5,8.22l93.41-45a17.61,17.61,0,0,0,8.22-23.49l-45-93.41a17.62,17.62,0,0,0-23.5-8.22l-93.41,45a17.6,17.6,0,0,0-8.22,23.49Z"/><path class="cls-9" d="M296.77,195.47l-27.7,92.3a20.25,20.25,0,0,0,11.3,24.36l52.09,22.68-2.54,5.83L277.83,318A26.61,26.61,0,0,1,263,286l27.69-92.31Z"/><path class="cls-9" d="M273.94,261.38l-2.31,5.92-16.38-6.37a26.62,26.62,0,0,1-16.15-31.21l3.15-12.63,6.18,1.54-3.15,12.62A20.28,20.28,0,0,0,257.56,255Z"/><path class="cls-9" d="M255.6,275a15.91,15.91,0,1,1-21.23-7.42A15.93,15.93,0,0,1,255.6,275Zm-22.93,11.05a9.54,9.54,0,1,0,4.46-12.74A9.56,9.56,0,0,0,232.67,286.08Z"/></g><g id="Capa_4" data-name="Capa 4"><g class="cls-10"><path class="cls-11" d="M641.36,251.6l-1-1.24a79.72,79.72,0,0,0,10.82-18.6,6.59,6.59,0,0,0,.32-.88c2.54-9.13-1.76-16.54-5-22A73.84,73.84,0,0,0,633.39,190c-22.33-22.62-50.52-13.79-77.78-5.26-10.75,3.36-21.83,6.83-32.29,8.21a30,30,0,0,1-.22-5.38,6.78,6.78,0,0,0,.76-3c3.09-8.88,5.76-18,8.35-26.85,2.79-9.55,5.68-19.41,9-28.74a7.36,7.36,0,0,0,.25-.92l.68-3.27c8.57-7.85,14.59-23.92,16.28-43.84,1.64-19.39-1-44.57-13.38-57.11-5.41-5.47-17.31-12.95-36.17-1.44a6.82,6.82,0,0,0-3.11,4.43c-.72,3.45-1.36,6.84-2,10.18-2.37,12.44-4.6,24.19-10.05,36.27L492.7,75a106.77,106.77,0,0,0-17.51,22.11c-5.09,8.91-8.32,19.65-11.45,30-3.43,11.42-7,23.21-12.82,31.72a6.57,6.57,0,0,0-.55,1l-.43,1a64.63,64.63,0,0,0-14.89,22c-10.57,21.33-16.42,32.4-32.81,49.67-15.84,16.65-27.3,37.09-30.89,55-11,16.21-23.16,29.2-34.94,41.78-3.64,3.88-7.18,7.66-10.63,11.47a4.5,4.5,0,0,1,.7,3.11c-2.05,17.43-.35,35.25-1,52.76-.52,14.67-.72,35-12.17,46a5.63,5.63,0,0,1-7.69.14c-2.44,5.54-5,10.92-7.4,16.11a5.82,5.82,0,0,1,.92,2.79c.78,11.08-.59,22.26-.5,33.35,4.93,5.78,7.52,13.81,7.68,21.25a5.66,5.66,0,0,1-6.58,5.51c24.65,21.17,44.57,31.32,45.59,31.83a6.79,6.79,0,0,0,8.34-1.8c16.13-20,36.18-39.18,50.15-51.71,1.79-1.59,3.74-3.42,5.83-5.38,10.18-9.54,25.56-24,37.1-24,8-.06,15.81,0,23.4.13,30.51.37,59.34.72,90.58-9h1.75A130,130,0,0,0,583.3,463a6.79,6.79,0,0,0,6.69-5.41,10.6,10.6,0,0,1,.84-1.78,24.07,24.07,0,0,0,1.16-2.33c16.06-9.31,34.8-28.8,40-48.83,2.5-9.66,1.61-18.79-2.54-26.61a92.69,92.69,0,0,0,7.75-8.94,81.51,81.51,0,0,1,6.65-7.73l.56-.56a6.8,6.8,0,0,0,1.91-3.61c.84-4.58,4.37-27.27-5.23-39.05.89-.85,1.75-1.66,2.61-2.45,6.78-6.32,13.18-12.28,13.27-27.05v.22C657.63,271,650.09,262,641.36,251.6Z"/><path class="cls-12" d="M632.41,251.45l-1.68-.58c6.79-6.7,10.77-14,14.19-21.82,1.72-6.17-1-11.25-4.39-16.89-28.3-56.94-77.46-15.1-121.31-12l-1.63-.88A40.49,40.49,0,0,1,516.51,185l.06-.17.5-.39-.44.21c6.79-19,11.41-39,18.23-58L536,121C560.86,103.2,559.84-.77,512.45,28.15,509,45,507.19,60.14,499.78,76.4l-1.71,2.79a101,101,0,0,0-17,21.25c-10.23,17.92-12.65,44.88-24.56,62.22,0,0-.57,1.23-1.32,3l-.38-.21a58,58,0,0,0-13.62,20.15c-10.81,21.84-17.07,33.6-34,51.48-13,13.61-25.92,33.36-29.4,53-16.48,24.67-35.39,41.79-51.91,60.76-1,15.17.2,30.57-.33,45.73-.52,14.67-.72,35-12.17,46a5.63,5.63,0,0,1-7.69.14c-2.44,5.54-5,10.92-7.4,16.11a5.82,5.82,0,0,1,.92,2.79c.78,11.08-.59,22.26-.5,33.35,4.93,5.78,7.52,13.81,7.68,21.25a5,5,0,0,1-.32,1.9c23.61,19.92,42.38,29.38,42.38,29.38,14.65-18.19,33.43-36.83,50.91-52.5,11.73-10.51,30.73-31,47.41-31.17,39.9-.31,74.72,3.29,113-8.83a.77.77,0,0,1,1.12,0h2.25c6.74,1.17,13.48,1.21,20.22,1.25.58-2.8,2.84-5,2.86-7.28,21.42-11.11,52-45.75,35.85-70l0-3.38c6.78-5.57,10.76-12.85,17-19l.56-.56c1.75-9.55,3-29.77-6.51-36L632,317.76c10.19-11.18,18.07-13.38,18.17-29.11C650.83,271.23,643,264.44,632.41,251.45Z"/><path class="cls-13" d="M504.32,212.07c6.56,3.8,10.69,20.29,11.1,30.17s-12,39.9-11.15,52.13-6.25,22.07-7.71,29.11-13.78,23-13.78,23,10.86-7,12.25-3.68,2.62,32,2.62,32,3.67,14.14,18.14,31.63,29,19,29,19l25.74,19.44-14.46-19.37,21.65-2.68-9.84-5.24c-27.76,1.23-41.79-10.14-41.79-10.14-6.55-5.69-15.38-22.21-15.38-22.21l4.34-17.37s59.26.38,72.4,4.22c10.4,3.05,22.83,6.39,27.58,7.65-6.34-1.89-20.31-7.55-26.15-10.93-6.56-3.81-19.72-3.89-19.72-3.89-10.81-2.42-47.94-5.95-47.94-5.95l-8.41-8.52L512,341c-2.77-7.54-.34-21.16-.34-21.16l5.19-2.32c25.84,4.39,58.76,4.61,73.82,2.82s33.41-3.08,33.41-3.08l-7.5-2.87c-3.76-1-30.59,2.16-49.87,1.56s-44.17-5-44.17-5l-3.74-3.79c-8.8-22.16,3.09-42.31,3.09-42.31,33.37,3.51,52.69-2.48,64-8.05s37.68-8.23,37.68-8.23c-8.45-1.93-30.11,1.69-41.89,4.91s-34.37,5.89-34.37,5.89a46.91,46.91,0,0,1-15.47-7.15c-8-8.05-6.94-19.33-8.77-26.86s10.45-16.87,10.45-16.87c38.7-20.44,73-20.7,73-20.7l14.7,1c-28.47-18.33-66.94,8.93-102,11.4l-1.63-.88a51.49,51.49,0,0,1-1.11-6.67,3.26,3.26,0,0,0-.28,1.2C516.16,199.45,504.32,212.07,504.32,212.07ZM389.7,412.16c2.76,11.31,13.94,27.37,13.94,27.37-3.26-4.26-16.56-58.42-16.56-58.42S387,400.86,389.7,412.16Zm225.37-32.48c.79.24,1.48.43,2,.54ZM476.89,458.81s48,2.18,76.24-8l9.87-.41L543.33,439S505.62,451,476.89,458.81Zm-45.68-65.2c3.86-15,35.49-34.1,35.49-34.1s-27.82,11.58-37.2,7.75S403.32,342.64,393.21,304c-4.73-18.13,6.32-38.48,16.71-52.6,6.27-8.52,13.63-16.28,20.74-24.08,4.5-5,11.49-10.62,13.95-17.05,2.87-7.51,10.47-19.69,24.22-37s29.45-45.91,29.45-45.91c-1.86-3.77,2.53-28.67,10.63-44.14s5.86-34.76,8.29-47.45c2.24-11.69,14.38-11.72,16.27-11.66-5.62-2-12.58-1.12-21,4C509,45,507.19,60.14,499.78,76.4l-1.71,2.79a101,101,0,0,0-17,21.25c-10.23,17.92-12.65,44.88-24.56,62.22,0,0-.57,1.23-1.32,3l-.38-.21a58,58,0,0,0-13.62,20.15c-10.81,21.84-17.07,33.6-34,51.48-13,13.61-25.92,33.36-29.4,53-9.1,13.62-18.93,24.93-28.7,35.52,8.33-1.91,15.83-3.26,19.58-2.89,10.34,1,36,100.87,40.57,128.18,3.64,21.92-48.67,72.57-69.44,91.7,5.43,3.31,8.65,4.93,8.65,4.93,14.65-18.19,33.43-36.83,50.91-52.5,11.73-10.51,30.73-31,47.41-31.17,10.17-.08,20,.1,29.66.2C432,447.58,427.63,407.58,431.21,393.61Z"/><path class="cls-14" d="M441.61,456.67a.23.23,0,0,0,.23-.39c-12.87-8.19-22.37-18-28.53-32.06-6.07-13.9-7.76-29.49-9.27-44.41,0-.05-.08-.05-.08,0C406.07,409.29,412.84,441.89,441.61,456.67Z"/><path class="cls-14" d="M499.61,192.76a34.52,34.52,0,0,0,15.57-6.53.3.3,0,0,0,0,.1c-.85,5.39.39,10.1,2.36,15.08.22.56,1.24.58,1.16-.14a125.48,125.48,0,0,1-1.09-14.61c0-6.87,3.7-14.38,5.66-20.93,3.91-13,7.37-26.2,11.7-39.07,0-.12-.14-.16-.18,0-5,13.48-8.93,27.27-13.1,41-.88,2.89-1.8,5.77-2.73,8.64-1,3.07-2.74,5.88-3.51,9-5,3.28-9.65,6.24-15.84,7.42C499.53,192.69,499.55,192.78,499.61,192.76Z"/><path class="cls-14" d="M387.11,380.83C392.38,401,396.5,421.59,404,441.1c.07.17.35.11.28-.07-6.58-19.84-11.57-40.09-17.15-60.21A0,0,0,1,0,387.11,380.83Z"/><path class="cls-14" d="M532.62,124.33c-1.4.51-2.84,1-4.29,1.53,1.42-.45,2.86-.93,4.31-1.45C532.68,124.39,532.66,124.32,532.62,124.33Z"/><path class="cls-14" d="M528.33,125.86A70.33,70.33,0,0,1,507,129.37C514.07,130.19,521.5,128.21,528.33,125.86Z"/><path class="cls-14" d="M510,386.21c1.56-8,1.87-16.25,4-24.15a.38.38,0,0,0-.73-.2c-2.21,7.89-2.54,16.12-4.13,24.13C509.09,386.53,509.92,386.75,510,386.21Z"/><path class="cls-14" d="M628.88,315.65c-2.34-.5-7.64-.63-9.32-2.37a1.49,1.49,0,0,0-1.74-.25c-3.19,1.75-8.78,1-12.34,1.15-3.86.2-7.72.32-11.58.48-7.92.31-15.84.58-23.77.67a239.23,239.23,0,0,1-49.88-4.65.19.19,0,0,0-.1.36c17.75,5.63,37.55,5.35,56,5,9.8-.18,19.58-.77,29.38-1,2.92-.06,10.37-1.38,12.58.81,1.84,1.83,7.87,1.26,10.3,1.69C629.61,317.8,630.15,315.92,628.88,315.65Z"/><path class="cls-14" d="M630.47,299.23c4.78-8.53,2.36-19.21-1.54-27.59,0,0-.06,0,0,0,3.65,8.62,6,18.75,1.48,27.5C630.34,299.24,630.44,299.29,630.47,299.23Z"/><path class="cls-14" d="M519.22,200.53c12.77-.93,25-4.69,37.19-8.48,6.31-2,12.61-4,19-5.64,2.52-.66,4.76-.24,7.2-.74,3.62-.76,7.3-1.32,11-1.74,13.39-1.52,25.32,2,34.91,11.73,6,6.08,10,13.88,13.93,21.37,3.3,6.32,1.84,10.73-1.12,16.71-3.07,6.21-5.82,11.92-10.82,16.89-.32.31.18.81.48.49,6.89-7.31,14.23-15.08,15.2-25.33.37-3.83-1.56-7.68-3.28-10.95a144.1,144.1,0,0,0-7.29-12.57C628.07,191,617,183.45,603.42,181.86c-14.06-1.65-25.67,2.67-38.87,6.68-14.87,4.52-29.72,9.93-45.33,11.23C518.74,199.81,518.73,200.57,519.22,200.53Z"/><path class="cls-14" d="M507.42,362.43c-3.35,5.73-6.8,11.51-4.06,18.08,3,7.1,8.23,14.82,13.18,20.66,8.06,9.5,20.18,15.19,32.74,17.49,7.45,9.25,14.74,18.76,22.87,27.42,0,0,0,0,0,0-7-8.86-13.89-17.77-20.47-27a71.63,71.63,0,0,0,16.69.53c1.17-.11,1.58-1.85.29-2.15-7.38-1.67-15.09-1.51-22.57-2.83-9.13-1.63-16.91-4-24.18-10-6-5-9.69-11.73-14-18.13a41.28,41.28,0,0,1-4.77-8.69c-1.75-4.82,2.23-11.23,4.39-15.27A.11.11,0,0,0,507.42,362.43Z"/><path class="cls-14" d="M596.72,407.58c6.79-7.18,6.41-17.5-.42-24.43a.18.18,0,0,0-.26.26c6.74,7.44,6,16.14.37,23.94C596.28,407.53,596.56,407.74,596.72,407.58Z"/><path class="cls-14" d="M618.18,379.23c-8.83-1.48-16.78-5.35-24.89-9a99.49,99.49,0,0,0-22.88-7.15c-18-3.39-36.68-4.12-54.93-5.63-6.82-6.62-11-12.89-13.48-22.38a19.09,19.09,0,0,1-.68-8.94c.41-.55.83-1.1,1.24-1.66.25-.37-.11-.71-.47-.68a15.09,15.09,0,0,1,2.84-4.21,35.43,35.43,0,0,1,12.1-8.4c.47-.2.07-.89-.39-.7A39.67,39.67,0,0,0,503,320.21c-3.13,3.31-5,4.52-4.79,8.54-16.89,21.87-39.14,37.58-65,47.84,0,0,0,.09,0,.07,26.11-9.67,48-24.81,65.05-46.51,1.42,11.09,7.31,23.2,17.43,28.86a.46.46,0,0,0,.66-.26c17.83,2.33,35.8,3,53.57,6,8.47,1.43,16.81,3.34,24.65,6.84,7.64,3.41,15.09,6.83,23.43,8.13C618.37,379.79,618.51,379.29,618.18,379.23Z"/><path class="cls-14" d="M626.32,351.48A27,27,0,0,0,628,336.27s-.08,0-.07,0c.86,5.35-.49,10-1.91,15.11C625.93,351.61,626.24,351.68,626.32,351.48Z"/><path class="cls-14" d="M500.13,76.59c4.63-10.45,7.43-21.4,9.7-32.59.66-3.24,1-14.11,4.1-15.77a37.27,37.27,0,0,1,9.71-3.82c13.34-2.93,21.27,9.5,24.62,20.52,4.16,13.71,4.07,28.85,2,42.9-1.68,11.28-5,25.5-14.59,32.82-.47.36.14,1.17.62.83,10-7.31,13.23-21.91,15.05-33.36,2.4-15.18,2.1-31.73-2.8-46.41-3.46-10.34-10.42-20.14-22.45-19.45a23.92,23.92,0,0,0-7.84,2c-4.79,2-6.12,2.71-7.1,7.8-2.92,15.09-5.43,30-11.71,44.17C499.22,76.66,499.92,77.07,500.13,76.59Z"/><path class="cls-14" d="M454.5,165.14a46.71,46.71,0,0,0-13,16.24c-3.69,7.65-6.57,15.52-10.7,23-7.65,13.83-17.84,25-28.17,36.82C391,254.52,379.94,272,377.21,290.13c-5.61,7.12-10.76,14.57-16.64,21.5s-12.11,13.6-18.34,20.25c-5.61,6-11,12.13-16.34,18.31-.06.8-.1,1.6-.14,2.39,5.71-6.65,11.46-13.27,17.47-19.7C355,320.34,368,307.21,376.9,292.25A51.6,51.6,0,0,0,378,310.54c0,.08.15,0,.13,0a56.18,56.18,0,0,1,0-20.32c.28-.49.59-1,.85-1.45.14-.25-.22-.57-.42-.32l-.08.1c3.8-18.74,15.71-36.42,28.1-49.9,9.24-10.05,17.61-20.23,24.47-32.08,7.87-13.59,14.19-28.49,24.11-40.76A.45.45,0,0,0,454.5,165.14Z"/><path class="cls-14" d="M456.68,162.82c8.59-11,11.81-26.41,15.75-39.52,2.35-7.78,4.95-15.57,9.12-22.59,4.6-7.75,11-14.45,16.68-21.36a.22.22,0,0,0-.31-.32c-25.64,21.21-26.35,56-41.59,83.52C456.21,162.76,456.52,163,456.68,162.82Z"/><path class="cls-14" d="M561.25,454.32c-1.85-1.16-5.75,1.11-7.62,1.63-5.75,1.62-11.61,2.85-17.49,3.9a241.88,241.88,0,0,1-34.2,3.18c-11,.36-22,.17-33,0-9.82-.12-20.74-1.63-30.25,1.32-15.39,4.78-27.5,18.66-38.94,29.26-18.23,16.89-35.94,34.23-51.51,53.65-.2.25.14.61.35.36,14.6-17.79,31-34,48.11-49.41,12.88-11.6,25.67-26.34,42.41-32.22,9-3.17,20.42-1.36,29.82-1.25,10.36.13,20.72.25,31.07,0a270.6,270.6,0,0,0,28.87-2.14c5.17-.68,10.3-1.62,15.4-2.71,2.62-.56,5.21-1.22,7.79-1.9,1.32-.34,7.39-3,8.42-2.4C561.34,456.15,562.08,454.85,561.25,454.32Z"/><path class="cls-14" d="M632.82,251c-.47-.57-1.29.24-.82.81,8.39,10.22,16.84,19.21,17.56,33.09.36,6.91-.66,14.09-5,19.62-3.74,4.72-8.76,8.45-12.86,12.85-.43.46.25,1.15.68.69,4.41-4.72,9.91-8.71,13.74-13.93,4-5.4,4.62-10.84,4.74-17.41C651.09,271.87,641.69,261.84,632.82,251Z"/><path class="cls-14" d="M621.67,379.16c10.76,17.26-.8,37.32-12.62,50.62a100.77,100.77,0,0,1-9.62,9.32c-3,2.61-7.49,7.09-11.61,7.82-3.37.6-4.69,4.3-5.49,7.3-.67,2.5-16.91.22-19.21.17a.61.61,0,0,0-.16,1.2c6.53,1.93,13.62,1.66,20.37,2.17a1.53,1.53,0,0,0,1.46-1.12c1.55-4.14,2.73-7.5,6.49-9.91a89.58,89.58,0,0,0,9.1-6.67,92.56,92.56,0,0,0,17.29-19.14c8.46-12.38,13.47-28.64,4.75-42.18C622.12,378.28,621.38,378.69,621.67,379.16Z"/><path class="cls-14" d="M633.24,319.77c-.29-.21-.56.27-.28.48,8.46,6.39,7.89,19.78,7,29.25-.57,6.09-2.11,6.59-6,11.1-4.16,4.83-7.61,10.23-12.32,14.56-.55.52.25,1.29.81.83,6.64-5.47,11.61-12.31,17.22-18.76,1.71-2,1.27-6.82,1.44-9.22C641.81,338.7,641.57,325.86,633.24,319.77Z"/><path class="cls-14" d="M525.57,255.44a85.58,85.58,0,0,0,44.25,1c8.9-2.14,17.79-4.38,26.77-6.21,9.87-2,19.15-1.83,29.1-1.94a.27.27,0,0,0,.07-.53c-15.52-3.81-33.61,2.36-48.63,5.89-8.74,2.06-17.19,4.25-26.22,4.6-8.48.33-17-1.12-25.25-3.18A.19.19,0,0,0,525.57,255.44Z"/><path class="cls-14" d="M531,252.33c-5.6-8.41-7.12-18.1-7.93-28,0-.05-.08-.05-.08,0,.36,9.85,1.93,19.93,7.45,28.31C530.63,253,531.21,252.67,531,252.33Z"/><path class="cls-14" d="M524,257c.1-.1,0-.25-.16-.16-8.18,6.82-13.66,15.21-15.4,25.79-1.45,8.88.25,21.26,7.78,27,1,.73,2.42-.72,1.71-1.68s-1.78-2.66-3-3.37c-2.51-1.48-3.15-5.08-4-7.65a41.54,41.54,0,0,1-1.83-14.22C509.56,272.55,516.83,263.55,524,257Z"/><path class="cls-14" d="M515.63,314.15c-9.85,10.05-3.73,24.21-4.39,36.56,0,.36.53.35.56,0,1.16-12.44-5.58-25.85,3.94-36.44C515.82,314.19,515.7,314.07,515.63,314.15Z"/><path class="cls-14" d="M524.41,259.72c-10.19,13.57-11.86,30.42-5.91,46.09,0,.05.11,0,.09,0-6.14-16.59-2.91-31.19,5.92-46C524.55,259.72,524.45,259.67,524.41,259.72Z"/><path class="cls-14" d="M451.09,220.59c21.13-.68,43.21-2.39,61.94-13.11a.07.07,0,0,0-.07-.13c-19.28,10.16-40.51,11.76-61.87,13.07C451,220.43,451,220.6,451.09,220.59Z"/><path class="cls-14" d="M606.41,187.65c-22.77.24-46,7.64-66.39,17.44-4.8,2.3-10.34,4.2-14.74,7.14-4.56,3.06-5.91,7-7.39,11.92-2.66,8.86,2.31,20.5,5.68,28.5.22.51.95.08.75-.42-3.57-8.82-9.76-23.57-2.29-31.76,3.35-3.68,6.47-7.25,10.51-10.25,3.87-2.87,8.64-4.79,13-6.78a183.92,183.92,0,0,1,60.85-15.53C606.57,187.9,606.58,187.65,606.41,187.65Z"/></g><path class="cls-11" d="M608.51,340.5c-1.29-9.9-5.52-18-12.3-23.74a92.15,92.15,0,0,0,3.85-11.18,84.23,84.23,0,0,1,3.28-9.66l.32-.73a6.81,6.81,0,0,0,.42-4.06c-.93-4.57-6.13-26.93-19.44-34.28.51-1.11,1-2.18,1.51-3.24,3.93-8.39,7.64-16.31,2.21-30l.08.2c-6-16.87-16.4-22.39-28.39-28.79l-1.42-.76a79.28,79.28,0,0,0,3.08-21.3,5.91,5.91,0,0,0,0-.94c-1-9.42-7.8-14.69-12.83-18.54a74,74,0,0,0-19.22-12.67c-29.15-12.64-52,6.07-74.11,24.17-8.72,7.14-17.69,14.48-26.89,19.68a29.86,29.86,0,0,1-2.21-4.92,6.81,6.81,0,0,0-.42-3.07c-.45-9.39-1.38-18.85-2.28-28-1-9.89-2-20.12-2.35-30a6,6,0,0,0-.1-.95l-.6-3.29c5-10.48,4.6-27.63-1.27-46.74-5.72-18.6-17.58-41-33.74-48-7.06-3.06-20.89-5.55-34.08,12.17A6.78,6.78,0,0,0,350.34,37c.63,3.48,1.29,6.86,2,10.2,2.45,12.42,4.77,24.15,4.22,37.39l-.33,2a106.59,106.59,0,0,0-8,27.06c-1.39,10.16-.37,21.33.6,32.13,1.08,11.87,2.2,24.14,0,34.21a6.75,6.75,0,0,0-.16,1.11s0,.38,0,1a64.58,64.58,0,0,0-5.6,26c-1.83,23.73-3.12,36.18-11.88,58.33-8.48,21.36-11.48,44.6-8.12,62.55-4.14,19.14-10.57,35.74-16.81,51.81-4.06,10.47-7.9,20.35-11.14,30.89-8.17,27.34-19.46,50.11-36.55,84.58-2.64,5.34-5.41,10.93-8.33,16.86a6.77,6.77,0,0,0,1.5,8c1.1,1,27.37,24.83,69.49,43.09s75.72,21.23,77.13,21.35a6.78,6.78,0,0,0,7.06-4.79c7.48-24.6,18.93-49.85,27.22-66.69,1.06-2.15,2.19-4.58,3.39-7.17,5.88-12.65,14.77-31.78,25.44-36.17,7.36-3,14.67-5.87,21.75-8.62,28.44-11,55.32-21.49,80.68-42.13l.06,0,1.57-.63a130.71,130.71,0,0,0,19.75-6.59,6.8,6.8,0,0,0,4.18-7.52,10.64,10.64,0,0,1,.12-2,23.78,23.78,0,0,0,.2-2.59C601.09,386.09,611.19,361,608.51,340.5Z"/><path class="cls-15" d="M589.7,320.32l-1.24-3.14c4.2-7.7,5.18-15.94,8.65-24l.32-.73c-1.95-9.5-8.34-28.73-19.49-31l-1.87-1.68c5.27-14.17,11.76-19.15,6-33.78-5.88-16.41-15.67-19.79-30.36-27.89l-1.77.1c3.79-8.75,4.77-17,5-25.54-.7-6.37-5.17-10-10.38-14-47.51-42.25-77.49,14.91-117,34.16l-1.84-.21a40.3,40.3,0,0,1-6.35-12.87,1.09,1.09,0,0,1,0-.18l.33-.55-.34.37c-.78-20.13-4-40.47-4.74-60.6l-1-5.64C430,87.37,390.18-8.69,357,35.83c3.06,16.92,7.07,31.65,6.26,49.49l-.53,3.23a100.48,100.48,0,0,0-7.83,26.06c-2.8,20.44,5,46.35.45,66.89,0,0-.07,1.36-.1,3.28l-.43-.05a57.91,57.91,0,0,0-5.11,23.78c-1.87,24.3-3.28,37.55-12.36,60.47-6.93,17.46-11.58,40.62-7.49,60.1-6.83,32.62-20.06,57.55-28.38,84.59-9.63,32.21-23.51,58.24-45.29,102.5,0,0,26,23.85,67.6,41.86s75,20.82,75,20.82c6.8-22.35,17.26-46.65,27.62-67.72,6.95-14.13,16.91-40.26,32.33-46.61,36.9-15.19,70.54-24.86,101.54-50.4a.78.78,0,0,1,1-.42l2.09-.82c6.69-1.44,13-3.91,19.23-6.39-.51-2.82.76-5.74-.07-7.83C598.32,380.36,613.73,336.8,589.7,320.32Z"/><path class="cls-13" d="M418.17,209.48c7.5,1.08,17.49,14.83,21.56,23.84s3.76,41.5,9.13,52.53,2.43,22.8,3.71,29.88-4.21,26.45-4.21,26.45,7.47-10.54,10-8,14.38,28.71,14.38,28.71,8.68,11.74,28.64,22.56,34,6.78,34,6.78l31.14,8.43L545.9,388.08,565,377.51l-11.09-1.19c-25.28,11.51-42.55,6.2-42.55,6.2-8.2-2.82-22.56-14.85-22.56-14.85l-2.46-17.74s55.11-21.78,68.74-23.12c10.78-1.06,23.56-2.6,28.44-3.2-6.59.61-21.66.58-28.34-.38-7.51-1.08-19.75,3.76-19.75,3.76-10.93,1.79-46.69,12.39-46.69,12.39l-11-4.77-4.34-8.4c-5.39-6-8.21-19.51-8.21-19.51l3.94-4.09c25.62-5.57,56.23-17.66,69.54-24.95s29.84-15.33,29.84-15.33l-8,.14c-3.85.51-27.57,13.42-45.67,20.07S472,294.42,472,294.42l-4.88-2.12c-16.43-17.27-12.93-40.4-12.93-40.4,32.26-9.21,48-22,56.37-31.38s31.88-21.7,31.88-21.7c-8.56,1.36-27.3,12.81-37,20.19s-29.68,18.31-29.68,18.31a47,47,0,0,1-17-.86C448.29,232,445,221.12,440.5,214.81s3.4-19.55,3.4-19.55c28.26-33.41,60-46.47,60-46.47l14-4.6c-33.26-6.37-58.77,33.28-90.38,48.67l-1.84-.21a48.86,48.86,0,0,1-3.52-5.77,3.16,3.16,0,0,0,.18,1.22C424.44,193.35,418.17,209.48,418.17,209.48ZM386.57,437.9c6.77,9.46,23.15,20.18,23.15,20.18-4.62-2.72-37.18-48-37.18-48S379.8,428.44,386.57,437.9ZM583.5,323.61c.82-.07,1.53-.16,2-.25Zm-98.64,125s45.31-15.88,67.75-35.87l9-4.07-22.52-3.24S508.6,430.63,484.86,448.61Zm-66.72-43.42c-2-15.37,20.19-44.89,20.19-44.89s-21.48,21.13-31.62,21.09-33.48-13.06-57.28-45.13c-11.16-15-8.51-38.05-4.14-55,2.63-10.24,6.56-20.19,10.24-30.09,2.33-6.27,6.69-14.13,6.57-21-.14-8,2.37-22.17,8.65-43.37s10.18-53.58,10.18-53.58c-3.13-2.81-8.36-27.54-6.62-44.91s-7.55-34.45-10-47.12c-2.29-11.68,9-16.25,10.73-16.89-6,.2-12.09,3.65-18,11.58,3.06,16.92,7.07,31.65,6.26,49.49l-.53,3.23a100.48,100.48,0,0,0-7.83,26.06c-2.8,20.44,5,46.35.45,66.89,0,0-.07,1.36-.1,3.28l-.43-.05a57.91,57.91,0,0,0-5.11,23.78c-1.87,24.3-3.28,37.55-12.36,60.47-6.93,17.46-11.58,40.62-7.49,60.1-3.35,16-8.25,30.19-13.36,43.67,7-4.89,13.47-8.94,17.09-10,10-2.93,71.1,80.12,85.5,103.76,11.56,19-18,85.49-30.17,111,6.27,1,9.87,1.34,9.87,1.34,6.8-22.35,17.26-46.65,27.62-67.72,6.95-14.13,16.91-40.26,32.33-46.61,9.41-3.88,18.6-7.39,27.59-10.9C439.05,455,420,419.49,418.14,405.19Z"/><path class="cls-14" d="M330.27,329.08c.07-.55.18-1.1.24-1.66,0-.29-.42-.44-.51-.14a.5.5,0,0,0,0,.13c-3.47-18.81,1-39.66,7.43-56.78,4.82-12.78,8.79-25.35,10.72-38.91,2.23-15.54,2.53-31.72,7.15-46.81a.46.46,0,0,0-.84-.36,46.75,46.75,0,0,0-6,19.93c-.57,8.48-.29,16.85-1.34,25.32-1.93,15.69-7.21,29.87-12.38,44.68-5.84,16.72-9.54,37-5.29,54.89-2.54,8.7-4.53,17.53-7.41,26.15s-6.15,17.15-9.44,25.63c-6.06,15.6-11,31.46-16.63,47.2-10.82,30.36-26.73,58.44-40.48,87.49-.46,1,1.05,1.61,1.54.66C271.55,488,286.37,459,297.25,428.93c5.68-15.71,10.55-31.62,16.59-47.21,6.22-16,13.4-33.07,16.07-50.27A51.49,51.49,0,0,0,337.73,348a.06.06,0,0,0,.1-.08A55.94,55.94,0,0,1,330.27,329.08Zm25.31-147.49c3.85-13.44,1.09-28.91-.14-42.54-.74-8.1-1.23-16.3,0-24.36,1.38-8.91,4.79-17.51,7.5-26a.22.22,0,0,0-.41-.17c-15.86,29.24-3.53,61.77-7.39,93C355.12,181.71,355.51,181.84,355.58,181.59Zm8.1-96.22c.4-11.43-1.1-22.63-3.17-33.85-.6-3.26-4.31-13.48-2.08-16.16A36.83,36.83,0,0,1,366,28.19c11.28-7.7,23.27.87,30.5,9.84,9,11.16,14.55,25.24,17.86,39.05,2.66,11.09,4.85,25.53-1.28,35.89-.3.51.58,1,.89.54,6.5-10.5,4.1-25.26,1.5-36.56-3.43-15-9.9-30.23-19.93-42-7.06-8.3-17.18-14.79-28.08-9.66A23.94,23.94,0,0,0,360.93,30c-3.69,3.67-4.67,4.79-3.68,9.88,2.93,15.09,6.17,29.88,5.64,45.35C362.87,85.78,363.66,85.89,363.68,85.37Zm54.69,85.46c.22,3.22-.35,6.48.09,9.63-3.46,4.93-6.62,9.39-11.93,12.8,0,0,0,.11.06.07a34.55,34.55,0,0,0,12-11.88.38.38,0,0,1,0,.1c1.24,5.32,4.14,9.23,7.83,13.12.42.43,1.37.07,1-.57A128.18,128.18,0,0,1,421,181c-2.56-6.37-1.93-14.72-2.56-21.53-1.23-13.53-2.95-27-3.74-40.61,0-.12-.19-.09-.18,0,.36,14.39,1.9,28.63,3.17,43Q418.06,166.32,418.37,170.83Zm9.31,22.39c11.5-5.64,21.47-13.71,31.33-21.77,5.12-4.18,10.23-8.37,15.52-12.32,2.1-1.56,4.34-2,6.41-3.38,3.07-2.05,6.28-3.95,9.53-5.71,11.85-6.41,24.24-7.58,36.76-2.15,7.84,3.4,14.47,9.13,20.91,14.62,5.41,4.62,5.71,9.26,5.2,15.92-.53,6.9-1,13.22-3.73,19.7a.34.34,0,0,0,.63.28c3.66-9.35,7.57-19.31,4.64-29.18-1.09-3.68-4.32-6.54-7.13-8.92a143.49,143.49,0,0,0-11.47-8.95c-11.19-7.64-24.32-10.49-37.46-6.91-13.67,3.72-22.82,12.06-33.57,20.71-12.11,9.75-23.86,20.31-37.85,27.35C427,192.73,427.23,193.43,427.68,193.22Zm24,46.05c-6.61-6.85-17.86-18.22-14-28.61,1.73-4.66,3.3-9.14,5.93-13.43,2.51-4.11,6.22-7.67,9.53-11.15A184,184,0,0,1,503.84,149c.15-.08.06-.31-.09-.24-21,8.72-39.85,24.27-55.08,41-3.59,3.94-8,7.76-11,12.13-3.09,4.55-2.88,8.67-2.41,13.82.85,9.22,9.81,18.16,15.92,24.32C451.57,240.33,452.09,239.66,451.72,239.27Zm92.43-42c-15.82,2.26-30.29,14.74-42.91,23.63-7.34,5.17-14.36,10.36-22.6,14.05-7.75,3.48-16.23,5.33-24.61,6.48a.19.19,0,0,0,0,.37,85.57,85.57,0,0,0,41.43-15.59c7.46-5.31,14.87-10.71,22.51-15.75,8.41-5.55,17.08-8.86,26.27-12.67A.27.27,0,0,0,544.15,197.25Zm-86.23,39.62c-8.34-5.71-13.36-14.12-17.81-23,0,0-.09,0-.07,0,4,9,9.23,17.77,17.48,23.48C457.86,237.62,458.27,237.11,457.92,236.87Zm7.74,58.71a1.25,1.25,0,0,0,.95-2.2c-1.17-.71-2.64-1.8-4-2-2.88-.44-4.82-3.54-6.54-5.61a41.7,41.7,0,0,1-7-12.51c-3.42-9.62,0-20.69,4.18-29.42.06-.13-.14-.21-.21-.09-5.05,9.38-7,19.22-4.65,29.68C450.32,282.19,456.52,293.05,465.66,295.58Zm4.11-.57a.19.19,0,0,0,.05.37c18.56-1.41,36.83-9.06,53.77-16.25,9-3.83,17.87-8,26.88-11.87,2.69-1.15,9.11-5.17,12-4,2.39,1,7.77-1.77,10.2-2.27,1.24-.26,1-2.21-.24-2-2.36.42-7.32,2.27-9.54,1.29a1.44,1.44,0,0,0-1.7.42c-2.31,2.81-7.79,4.17-11,5.67-3.51,1.62-7,3.18-10.57,4.76-7.23,3.25-14.47,6.46-21.79,9.51A238.84,238.84,0,0,1,469.77,295Zm81.69-96.3c11.61,6.34,22.8,11.53,28.65,24.13,2.91,6.27,4.65,13.31,2.64,20.09-1.7,5.77-5,11.11-7.13,16.72-.22.58.67,1,.89.39,2.33-6,5.94-11.79,7.55-18.06,1.65-6.48.23-11.78-2.11-17.92-5.3-13.91-17.77-19.71-30-26.42C551.27,197.29,550.82,198.35,551.46,198.71ZM577.9,261.8c10.24,2.77,14.71,15.4,17.42,24.51,1.74,5.87.5,6.9-1.41,12.53-2,6-3.23,12.33-6,18.11-.33.69.71,1.11,1.06.46,4.11-7.55,6.17-15.74,9-23.83.86-2.46-1.37-6.8-2.1-9.08C593,275.6,588,263.79,578,261.24,577.63,261.16,577.56,261.71,577.9,261.8Zm6.25,144.51c-.11-4.42-.27-8,2.32-11.62a91.61,91.61,0,0,0,5.95-9.58,92.74,92.74,0,0,0,8.89-24.22c3.22-14.65,1.81-31.59-11.35-40.9-.44-.32-1,.34-.53.67,16.42,12,13.19,34.92,7.19,51.67a101.31,101.31,0,0,1-5.44,12.24c-1.85,3.55-4.3,9.37-7.85,11.59-2.9,1.81-2.74,5.74-2.36,8.82.3,2.57-15.61,6.52-17.76,7.33a.62.62,0,0,0,.3,1.18c6.78-.66,13.25-3.55,19.7-5.6A1.52,1.52,0,0,0,584.15,406.31ZM483.62,341.54a.47.47,0,0,0,.52-.5c17.41-4.49,34.34-10.55,51.94-14.41,8.39-1.84,16.84-3.19,25.42-2.87,8.37.31,16.55.7,24.78-1.21.32-.08.26-.59-.07-.52-8.74,1.93-17.56,1.3-26.44,1a99.38,99.38,0,0,0-23.9,1.9c-18,3.59-35.56,9.88-53.06,15.29-8.8-3.58-15-7.87-20.86-15.72a19,19,0,0,1-4-8c.17-.67.36-1.33.52-2,.1-.44-.36-.62-.69-.46a15.32,15.32,0,0,1,1.06-5A35.35,35.35,0,0,1,467,296.69c.37-.37-.26-.86-.62-.51a39.59,39.59,0,0,0-9,14.12c-1.67,4.24-2.91,6-1.26,9.71-7.5,26.59-22.27,49.48-42.39,68.64,0,0,0,.09,0,.05,20.6-18.72,35.29-40.95,43-67.43C462.14,331,472.12,340.06,483.62,341.54ZM454.71,246.2c0-.07-.09-.08-.11,0-4.39,16.38.36,32.64,11.73,44.95,0,0,.11,0,.07-.05C454.5,278,452.06,263.23,454.71,246.2ZM466.93,300a.09.09,0,0,0-.16-.07c-5.38,13,5.59,23.85,9.59,35.56.12.34.62.13.52-.21C473.31,323.32,462.05,313.41,466.93,300Zm13.26,66.08c5.4,5.48,13.16,10.67,19.93,14.24,11,5.81,24.39,6.55,36.91,4,10.36,5.8,20.68,11.89,31.45,16.89,0,0,0,0,0,0-9.85-5.58-19.53-11.3-29.06-17.38a71.38,71.38,0,0,0,15.67-5.75c1-.53.77-2.3-.53-2.09-7.47,1.2-14.56,4.23-22,5.79-9.08,1.9-17.17,2.63-26.17-.23-7.46-2.37-13.36-7.26-19.71-11.6a41,41,0,0,1-7.67-6.28c-3.43-3.82-2.14-11.25-1.64-15.81a.1.1,0,0,0-.2,0C476.23,354.37,475.19,361,480.19,366.1Zm2.27-21c.91,8.15,3.66,15.9,5.18,23.93.1.54.95.44.85-.1-1.55-8-4.34-15.78-5.27-23.92A.38.38,0,0,0,482.46,345.07Zm79,67.88c-2.16-.39-4.92,3.17-6.46,4.35a177.17,177.17,0,0,1-14.77,10.15,240.58,240.58,0,0,1-30.54,15.72c-10.06,4.44-20.34,8.38-30.58,12.36-9.16,3.55-19.86,6.23-27.58,12.52C439,478.23,433,495.63,426.33,509.74c-10.6,22.48-20.56,45.18-27.75,69-.09.3.36.51.46.2,6.9-22,16.08-43.14,26.18-63.8,7.61-15.57,14-34,27.3-45.73,7.18-6.3,18.44-8.89,27.21-12.3,9.65-3.75,19.3-7.5,28.82-11.59a270.54,270.54,0,0,0,26-12.76c4.55-2.56,9-5.35,13.28-8.27,2.22-1.49,4.37-3.07,6.52-4.66,1.09-.81,5.72-5.56,6.91-5.38A.76.76,0,0,0,561.45,413Zm-189-3.17a0,0,0,1,0,0,0c12.42,16.75,23.94,34.3,38.2,49.59.13.13.37,0,.24-.18C397.38,443.29,385.19,426.36,372.5,409.78Zm78.91,49.58c-15-2.8-27.47-8.32-38.44-19.09-10.82-10.62-18.21-24.45-25.19-37.73a0,0,0,1,0-.07,0c13,26.56,31.42,54.27,63.63,57.23A.22.22,0,0,0,451.41,459.36ZM408.24,120.54a69.79,69.79,0,0,1-18.5,11.23C396.63,129.89,402.78,125.28,408.24,120.54Zm-20.27,12c.61-.22,1.18-.48,1.77-.72-.6.17-1.21.37-1.83.49A.12.12,0,1,0,388,132.49Zm23.73-14.9s0-.09-.05-.06c-1.1,1-2.25,2-3.41,3C409.39,119.59,410.55,118.62,411.7,117.59Zm12.71,84.29c-14.08,16.62-33.18,26-52.5,35.23-.09,0,0,.2.06.16,19.35-8.53,39.19-18.36,52.56-35.3C424.59,201.9,424.48,201.81,424.41,201.88Zm143.22,41.33c0,.07.1.09.11,0,1.24-9.7-5-18.7-11.73-25,0,0-.06,0,0,0C562.59,224.88,568.51,233.42,567.63,243.21Zm15.44,50.08c0,.22.33.17.33,0a27,27,0,0,0-4.14-14.74s-.09,0-.06.05C582,283.21,582.48,288,583.07,293.29Zm-15.69,40.54a.19.19,0,0,0-.15.34c9,4.39,11.55,12.75,9.29,22.07,0,.22.29.31.37.11C580.51,347.15,576.31,337.72,567.38,333.83Z"/><path class="cls-16" d="M497.23,36.79a44.51,44.51,0,0,0-14.1-9.37,77.62,77.62,0,0,0-19-5.62c-12.91-2.12-27.2-1.8-39,4.35A30.32,30.32,0,0,0,411.22,40.4a2.79,2.79,0,0,0,1,3.7,2.72,2.72,0,0,0,3.7-1,27.1,27.1,0,0,1,2-3.67c.17-.27.35-.53.54-.8l.35-.48c.25-.34-.24.3,0,0,.41-.53.86-1,1.31-1.54a27.47,27.47,0,0,1,3.07-2.84c.32-.27-.31.23,0,0l.39-.29.78-.56c.61-.41,1.22-.8,1.85-1.18A37.91,37.91,0,0,1,430,29.81c.27-.13.75-.32,1.46-.59s1.46-.52,2.19-.75c1.42-.45,2.86-.83,4.32-1.15.74-.16,1.48-.3,2.23-.43l1.07-.18.53-.08.23,0a66.53,66.53,0,0,1,9.57-.54c1.6,0,3.21.09,4.81.21.75.06,1.51.13,2.26.21l1.13.12.56.07s.87.12.41,0a77.25,77.25,0,0,1,18.13,4.74c1.17.46,2.54,1.07,4.05,1.83s2.75,1.44,4.06,2.26c.67.41,1.32.84,2,1.28l.83.6.46.34c-.3-.22-.13-.1.07.06a34,34,0,0,1,3.09,2.79c2.43,2.51,6.26-1.32,3.83-3.83Z"/><path class="cls-16" d="M494.57,23.06c.06,6.39.12,12.8,1.26,19.11l2-2.57c-4-.08-8.07-.54-12.12-.58A35.47,35.47,0,0,0,473.24,41a2.08,2.08,0,0,0-1.42,2.49,2,2,0,0,0,2.5,1.42c7.68-2.77,15.53-1.36,23.47-1.21a2.06,2.06,0,0,0,2-2.57c-1.08-5.94-1.06-12-1.12-18,0-2.61-4.08-2.62-4.06,0Z"/><path class="cls-17" d="M426.38,69.09c7.44,6.5,17.94,9.07,27.56,9.87,10.2.85,21.59-.4,30.4-6a24.51,24.51,0,0,0,10.2-12.54c.93-2.62-3.23-3.75-4.15-1.15a19.7,19.7,0,0,1-7.31,9.37,33.91,33.91,0,0,1-12.57,5.14,58.39,58.39,0,0,1-28.95-1.48,40.63,40.63,0,0,1-6.74-2.68c-1-.54-2.07-1.13-3.05-1.77a17.84,17.84,0,0,1-2.35-1.78c-2.08-1.82-5.13,1.22-3,3Z"/><path class="cls-17" d="M429.51,80.05A88,88,0,0,0,427.3,65l-1.55,2c3.26-.2,6.54-.09,9.8-.34a29,29,0,0,0,9.95-2.46,1.62,1.62,0,0,0,.58-2.21,1.66,1.66,0,0,0-2.21-.58c-5.74,2.62-12,2-18.12,2.37a1.63,1.63,0,0,0-1.56,2,83.88,83.88,0,0,1,2.1,14.2,1.65,1.65,0,0,0,1.61,1.62,1.62,1.62,0,0,0,1.61-1.62Z"/></g></g></svg>